<svg xmlns="http://www.w3.org/2000/svg" width="600" height="600" viewBox="0 0 600 600"><path opacity=".1" d="M184.02 418.133c-9.068 11.38-23.044 27.746-23.044 22.717 0-6 1.333-56.666 0-75.333s-1.334-17.333-2.667-33.333-1.334-78.667-3.334-98.667c-1.862-18.62-15.853-50.516-17.774-54.83-.014-.01-.013-.02-.013-.03l-.034-.074c-.592-.023-1.183-.033-1.773-.03-2.058 3.268-4.015 5.66-5.712 6.33 0 0 2.563 70.134 2.563 83.634v25.367c0 11.133.877 42.633-2.562 46.633-3.437 4-6.937 17.5-11.437 0s-22-66.5-25-84-4-20.5-4-20.5-4 9 0 26.5 7 30.435 7 32.717-4.555-8.217-8.777-14.717 1.777 24 3.277 26.5 4.5 4.716 4.5 4.716 18.992 29.284 18.746 42.784 7.253 21.5 6.753 30-17-31.5-19-35 0 24.5 3 34 6.492 4 9.246 17.5 3.753 18.5 3.753 28.5-5.5 31-6 40.5-4 8-6 18-3 5-2.5 15 6.87-8 5.934 9c-.934 17-1.934 19.5-5.934 25s-5.602 19.4-5.602 19.4l.167.22c5.77-.044 11.533-.102 17.305.087 1.2.04 2.33.058 3.414.033-.244-.62-.383-1.29-.383-1.99v-8.75c0-.307.03-.606.082-.9-.186-1.12.06-2.375.934-3.675 3.185-4.752 4.104-10.285 5.118-15.797-.168-1.736-.246-3.483-.158-5.253.215-4.367 1.95-8.48 2.023-12.875.145-8.56-.477-17.02.39-25.506-.058-.24-.108-.484-.14-.743-1.945-16.012-2.068-32.182-1.115-48.27.88-14.837 3.05-29.593 2.865-44.48-.012-.957.18-1.782.512-2.485.047-1.906.342-3.726.807-5.492.52-3.514 1.154-7.008 2.012-10.467.242-.97.86-1.522 1.582-1.744.828-4.44 2.285-8.685 3.668-13.007.16-.495.422-.87.736-1.155.154-.265.36-.48.598-.655.13-2.47.42-4.924 1.076-7.353.26-.96.818-1.587 1.498-1.938v-.455c0-3.368 5.223-3.368 5.223 0v5.25c0 1.013-.477 1.715-1.137 2.12-.135 1-.215 2.006-.264 3.015.662.404 1.14 1.105 1.15 2.115.01 1.152.09 2.302.156 3.45.21.357.338.787.344 1.3.066 7.007.91 13.99.5 21-.045.774-.36 1.366-.812 1.782.018.152.035.306.04.467.394 10.328.804 20.697-.036 30.982.348.71.55 1.545.545 2.517-.005 1.09-.04 2.18-.1 3.266.77 1.134 1.165 2.566.9 4.223-1.786 11.235 1.876 22.527-1.478 33.668.625.852.986 1.964.928 3.344-.334 7.84 1.75 15.472-.2 23.238-.06.247-.136.48-.22.704.637 7.376 4.37 14.062.656 21.383-.08.155-.172.284-.258.426-.156 14.528-1.223 29.327-2.514 43.78-.666 7.466-1.69 14.936-1.895 22.437-.12 4.372.204 8.76.226 13.135.47.25.922.546 1.314.938.098.1.205.19.305.288 3.963-.028 7.81.062 11.762.62 1.156-.806 2.676-1.13 4.463-.598 1.72.513 3.464.893 5.224 1.18.325-10.656-1.135-25.318-1.135-28.28 0-4 2-20 0-35.335s1.332-30 10.422-57.666c.533-1.623 1.097-3.112 1.68-4.506-.062-.495-.105-.993-.105-1.495 0-.468.042-.908.097-1.34-.438.062-.88.033-1.31-.076-2.527 3.326-4.868 6.33-6.36 7.415-5.5 4 12.362-28.05 15.528-41.957.528-2.324.367-5.19-.24-8.43zM415.167 418.133c9.07 11.38 23.045 27.746 23.045 22.717 0-6-1.333-56.666 0-75.333s1.334-17.333 2.667-33.333 1.332-78.667 3.332-98.667c1.862-18.62 15.853-50.516 17.774-54.83.014-.01.013-.02.013-.03.01-.02.023-.054.032-.074.592-.023 1.183-.033 1.773-.03 2.058 3.268 4.015 5.66 5.712 6.33 0 0-2.562 70.134-2.562 83.634v25.367c0 11.133-.877 42.633 2.562 46.633 3.438 4 6.938 17.5 11.438 0s22-66.5 25-84 4-20.5 4-20.5 4 9 0 26.5-7 30.435-7 32.717 4.555-8.217 8.777-14.717-1.777 24-3.277 26.5-4.5 4.716-4.5 4.716-18.992 29.284-18.746 42.784-7.255 21.5-6.755 30 17-31.5 19-35 0 24.5-3 34-6.492 4-9.246 17.5-3.755 18.5-3.755 28.5 5.5 31 6 40.5 4 8 6 18 3 5 2.5 15-6.87-8-5.934 9c.935 17 1.935 19.5 5.935 25s5.602 19.4 5.602 19.4l-.166.22c-5.77-.044-11.532-.102-17.304.087-1.2.04-2.33.058-3.414.033.244-.62.383-1.29.383-1.99v-8.75c0-.307-.03-.606-.082-.9.186-1.12-.06-2.375-.934-3.675-3.187-4.752-4.106-10.285-5.12-15.797.168-1.736.246-3.483.158-5.253-.215-4.367-1.95-8.48-2.023-12.875-.145-8.56.477-17.02-.39-25.506.058-.24.108-.484.14-.743 1.945-16.012 2.068-32.182 1.115-48.27-.88-14.837-3.05-29.593-2.865-44.48.012-.957-.18-1.782-.512-2.485-.047-1.906-.342-3.726-.807-5.492-.52-3.514-1.154-7.008-2.012-10.467-.242-.97-.86-1.522-1.582-1.744-.828-4.44-2.285-8.685-3.668-13.007-.16-.495-.422-.87-.736-1.155-.154-.265-.36-.48-.598-.655-.13-2.47-.42-4.924-1.076-7.353-.26-.96-.818-1.587-1.498-1.938v-.455c0-3.368-5.223-3.368-5.223 0v5.25c0 1.013.477 1.715 1.137 2.12.135 1 .215 2.006.264 3.015-.662.404-1.14 1.105-1.15 2.115-.01 1.152-.09 2.302-.156 3.45-.21.357-.338.787-.344 1.3-.066 7.007-.91 13.99-.5 21 .045.774.36 1.366.812 1.782-.018.152-.035.306-.04.467-.394 10.328-.804 20.697.036 30.982-.348.71-.55 1.545-.545 2.517.006 1.09.04 2.18.1 3.266-.77 1.134-1.164 2.566-.9 4.223 1.787 11.235-1.875 22.527 1.48 33.668-.626.852-.987 1.964-.93 3.344.335 7.84-1.75 15.472.2 23.238.062.247.137.48.22.704-.636 7.376-4.368 14.062-.655 21.383.08.155.172.284.258.426.156 14.528 1.223 29.327 2.514 43.78.666 7.466 1.69 14.936 1.895 22.437.118 4.372-.206 8.76-.228 13.135-.47.25-.922.546-1.314.938-.098.1-.205.19-.305.288-3.963-.028-7.81.062-11.762.62-1.155-.806-2.675-1.13-4.462-.598-1.72.513-3.464.893-5.224 1.18-.325-10.656 1.135-25.318 1.135-28.28 0-4-2-20 0-35.335s-1.334-30-10.424-57.666c-.533-1.623-1.097-3.112-1.68-4.506.062-.495.105-.993.105-1.495 0-.468-.04-.908-.096-1.34.438.062.88.033 1.31-.076 2.527 3.326 4.868 6.33 6.36 7.415 5.5 4-12.362-28.05-15.528-41.957-.53-2.324-.367-5.19.24-8.43zM230.337 62.524s1.148 38.492 11.165 52.242 54.542 72.393 57.655 111.32l-.014-21.077s-26.875-64.495-41.625-88.995-19.276-55.33-18.898-59.18l-8.283 5.69zM368.85 62.524s-1.147 38.492-11.164 52.242-54.542 72.393-57.655 111.32l.015-21.077s26.875-64.495 41.625-88.995 19.276-55.33 18.898-59.18l8.283 5.69zM251.553 11.187s-10.482 23-9.307 25.04c1.174 2.04.27 21.583 4.607 27.04s7.848 20.28 15.023 23.224c7.174 2.944 17.293 3.777 17.293 3.777s10.25 26.75 13.5 49 8.5 69.25 8.5 69.25 6.737-96 20.493-117.75c0 0 2.957-.724 9.912-2.25s30.57-16.75 24.457-59.5v-6.25l-4.863-8.5-3-3.08h-6.5s-25.253.645-32.75 0-18.75.92-21.25 0-22.5-.16-22.5-.16-9.486-1.17-13.617.16z"/><g fill="#fff"><path d="M301.827 207.877c-.383-4.1-9.54-100.625-23.125-119.245l-.45-.614h-.76c-.196 0-19.59-.226-26.116-16.072-7.88-19.135-9.3-35.02-4.59-51.242 1.44-2.31 3.102-4.428 5.05-6.052 1.304-1.095 2.745-1.907 4.237-2.26.39-.117.72-.146 1.037-.19.084-.013.152-.03.252-.04l.36-.004.726-.01 2.787.047c6.94.108 11.852.155 15.113.07 3.26-.088 4.852-.416 5.217-.825l2.877-.056 2.947-.058c1.07 0 2.212 0 3.353-.002h9.207v-.79l.383.008c-.17-.05-.242-.096-.383-.144V8.98h-1.213c.082-.1.145-.192.27-.296-2.712.025-5.294.05-7.786.072l-3.675.046c-1.215.04-2.414.077-3.6.114-2.355.063-4.67.17-6.97.18l-6.935-.065c-2.705-.153-5.46-.275-8.264-.372l-2.107-.068-1.06-.03h-1.158c-1.71.077-3.33.543-4.785 1.268-2.934 1.473-5.182 3.83-6.996 6.345-1.83 2.53-3.27 5.29-4.51 8.13-1.522 3.452-2.84 7.09-3.894 11.367l-.16.71c-.05.246-.1.546-.125.755l-.188 1.36-.34 2.76-.654 5.45c-.23 1.81-.443 3.628-.707 5.422-.122.902-.25 1.8-.41 2.677l-.224 1.32-.283 1.19-.035.15-.014.06-.125.29-.07.16c-.02.032-.036.042-.054.066-.033.04-.062.083-.09.13-.156.223-.424.512-.693.765-.572.52-1.283 1.008-2.035 1.51-.758.522-1.56.992-2.426 1.824-.21.188-.44.49-.645.79-.104.19-.197.387-.28.585-.05.146-.08.312-.108.48l-.005.005-.143.153-.205.184c-1.207 1.025-2.805 1.998-4.334 2.897-1.555.903-3.152 1.76-4.766 2.58-6.834 3.444-15.16 6.754-22.135 8.55l-.398.1c-.107.033-.215.066-.318.1-.21.065-.412.13-.61.194-.395.132-.78.26-1.177.39-3.567 1.103-6.84 2.582-10.054 4.142-1.6.794-3.18 1.622-4.756 2.456-1.553.87-3.13 1.703-4.662 2.607-6.166 3.56-12.17 7.39-18.084 11.416 0 0-1.943 1.274-3.857 2.594l-3.826 2.644-2.313 1.427c-5.348 3.266-9.512 6.07-13.967 9.49-1.084.86-2.193 1.743-3.352 2.662-1.146.962-2.36 1.947-3.592 3.037-2.486 2.153-5.176 4.634-8.137 7.724-1.603 1.712-3.19 3.473-4.66 5.453-.724 1.007-1.448 2.023-2.07 3.218-.493.982-1.01 2.01-1.228 3.39-1.445 1.472-2.633 2.955-3.88 4.505l-1.962 2.696-1.82 2.797c-.623.926-1.123 1.924-1.69 2.885-.56.965-1.108 1.938-1.575 2.955l-1.47 3.018c-.485 1.096-.85 2.035-1.282 3.06-3.26 8.254-6.15 16.442-9.04 24.692C80.51 204.61 75.22 221.01 70.89 236.7c-1.96 7.146-3.76 13.707-5.508 20.403l-.752 2.515-1.906 6.653c-.395 1.377-.82 2.87-1.27 4.447l-1.344 4.986c-.46 1.73-.94 3.52-1.424 5.335-.45 1.828-.91 3.684-1.37 5.54-.228.93-.456 1.857-.685 2.782-.2.934-.4 1.863-.6 2.786-.382 1.848-.806 3.653-1.134 5.425l-.828 5.147c-.25 1.658-.36 3.18-.527 4.606-.32 2.84-.524 5.223-.677 6.888s-.238 2.617-.238 2.617c-.453 3.13-.793 6.337-.926 9.81-.456.396-.952 2.84-1.44 6.462-.467 3.62-.926 8.42-1.342 13.52-.793 10.2-1.367 21.605-1.512 27.218.074.493.21-.045.293.37-.38 6.045-.82 15.61-1.313 24.68-.465 9.072-.926 17.65-1.402 21.716.135 4.094.08 9.012.242 12.508 0 0-.168 3.81-.338 7.618l-.28 7.62c-.658 4.94-1.508 8.368-1.986 14.522 1.133 4.037.678 19.073.594 27.68-.062 3.87-.31 9.936-.31 15.77-.067.388-.136.64-.214.586-.07 2.537-.08 4.988-.068 7.44.012 1.225.02 2.45.033 3.687.032 1.237.067 2.486.104 3.757-.043-.167-.09-.383-.148-.812.012 7.4.29 13.263 1.152 15.41l.21 4.39c-.003 1.79-.003 3.48-.005 5.125-.014 1.646-.03 3.25.06 4.875.126 3.248.286 6.575.585 10.458l.13 1.676 1.765-.013 1.957-.015c9.127-.166 18.957-.965 28.29-1.57 5.42-.315 9.01-.68 12.39-1.033 5.088-.287 10.166-.752 15.246-1.166 2.543-.185 5.076-.482 7.613-.752l7.606-.82 1.023-.108-.122-1.038-1.46-12.662c.1-.175.206-.352.3-.522 2.12-3.706 3.473-7.574 4.395-11.485.2-.984.475-1.953.602-2.944l.404-2.966c.257-1.904.42-3.865.685-5.77.508-3.793 1.105-7.723 1.578-11.78.4-4.078.756-8.31.69-12.766-.01-1.1.01-2.253-.02-3.44l-.194-3.652c-.124-2.458-.25-5.004-.376-7.523l-.203-3.752c-.034-1.228-.07-2.435-.103-3.607-.08-2.345-.188-4.55-.332-6.507-.01-.116-.016-.188-.023-.305l-.02-1.448c.006-.948.012-2.34.02-4.108.048-3.54-.01-8.595.147-14.662.06-3.034.128-6.32.196-9.797.078-3.477.23-7.14.35-10.93l.195-5.774c.097-1.95.192-3.922.29-5.91.225-3.973.336-8.022.674-12.046.146-2.014.295-4.028.44-6.034.073-1.003.147-2.004.222-3.002.115-.99.232-1.975.348-2.956.23-1.964.46-3.912.684-5.836.377-1.906.746-3.79 1.11-5.64 1.65-7.342 3.618-14.103 5.6-19.83 1.91-5.74 3.737-10.445 5.04-13.72.467-1.16.87-2.118 1.2-2.888.136 1.894.315 3.76.505 5.653.35 3.495.71 7.11.79 11.26.226 11.458.278 87.745 0 101.94-.1 5.022.105 12.798.317 21.03.367 14.174.783 30.24-.12 38.332-.714 6.39-6.882 62.56-3.683 67.04.844 1.18 2.12 2.964 54.994 3.94 25.446.468 58.675.687 104.57.687h1.5v-384l-.003-.143zm-71.404-143.5c.033-.062.145-.152.225-.234.768-.7 2-1.418 2.842-2.028.87-.606 1.44-1.13 1.44-1.13l.33-.204s-.587.594-1.493 1.227c-.88.64-2.146 1.37-3.01 2.086l-.262.25c-.037.065-.13.147-.137.182-.002.02-.02.03-.055.026.006-.006.014-.015.016-.02-.007-.016.044-.082.103-.152zm-2.04 2.714c.218-.18.446-.344.7-.577.13-.123.25-.214.393-.37l.21-.232c.042-.048.058-.056.12-.14.064-.088.125-.183.182-.28s.107-.2.152-.304l.062-.154.018-.062.03-.116.01-.03v-.006l.003-.003c-.082-.133.18.29-.18-.296l.21.3-.003.006-.006.015-.008.03c-.033.1-.01.09-.13.365-.095.21-.222.42-.353.593l-.22.24c-.15.17-.282.283-.41.4-.267.246-.503.414-.73.598-.89.667-1.49 1.04-1.49 1.04s.58-.367 1.44-1.015zm70.45 521.927c-98.168-.012-150.523-1.19-155.664-3.5-1.472-4.236 1.497-40.073 4.263-64.833.4-3.575.55-8.617.56-14.334 5.33-6.113 8.395-19.474 10.474-30.557 1.926-10.275 15.336-32.973 19.004-37.308 3.765-4.45 13.804-27.394 14.23-28.368l.52-1.19-8.23-5.106v2.697c0 3.517-4.356 12.854-12.952 27.75-2.115 3.664-4.188 6.978-6.193 10.182-6.115 9.772-11.398 18.213-13.332 29.82-1.1 6.592-2.508 12.12-3.73 16.23-.063-2.878-.14-5.756-.212-8.56-.21-8.198-.41-15.94-.313-20.895.277-14.21.225-90.587 0-102.06-.084-4.27-.45-7.943-.807-11.497-.63-6.33-1.23-12.31.07-20.23 1.143-6.973.72-19.008.275-31.75-.37-10.657-.756-21.678-.307-30.92 1-20.487-13.428-78-14.043-80.44l-2.908.734c.148.593 14.934 59.515 13.955 79.56-.457 9.368-.07 20.452.305 31.17.44 12.59.855 24.48-.238 31.16-.782 4.768-.903 8.822-.75 12.653l-.987-.495-.432.952c-.282.607-.66 1.47-1.073 2.493-.87 2.047-1.924 4.804-2.98 7.562-.99 2.78-2.038 5.54-2.706 7.653l-1.165 3.502c-.682 1.52-1.287 3.305-2.037 5.314-.957 2.495-1.668 5.063-2.357 7.613-.753 2.56-1.15 5.07-1.636 7.622l-.344 1.916-.012.06-.016.093-.002.03-.012.125-.025.247-.047.494-.096.992-.37 4.006c-.105 1.346-.284 2.712-.33 4.082l-.202 4.173c-.13 2.456-.256 4.902-.383 7.344l-.22 7.3s-.067 1.312-.18 3.61c-.134 2.296-.255 5.578-.378 9.517-.297 7.878-.555 18.382-.658 28.892-.02 5.26-.108 10.5 0 15.46l.097 7.13.3 6.35.284 5.37c.08 1.58.198 2.956.208 4.09l.012 3.563c-.266 3.55-.844 6.768-1.3 10.79-.67 5.44-.92 9.303-1.437 14.71-.316 3.89-.71 7.498-1.62 11.01-.25.868-.5 1.73-.75 2.592-.308.84-.612 1.675-.915 2.508-.688 1.602-1.432 3.274-2.29 4.62l-.276.434.05.534 1.065 11.248c-14.21 1.288-28.133 1.866-42.803 2.986-9.227.69-17.865 1.205-26.914 1.51-.582-5.59-1.25-11.51-1.467-17.86-.13-2.934-.336-5.894-.402-8.878l-.2-8.974s-.02-1.13-.062-3.11c-.06-1.978-.06-4.808-.057-8.203V500.8l.185-13.3.105-6.76.174-6.543.31-11.604c.237-6.79.397-11.318.397-11.318.288-4.633.524-9.258.833-13.687 1.023-15.858 1.217-30.39 1.914-44.486l.594-10.324c.163-2.225.35-4.434.552-6.643.443-4.748 1.28-12.21 1.633-17.343.242-3.694.266-7.495.44-11.146.298-3.212.567-6.335.796-9.33.726-6.937 1.312-9.825 1.983-20.2-.213-.27-.227-1.605-.344-2.388.046-.61.095-1.23.144-1.846.47-3.152 1.04-6.646 1.598-9.65.088-1.548.236-3.038.33-4.5 1.898-7.307 5.22-19.37 6.9-28.04.727-2.387 1.463-4.838 2.188-7.428.922-3.355 1.73-6.35 2.46-9.234.73-2.882 1.386-5.65 2.15-8.514l.75-2.422c2.456-7.38 4.47-13.293 6.987-18.526l.912-3.764c2.634-6.908 7.95-23.572 8.636-28.31l.234-.64 2.28-6.187c3.222-7.22 5.47-13.566 7.82-20.42.32-.847.704-1.71 1.058-2.577.18-.435.36-.872.543-1.31.196-.406.394-.813.59-1.223l1.237-2.567c.398-.878.926-1.703 1.393-2.582l.893-1.615.984-1.566c.332-.522.664-1.046.996-1.572.346-.518.72-1.017 1.08-1.53 1.424-2.032 3.094-4.09 4.828-5.84l.612-.618-.023-.73c-.013-.412.187-1.105.485-1.763.137-.335.31-.675.508-1.017.172-.343.395-.683.61-1.024.886-1.358 1.907-2.704 3.038-3.995 2.233-2.6 4.74-5.08 7.345-7.498 5.22-4.83 10.857-9.46 16.7-13.903 1.413-1.078 2.9-2.146 4.36-3.226 3.69-2.46 7.38-4.923 11.223-7.484 2.385-1.622 4.455-2.984 6.322-4.3 5.11-3.2 10.29-6.285 15.434-9.132 1.28-.73 2.57-1.407 3.854-2.08 1.273-.697 2.562-1.326 3.836-1.957 1.268-.66 2.555-1.2 3.818-1.786.635-.31 1.25-.524 1.87-.775.63-.234 1.206-.517 1.874-.717l.562-.147 1.146-.273.508-.12.6-.118c.8-.154 1.586-.338 2.367-.537 1.563-.396 3.106-.85 4.63-1.353.334-.002-.055.25.443.183 5.818-2.194 11.816-5.074 17.732-8.17.71-.358.025.27.19.23 2.728-1.687 4.765-2.988 6.1-3.845.66-.41 1.175-.758 1.493-.895.336-.18.436-.057.262.366.088-.092.238-.277.37-.437l.103-.128c.033-.042.06-.067.164-.223.17-.25.322-.54.436-.837l.078-.225c.03-.09.015-.056.024-.09l.023-.11.01-.056.002-.007c-.065-.028-.095-.04-.106-.046.062.028.465.202 0 0 .03-.046.11-.126.158-.197l.293-.274.373-.308c1.102-.842 2.555-1.848 3.383-2.75.312-.227.696-.528 1.128-1.013.217-.23.514-.687.73-1.052.06-.116.12-.236.185-.36l.047-.093.023-.047.082-.21.008-.03.074-.244c.096-.33.195-.68.3-1.043.052-.183.103-.37.155-.562l.107-.525c.142-.71.302-1.485.438-2.29.54-3.203 1.002-7.08 1.438-11.085.107-.988.215-1.985.32-2.98l.168-1.488c.068-.506.11-1.034.178-1.372.104-.532.227-1.075.355-1.62-.662 11.775 1.768 23.898 7.414 37.61 6.49 15.758 24.103 17.668 28.083 17.898 12.746 19.194 21.857 114.022 22.148 117.102v380.93zM147.968 501.13l-.02-1.8c.69-1.7 4.226-10.785 6.522-24.566 1.836-11.02 6.725-18.832 12.916-28.724 2.02-3.227 4.107-6.563 6.248-10.273 7.715-13.372 11.86-21.868 13.016-26.765l1.777 1.103c-3.205 7.263-10.518 23.217-13.248 26.443-3.907 4.615-17.616 27.772-19.663 38.692-1.682 8.967-3.998 19.46-7.55 25.89zM241.024 33.54l-.244.817c-.012.02-.023.044-.037.072l.28-.89zM230.245 64.534c-.008-.002-.008 0-.016-.004.005 0 .01.002.015.004zM230.216 64.526c-.016-.003-.033-.005-.05-.006.01 0 .024 0 .036.003.006 0 .008.002.014.003zM230.144 64.517l-.01-.002h.006zM230.093 64.516H230.13h-.007c.01 0 .018 0 .027.002.053.004.1.016.137.034.018.008.04.018.09.032.154.042.3.106.426.19l.19.138-.907-.393c.03.04.014.02-.002-.002h-.002.008l.003-.002zM230.08 64.517zM227.528 64.33c.006-.062.027-.124.06-.175 0-.005.005-.008.01-.015l-.015.106c.02-.2-.01.063.004-.048l-.006.02-.022.084c-.014.058-.037.14-.03.03zM297.353 208.017v384h1.5c45.898 0 79.125-.22 104.57-.688 52.877-.977 54.15-2.76 54.994-3.94 3.2-4.48-2.97-60.65-3.682-67.04-.904-8.093-.488-24.158-.12-38.333.214-8.23.415-16.007.317-21.03-.28-14.194-.225-90.48 0-101.94.08-4.15.44-7.764.79-11.258.19-1.895.368-3.76.505-5.654.33.77.732 1.73 1.2 2.89 1.304 3.272 3.132 7.977 5.042 13.717 1.98 5.73 3.944 12.49 5.595 19.83.365 1.852.736 3.734 1.11 5.64.228 1.925.456 3.873.687 5.837.115.98.23 1.967.348 2.956.072.998.146 2 .22 3.002l.44 6.034c.34 4.023.45 8.073.674 12.046l.29 5.91.194 5.772c.12 3.79.27 7.454.35 10.93.07 3.477.137 6.764.197 9.798.158 6.067.1 11.123.148 14.662l.02 4.108-.018 1.448c-.01.116-.016.188-.023.305-.146 1.957-.254 4.163-.334 6.51l-.102 3.606-.205 3.75-.372 7.524c-.066 1.245-.13 2.467-.195 3.652-.03 1.188-.01 2.34-.02 3.44-.066 4.455.29 8.688.69 12.766.472 4.058 1.07 7.987 1.58 11.78.263 1.905.427 3.866.683 5.77l.404 2.966c.13.99.404 1.96.604 2.943.922 3.91 2.273 7.78 4.395 11.485.09.17.198.348.298.522l-1.46 12.662-.12 1.038 1.02.11 7.61.818c2.535.27 5.07.567 7.61.752 5.083.414 10.16.88 15.25 1.166 3.376.354 6.97.718 12.386 1.033 9.336.605 19.164 1.404 28.29 1.57l1.958.016 1.766.012.13-1.676c.298-3.883.458-7.21.585-10.458.092-1.624.072-3.23.06-4.875 0-1.646-.003-3.334-.003-5.126l.21-4.388c.858-2.15 1.138-8.013 1.15-15.412-.06.43-.106.645-.147.812l.105-3.757.03-3.688c.013-2.45.003-4.902-.065-7.44-.08.056-.146-.197-.213-.586-.002-5.834-.248-11.9-.312-15.77-.082-8.606-.537-23.643.596-27.68-.48-6.153-1.328-9.58-1.988-14.52l-.28-7.622c-.167-3.81-.337-7.618-.337-7.618.163-3.496.108-8.414.243-12.508-.477-4.065-.94-12.644-1.404-21.715-.493-9.07-.933-18.636-1.312-24.68.08-.416.22.122.293-.37-.144-5.613-.72-17.02-1.51-27.22-.417-5.1-.876-9.898-1.343-13.52-.49-3.622-.986-6.066-1.44-6.46-.134-3.475-.474-6.683-.925-9.812l-.24-2.616c-.15-1.666-.357-4.05-.676-6.89-.168-1.427-.277-2.947-.527-4.605-.265-1.636-.544-3.36-.83-5.146-.33-1.773-.75-3.578-1.136-5.426l-.596-2.786c-.23-.924-.46-1.853-.688-2.78-.46-1.857-.916-3.714-1.367-5.542l-1.426-5.335-1.342-4.985-1.27-4.446-1.908-6.654-.75-2.515c-1.748-6.695-3.55-13.256-5.51-20.402-4.332-15.69-9.62-32.09-15.346-48.553-2.888-8.25-5.778-16.438-9.038-24.69-.432-1.027-.797-1.966-1.28-3.062l-1.472-3.018c-.465-1.017-1.014-1.99-1.574-2.955-.568-.96-1.066-1.96-1.69-2.885l-1.82-2.798-1.962-2.696c-1.246-1.55-2.436-3.032-3.88-4.505-.22-1.378-.735-2.407-1.228-3.39-.62-1.194-1.346-2.21-2.072-3.216-1.47-1.98-3.055-3.742-4.658-5.454-2.96-3.09-5.65-5.57-8.135-7.724-1.23-1.09-2.446-2.075-3.593-3.037-1.156-.92-2.266-1.8-3.35-2.662-4.455-3.42-8.62-6.225-13.97-9.49l-2.313-1.427-3.824-2.644c-1.914-1.32-3.857-2.595-3.857-2.595-5.916-4.025-11.92-7.856-18.086-11.416-1.53-.903-3.11-1.736-4.662-2.606-1.574-.834-3.154-1.662-4.756-2.456-3.214-1.56-6.487-3.04-10.052-4.14l-1.178-.392c-.2-.064-.4-.13-.61-.195l-.32-.098c-.128-.033-.26-.067-.397-.1-6.975-1.796-15.3-5.106-22.133-8.55-1.615-.82-3.21-1.676-4.768-2.58-1.53-.9-3.127-1.872-4.334-2.897l-.205-.184-.14-.152-.007-.005c-.025-.168-.057-.334-.105-.48-.083-.198-.18-.395-.28-.584-.203-.3-.436-.604-.645-.793-.865-.832-1.67-1.303-2.426-1.823-.755-.502-1.466-.99-2.036-1.51-.27-.254-.537-.543-.695-.767-.026-.045-.056-.088-.09-.13-.017-.022-.034-.033-.054-.066l-.068-.157-.127-.292-.013-.058-.033-.15-.283-1.19-.226-1.32c-.156-.876-.285-1.775-.41-2.677-.264-1.794-.48-3.612-.707-5.422l-.654-5.45-.338-2.76-.19-1.36c-.026-.21-.075-.51-.126-.754l-.16-.712c-1.054-4.278-2.372-7.915-3.892-11.368-1.242-2.84-2.682-5.6-4.514-8.13-1.814-2.514-4.062-4.87-6.996-6.344-1.453-.725-3.074-1.19-4.785-1.267l-1.156-.002-1.06.03-2.11.07c-2.8.096-5.557.218-8.264.372l-6.932.064c-2.302-.01-4.616-.116-6.97-.18l-3.6-.113-3.678-.045-7.785-.072c.125.104.19.197.27.296h-1.213v1.417c-.14.048-.21.095-.383.144l.384-.008v.79h9.207c1.144 0 2.284.002 3.355.003 1.078.02 2.086.04 2.95.058l2.876.056c.366.408 1.956.735 5.218.824 3.262.084 8.172.038 15.11-.07l2.79-.046.723.01.364.003c.098.01.166.028.252.04.318.044.646.074 1.035.19 1.495.354 2.935 1.167 4.24 2.26 1.946 1.626 3.608 3.743 5.048 6.053 4.713 16.223 3.29 32.107-4.59 51.242-6.525 15.846-25.92 16.07-26.115 16.07l-.76.002-.45.614c-13.587 18.62-22.74 115.146-23.124 119.246l-.007.14zm61.09-173.587l-.036-.072-.246-.816.282.888zm10.425 30.1c.002.004.008.014.016.02-.035.005-.055-.004-.055-.025-.01-.035-.103-.117-.14-.182l-.26-.25c-.865-.716-2.13-1.446-3.012-2.086-.906-.632-1.494-1.226-1.494-1.226l.332.206s.572.523 1.44 1.13c.843.61 2.073 1.328 2.843 2.027.08.082.188.172.222.235.06.07.112.136.106.153zm.088 0c-.006.002-.008 0-.014.003.004 0 .01-.002.014-.004zm.03-.008c.01-.002.022-.002.034-.003-.018 0-.035.002-.05.005.006 0 .008-.002.015-.003zm.062-.007h.004-.01c.002.002.004 0 .006 0zm.05 0h.008-.002c-.016.024-.03.044 0 .002l-.908.393.19-.14c.128-.082.27-.146.425-.188.05-.014.074-.023.092-.032.035-.018.082-.03.135-.034.01 0 .02-.003.03-.002h-.01.037l.003.002zm.008.002h-.002.002zm2.522-.215l-.02-.083-.007-.022c.013.11-.02-.15.005.048l-.016-.106c.003.007.007.01.01.015.032.05.052.113.058.176.01.112-.016.03-.03-.028zm.613 3.806s-.597-.375-1.49-1.04c-.224-.185-.462-.353-.726-.6-.13-.116-.264-.23-.412-.4l-.22-.24c-.132-.17-.26-.38-.353-.592-.122-.274-.097-.265-.132-.364l-.008-.03-.004-.015-.002-.007c.123-.18.182-.262.207-.3-.358.586-.097.163-.177.296v.003l.002.006.008.03.033.115.018.063.062.154c.045.103.096.205.15.303.057.098.117.192.182.28.062.084.078.092.12.142l.21.23c.145.158.264.25.393.372.255.233.483.398.702.578.86.647 1.44 1.016 1.44 1.016zm-71.887 139.98c.293-3.08 9.404-97.908 22.15-117.103 3.98-.23 21.592-2.14 28.08-17.897 5.646-13.713 8.076-25.835 7.416-37.61.128.544.25 1.087.353 1.62.068.337.11.865.18 1.37l.166 1.488.32 2.98c.435 4.005.895 7.883 1.437 11.086.14.805.3 1.58.44 2.29l.108.525c.05.19.104.38.152.563l.3 1.043.075.243.01.03.08.21.023.048.05.093c.06.124.124.244.185.36.213.365.512.82.727 1.05.432.486.816.788 1.13 1.015.825.9 2.28 1.907 3.38 2.75l.375.306.293.274c.05.07.13.15.158.197-.467.2-.064.027 0 0-.014.005-.043.02-.107.046l.002.007.012.056.02.11c.01.033-.003 0 .024.09l.078.224c.113.3.266.587.436.837.107.157.13.18.164.224l.104.128c.13.16.28.345.37.436-.175-.423-.075-.546.263-.366.315.136.83.483 1.49.895 1.335.857 3.374 2.158 6.1 3.844.165.04-.52-.586.192-.227 5.916 3.095 11.914 5.975 17.73 8.17.498.066.11-.186.443-.184 1.525.502 3.066.956 4.63 1.352.782.2 1.57.383 2.37.536l.598.118.508.12 1.15.274.56.147c.667.2 1.245.483 1.874.717.62.25 1.234.466 1.87.776 1.265.585 2.55 1.125 3.817 1.786 1.276.63 2.563 1.26 3.837 1.956 1.283.674 2.574 1.352 3.854 2.08 5.146 2.85 10.323 5.935 15.435 9.132 1.87 1.317 3.94 2.68 6.324 4.3l11.222 7.486c1.46 1.08 2.945 2.147 4.36 3.226 5.84 4.442 11.478 9.073 16.698 13.903 2.605 2.416 5.113 4.896 7.346 7.497 1.13 1.29 2.15 2.637 3.035 3.995.218.34.44.68.614 1.024.195.342.37.682.508 1.017.297.658.498 1.35.484 1.762l-.023.73.61.618c1.735 1.75 3.407 3.81 4.83 5.84.36.514.735 1.013 1.08 1.53l.995 1.573.986 1.566.893 1.615c.465.88.992 1.704 1.393 2.582l1.236 2.566.59 1.222c.182.44.36.876.543 1.31.35.87.737 1.73 1.054 2.58 2.352 6.852 4.6 13.2 7.82 20.418.752 2.037 1.492 4.045 2.28 6.188.083.224.155.418.235.64.687 4.736 6 21.4 8.636 28.31.3 1.228.6 2.47.914 3.763 2.518 5.233 4.53 11.146 6.986 18.526l.75 2.422c.764 2.863 1.42 5.632 2.152 8.514.727 2.882 1.535 5.878 2.46 9.233.722 2.59 1.458 5.042 2.185 7.43 1.684 8.667 5.004 20.73 6.9 28.038.094 1.463.242 2.954.332 4.502.555 3.004 1.13 6.497 1.596 9.65.05.613.1 1.235.147 1.845-.117.783-.13 2.12-.346 2.387.673 10.376 1.26 13.265 1.985 20.2.227 2.996.496 6.12.797 9.33.174 3.652.197 7.453.44 11.147.35 5.133 1.187 12.596 1.632 17.344.203 2.21.387 4.418.55 6.643l.595 10.324c.696 14.098.888 28.63 1.913 44.487.307 4.43.545 9.054.832 13.687l.396 11.318c.093 3.396.198 7.36.312 11.604l.174 6.544c.033 2.23.068 4.493.104 6.758.062 4.528.127 9.057.186 13.302l-.002 11.602c.006 3.396.004 6.226-.057 8.203l-.062 3.11-.2 8.974s-.272 5.943-.4 8.876c-.22 6.35-.886 12.272-1.47 17.862-9.05-.306-17.686-.82-26.912-1.51-14.672-1.12-28.594-1.7-42.805-2.987l1.066-11.247.05-.535-.276-.433c-.857-1.347-1.602-3.02-2.29-4.62l-.915-2.51-.75-2.59c-.91-3.513-1.303-7.122-1.62-11.01-.517-5.408-.767-9.27-1.438-14.712-.453-4.02-1.03-7.24-1.3-10.79l.013-3.562c.012-1.133.13-2.51.207-4.088l.285-5.37.3-6.35c.03-2.268.06-4.658.095-7.132.11-4.958.02-10.2.004-15.46-.105-10.51-.362-21.013-.66-28.89-.124-3.938-.245-7.22-.378-9.518l-.178-3.61-.223-7.3-.38-7.344-.203-4.173c-.047-1.37-.225-2.736-.33-4.082l-.37-4.006-.095-.992-.05-.494-.022-.246-.012-.124-.004-.03-.016-.092-.01-.06-.346-1.917c-.482-2.55-.883-5.06-1.637-7.622-.69-2.55-1.398-5.118-2.357-7.613-.75-2.01-1.354-3.793-2.037-5.314 0 0-.464-1.4-1.163-3.5-.668-2.114-1.715-4.875-2.71-7.654-1.054-2.76-2.106-5.516-2.978-7.562-.413-1.022-.792-1.886-1.075-2.493l-.43-.95-.99.494c.154-3.83.035-7.886-.746-12.652-1.097-6.68-.68-18.57-.24-31.16.374-10.72.76-21.803.304-31.17-.977-20.046 13.807-78.968 13.957-79.56l-2.907-.734c-.615 2.438-15.045 59.952-14.045 80.44.45 9.242.066 20.262-.307 30.92-.444 12.74-.864 24.776.278 31.75 1.297 7.92.7 13.9.068 20.23-.354 3.553-.72 7.228-.805 11.497-.224 11.472-.278 87.848 0 102.06.1 4.954-.103 12.695-.315 20.893-.072 2.805-.146 5.683-.213 8.56-1.22-4.108-2.63-9.638-3.727-16.23-1.936-11.606-7.217-20.047-13.332-29.82-2.006-3.204-4.08-6.518-6.193-10.182-8.596-14.896-12.955-24.233-12.955-27.75v-2.696l-8.23 5.106.52 1.19c.427.975 10.468 23.92 14.23 28.368 3.67 4.335 17.077 27.032 19.005 37.308 2.078 11.083 5.143 24.443 10.473 30.557.012 5.716.16 10.758.56 14.333 2.767 24.76 5.735 60.597 4.265 64.833-5.14 2.31-57.498 3.488-155.666 3.5v-380.93zM443.67 475.24c-2.048-10.92-15.757-34.077-19.66-38.692-2.73-3.227-10.044-19.18-13.25-26.443l1.776-1.103c1.156 4.896 5.3 13.393 13.018 26.765 2.14 3.71 4.23 7.047 6.248 10.273 6.19 9.892 11.08 17.705 12.916 28.724 2.297 13.78 5.83 22.867 6.52 24.565-.007.603-.015 1.205-.02 1.8-3.55-6.43-5.867-16.923-7.547-25.89zM326.99 219.324h5.435c.383.146.814.27 1.305.398.088.02.176.043.26.064l-1.705-2.244c-.246.6-.43 1.216-.566 1.84-.07.312-.126.626-.175.94-.04.31-.043.592-.057.89-.04 1.184.018 2.393.01 3.67.016 1.145.03 2.28.043 3.413l-.214 3.04c-.104 1.822-.242 4.25-.383 6.68l-.46 9.712c-.284.82-.685 1.57-.77 2.52-.11 1.29.29 2.19.345 3.44.287 6.63-1.824 12.227-1.328 18.524.297 3.815.51 7.168.45 11.095l-.08 4.143-.452 16.775c-.13 1.072-.262 2.14-.387 3.166-.433 3.668.013 7.043.062 10.31l-.055 2.394c-.037.516-.088 1.028-.164 1.54l-.412 2.344 1.23-1.67c-.188-.035-.253-.022-.495-.03-.236-.01-.457-.007-.664.013-.77.028-1.604.255-2.43.287-.714-.093-1.425-.184-2.083-.245-.033-.01-.068-.018-.086-.022l1.544 1.652c.213-1.544.537-2.238.336-4.564-.238-.056-.37-.36-.56-.537l-.02-.425c.205-.734.377-1.543.62-2.236-.106-.37-.235-.718-.362-1.063.71-1.75 1.008-4.65.367-6.705.068-.576.11-1.167.113-1.79.006-1.61-.318-2.88-.533-4.256l.018-.586c.232-1.792.393-3.233 1.244-4.536l-.264-.904c.48-1.693.342-5.748-.514-6.87l.017-.156c.066-.526.13-1.02.19-1.52.716-1.802.796-3.344.614-5.056.077-.853.13-1.73.144-2.677.06-4.395.127-8.916.24-13.572.016-.414.03-.838.047-1.26.163-1.025.34-2.05.38-3.122.023-.67-.008-1.248-.068-1.782.184-2.798.297-5.6-.027-8.183l.006-.133c.093-.724.183-1.448.274-2.174.11-.067.215.04.32-.067-.06-1.413-.164-2.944.004-4.46.033-.18.246.035.293 0-.272-1.465.01-2.198.712-1.905-.172-.41-.232-1.406-.39-1.872.868-1.09.59-6.92.214-9.086.232-1.77.45-3.54.582-5.322.232-3.182.22-4.504-.617-4.716l.212-4.254-.79-.04.013-.087c-.05.037-.098.052-.148.082l-1.416-.07-.013.28c-.098-.023-.19-.043-.293-.077-.06 2.51.07 4.542-.092 6.706-.63 2.486-.764 5.193-.77 7.997-.037.85-.078 1.732-.12 2.717-.165 3.38-.24 6.78-.466 10.167-.117 1.79-.465 3.85-.27 5.59.02.218.07.4.117.596-.123 3.275-.164 6.54-.14 9.846l-.095 2.143c-.07.207-.14.42-.207.616-1.042 2.836-1.253 4.576-1.308 8.444-.16 8.812-1.578 18.465-.59 27.052.19 1.72.365 3.3.545 4.906 0 0-.096 3.53-.19 7.062-.062 1.763-.093 3.53-.083 4.865l-.008 2.218c-.156.732-.242 1.485-.094 2.29-.578.147-.914 1.19-1.092 2.613l-.207 1.66 2.195.47c1.014.217 2.17.343 3.396.372.604.022 1.24-.003 1.865-.042.333-.04.66-.077.978-.114.39-.072.816-.187 1.186-.297l1.613-.485-.088-1.587c-.042-.75-.1-1.397-.157-1.87-.104-.114-.21.01-.314-.088.007-2.798-.206-8.86.362-10.734-.297-.95-.432-2.09-.73-2.903l.09-3.524c.516-1.135 1.236-1.915 1.56-3.33-1.2-.955-1.122-4.433-1.046-6.42.03-.893.193-2.29.27-3.636.07-.088.138-.145.218-.13.172-1.167.104-2.26.107-3.434.038.04.08.09.128.19.21-1.7 0-3.06-.684-3.582l.03-1.012c.39-1.794.93-3.124 1.022-5.126.094-2.102-.314-4.39-.346-6.552-.025-1.254-.104-2.09-.215-2.878l.367-10.295c.643-3.785.602-7.058.76-11.12.084-2.01.408-4.752.016-6.592l-.016-.072c.184-3.82.398-7.64.658-11.45.154-1.897.236-3.817.45-5.696l.286-2.83.447-2.683.22-1.313h-8.218v2.344zm.068 24.675l.115-2.476.088-.07-.202 2.545zm.69-8.677l-.017.018.034-.22-.017.203zM353.528 53.698c-4.016 1.515-8.062 2.645-12.09 3.658-8.076 2.002-16.162 3.16-24.674 4.374-5.166.708-10.072 1.15-15.037 1.255-4.963.122-9.984-.004-15.385-.484-3.744-.348-7.56-.835-11.346-1.428l-1.963-.34c-1.25-.208-3.027-.547-5.156-.98-4.258-.867-9.893-2.24-15.422-3.952-2.762-.854-5.504-1.79-8.01-2.767l-.205-.08c.012.187.03.373.03.562v2c0 .125-.015.246-.02.37 3.237 1.08 6.755 2.202 9.356 2.98 2.404.723 6.168 1.88 9.848 2.763.23.12.375.22.322.29 3.186.855 6.215 1.372 9.47 1.894-.114.02-.26.036-.542.038 4.703.987 8.53 1.188 10.004.665l2.822.297c4.996.797 8.752 1.565 14.402 1.68 5.936.105 12.326-.65 18.34-1.41 1.748-.19 3.193-.443 4.473-.675 1.28-.242 2.4-.415 3.47-.69 0 0 1.776-.313 4.444-.78 1.323-.284 2.868-.616 4.524-.97 1.654-.36 3.395-.853 5.146-1.288 3.482-.96 6.938-2.022 9.484-2.95 2.572-.853 4.236-1.562 4.236-1.562.172-.06.338-.12.512-.18.033-.956.156-1.9.38-2.825-.47.18-.945.358-1.414.535zM301.667 221.096c-.057-.658-.117-1.355-.182-2.075-.08-.686-.195-1.324-.293-2.003l-.04-.25-.032-.205-.03-.126-.11-.505c-.074-.335-.148-.67-.223-1-.148-.664-.293-1.313-.434-1.932-.287-1.234-.55-2.35-.75-3.213-.064-.545-.123-1.238-.277-2.037l-.59-2.737-.78-3.372c-.286-1.22-.595-2.534-1.028-3.89l-1.297-4.295c-.452-1.497-.917-3.056-1.505-4.62-1.145-3.134-2.25-6.49-3.646-9.788-5.282-13.33-12.26-26.914-16.25-34.086-3.028-6.102-6.235-12.102-9.476-18.088-3.262-5.968-6.617-11.91-9.926-17.828-.73-1.32-1.43-2.59-2.104-3.812-.643-1.23-1.344-2.475-1.867-3.56-.508-1.137-1.025-2.205-1.475-3.264-.41-1.087-.8-2.127-1.176-3.122-.38-.99-.652-1.988-.965-2.91-.29-.932-.606-1.802-.83-2.662-.472-1.71-.944-3.22-1.298-4.59-.725-2.73-1.295-4.773-1.71-6.215-.433-1.437-.774-2.252-1.048-2.527l-.95-4.96c-.53-2.984-1.214-6.97-1.792-10.973-.6-4-1.102-8.017-1.46-11.03-.33-3.01-.548-5.018-.548-5.018l-.787.076-.05-.58c-.134 2.28-.51 4.53-1.106 6.716.976 7.85 2.126 15.072 3.454 22.024.414 2.047.79 4.08 1.248 6.087.22 1.005.44 2.008.658 3.01l.73 2.986c.962 3.98 2.093 7.925 3.462 11.884.4 1.148.787 2.308 1.217 3.463.49 1.14.987 2.283 1.487 3.432 1.11 2.216 2.227 4.377 3.434 6.583 2.382 4.393 4.847 8.778 7.34 13.244 4.978 8.92 10.032 18.098 14.872 27.575 2.863 5.788 5.807 11.813 8.783 18.684 5.123 11.763 9.65 23.844 12.764 36.288.882 3.09 1.378 6.253 2.02 9.39.138.767.34 1.61.425 2.316.088.792.236 1.633.25 2.368.043.756.102 1.506.078 2.295.006.78 0 1.56-.06 2.342-.065 1.09-.18 2.18-.315 3.266.69-.044 1.38-.075 2.078-.075.398 0 .793.016 1.188.03.05-.338.094-.664.133-.96.334-2.628.576-3.608.89-2.546.015-.814-.057-1.927-.1-3.204zm-1.2 4.992c-.032.308-.065.59-.095.862.184-1.855.35-4.642.12-7.508-.02-.642-.128-1.19-.19-1.78-.037-.303-.076-.603-.113-.9l-.163-.837c-.213-1.098-.412-2.122-.584-3l-.57-2.926-.027-.586.574 3.02c.174.906.373 1.962.59 3.095l.162.86c.03.168.055.247.086.487l.053.444c.07.6.157 1.188.208 1.816.223 2.602.08 5.067-.05 6.952zM297.42 224.298c.315-1.062.558-.082.892 2.545.04.297.084.623.133.962.395-.015.79-.03 1.188-.03.697 0 1.39.03 2.078.075-.136-1.087-.25-2.175-.313-3.266-.06-.782-.066-1.562-.06-2.342-.024-.79.034-1.54.077-2.295.014-.735.162-1.576.25-2.368.084-.706.287-1.55.426-2.317.64-3.137 1.137-6.3 2.02-9.39 3.113-12.444 7.64-24.525 12.764-36.288 2.977-6.87 5.92-12.896 8.783-18.684 4.84-9.476 9.895-18.653 14.873-27.574 2.492-4.465 4.957-8.85 7.338-13.244 1.207-2.206 2.324-4.367 3.434-6.584.5-1.15.996-2.293 1.488-3.432.43-1.155.816-2.315 1.217-3.463 1.37-3.96 2.5-7.903 3.463-11.883l.73-2.987.657-3.01c.46-2.006.834-4.04 1.248-6.086 1.328-6.952 2.48-14.174 3.453-22.024-.596-2.186-.973-4.435-1.105-6.715l-.05.58-.788-.077-.55 5.02c-.356 3.012-.858 7.028-1.458 11.03-.578 4.003-1.262 7.988-1.79 10.973-.57 2.976-.952 4.96-.952 4.96-.273.274-.615 1.09-1.05 2.525-.413 1.442-.983 3.484-1.708 6.216-.354 1.37-.826 2.88-1.297 4.59-.225.86-.54 1.728-.832 2.66-.312.923-.584 1.92-.965 2.91l-1.176 3.123c-.45 1.06-.967 2.127-1.475 3.263-.523 1.086-1.225 2.33-1.867 3.56-.674 1.224-1.375 2.494-2.104 3.813-3.308 5.92-6.663 11.86-9.925 17.828-3.24 5.987-6.447 11.987-9.477 18.088-3.99 7.173-10.967 20.756-16.248 34.086-1.396 3.297-2.502 6.654-3.646 9.79-.588 1.562-1.053 3.122-1.506 4.618-.453 1.497-.887 2.934-1.297 4.296-.433 1.355-.74 2.668-1.026 3.89-.283 1.22-.545 2.35-.78 3.372-.222 1.025-.42 1.942-.59 2.737-.155.8-.214 1.492-.278 2.037-.2.863-.463 1.98-.75 3.213l-.434 1.93-.223 1.003-.112.505-.03.126-.032.205-.04.25c-.097.68-.212 1.32-.292 2.005l-.182 2.075c-.044 1.278-.117 2.39-.1 3.203zm1.25-5.163c.052-.628.14-1.215.208-1.815l.053-.444c.032-.24.058-.32.087-.486l.162-.862c.216-1.132.415-2.19.59-3.095l.573-3.02-.028.587s-.23 1.17-.57 2.926c-.172.878-.37 1.902-.584 3l-.16.836c-.038.297-.077.598-.114.902-.062.588-.17 1.137-.19 1.78-.23 2.865-.063 5.65.12 7.507l-.096-.86c-.13-1.887-.274-4.352-.05-6.955zM480.722 541.682c.64-.043 1.31-.08 2.012-.106 1.424-.01 2.96.024 4.513.103 3.107.155 6.295.49 8.9 1.01 1.492.047 3.02.123 4.625.244 2.08.137 3.908.425 5.66.718l5.16.896 1.502.143c4.624.25 8.33.51 11.82.028l2.26.512c4.413.04 14.737 1.436 17.42 2.62l.404.03c1.354.1 2.624.19 3.913.286 2.07-.052 3.985.008 5.854.145-.283 1.417-.34 2.88-.174 4.318-6.168-.646-12.34-1.275-18.4-1.98-3.31-.382-6.59-.806-9.823-1.232-3.233-.406-6.418-.847-9.54-1.33l-12.4-1.863-1.548-.146-4.085-.274-12.395-.827-3.362-.225c-.885-.05-1.757-.074-2.614-.106.213-.97.313-1.965.298-2.962zM118.466 541.682c-.64-.043-1.31-.08-2.012-.106-1.424-.01-2.96.024-4.513.103-3.106.155-6.294.49-8.898 1.01-1.493.047-3.022.123-4.626.244-2.08.137-3.908.425-5.66.718l-5.16.896-1.502.143c-4.624.25-8.33.51-11.82.028l-2.26.512c-4.413.04-14.737 1.436-17.42 2.62l-.404.03c-1.354.1-2.624.19-3.913.286-2.07-.052-3.984.008-5.853.145.283 1.417.34 2.88.174 4.318 6.168-.646 12.34-1.275 18.4-1.98 3.31-.382 6.59-.806 9.823-1.232 3.234-.406 6.42-.847 9.54-1.33l12.4-1.863 1.55-.146 4.083-.274 12.395-.827 3.362-.225c.885-.05 1.757-.074 2.614-.106-.213-.97-.314-1.965-.298-2.962z"/></g></svg>