<svg xmlns="http://www.w3.org/2000/svg" width="600" height="600" viewBox="0 0 600 600"><path opacity=".1" d="M247.303 37.476H351.72s-4.23 23.447-52.208 23.447c-47.977 0-51.2-22.438-52.21-23.447zm-56.363 504.19c0-9.665-.333-19.333.667-32s1-8.666 0-20.666-3.667-66-4.333-90c-.667-24 0-79.333 0-95s-5.334-56.667-7-65.667c-1.667-9-5.667-30-6-43.667s-1.667-55-2.334-51.333c-.666 3.667-1 6.667-3.666 19.667-2.667 13-8.667 37.667-17.334 42-8.666 4.333-12.667 11.333-16.333 17.333-3.666 6-26.24 28.343-26.246 28.347l20.247 11.57 37-45s4 22.5 4 39.5v259.5s-1.5 24.5-5.5 30.5c0 0-1.663 6.293 28.57 11.22 2.163-6.67-1.737-8.506-1.737-16.303zm215.408 16.306c30.232-4.928 28.568-11.222 28.568-11.222-4-6-5.5-30.5-5.5-30.5v-259.5l4-39.5 37 45 20.246-11.57c-.004-.003-22.58-22.347-26.246-28.346-3.666-6-7.666-13-16.332-17.333-8.668-4.332-14.668-29-17.334-42s-3-16-3.666-19.666c-.668-3.667-2.002 37.666-2.334 51.333-.334 13.667-4.334 34.667-6 43.667s-7 50-7 65.667.666 71 0 95-3.334 78-4.334 90-1 8.002 0 20.668.668 22.334.668 32c0 7.796-3.9 9.632-1.736 16.304z"/><path fill="#fff" d="M547.525 215.423c-14.73-24.354-29.605-48.796-44.283-73.284-7.73-12.946-16.584-28.02-24.207-40.336l-2.65-4.193-5.258-8.85-2.684-4.51c-.078-.156-.32-.45-.494-.668-.2-.26-.356-.38-.538-.575-.355-.347-.717-.66-1.086-.942-.732-.583-1.49-1.067-2.25-1.545-3.057-1.845-6.227-3.287-9.422-4.66-3.197-1.358-6.432-2.603-9.684-3.788-6.504-2.39-13.125-4.41-19.69-6.527-6.58-2.11-13.16-4.243-19.75-6.42l-8.53-2.92-8.502-2.987c-1.66-.644-3.346-1.337-4.88-1.96-5.573-2.318-10.624-4.4-15.31-6.663-1.162-.566-2.273-1.17-3.39-1.748l-1.452-.938c-.562-.35-1.06-.768-1.594-1.147l-1.588-1.166-1.762-1.143c-.582-.397-1.2-.73-1.82-1.072l-.932-.516-.994-.462c-.646-.324-1.383-.58-2.11-.842-.41-.11-.778-.227-1.235-.316l-.358-.06-.184-.028-.3-.02-.563-.01c-1.385-.01-2.79-.02-4.23-.033l-9.032-.038-21.477.023c-18.535.056-37.53.032-56.72-.017l-7.206-.02-1.804-.004-.902-.003h-.113l-.228.008c-.055 0-.192.018-.315.035-.23.033-.528.073-.703.118-1.49.33-2.663.87-3.875 1.412-1.155.587-2.31 1.175-3.365 1.862l-1.606 1.008-1.534 1.08-.766.54-.358.254c-.003.002-.003 0-.028.02l-.048.028-.193.117-1.547.94c-1.013.543-1.988.96-2.978 1.457-8.662 3.792-17.822 7.01-26.898 10.18-9.103 3.154-18.238 6.19-27.338 9.178-4.558 1.49-9.104 2.98-13.634 4.46-4.558 1.513-9.058 3.13-13.505 4.874-4.443 1.768-8.835 3.607-13.107 5.944-1.067.595-2.126 1.222-3.175 1.942-1.045.74-2.092 1.5-3.107 2.768-.125.152-.25.32-.37.532l-.18.3-.085.15c-.05.095.02-.04.003-.01l-.026.047-.437.754-.873 1.506-1.74 3.006-13.65 23.7c-7.21 12.44-13.83 23.868-20.567 35.49l-41.682 68.977.372 1.436 33.14 18.938c5.24 3.174 10.647 6.358 16.587 9.58.898 1.355 12.362 8.3 26.638 16.594l2.938-.54c11.687-14.004 25.56-31.094 34.22-41.903.892 5.623 1.89 12.69 2.605 20.437.365 4.123.674 8.434.745 12.792.104 4.373.05 8.88.08 13.29.028 17.67-.013 34.383-.274 42.328.322 7.94.48 17.504.8 24.287v29.674c-.486 9.65-1.19 16.37-1.477 28.357 1.224 7.773 1.24 37.044 1.218 53.776l-.173 30.666c-.067.753-.135 1.244-.214 1.14-.137 9.86-.037 19.05-.008 28.92-.038-.325-.08-.746-.132-1.58-.04 3.59-.055 6.996-.044 10.15v.143l-.002.033-.018.29-.036.57-.076 1.133-.157 2.192c-.11 1.428-.213 2.786-.31 4.065-.406 5.117-.755 8.968-.785 11.087l-.23 1.3c-.167.77-.354 1.81-.6 2.824-.244 1.018-.495 2.032-.737 2.764l-.27.896-.126.324c-.203.468-.385.95-.586 1.372l-.626 1.084-.15.332c-.082.396-.053.505-.044.712.01.196.054.34.09.506.084.308.194.594.33.836.26.5.58.91.912 1.273.662.744 1.398 1.276 2.13 1.794 1.477.985 2.994 1.742 4.515 2.405 3.046 1.322 6.113 2.27 9.25 3.13 6.282 1.692 12.88 2.937 20.695 3.96 17.688 2.274 36.89 2.865 55.082 3.356 5.278.136 9.672.213 13.572.227 3.9.04 7.304.03 10.606-.008l3.73.044 9.83.062c8.145.053 18.967-.013 29.827-.16 10.846-.19 21.69-.49 29.824-.857 4.064-.168 7.45-.37 9.822-.482l3.726-.223c12.314-.577 23.967-1.44 35.623-3.087 5.825-.833 11.655-1.845 17.528-3.33 2.93-.78 5.877-1.65 8.795-2.88 1.46-.607 2.908-1.328 4.312-2.275.705-.455 1.383-1.04 2.025-1.717.312-.372.615-.767.87-1.254.112-.272.24-.507.31-.84.04-.154.076-.315.086-.51.006-.098.018-.173.01-.3-.01-.126.002-.186-.06-.45l-.185-.41c-.708-1.16-1.263-2.73-1.73-4.354-.233-.816-.423-1.674-.638-2.527-.178-.87-.36-1.755-.54-2.648-.67-3.596-1.18-7.414-1.603-11.33-.226-2.09-.43-4.284-.603-6.55l-.123-1.71-.03-.43-.013-.212v-.134l.003-.878.006-3.562.01-14.683c-.013-9.836-.085-19.47-.323-27.125-.01-.23-.014-.37-.02-.597V343.13l.007-86.68c.102-5.94.42-11.263.912-16.03.113-1.19.225-2.344.334-3.456.13-1.11.258-2.18.38-3.21.235-2.057.478-3.945.722-5.647.518-3.77.96-6.632 1.252-8.44l.53.643c-.18-.06-.33-.094-.563-.22 13.296 16.065 24.173 28.947 35.546 42.858l1.39.255c.218-.124.42-.238.618-.352 18.613-10.047 38.412-21.36 58.805-33.16l17.765-10.155.53-2.047-1.25-2.065zm-27.298-39.774l.254.583-11.038-18.436 10.785 17.852zM239.022 44.17l1.076-.757c.71-.526 1.46-.964 2.205-1.43 1.31-.823 2.688-1.535 4.06-2.1 4.212 12.992 26.337 22.54 53.15 22.54 27.01 0 49.27-9.69 53.243-22.83l.152.06c1.033.422 2.05.98 3.066 1.53l1.47.91c.49.296.98.604 1.48.973l1.493 1.055.21.15c-6.567 16.292-30.866 27.153-61.116 27.153-30.087 0-54.283-10.748-61.003-26.894l.515-.36zm12.835-4.97l5.872-.012 56.296-.18 28.762-.078 7.033-.018c-3.688 11.63-25.12 20.51-50.308 20.51-24.98 0-46.267-8.735-50.216-20.222h2.56zm-87.052 507.71c.21.027-.41-.06.12.012h-.027l-.093-.013zm269.425-.003c-.037.006-.074.007-.11.01l.18-.023h-.003l-.067.013zm89.823-317.356c-13.078 7.302-26.13 14.61-39.22 22.037l-13.81 7.874c-8.245-9.954-12.153-14.37-13.263-14.78l-22.764-27.685-.52.426-.18-.03-.38-.475c.116.188.183.318.25.45l-1.944-.345s-.502 2.84-1.127 7.096c-.613 4.26-1.395 9.946-1.924 15.67-.6 5.71-.87 11.53-.937 15.783-.062 2.206-.018 3.947-.03 5.212v1.965c-.147 3.21-.27 6.844-.4 10.977-.64 20.663-.142 39.703.106 61.63.097 9.537.194 19.005.292 28.445V516.01l.004.338.016.26c.104 1.35.2 2.593.285 3.714.395 4.477.707 7.028.707 7.028.27 3.31.56 6.5 1.055 9.812.138.828.276 1.664.42 2.51.167.85.356 1.708.552 2.583.264.884.438 1.765.805 2.695.18.465.326.925.545 1.407l.373.698c-.14.263-.48.62-.834.943-.21.163-.397.335-.616.494l-.682.465c-.95.59-1.955 1.118-2.984 1.58-2.047.944-4.15 1.664-6.25 2.347-4.227 1.324-8.545 2.38-13.654 3.326-13.602 2.425-26.97 3.517-40.025 4.268-13.067.726-25.87 1.002-38.585 1.103-12.693.093-25.357.03-38.083-.12-12.74-.142-25.588-.327-38.75-.624-15.73-.39-30.533-1.046-45.362-2.537-7.405-.775-14.837-1.705-22.283-3.238-3.718-.764-7.46-1.654-11.08-2.92-1.816-.62-3.588-1.367-5.223-2.27-.83-.44-1.565-.98-2.21-1.537-.303-.287-.582-.586-.758-.872l-.126-.207c-.02-.062-.046-.12-.076-.18l-.005-.022.435-.802c.358-.72.586-1.433.872-2.152l.64-2.15.528-2.153.444-2.16c.55-2.886.973-5.786 1.337-8.695.363-2.91.654-5.828.9-8.753l.172-2.197.077-1.103.036-.55.002-.63-.006-4.38V370.153l.304-26.7c.343-30.945-.18-59.233-.305-86.714l-.084-3.176-.085-3.255-.24-3.714c-.09-1.263-.157-2.53-.26-3.71-.115-1.182-.22-2.283-.313-3.227l-.308-3.147-.73-6.485c-.284-2.152-.523-4.306-.827-6.453-.24-1.806-.506-3.8-.944-6.59l-2.71-.71c-5.334 6.22-12.533 14.593-17.642 20.833-4.57 5.58-9.078 11.438-13.536 16.984-1.716 2.055-3.406 4.08-5.015 6.01l-6.583-3.79c-11.69-6.918-16.456-10.037-34.184-19.917-.537-.033-2.86-1.205-4.253-1.79-1.04-.583-2.104-1.18-3.152-1.77-5.307-3.27-11.188-6.825-16.218-9.977l-7.975-4.135c-.528-.328-1.075-.668-1.67-1.04 8.024-12.293 18.946-30.178 26.288-43.524 2.563-4.14 5.167-8.4 7.87-12.9 6.992-11.642 12.157-20.95 17.897-30.96l2.55-4.237c3.992-6.453 7.583-12.273 10.977-17.64 3.357-5.382 6.532-10.302 9.743-14.932 1.23-2.276 2.41-4.46 3.58-6.62l.367-.582.006-.01.042-.078.006-.007.012-.013.023-.03.043-.06c.026-.04.045-.08.106-.14.18-.213.438-.48.77-.75.65-.542 1.49-1.11 2.418-1.666 1.872-1.11 4.094-2.212 6.484-3.29 4.787-2.162 10.246-4.275 15.59-6.23 5.326-1.954 10.62-3.7 15.052-5.32 4.436-1.598 8.036-2.98 10.14-3.914l1.263-.406 12.23-3.965c7.395-2.185 14.167-4.374 20.75-6.75 3.287-1.203 6.53-2.444 9.772-3.79 1.627-.688 3.228-1.402 4.88-2.165.847-.43 1.695-.86 2.548-1.295.16-.076.302-.16.445-.242 7.47 16.992 32.57 28.26 63.567 28.26 31.176 0 56.393-11.397 63.7-28.554.74.4 1.472.746 2.204 1.102 1.13.578 2.27 1.03 3.412 1.528 3.24 1.394 6.592 2.696 9.93 3.958 8.11 3.18 16.28 6.155 24.844 9.057 5.354 1.804 9.98 3.28 14.252 4.6l16.785 5.5c5.536 1.83 11.01 3.782 16.315 5.913 2.652 1.068 5.26 2.19 7.77 3.41 1.25.615 2.477 1.256 3.64 1.946 1.145.688 2.288 1.436 3.1 2.243.25.238.294.305.468.506l.14.223.067.11.035.057.008.014c.055.098-.062-.117-.047-.09l.016.028.275.45 1.094 1.798 2.18 3.566c1.454 2.36 2.894 4.696 4.315 7.006l.578.978c3.072 5.328 6.156 10.638 9.285 15.912.223.573-.316-.106.082.75 6.22 10.093 12.99 21.002 19.514 32.028.768 1.32-.316-.044-.19.248 6.59 10.29 9.638 15.78 7.888 14.273 1.916 2.81 6.324 9.896 8.47 13.1 2.7 5.482 14.23 24.496 24.708 41.384-8.176 4.807-15.518 9.18-20.297 12.08zm20.64-11.525l.004.007c-.334.187-.668.373-1.006.56l1.003-.567z"/></svg>