<svg xmlns="http://www.w3.org/2000/svg" width="600" height="600" viewBox="0 0 600 600"><path opacity=".1" d="M220.692 165c-8.198-9.924-21.178-25.902-24.58-30.096.47-.355.892-.755 1.27-1.19l6.978.142s1.69-2.59 10.333 10.81 18 15.5 26.667 29.168c8.666 13.667 39.915 25.66 39.915 25.66s13.418 11.84 14.085 12.34 4.334 8.167 4.334 8.167-1.61-1.577-3.654-4.78c-2.045-3.203-11.68-9.886-21.68-12.22s-29.41-13.93-29.41-13.93c-9.744-5.932-14.758-12.57-24.258-24.07zm280.2 162.5c-5.084 18-22.084 54-28.084 68.5s-25 32-38 47-26 37.5-27 40.5-11.5 24-11.5 25.5-8.5 22-12 28c-2.14 3.666-6.758 11.704-10.03 17.408 3.618 4.528 8.478 8.4 12.406 12.497 5.117 5.335 10.42 10.38 16.158 14.892l.015.02.984.58h-.602l.603.91c-.042.005-.07.007-.116.01-1.518-.057-3.02-.19-4.527-.358-2.562-.285-5.068-.53-7.64-.194-1.307.17-2.563.505-3.71.998-1.69-.36-3.125-.81-4.12-1.366h-82.805s-.244-3.566-.502-8.478l-.26.036c0 .028-.002.044-.002.044l-.158-.02-.158.02-.002-.044-.26-.036c-.258 4.91-.502 8.478-.502 8.478h-82.805c-.996.556-2.43 1.006-4.12 1.366-1.147-.493-2.403-.827-3.71-.998-2.57-.336-5.076-.09-7.64.193-1.51.166-3.01.3-4.526.358l-.117-.01.602-.91h-.602l.984-.58.014-.02c5.738-4.514 11.04-9.558 16.158-14.893 3.93-4.097 8.79-7.97 12.408-12.497-3.273-5.704-7.895-13.742-10.032-17.408-3.5-6-12-26.5-12-28s-10.5-22.5-11.5-25.5-14-25.5-27-40.5-32-32.5-38-47-23-50.5-28.084-68.5-1.92-23.396-1.92-23.396c-.84-.404-.183-.53 1.58-.447-.102 1.068.05 2.174.51 3.252l-.12-.51c-.018-.08-.032-.162-.05-.243 4.522 4.953 15.837 18.08 20.584 30.344 6 15.5 14.5 42 17.5 44.5s5 4 4-28.5c-.95-30.883-5.058-27.007-3.747-31.693-.018-2.938 2.158-1.946 2.58-1.806.5.167 5.834 3.335 7.667 14.835.647 4.06 1.272 7.23 1.833 9.707 5.242 6.398 7.22 5.5 9.667 7.46 2.5 2 4-31.793-3-46.897S138.692 253 137.692 223c0 0 0-7.166 4.833 0 4.834 7.168 13.668 22.87 15.334 23.334.587.164 1.235.028 1.852-.008 3.11-8.192 4.224-28.294 4.224-28.294l.667 1.222c-.233-4.096-.385-8.196-.417-12.304.33-1.823.182-3.74-.426-5.476.226-1.665.074-3.39-.47-4.966.31-.488.592-.996.81-1.535 2.967 12.836 9.593 43.733 9.593 63.527 0 25.5-1 82 0 91.5s-1 59.5 0 72c.087 1.084.214 2.26.37 3.495 6.348 5.864 18.04 16.9 26.642 26.364 4.922-8.55 10.853-30.817 14.292-44.85.107 2.887.166 5.8.134 8.704-.912 2.17-1.435 4.33-1.62 6.612-1.28 3.434-2.22 7.02-1.993 10.673.03.48.1.954.198 1.42-.956 2.365-1.724 4.813-2.192 7.392-.297 1.64-.295 3.27.043 4.783-1.358 4.758-2.663 8.457-3.746 11.183 1.02 1.258 1.938 2.455 2.707 3.555 9.334 13.334 16.666 31.334 20 38.667 1.307 2.875 2.51 6.055 3.693 9.103.016.028 2.04 3.396 18.474 2.897 16.5-.5 23 .6 29 .05 5.85-.536 18.06-.54 20.308 2.694 2.247-3.234 14.46-3.23 20.308-2.694 6 .55 12.5-.55 29-.05 16.432.498 18.457-2.87 18.474-2.897 1.183-3.048 2.387-6.228 3.693-9.103 3.333-7.333 10.667-25.333 20-38.667.77-1.1 1.688-2.297 2.707-3.555-1.423-3.58-3.227-8.834-5.033-15.976 0-.046.005-.09.004-.136-.165-7.64-1.854-15.14-3.173-22.638-.642-3.655-.774-7.362-.742-11.077 3.47 14.068 9.248 35.548 14.06 43.908 8.603-9.463 20.295-20.5 26.644-26.364.154-1.235.282-2.41.37-3.495 1-12.5-1-62.5 0-72s0-66 0-91.5c0-19.795 6.626-50.692 9.59-63.528.22.54.5 1.047.812 1.535-.543 1.577-.695 3.302-.47 4.966-.607 1.737-.757 3.653-.427 5.476-.03 4.107-.184 8.207-.416 12.303l.667-1.222s1.115 20.104 4.225 28.295c.617.036 1.266.17 1.853.008 1.667-.464 10.5-16.167 15.333-23.333 4.834-7.167 4.834 0 4.834 0-1 30-11.5 66-18.5 81.104s-5.5 48.896-3 46.896c2.447-1.958 4.425-1.06 9.666-7.46.562-2.476 1.188-5.647 1.834-9.706 1.834-11.5 7.166-14.668 7.666-14.834.423-.14 2.6-1.133 2.58 1.806 1.31 4.687-2.796.81-3.746 31.694-1 32.5 1 31 4 28.5s11.5-29 17.5-44.5c4.747-12.263 16.062-25.39 20.584-30.344-.018.08-.033.162-.05.242l-.12.51c.46-1.078.61-2.184.51-3.252 1.763-.084 2.42.043 1.58.447-.004 0 3.16 5.397-1.924 23.397zm-395.35.352c-.08-1.018-.34-2.018-.798-2.916.102-1.134-.11-2.348-.695-3.588.01.73.013 1.45.017 2.152.01 1.812.582 3.255 1.476 4.352zm9.483 25.34c-.452-1.14-.912-2.277-1.375-3.413.133.413.26.828.396 1.24.265.804.6 1.52.98 2.17zm47.8 42.346c.646-2.51 1.255-4.98 1.804-7.454-8.532 4.52-13.597 13.27-18.134 21.873.404.333.832.627 1.28.88.433.856 1 1.66 1.71 2.37l.5.5c1.263 1.262 2.82 2.078 4.467 2.468 2.687 3.776 5.617 7.39 8.508 11l-.136-31.637zm4.327-31.804c-.07.522-.15 1.045-.21 1.567-.585.998-.916 2.23-.876 3.7.09 3.22.178 6.44.263 9.663.23-1.75.417-3.52.54-5.338.214-3.19.29-6.39.282-9.59zm.213-49.17c-.156 7.78-.234 15.564-.155 23.346.226-1.258.43-2.524.575-3.815.664-5.86 1.17-13.24-.42-19.532zm44.547 176.317c-.424-.887-.95-1.645-1.558-2.278.456.695.923 1.384 1.398 2.06.053.073.108.146.16.22zm177.734-2.278c-.606.634-1.134 1.392-1.558 2.28.052-.074.107-.147.16-.22.476-.677.94-1.365 1.398-2.06zm42.99-174.04c-1.59 6.293-1.085 13.674-.42 19.532.145 1.29.35 2.558.574 3.815.08-7.78 0-15.564-.154-23.347zM433.933 369c.04-1.47-.29-2.7-.874-3.698-.063-.522-.14-1.045-.212-1.567-.007 3.2.068 6.4.283 9.592.123 1.816.31 3.59.54 5.338.087-3.223.173-6.443.263-9.665zm19.572 40.957c-4.538-8.604-9.602-17.352-18.134-21.873.55 2.473 1.158 4.943 1.805 7.454l-.135 31.636c2.89-3.61 5.82-7.223 8.508-11 1.646-.39 3.203-1.205 4.467-2.468l.5-.5c.71-.71 1.276-1.513 1.71-2.37.447-.252.875-.546 1.28-.88zm32.845-60.178c-.463 1.135-.923 2.272-1.375 3.41.38-.65.715-1.366.98-2.17.134-.412.263-.827.395-1.24zm9.6-28.432c-.584 1.24-.796 2.454-.694 3.588-.46.898-.72 1.898-.8 2.916.895-1.097 1.467-2.54 1.477-4.352.005-.7.007-1.422.018-2.152zM358.643 173.833c-8.667 13.667-39.916 25.66-39.916 25.66s-13.418 11.84-14.085 12.34-4.333 8.167-4.333 8.167 1.61-1.578 3.655-4.78c2.043-3.204 11.68-9.887 21.68-12.22s29.41-13.93 29.41-13.93c9.742-5.932 14.756-12.57 24.256-24.07 8.198-9.924 21.178-25.902 24.582-30.096-.47-.355-.894-.755-1.27-1.19l-6.978.142s-1.693-2.59-10.334 10.81-18 15.5-26.666 29.167zm-174.68 403.393c-.02-.013-.038-.022-.057-.036-8.046-6.05-14.493-14.326-19.997-22.864 1.87 6.88.846 14.414.83 21.425-.004 2.313-.09 4.072.13 5.84.147.074.3.14.444.217 1.87.98 3.45 2.156 4.856 3.567 5.656-.497 11.308-1.168 16.96-1.844-.214-.236-.424-.48-.626-.742-1.283-1.664-2.01-3.57-2.54-5.562zm232.133-.037c-.018.013-.037.022-.056.035-.532 1.993-1.26 3.898-2.543 5.562-.202.262-.412.506-.625.742 5.65.675 11.303 1.346 16.96 1.843 1.405-1.41 2.984-2.587 4.854-3.567.146-.076.297-.143.445-.216.222-1.77.135-3.528.13-5.84-.015-7.01-1.037-14.544.83-21.425-5.502 8.538-11.95 16.815-19.995 22.864zM300.31 217.41l-.003.923c.033-.288.025-.6.002-.922zm-.618.923v-.922c-.025.323-.032.635 0 .923zm-82.885-129.5c.158 4.018 15.967 42.39 19 44.82s26.537 41.35 36.5 49.513c8.666 7.1 24.07 22.782 27.383 31.68l.002 2.564c.04-.505.14-1.048.31-1.628.166.58.27 1.124.308 1.628l.002-2.565c3.312-8.897 18.716-24.58 27.383-31.68 9.962-8.16 33.467-47.08 36.5-49.51s18.84-40.805 19-44.822c.158-4.018 2.332-13.167 2.5-20.167.166-7-4.27-18.632-3.834-20.667s-5.843-13.05-5.843-13.05-2.49-2.617-3.49-3.784-10.654-6.42-12-8.5-16.332-5.917-16.332-5.917c-8.62-1.338-21.5-3.5-21.5-3.5l-19.597-1.366c-1.02.378-2.165.6-3.456.6-1.245 0-2.355-.205-3.348-.557l-18.986 1.323s-12.88 2.163-21.5 3.5c0 0-14.988 3.838-16.334 5.917-1.344 2.08-11 7.333-12 8.5s-3.49 3.785-3.49 3.785-6.28 11.014-5.842 13.048c.436 2.035-4 13.667-3.834 20.667s2.34 16.15 2.5 20.166z"/><path fill="#fff" d="M522.652 309.238c-.022-7.13-.762-14.223-1.744-21.276-.087-.835-.16-1.62-.286-2.56-.423-3.745-1.335-7.786-2.25-11.856l-1.622-6.027c-.527-1.993-1.193-3.91-1.74-5.78-2.2-7.04-4.69-14-7.607-20.77-2.893-6.78-6.033-13.453-9.555-19.898-2.053-3.76-3.936-7.095-5.85-10.25-3.072-5.24-6.292-10.287-9.666-15.032-3.36-4.756-6.826-9.245-10.405-13.358-5.888-7.325-11.364-14.174-19.044-21.96.02.164-.002.275-.014.404l-.138-.134c-.093-.284-.234-.612-.355-.823l-.124-.185-.03-.046-.016-.024-.004-.006-.166-.197-.01-.01-.084-.076-.656-.604-4.947-4.552c-.816-.774-1.658-1.496-2.506-2.202l-1.265-1.072-.634-.537-.76-.538-2.79-1.937c-.956-.6-1.93-1.17-2.894-1.754-.955-.603-1.952-1.12-2.948-1.64-1-.512-1.977-1.08-2.996-1.543-8.094-3.88-16.553-6.82-25.116-9.14-2.304-.646-4.497-1.202-6.626-1.71.7-1.2 1.044-2.18.698-2.62.66-.633 1.1-1.332 1.462-2.102l1.43-2.058c.418-.625.954-1.322 1.44-2.128l1.512-2.54c.54-.847.97-1.762 1.39-2.608.412-.85.832-1.628 1.13-2.324l.935-2.35c.47-.8.822-1.647 1.196-2.512.364-.867.8-1.736 1.09-2.704 1.725-4.734 2.008-10.52.455-15.844-.71-2.672-1.79-5.233-3.088-7.596-1.29-2.427-2.837-4.57-3.922-6.605-1.057-1.765-1.69-3.197-2.465-4.37-.377-.596-.776-1.143-1.207-1.705-.415-.574-.877-1.152-1.417-1.784l-.45-.56-.986-2.174c-1.283-3.45-2.553-6.86-3.828-10.283-.027-.218-.045-.426-.104-.664-.404-1.9-1.44-3.982-2.13-5.852-.618-1.78-1.26-3.523-1.786-5.363-.29-.92-.507-1.795-.854-2.756-.198-.503-.36-1.034-.602-1.508l-.78-1.384c-.688-1-1.337-1.863-2.047-2.592-2.195-2.557-4.857-4.386-7.572-5.453-2.164-1.23-4.076-2.504-6.73-3.722-.01.108-.03.202-.047.302l-.182-.077c-2.72-2.637-6.46-5.03-9.84-6.8-6.786-3.57-14.153-5.868-21.583-7.32l-3.108-.558-2.894-.438c-6.19-.932-12.25-1.332-17.85-1.165-4.24-.105-8.228-.243-12.91-.296h-.013c-.644-.007-1.298-.013-1.97-.017l.012.017h-.385c.006-.006.007-.01.012-.017-.673.004-1.328.01-1.972.017h-.018c-4.682.054-8.67.19-12.906.295-5.6-.168-11.658.232-17.85 1.164l-2.894.438-3.108.558c-7.43 1.453-14.797 3.75-21.584 7.32-3.378 1.77-7.12 4.163-9.84 6.8l-.182.077c-.018-.1-.038-.193-.046-.302-2.655 1.218-4.567 2.493-6.73 3.722-2.716 1.066-5.378 2.896-7.572 5.453-.71.73-1.358 1.592-2.047 2.592l-.78 1.384c-.24.475-.402 1.005-.6 1.508-.348.96-.565 1.834-.855 2.757-.525 1.84-1.168 3.584-1.786 5.364-.69 1.87-1.727 3.952-2.13 5.852-.06.238-.077.446-.105.665l-3.828 10.284-.986 2.174c-.15.19-.308.383-.45.56-.54.632-1 1.21-1.416 1.784-.43.562-.83 1.11-1.207 1.705-.773 1.173-1.408 2.605-2.465 4.37-1.085 2.035-2.633 4.178-3.922 6.605-1.297 2.363-2.377 4.924-3.088 7.596-1.553 5.322-1.27 11.11.454 15.844.29.968.727 1.837 1.092 2.704.374.864.726 1.71 1.196 2.513l.936 2.348c.297.696.717 1.473 1.128 2.324.42.846.85 1.76 1.39 2.61.516.863 1.03 1.727 1.512 2.537.487.805 1.023 1.5 1.44 2.127l1.43 2.058c.364.77.804 1.47 1.463 2.103-.346.438-.002 1.42.698 2.618-2.128.51-4.32 1.066-6.625 1.71-8.563 2.32-17.022 5.26-25.116 9.14-1.02.465-1.997 1.033-2.997 1.543-.996.52-1.993 1.037-2.948 1.64-.964.586-1.938 1.154-2.893 1.755l-2.79 1.937-.76.537-.634.536-1.265 1.072c-.848.707-1.69 1.428-2.506 2.203l-4.947 4.553-.656.604-.083.076-.01.01-.166.197-.004.006-.015.023-.03.045-.125.184c-.12.21-.263.538-.355.822l-.137.134c-.012-.128-.033-.24-.014-.403-7.68 7.785-13.156 14.634-19.044 21.96-3.58 4.112-7.046 8.6-10.405 13.357-3.374 4.746-6.594 9.792-9.667 15.033-1.913 3.154-3.796 6.49-5.85 10.25-3.52 6.444-6.66 13.117-9.554 19.896-2.916 6.77-5.406 13.73-7.606 20.77-.548 1.87-1.214 3.787-1.74 5.78l-1.622 6.026c-.916 4.07-1.828 8.11-2.25 11.856-.127.94-.2 1.724-.287 2.56-.983 7.054-1.723 14.146-1.745 21.276-.117 3.57.01 7.12.064 10.656.088 3.546.09 7.09.263 10.66l.27 9.275-.085 2.712c-.117 6.236-.22 11.257.125 16.798.156 2.77.283 5.678.64 8.928.33 3.25.66 6.856 1.282 11.016 1.287 9.485 3.04 19.19 5.52 28.823 1.23 4.81 2.645 9.604 3.992 14.33.654 2.363 1.293 4.724 1.816 7.08.306 1.177.475 2.36.71 3.54l.164.886.194.995.374 1.82.375 1.818c.152.618.343 1.25.514 1.875.364 1.24.68 2.532 1.09 3.722.813 2.39 1.615 4.78 2.562 7.085 1.797 4.663 3.86 9.148 5.947 13.568 4.247 8.797 8.838 17.186 13.458 25.177 3.685 6.41 7.156 12.25 10.397 18.294l1.173 2.383 1.454 2.628c.56 1.016 1.358 2.12 2.14 3.345 3.24 4.82 7.808 10.905 12.565 16.88 4.736 5.98 9.572 11.873 13.23 16.265l5.487 6.547c-.044 1.106-.07 2.396-.076 3.847.006 4.418.12 10.203.638 16.478.096.816.162 1.587.288 2.454l.286 1.43.02.088.004.022c.016.052-.03-.083.037.12l.012.035.145.415c.078.208.094.318.23.617.22.53.475 1.04.79 1.51.325.48.73.973 1.26 1.396.513.43 1.144.755 1.765.972.305.094.612.167.91.227.28.035.58.082.84.094 1.068.057 1.92-.05 2.68-.11l1.064-.084c.31-.01.638-.02 1.042-.02 1.527-.013 3.026-.024 4.482-.035 2.535-.022 4.924-.053 7.108-.087.548.62 1.097 1.236 1.644 1.848l1.395 1.56 1.697-1.177c1.315-.912 2.603-1.812 3.856-2.692 14.963-.035 45.417-.313 55.055.214 4.918-.313 10.84-.462 15.042-.774l18.38.03c4.762.396 8.377.927 13.473 1.277l.015.3 2.352-.107c.17-.008.332-.017.5-.024.167.008.328.017.5.024l2.35.106.015-.3c5.097-.35 8.712-.88 13.474-1.275l18.378-.03c4.2.312 10.124.46 15.042.774 9.638-.527 40.092-.25 55.055-.213 1.254.88 2.54 1.78 3.856 2.693l1.697 1.177 1.395-1.56c.547-.61 1.096-1.228 1.644-1.847 2.185.034 4.573.064 7.108.088l4.482.035c.404 0 .732.01 1.043.02l1.064.084c.76.06 1.61.167 2.678.11.26-.01.562-.058.84-.093.3-.06.606-.133.91-.227.622-.217 1.253-.54 1.767-.972.528-.424.933-.916 1.257-1.396.316-.47.572-.98.79-1.51.138-.3.153-.41.23-.617l.146-.416.012-.036c.066-.203.02-.068.037-.12l.005-.022.02-.09.285-1.428c.126-.867.192-1.638.288-2.454.518-6.274.632-12.06.637-16.478-.007-1.45-.032-2.74-.076-3.847.952-1.135 2.918-3.48 5.487-6.547 3.66-4.392 8.495-10.285 13.232-16.265 4.757-5.975 9.324-12.06 12.563-16.88.782-1.226 1.58-2.33 2.14-3.345.563-1.015 1.052-1.9 1.455-2.63l1.173-2.382c3.24-6.043 6.713-11.884 10.397-18.294 4.62-7.99 9.21-16.38 13.458-25.177 2.087-4.42 4.15-8.905 5.947-13.568.946-2.306 1.748-4.696 2.56-7.085.413-1.19.728-2.482 1.092-3.72.17-.625.36-1.258.515-1.876l.374-1.818.373-1.82.194-.995.166-.885c.234-1.18.403-2.364.71-3.54.522-2.357 1.16-4.718 1.815-7.082 1.35-4.726 2.765-9.52 3.993-14.33 2.48-9.632 4.232-19.337 5.52-28.822.62-4.16.952-7.766 1.28-11.016.358-3.25.485-6.156.642-8.928.344-5.54.242-10.562.125-16.798l-.086-2.713.27-9.276c.173-3.57.176-7.114.265-10.66.053-3.537.18-7.085.062-10.656zm-16.723-64.66l.64 1.53c.376.925.833 2.173 1.31 3.414.474 1.242.945 2.484 1.3 3.416l.543 1.57-.573-1.612c-.372-.957-.87-2.233-1.365-3.51-.506-1.272-.975-2.558-1.384-3.5l-.673-1.574.202.265zm-74.663-97.604l1.76.927c1.018.614 2.377 1.43 3.735 2.248l3.504 2.444 1.54 1.307-1.595-1.337-3.635-2.48c-1.41-.825-2.802-1.676-3.872-2.273l-1.817-.94.38.104zm-44.53-100.086s.195.663.428 1.33l.448 1.33-.502-1.36c-.26-.68-.478-1.356-.478-1.356l.106.056zm-9.296-11.24c1.592 1.034 3.146 2.082 4.563 3.27.588.963 1.744 2.63 2.322 4.16.11.385.238.75.378 1.092.165.54.295.92.448 1.324.297.773.6 1.355.89 1.598-.035.54.226 1.645.195 2.14.587-.496 1.09.23 1.296 1.9.054.028.193-.265.28-.077.628 1.62 1.085 3.267 1.5 4.812.136.084.202-.062.328-.022.335.753.655 1.508 1.02 2.247l.054.14c.318 1.427.76 2.88 1.27 4.343.53 1.456 1.163 2.91 1.794 4.362.16.584.34 1.214.646 1.91.497 1.11 1.098 2.123 1.687 3.137.195.436.394.875.587 1.302.547 1.203 1.147 2.38 1.71 3.56.29.586.56 1.178.864 1.757.326.574.65 1.146.976 1.715 1.294 2.356 2.617 4.33 3.59 6.433l.646 1.313c.188.432.382.85.577 1.258.47 1.767.946 3.258 2.036 5.008.164.512.28 1.03.42 1.58l.04.165c-.3.643-.506 2.02-.526 3.433-.147 1.42-.08 2.905-.025 3.815l-.392.898c.16.368.293.748.355 1.133.048.385.062.78.054 1.188-.038.813-.066 1.7-.297 2.65l-.184.61c-.344.673-.66 1.314-1.033 1.966-.394.647-.77 1.326-1.108 2.122-.13.308-.247.612-.355.914-.134.292-.256.583-.37.875-.403.42-.777.91-1.117 1.444-.338.534-.633 1.114-.964 1.676-.622 1.14-1.075 2.338-1.287 3.35-.323.24-.65.48-.97.753-.24.762-.61 1.592-.906 2.38l-.29.372c-.258.048-.564.257-.78.15-1.798 2.037-1.98 2.825-2.907 4.375-.475.612-.947 1.27-1.416 1.96-.643.696-1.443 1.31-2.05 2.05-.842 1.023-1.766 2.767-2.437 3.81-.313.483-.648.95-.995 1.413l-1.707 2.057c-2.436 2.723-5.266 5.237-7.717 8.546l-2.118 2.857s-3.117 3.5-6.305 6.935c-3.18 3.442-6.453 6.792-6.452 6.793l-3.272 3.267c-3.143 3.052-6.047 5.42-9.44 7.963-2.797 2.098-5.075 4.495-7.46 6.872-2.38 2.37-4.868 4.752-8.037 6.57l-1.498.08.03.58c-.64.258-1.268.51-1.942.936-.855.58-1.395 1.296-2.082 1.933l-.802.424c-.522.23-1.258.604-2.158.97-.944.354-2.046.765-3.228 1.206l-1.844.684-1.925.867c-2.593 1.142-4.964 2.604-6.728 3.76-.866.6-1.558 1.14-2.055 1.5-.5.358-.76.592-.76.592-1.048.77-2.12 1.527-3.12 2.397-.432.357-.852.712-1.264 1.068.84-1.023 1.74-2.125 2.685-3.006.602-.845 1.522-2.163 2.793-3.623 1.277-1.454 2.748-3.16 4.338-4.848l4.788-4.954c1.562-1.547 2.985-2.958 4.09-4.05.198-.098.05.148.276.02 1.07-.99 2.627-2.45 4.424-4.218 1.793-1.753 3.71-3.797 5.458-5.784 3.483-3.983 6.262-7.743 6.092-8.447 1.196-1.332 2.2-2.656 3.1-4.007 0 0 .302-.388.827-1.067.532-.675 1.27-1.654 2.148-2.836 1.776-2.348 4.063-5.54 6.288-8.772 2.23-3.23 4.36-6.527 5.938-9.013l2.576-4.177 2.902-4.485 2.915-4.71c2.45-4.086 4.808-8.422 6.967-12.96 2.134-4.548 4.128-9.27 5.85-14.118 1.704-4.855 3.173-9.817 4.342-14.807 1.142-4.998 1.934-10.03 2.36-14.985l.217-3.058.018-2.71c.046-1.702-.114-3.222-.235-4.666-.086-1.44-.388-2.83-.652-4.24-.232-1.438-.696-2.786-1.156-4.327-.143-.43-.236-.86-.424-1.36 0 0-1.293-4.64-1.387-4.612-1.092-3.546-2.7-6.91-4.59-10.085-.504-.775-.94-1.596-1.502-2.333l-.788-1.074c.34.207.707.435 1.115.69zM236.8 133.484l-.635-1.132c-.923-1.765-1.76-3.352-2.442-4.873-.694-1.514-1.29-2.933-1.696-4.373l-1.062-1.673c-.372-.868-.882-2.025-1.467-3.3-.603-1.27-1.267-2.663-1.91-4.018-1.323-2.696-2.563-5.245-3.292-6.248-.043-.112-.082-.21-.125-.325-.434-1.084-.76-2.13-1.127-3.175-.25-.983-.525-1.914-.782-2.823-.246-.914-.506-1.796-.78-2.665-.577-1.73-1.09-3.435-1.718-5.203-.527-1.804-.945-3.693-1.5-5.694-1.13-4.688-2.004-9.507-2.45-14.436-.46-4.91-.42-10.003.31-14.953.005-.063.017-.13.023-.193 4.56-4.158 9.088-7.566 13.566-10.62 4.583-3.1 9.187-5.8 14.113-8.262 11.624-5.257 24.673-9.768 38.68-12.003 4.25-.64 8.696-1.066 13.68-1.286 17.114-.634 34.404 2.4 50.307 8.93 4.2 1.723 8.606 3.863 12.854 6.2 4.254 2.327 8.332 4.87 12.01 7.237l2.526 1.61c3.468 2.525 6.86 5.24 9.972 8.147.01.08.023.16.03.24.73 4.95.77 10.043.308 14.953-.445 4.928-1.318 9.747-2.45 14.436-.554 2-.972 3.89-1.5 5.694-.626 1.768-1.14 3.474-1.716 5.203-.275.868-.535 1.75-.78 2.665-.258.91-.534 1.84-.784 2.823-.367 1.046-.693 2.09-1.127 3.175l-.125.325c-.73 1.002-1.97 3.55-3.29 6.248l-1.912 4.017c-.585 1.276-1.095 2.433-1.467 3.3-.348.547-.697 1.1-1.063 1.674-.406 1.44-1.002 2.86-1.697 4.373-.683 1.52-1.52 3.108-2.442 4.873l-.635 1.132c-1.14 1.74-2.258 3.36-3.46 5.174l-7.338 1.874c-2.897.724-5.612 1.5-8.084 2.056-2.48.527-4.683.996-6.498 1.38-12.147 1.997-24.407 3.275-36.762 3.41-2.753.09-5.306-.022-7.665-.016l-3.397-.026-3.112-.15-5.412-.238c-1.63-.09-3.08-.23-4.372-.307-5.175-.296-7.744-.505-8.39-.14l-1.258-.162c-.797-.117-1.948-.216-3.31-.465l-4.658-.776c-1.705-.28-3.5-.69-5.31-1.043-3.607-.75-7.17-1.667-9.824-2.406-1.067-.31-1.97-.59-2.678-.813-1.772-2.774-3.3-4.95-4.876-7.352zm88.36-107.734l2.018.444c1.217.243 2.81.68 4.412 1.084 1.604.395 3.177.91 4.37 1.243.595.17 1.085.33 1.428.445l.54.177-.525-.17c-.332-.107-.81-.263-1.388-.422-1.16-.318-2.69-.8-4.246-1.184-3.1-.82-6.244-1.45-6.244-1.452l-.364-.163zm-60.68 122.69c3.796.46 7.507 1.006 11.24 1.267 1.865.15 3.725.35 5.597.47 1.874.095 3.756.19 5.652.29 1.098.078 2.2.187 3.312.235l3.348.102c2.243.05 4.51.15 6.793.143l6.904-.173c1.16-.042 2.325-.046 3.49-.123 1.166-.09 2.335-.18 3.508-.272l7.084-.576 7.13-.942c4.793-.542 9.56-1.563 14.386-2.467 2.945-.474 5.882-1.258 8.954-1.978l4.964-1.188-.905 1.463c-2.814 3.55-6.31 8.928-8.268 12.343l-1.583 1.762c-.81 1.337-1.776 2.867-2.676 4.24-.198.245-.4.495-.596.74-.34.235-.827.72-1.028.722-3.4 4.096-4.19 5.37-6.383 8.186-.995 1.168-2.034 2.387-3.104 3.64-1.277 1.363-2.715 2.668-4.02 4.03-1.82 1.863-4.38 4.78-6.033 6.58-.772.836-1.557 1.662-2.353 2.486 0 0-.94.936-1.853 1.91l-1.837 1.93c-2.566 2.578-5.097 5.273-7.66 8.104-2.412 2.842-4.92 5.803-6.87 9.41-.012 1.185-.55 2.275-1.637 2.81-.148-.105-.293-.214-.405-.36v.12l-.13-.32c-.068-.123-.123-.26-.162-.406l-.006-.015-.848-1.56c-1.97-3.732-4.55-6.766-7.02-9.68-2.565-2.83-5.096-5.525-7.662-8.104l-1.837-1.93c-.913-.975-1.854-1.912-1.853-1.912-.796-.825-1.58-1.65-2.353-2.487-1.654-1.798-4.214-4.715-6.033-6.578-1.305-1.362-2.742-2.667-4.02-4.03-1.07-1.253-2.11-2.472-3.105-3.64-2.192-2.815-2.982-4.09-6.384-8.186-.2-.003-.69-.487-1.028-.723l-.596-.74c-.9-1.372-1.867-2.902-2.676-4.24l-1.583-1.76c-1.96-3.416-5.453-8.794-8.268-12.344l-.303-.49c7.28 2.04 14.097 3.267 20.716 4.24zm86.235-129.297s.325.1.798.288l1.744.67c.64.23 1.258.506 1.723.714l.775.34-.803-.343c-.48-.21-1.123-.482-1.784-.714l-1.8-.67c-.49-.188-.83-.28-.83-.28l.177-.003zm-105.69 1.67c.465-.208 1.084-.483 1.723-.715l1.743-.668c.472-.19.797-.288.797-.288h.176s-.338.095-.828.282l-1.8.67c-.662.232-1.306.504-1.784.715l-.802.343s.31-.135.775-.34zm-11.67 6.93c.17-.04.037.153.27.06 2.336-1.958 5.128-3.798 8.116-5.238.358-.164.026.172.112.16 1.344-.836 2.45-1.307 3.145-1.537.697-.228.998-.186.832.148.75-.464 2.737-1.294 3.636-1.742 1.258-.137 4.832-1.31 8.786-2.26 3.942-.984 8.235-1.79 10.557-2.24 3.893-.4 7.8-.636 11.734-.816 7.025-.277 9.947-.29 10.318-.874l4.717-.03h3.23v.176c.288.01.56.03.818.058v.103c.354.003.71.012 1.063.03.167-.012.333.004.5.004v-.37h3.23l4.718.03c.37.584 3.293.596 10.318.874 3.936.18 7.842.417 11.735.816 2.322.45 6.615 1.256 10.558 2.24 3.954.95 7.528 2.124 8.786 2.26.898.448 2.887 1.277 3.637 1.742-.165-.333.136-.376.833-.148.694.23 1.8.7 3.145 1.536.086.013-.246-.323.113-.16 2.99 1.44 5.78 3.28 8.116 5.24.233.092.102-.1.27-.062.66.446 1.258.962 1.87 1.466.317.27.645.53.965.8l-.13.324s.397.166.948.41l.016.015.207.207 1.43 1.562 1.353 1.676.687.845.637.895c.422.6.867 1.19 1.283 1.803.76 1.277 1.634 2.5 2.298 3.86.35.67.728 1.325 1.058 2.007l.933 2.08c.454 1.057.773 2.275 1.277 3.637.426 1.082.675 2.203 1.037 3.276l.256.81.057.175c-2.42-1.997-4.867-3.792-7.335-5.482l-.565-.405c-3.02-2.248-6.142-4.354-9.36-6.333-.267-.28.246-.106-.2-.487-6.35-3.634-13.555-6.925-20.9-9.805-.877-.34.205-.192.036-.296-7.188-2.28-10.89-3.388-9.384-3.738-2.064-.456-7.118-1.57-9.492-1.847-2.79-1-11.724-2.768-21.506-2.875-4.82-.142-9.876.196-14.344.657-2.237.262-4.343.528-6.22.875-1.885.292-3.54.653-4.902.954-9.135 1.452-18.09 3.986-26.72 7.456-7.688 3.132-12.85 5.965-16.18 7.988-1.663 1.018-2.868 1.843-3.673 2.49-.812.637-1.225 1.095-1.297 1.395 0 0-4.672 2.916-9.058 6.255-1.68 1.263-3.317 2.574-4.696 3.73l.084-.35.115-.36.257-.81c.362-1.072.61-2.193 1.037-3.276.504-1.363.823-2.58 1.278-3.638l.933-2.08c.33-.682.71-1.338 1.058-2.007.664-1.36 1.538-2.583 2.298-3.86.417-.614.862-1.202 1.284-1.803l.637-.895.688-.845 1.354-1.676 1.428-1.562.207-.207.016-.014c.55-.245.948-.41.95-.41l-.134-.326c.32-.268.647-.53.966-.8.61-.502 1.208-1.02 1.868-1.465zm-20.518 20.474c.232-.666.427-1.33.427-1.33l.105-.055s-.218.677-.48 1.357l-.5 1.357.448-1.33zm-11.265 77.06c-.297-.79-.667-1.62-.905-2.382-.32-.272-.647-.515-.97-.754-.213-1.01-.666-2.21-1.288-3.348-.33-.562-.626-1.142-.964-1.677-.34-.534-.714-1.024-1.116-1.444-.115-.29-.237-.58-.37-.874-.11-.302-.227-.606-.355-.914-.337-.796-.715-1.475-1.108-2.122-.374-.652-.69-1.293-1.034-1.966l-.184-.61c-.23-.95-.26-1.837-.297-2.65-.01-.408.005-.803.053-1.187.062-.385.196-.765.355-1.133l-.392-.897c.055-.91.122-2.394-.025-3.815-.02-1.414-.227-2.79-.526-3.433l.04-.166c.14-.55.257-1.067.42-1.58 1.09-1.75 1.567-3.242 2.038-5.007.195-.41.39-.827.577-1.258.208-.426.422-.862.645-1.313.973-2.102 2.296-4.076 3.59-6.433l.975-1.715c.306-.58.573-1.172.863-1.76.563-1.18 1.164-2.355 1.71-3.558l.59-1.302c.588-1.014 1.188-2.026 1.686-3.137.305-.696.484-1.326.645-1.91.63-1.452 1.264-2.906 1.793-4.362.512-1.46.953-2.915 1.27-4.34l.056-.142c.363-.74.684-1.493 1.02-2.247.125-.04.19.107.327.023.416-1.545.873-3.193 1.5-4.812.088-.187.228.106.28.08.205-1.672.71-2.398 1.296-1.902-.03-.495.23-1.6.195-2.14.29-.243.594-.824.89-1.598.153-.403.283-.784.448-1.324.14-.34.267-.707.378-1.09.578-1.532 1.734-3.2 2.322-4.163 1.418-1.187 2.972-2.235 4.562-3.27l1.118-.696-.788 1.074c-.56.738-.998 1.56-1.502 2.334-1.89 3.175-3.498 6.54-4.59 10.086-.094-.028-1.387 4.612-1.387 4.612-.187.5-.28.93-.423 1.36-.21.704-.418 1.365-.607 2.015l-.33.302c-.002.418-.03.832-.065 1.244-.056.254-.112.507-.153.765-.265 1.41-.566 2.798-.652 4.238-.12 1.444-.28 2.964-.236 4.667l.018 2.71.217 3.057c.426 4.956 1.218 9.987 2.36 14.985 1.168 4.99 2.637 9.952 4.34 14.807 1.723 4.85 3.717 9.57 5.85 14.12 2.16 4.537 4.518 8.873 6.968 12.96l2.915 4.708c.977 1.508 1.936 2.99 2.902 4.485 0 0 .33.533.88 1.427l-.168-.063.015.023c.086.052.15.096.216.14.06.1.12.194.186.302l-.05.135c.288.466.552.945.792 1.438l.286.094c.05.08.1.162.148.243-.066.02-.132.037-.223.05.104.03.205.058.31.09l.185.3c1.576 2.485 3.708 5.78 5.938 9.012 2.225 3.233 4.512 6.424 6.288 8.772.878 1.18 1.616 2.16 2.147 2.835.525.68.826 1.067.826 1.067.9 1.352 1.905 2.675 3.102 4.006-.17.704 2.608 4.463 6.092 8.447 1.747 1.987 3.665 4.03 5.458 5.784 1.797 1.767 3.354 3.228 4.424 4.218.227.128.078-.12.277-.02l4.09 4.05 4.787 4.953c1.59 1.69 3.06 3.396 4.338 4.848 1.27 1.46 2.19 2.777 2.793 3.623.945.883 1.846 1.984 2.686 3.007-.413-.356-.833-.71-1.265-1.07-.998-.87-2.07-1.626-3.118-2.396 0 0-.262-.233-.76-.59-.498-.36-1.19-.902-2.055-1.5-1.764-1.157-4.135-2.62-6.728-3.76-.647-.29-1.29-.58-1.926-.867l-1.844-.684-3.228-1.206c-.9-.367-1.636-.742-2.158-.97l-.802-.426c-.298-.276-.568-.567-.85-.855.117-.37.188-.59.195-.617l-1.428-.46c-1.176-.744-2.2-.947-3.41-1.596-3.17-1.82-5.66-4.202-8.038-6.57-2.385-2.378-4.663-4.775-7.46-6.873-3.394-2.543-6.298-4.912-9.44-7.963l-3.272-3.267s-3.272-3.35-6.452-6.793c-3.188-3.434-6.305-6.935-6.305-6.935l-2.12-2.858c-2.45-3.31-5.28-5.824-7.716-8.546l-1.707-2.057c-.347-.463-.682-.93-.995-1.414-.672-1.042-1.596-2.787-2.438-3.81-.605-.74-1.406-1.355-2.05-2.05-.468-.69-.94-1.348-1.415-1.96-.928-1.55-1.11-2.338-2.906-4.375-.217.108-.523-.1-.782-.15l-.294-.364zm-41.836 27.316l3.504-2.444 3.736-2.248 1.76-.927.38-.104-1.817.942c-1.07.597-2.463 1.45-3.872 2.274l-3.636 2.48c-.958.8-1.595 1.335-1.595 1.335l1.54-1.307zM90.82 252.938l1.3-3.416c.478-1.24.935-2.488 1.31-3.413l.642-1.533.203-.265-.674 1.574c-.408.942-.877 2.228-1.383 3.5l-1.365 3.51-.573 1.612.54-1.57zm84.506 328.625l-.84.004c-.314.013-.647.014-.944.04-.622.04-1.183.11-1.724.164-.522.055-1 .085-1.4.078-.388-.02-.663-.083-.887-.18-.43-.18-.884-.765-1.23-1.635l-.148-.392-.056-.145-.03-.148-.15-.676c-.118-.42-.16-1.028-.24-1.53-.34-3.774-.503-7.565-.683-11.166-.04-1.785-.06-3.35-.074-4.828.97 1.164 1.984 2.332 3.08 3.506-.095 1.262 6.03 8.904 13.07 17.034-2.763-.074-5.448-.126-7.744-.123zm17.125.42l-3.765-.126c-1.02-1.076-2.032-2.15-3.01-3.224l-6.06-7.12c-3.913-4.822-5.66-7.28-10.863-13.277.112-.132.233-.278.34-.398.468-.524.874-.933 1.21-1.215.66-.57 1.076-.606 1.08-.12.633-.857 2.43-2.734 3.188-3.69.7-.34 1.924-1.248 3.424-2.484 1.508-1.232 3.374-2.722 5.256-4.32 3.832-3.13 7.93-6.505 10.122-8.366 3.938-2.665 7.905-5.278 11.89-7.92 7.11-4.705 10.05-6.658 9.973-7.622l4.8-3.076 4.827-3.023-.414-.674.2-.113 5.48 9.294 6.694 11.953c2.152 3.836 4.305 7.537 6.385 11.04-8.186 5.69-15.776 11.188-23.31 16.444l-8.524 5.836c-1.854 1.236-3.702 2.456-5.565 3.654-3.627 2.328-9.195 5.75-13.357 8.545zm-23.055-25.113s1.073-1.216 2.293-2.322l1.632-1.556c.444-.425.745-.703.745-.703l.208-.07s-.325.273-.783.71c-.464.43-1.08 1.006-1.7 1.58-1.27 1.125-2.394 2.36-2.395 2.36zm101.153 25.178c-19.167-.375-36.688.12-53.708.215l-12.473-.02c-1.607-.02-3.205-.057-4.805-.086 2.608-1.856 4.863-3.484 6.49-4.683.342-.36-.166-.14.11-.46 9.944-6.868 31.313-21.93 38.334-26.103l1.94-1.54 1.295-1.027-.802-1.187c-1.96-2.897-3.973-6.012-5.61-8.284l-7.732-13.11c-2.097-4.513-3.242-7.84-6.118-13.28-.77-.704-1.825-2.04-3.043-3.763-.302-.43-.627-.895-.932-1.363l-.854-1.437c-.55-1.023-1.093-2.166-1.612-3.336l-1.377-3.822-.4-.945c-.16-.325-.362-.665-.543-.995l-.558-.99-.558-.873c-1.46-2.32-2.943-4.396-4.182-6.167-2.236-3.17-5.742-8.12-9.19-12.805-.18-.35-.275-.593-.18-.597-2.913-4.14-5.817-7.847-8.826-11.905.13.11.29.26.585.573-4.236-6.014-7.743-10.634-9.54-12.026l-2.426-3.644c-1.048-1.65-1.94-3.22-2.992-4.713l-1.513-2.23-1.566-2.143c-2.108-2.86-4.43-5.69-7.39-8.898-1.317-1.424-2.698-2.834-4.11-4.235.017-.12.032-.24.05-.355-.038-1.604-.077-3.145-.114-4.667.38-4.44.72-11.946.872-19.05.088-4.656.09-9.135-.013-12.478.376-8.376.763-15.93 1.142-23.29.647-12.583 1.26-24.47 1.796-39.776.99-28.234-3.95-136.53-4-137.622l-2.997.138c.05 1.09 4.986 109.265 4 137.378-.536 15.284-1.147 27.157-1.794 39.728-.305 5.93-.615 11.99-.922 18.5-.11.03-.22.066-.33.095-.084.09-.16.187-.246.273-.2.2-.42.382-.632.572l-.038 1.12-.264.27c-2.164 2.31-4.2 4.678-6.18 7.098-3.416 4.172-6.686 8.466-9.875 12.94-1.418-1.438-3.826-4.582-5.028-6.097-.574-1.162-1.89-3.432-3.584-6.335-.827-1.467-1.79-3.064-2.734-4.81l-1.486-2.664-1.496-2.79c-4.06-7.518-8.014-15.797-10.196-20.245-3.106-7.603-6.008-15.28-8.858-23.027-5.035-13.845-6.926-19.644-8.006-20.116 0 0-1.568-4.668-3.06-9.36-1.503-4.69-2.9-9.4-2.9-9.4l-.76.222-.107-.397c.007.19-.02.277-.022.434l-1.36.4.373 1.25c-.12-.055-.23-.092-.367-.193 3.442 11.146 6.65 19.97 9.952 29.48 3.43 11.158 7.942 22.937 13.302 34.808 1.58 3.623 3.315 7.345 5.303 11.485 3.443 7.084 7.204 14.057 11.495 20.747 1.048 1.687 2.225 3.3 3.345 4.945 1.212 1.59 2.354 3.224 3.674 4.742 1.136 1.437 2.413 2.77 3.68 4.11.007-.015.015-.028.02-.043l.76.642c6.19 5.297 11.844 10.498 17.286 15.983 5.398 5.533 10.698 11.244 15.412 18.175 3.223 4.88 6.73 9.86 10.276 14.676l6.73 9.112c4.038 5.456 9.55 12.657 14.69 20.034.617.93 1.28 1.85 1.856 2.785l.882 1.396.74 1.304c.264.388.445.97.66 1.462l.08.19c.037.116-.042-.13-.03-.096l.024.076.033.1.132.406.267.807c.377 1.062.65 2.152 1.103 3.148.45 1.002.83 1.998 1.318 2.95.49.962.977 1.893 1.476 2.702l2.783 4.72.265.45c-.107.012-.173-.004-.268 0l-.742-1.207-.642.396c-.01-.11-.024-.21-.012-.34-5.707 3.627-10.137 6.773-15.03 9.944-5.907 3.315-11.93 7.444-17.948 11.99-1.83 1.378-3.76 2.765-5.86 4.4-1.8 1.4-3.62 2.78-5.376 4.255l-2.653 2.184-2.593 2.274c-.87.75-1.73 1.518-2.553 2.33l-2.506 2.4-1.87 2.01c-.402-.16-1.25-.97-1.833-1.397l-1.215-1.397c-1.89-2.58-4.017-5.39-5.77-7.883-1.1-1.17-2.155-2.25-3.198-3.318-4.318-6.328-12-16.218-17.63-22.908-.683-1.02-1.454-2.05-2.11-3.088-.678-1.03-1.368-2.082-2.075-3.158-.46-.702-.855-1.48-1.274-2.185l-.614-1.062-.152-.26-.038-.065-.01-.013c.005.008.02.036.032.062l-.01-.02-.07-.136-.28-.54c-.736-1.43-1.462-2.787-2.21-4.08-1.47-2.61-2.945-5.045-4.447-7.602l-1.193-2.237c-3.506-6.94-6.352-12.487-8.25-17.956l-2.016-3.29c-1.453-3.383-4.21-8.92-6.703-14.19-1.262-2.63-2.486-5.185-3.523-7.344-.994-2.17-1.903-3.917-2.504-4.935-.07-.22-.135-.415-.207-.64l-1.01-3.137c-.35-1.026-.552-2.035-.837-3.05-.167-.954-.416-1.816-.527-2.78l-.422-2.786-.416-2.683c-.157-.916-.273-1.84-.483-2.725-.76-3.577-1.788-6.985-2.95-10.48-1.006-3.558-2.06-7.187-3.117-11.094-2.46-9.077-4.304-18.45-5.635-28.065-.725-4.798-1.18-9.675-1.72-14.574l-.598-7.403-.29-3.724-.21-3.746-.282-5.422c-.133-4.437-.047-8.873-.215-13.482l-.278-7.66-.06-9.06c-.026-2.977.113-5.938.14-8.867.144-2.927.338-5.822.504-8.672.306-2.837.503-5.645.815-8.377l.095-.568c.594-3.063 1.102-6.134 1.87-9.167.166-.28.184.17.38-.274 1.054-5.93 2.69-12.27 4.695-18.47.272-.73.203.173.294.034.84-2.99 1.576-5.227 2.14-6.547.604-1.308 1.02-1.705 1.155-1.062.455-1.665 1.79-5.69 2.43-7.544 1.313-2.072 4.188-8.896 7.746-16.02 3.486-7.156 7.577-14.63 9.78-18.676 4.12-6.424 8.507-12.66 13.088-18.798 4.09-5.475 7.154-9.21 9.09-11.778 1.967-2.543 2.825-3.912 2.75-4.46 0 0 2.963-3.487 6.072-6.836 1.554-1.674 3.126-3.33 4.33-4.543.218-.222.403-.408.59-.595.476-.32.968-.602 1.484-.825.06-.026.113-.05.172-.074l.242-.18c.02-.133.048-.263.065-.354.073.094.087.11 0-.002l.01-.046c-.002.01-.02.015-.028.023-.014-.02-.016-.02-.035-.045l.004-.004.01-.008.033-.03.067-.063.135-.124.27-.248.54-.495 2.167-1.973c.7-.615.078.267.248.166 1.312-1.32 2.46-2.48 3.495-3.416 1.063-.92 1.956-1.65 2.657-2.175l.254-.187.12-.086.058-.042.015-.01c-.033.025-.09.07-.077.062l.007-.004.03-.016c.16-.083.302-.16.43-.227.26-.127.466-.208.616-.24.3-.064.377.065.213.396 1.503-1.35 5.673-4.126 7.705-5.292.692-.232 1.67-.707 2.948-1.238 1.29-.51 2.798-1.223 4.547-1.922 3.486-1.418 7.785-3.067 12.334-4.56 5.206-1.745 10.71-3.297 15.48-4.554 1.45 1.837 3.066 3.597 4 4.45.16.032.15-.143.303-.128 2.02 2.42 6.676 7.395 7.68 9.33.935.597 1.893 1.457 2.73 1.927l2.616 2.972c.49 1.288.565 2.426 1.428 3.81 1.605-.045 4.244 2.83 5.76 4.476.676.745 1.662 1.98 2.682 3.103.02.12.017.214-.05.258.804 1.056 1.733 1.87 2.673 2.796-.06-.004-.127-.017-.242-.06 1.215 1.5 2.475 2.402 3.365 2.313l.8.81c1.206 1.663 1.92 3.098 3.532 4.686 1.684 1.676 3.88 3.09 5.75 4.65 1.083.908 1.86 1.45 2.61 1.932 0 0 .544.48 1.358 1.202.832.704 1.92 1.664 3.043 2.586 2.228 1.866 4.542 3.634 4.542 3.634 2.21 2.12 4.448 3.743 7.028 5.286-2.927 9.698-12.133 41.932-16.02 75.808-2.95 25.702 2.577 52.848 7.02 74.66 2.548 12.513 4.747 23.318 4.452 30.112l2.996.13c.312-7.16-1.922-18.134-4.51-30.84-4.398-21.605-9.873-48.493-6.978-73.72 3.78-32.946 12.63-64.328 15.717-74.634.25.134.49.268.746.403.504.285 1.086.555 1.686.842l.912.434.97.37.967.34.86.26c.592.166 1.158.292 1.678.356l.082.008.354.13c.224.093.586.195.98.39.803.388 1.982.846 3.34 1.563 2.756 1.367 6.234 3.606 9.218 6.41 3.614 3.27 6.247 7.288 7.892 10.046l.068.43.007.042v.27l-.23.382-.458.68.688.535v45.967c-.008.14-.014.227-.02.37-.478 9.482-.294 23.867-.294 34.35-.006 21.205-.2 38.264.314 58.11v31.515c-.193 10.3-.325 20.59-.228 31.137-.032 1.805-.06 3.775-.083 6.02-.11 11.26-.585 23.117-.556 34.09.03 10.45.53 17.466.865 26.872v5.282c-.702 2.62-.948 9.674-.786 18.57.053-.517.094-.777.13-.98-.028 6.114-.128 11.805.01 17.913.08-.066.147.238.214.705.064 7.02.13 14.33.174 18.993.022 9.982.007 27.167-1.09 32.72l-10.033-.017-16.542-.332zM162.872 391.583c-.354 10.27-.702 20.44-.938 30.418-4.024-3.758-8.222-7.427-12.298-10.976-.312-.27-.61-.527-.883-.76l5.05-7.243s.42-.553 1.148-1.522l3.074-3.975c1.312-1.604 2.778-3.545 4.473-5.497.126-.142.25-.297.375-.443zM146.038 408l-.014.02c-.52-.615-1.085-1.296-1.608-2.03-1.733-2.234-3.303-4.604-3.303-4.604l-.123-.33 1.02 1.513c.594.925 1.475 2.083 2.338 3.258.552.784 1.148 1.516 1.69 2.173zm265.276 173.857l-3.766.125c-4.162-2.796-9.73-6.218-13.356-8.547-1.863-1.198-3.712-2.418-5.565-3.654l-8.523-5.835c-7.534-5.257-15.125-10.755-23.31-16.443 2.08-3.504 4.23-7.205 6.384-11.04l6.695-11.953 5.48-9.295.2.112-.415.674 4.826 3.024 4.8 3.076c-.077.964 2.862 2.917 9.975 7.622 3.982 2.642 7.95 5.255 11.888 7.92 2.192 1.86 6.29 5.237 10.122 8.367 1.882 1.597 3.748 3.086 5.256 4.317 1.5 1.236 2.724 2.145 3.424 2.484.76.957 2.555 2.834 3.188 3.69.004-.485.42-.45 1.08.12.336.283.742.69 1.21 1.216.106.12.228.267.34.398-5.205 5.997-6.95 8.455-10.862 13.277-1.943 2.285-3.973 4.67-6.06 7.12-.98 1.076-1.993 2.15-3.012 3.227zm14.414-29.636l.208.07s.3.277.745.702l1.633 1.556c1.22 1.106 2.293 2.322 2.293 2.322s-1.124-1.235-2.395-2.36c-.618-.574-1.235-1.15-1.7-1.58-.457-.437-.782-.71-.782-.71zm7.28 13.755c-.18 3.6-.342 7.392-.682 11.165-.08.503-.123 1.112-.24 1.532l-.15.676-.03.148-.057.146-.15.392c-.346.87-.8 1.455-1.23 1.634-.224.098-.5.16-.886.18-.4.008-.88-.022-1.4-.076-.542-.054-1.103-.123-1.725-.163-.3-.028-.63-.03-.944-.042l-.84-.004c-2.297-.004-4.98.05-7.744.123 7.04-8.13 13.165-15.772 13.07-17.034 1.096-1.174 2.11-2.342 3.08-3.506-.014 1.478-.035 3.042-.074 4.828zm86.694-242.58l-.278 7.66c-.168 4.608-.082 9.045-.215 13.48-.097 1.816-.19 3.645-.284 5.423l-.21 3.746c-.096 1.243-.192 2.484-.29 3.724-.2 2.477-.398 4.945-.598 7.404-.54 4.9-.994 9.776-1.72 14.574-1.33 9.614-3.173 18.988-5.634 28.066-1.06 3.907-2.11 7.536-3.116 11.095-1.163 3.494-2.19 6.902-2.95 10.48-.21.885-.327 1.808-.484 2.723l-.416 2.683c-.14.916-.28 1.844-.422 2.787-.11.963-.36 1.825-.527 2.78-.286 1.014-.49 2.022-.837 3.05l-1.012 3.137c-.07.224-.136.42-.206.64-.6 1.017-1.51 2.764-2.504 4.934l-3.523 7.344c-2.494 5.27-5.25 10.81-6.703 14.19-.657 1.074-1.322 2.16-2.016 3.29-1.898 5.47-4.744 11.017-8.25 17.956l-1.193 2.237c-1.502 2.557-2.98 4.99-4.447 7.602-.748 1.292-1.474 2.65-2.21 4.08l-.28.54-.06.11.01-.02-.008.014-.038.065-.152.26-.614 1.062c-.42.704-.813 1.482-1.273 2.185l-2.075 3.158c-.656 1.037-1.428 2.07-2.11 3.088-5.63 6.69-13.31 16.58-17.63 22.908-1.043 1.068-2.098 2.15-3.2 3.32-1.75 2.492-3.878 5.3-5.768 7.882-.403.465-.813.938-1.215 1.398-.583.43-1.432 1.236-1.834 1.398l-1.87-2.012-2.505-2.398c-.824-.813-1.682-1.582-2.553-2.33l-2.593-2.275-2.654-2.185c-1.757-1.474-3.575-2.855-5.377-4.255-2.1-1.636-4.03-3.022-5.86-4.4-6.018-4.546-12.04-8.675-17.947-11.99-4.895-3.17-9.324-6.317-15.032-9.944.014.128-.002.228-.01.34l-.643-.396-.742 1.208c-.095-.005-.16.01-.267-.002.09-.15.175-.296.265-.448.86-1.462 1.796-3.046 2.783-4.72.5-.81.984-1.74 1.475-2.702.49-.953.87-1.95 1.32-2.95.452-.996.726-2.087 1.103-3.148l.267-.807.133-.405.033-.1.02-.056c-.018.052-.052.16-.024.074l.078-.19c.216-.494.397-1.075.66-1.463l.74-1.304.883-1.395c.577-.937 1.24-1.854 1.856-2.785 5.14-7.377 10.65-14.578 14.688-20.034 4.04-5.468 6.73-9.112 6.73-9.112 3.547-4.814 7.055-9.797 10.277-14.676 4.714-6.93 10.014-12.642 15.412-18.175 5.442-5.485 11.096-10.687 17.287-15.983l.758-.643.02.043c1.268-1.34 2.545-2.674 3.68-4.11 1.32-1.52 2.462-3.153 3.674-4.743 1.12-1.645 2.297-3.26 3.345-4.945 4.292-6.69 8.053-13.663 11.496-20.747 1.987-4.14 3.723-7.862 5.303-11.485 5.358-11.87 9.87-23.65 13.3-34.81 3.303-9.51 6.51-18.332 9.954-29.478-.138.102-.247.14-.367.193l.373-1.25-1.36-.4c-.003-.156-.03-.244-.022-.434l-.106.397-.76-.223s-1.398 4.71-2.9 9.4c-1.492 4.693-3.06 9.36-3.06 9.36-1.08.474-2.972 6.272-8.007 20.117-2.85 7.75-5.752 15.426-8.858 23.03-2.183 4.447-6.138 12.727-10.196 20.243-.503.94-1.003 1.874-1.495 2.79l-1.486 2.664c-.944 1.747-1.908 3.345-2.735 4.812-1.695 2.902-3.01 5.172-3.584 6.334-1.2 1.515-3.61 4.658-5.026 6.097-3.19-4.474-6.46-8.768-9.874-12.94-1.98-2.42-4.017-4.786-6.18-7.097l-.265-.27-.038-1.12c-.21-.19-.43-.37-.632-.572-.087-.086-.162-.183-.246-.27-.11-.03-.22-.066-.33-.097-.307-6.508-.618-12.568-.923-18.5-.646-12.57-1.258-24.442-1.794-39.727-.986-28.114 3.95-136.29 4-137.378l-2.997-.138c-.05 1.09-4.992 109.387-4 137.622.536 15.308 1.147 27.193 1.795 39.776.38 7.36.767 14.916 1.144 23.293-.104 3.343-.1 7.82-.013 12.477.153 7.103.494 14.607.873 19.05l-.115 4.666c.02.116.034.235.05.354-1.41 1.4-2.792 2.812-4.11 4.235-2.96 3.208-5.28 6.038-7.39 8.898-.522.717-1.043 1.43-1.564 2.142-.5.74-1.003 1.48-1.513 2.23-1.052 1.494-1.943 3.063-2.99 4.714l-2.427 3.644c-1.797 1.393-5.304 6.013-9.54 12.026.296-.312.456-.462.586-.573-3.01 4.06-5.914 7.767-8.827 11.906.096.003 0 .245-.18.596-3.448 4.684-6.954 9.634-9.19 12.805-1.238 1.772-2.722 3.85-4.182 6.167l-.556.874-.558.99c-.18.33-.383.67-.542.995l-.402.945-1.377 3.822c-.52 1.17-1.062 2.312-1.61 3.336l-.855 1.437c-.305.47-.63.934-.932 1.362-1.218 1.723-2.273 3.06-3.043 3.762-2.876 5.44-4.02 8.768-6.118 13.28l-7.732 13.11c-1.638 2.272-3.65 5.387-5.61 8.284l-.803 1.187 1.295 1.028 1.94 1.54c7.02 4.176 28.39 19.236 38.333 26.105.277.32-.23.098.11.46 1.628 1.197 3.883 2.825 6.49 4.682-1.6.03-3.196.066-4.804.085l-12.473.02c-17.02-.094-34.54-.59-53.708-.214l-16.537.333-10.033.016c-1.096-5.553-1.11-22.737-1.09-32.72l.174-18.993c.066-.467.134-.77.213-.706.138-6.108.038-11.8.01-17.912.037.2.078.462.13.98.162-8.897-.084-15.95-.784-18.57v-5.283c.333-9.406.834-16.423.863-26.873.03-10.973-.445-22.83-.554-34.09-.024-2.25-.053-4.225-.084-6.032.097-10.53-.035-20.804-.228-31.087v-31.55c.513-19.847.32-36.905.313-58.11 0-10.482.186-24.868-.292-34.35l-.02-.37V220.76l.687-.535s-.184-.27-.457-.68l-.23-.38v-.276l.006-.038.07-.43c1.643-2.76 4.274-6.775 7.89-10.047 2.983-2.804 6.462-5.042 9.217-6.41 1.36-.718 2.54-1.176 3.342-1.564.395-.193.757-.295.98-.387l.354-.13.082-.01c.52-.064 1.086-.19 1.678-.355l.86-.26c.32-.113.644-.227.97-.34l.968-.37.913-.433c.6-.287 1.182-.557 1.686-.842 1.136-.6 2.193-1.188 3.203-1.786 1.002 20.447 5.182 110.395 2.264 131.81l2.973.405c3.086-22.654-1.48-117.27-2.323-134.087 1.51-1.055 2.93-2.2 4.335-3.548 0 0 2.314-1.768 4.54-3.634 1.124-.922 2.212-1.882 3.044-2.586l1.356-1.202c.752-.482 1.528-1.024 2.61-1.933 1.872-1.558 4.067-2.973 5.75-4.65 1.612-1.587 2.327-3.022 3.532-4.685l.8-.81c.892.088 2.15-.816 3.366-2.314-.115.043-.184.056-.242.06.94-.928 1.87-1.74 2.674-2.795-.067-.044-.07-.138-.05-.258 1.02-1.122 2.005-2.358 2.68-3.102 1.517-1.645 4.156-4.52 5.76-4.477.862-1.382.938-2.52 1.428-3.808l2.616-2.972c.838-.47 1.796-1.33 2.73-1.926 1.004-1.937 5.66-6.91 7.68-9.33.152-.015.142.16.304.128.933-.854 2.548-2.613 4-4.45 4.77 1.256 10.273 2.81 15.48 4.552 4.548 1.494 8.847 3.143 12.333 4.56 1.75.7 3.258 1.412 4.547 1.923 1.277.532 2.256 1.006 2.948 1.238 2.032 1.166 6.202 3.943 7.706 5.29-.164-.33-.088-.46.213-.395.15.032.357.113.617.24l.43.227.03.016.007.004-.076-.062.073.05.12.087.254.187c.7.523 1.594 1.253 2.657 2.174 1.037.936 2.184 2.094 3.496 3.416.17.1-.45-.78.248-.166l2.168 1.973.54.495.47.434.035.03.012.013-.036.044c-.008-.01-.026-.013-.027-.023l.01.047c-.088.112-.074.096 0 .002.018.09.044.22.065.353l.242.18.172.074c.517.223 1.01.505 1.483.825l.59.594c1.204 1.212 2.776 2.87 4.33 4.543 3.11 3.35 6.07 6.836 6.07 6.835-.073.548.785 1.917 2.75 4.46 1.938 2.568 5 6.303 9.092 11.778 4.58 6.14 8.967 12.374 13.088 18.798 2.203 4.047 6.294 11.522 9.78 18.677 3.56 7.124 6.433 13.948 7.746 16.02.64 1.856 1.975 5.88 2.43 7.545.137-.643.552-.245 1.156 1.062.563 1.32 1.3 3.557 2.14 6.547.09.14.02-.76.294-.033 2.007 6.2 3.642 12.54 4.694 18.47.197.444.215-.006.382.273.768 3.033 1.275 6.104 1.87 9.166l.095.568c.312 2.732.51 5.54.815 8.377.166 2.852.36 5.747.505 8.673.025 2.93.165 5.89.138 8.867-.024 3.014-.043 6.04-.063 9.065zm-82.574 68.188c.124.146.25.3.374.443 1.694 1.952 3.16 3.893 4.473 5.497 1.27 1.645 2.332 3.016 3.073 3.975l1.147 1.523 5.05 7.245c-.27.23-.57.487-.882.76-4.076 3.548-8.273 7.217-12.298 10.976-.235-9.976-.583-20.146-.937-30.417zM453.962 408c.542-.656 1.138-1.388 1.69-2.174.863-1.175 1.744-2.333 2.337-3.26.61-.907 1.02-1.513 1.02-1.513l-.123.33s-1.57 2.37-3.303 4.605c-.523.734-1.09 1.415-1.608 2.03-.005-.004-.01-.01-.014-.017zM299.44 537.52c.086.247.183.482.278.72-1.673-.053-3.224-.12-4.57-.208-2.97-.195-4.983-.487-5.334-.91-2.828.15-5.453.07-8.016-.087h-43.424c-.438-.953-.996-1.877-1.668-2.74-.06-.08-.117-.16-.178-.237.312-.004.613-.01.933-.013 2.196-.016 4.286.012 6.323.064 7.19-.696 17.448-.485 23.684.188 1.215-.13 2.445-.258 3.756-.365 2.482.24 5.357.41 7.964.615.504-.01 1.014-.02 1.513-.027.628-.183 1.715-.317 1.917-.556 8.415-.215 10.833.12 16.404.328-.083 1.06.036 2.147.42 3.23zm31.806-141.868c6.298-.045 12.558-.176 18.825-.326 7.558.475 28.024 1.03 32.005.21.314.034.717.066 1.145.098-.023.317-.047.61-.074.842.714-.935.938 1.714.83 6.874.047.13.24-.607.292.034.36 5.387.638 10.787 1.093 15.77.145.382.215.01.348.25.36 2.562.757 5.108 1.21 7.647l.068.473c.975 9.05 3.047 18.856 6.268 28.323.27.907.556 1.854.857 2.86l1.142 3.164c.65 1.804 1.48 3.503 2.225 5.208.69 1.396 1.39 2.773 2.116 4.135.667-.705 1.412-1.364 2.207-1.973l-.02-.034-1.095-1.892-.5-1.056c-.273-.646-.64-1.508-1.003-2.37-.754-1.71-1.394-3.472-1.394-3.472-3.945-10.834-6.457-22.022-8.195-33.347-.046-.677-.08-1.31-.16-2.068-.616-6.012-1.592-13.197-1.98-19.466-.248-4-.4-8.05-.36-12.008l.015-1.465-1.453-.002-23.703-.036-9.572-.006c-9.86-.127-19.402-.127-28.25.383-7.64.06-14.762-.165-23.6-.233.103.104.154.197.22.297h-1.497c.066-.1.118-.193.22-.297-8.837.068-15.96.293-23.598.234-8.85-.51-18.392-.51-28.25-.382-2.993 0-6.1.003-9.573.006l-23.704.037-1.452.003.015 1.465c.04 3.958-.11 8.007-.36 12.008-.39 6.27-1.363 13.454-1.98 19.466-.08.76-.113 1.392-.16 2.067-1.737 11.323-4.25 22.512-8.194 33.346 0 0-.64 1.76-1.394 3.473l-1.003 2.368-.5 1.056-1.096 1.892c-.098.175-.205.332-.307.5.727.754 1.355 1.66 1.837 2.748l.23-.433c.887-1.618 1.715-3.27 2.542-4.942.747-1.705 1.575-3.404 2.225-5.208l1.143-3.164.856-2.86c3.22-9.467 5.293-19.273 6.267-28.323l.07-.472c.452-2.538.85-5.084 1.21-7.646.132-.24.202.132.345-.25.456-4.982.734-10.383 1.094-15.77.05-.642.245.097.29-.034-.106-5.16.118-7.81.832-6.874-.027-.23-.05-.524-.074-.842.428-.03.83-.063 1.145-.1 3.98.82 24.446.267 32.002-.208 6.27.15 12.528.28 18.826.326 11.235.078 15.884 0 16.485-.844h29.52c.6.844 5.248.922 16.483.844zm53.1.057c.007 1 .02 1.998.044 3-.032-1.002-.058-2-.075-3.003.01 0 .02 0 .03.002zm-2.242-.9h1.173l-.005.074c-.478.004-.955.005-1.433.01l.264-.085zm-166.495 3.9c.022-1.002.037-2 .044-3l.03-.003c-.016 1.002-.04 2-.075 3.003zm1.118-3.826l-.005-.075h1.173l.265.083c-.477-.004-.955-.005-1.432-.01zm144.446 142.15H318.2c-2.562.157-5.187.24-8.015.09-.35.42-2.366.713-5.335.908-1.347.088-2.896.155-4.57.207.097-.237.192-.473.28-.72.384-1.08.503-2.17.417-3.228 5.572-.208 7.99-.543 16.404-.328.204.238 1.29.373 1.92.557.497.01 1.008.02 1.51.028 2.608-.205 5.483-.375 7.966-.615 1.31.107 2.54.236 3.756.365 6.234-.674 16.494-.885 23.684-.19 2.037-.052 4.127-.08 6.322-.063.416.003.812.01 1.216.017-.284.36-.554.728-.794 1.117-.14.12-.273.246-.416.364-.54.468-.99.97-1.37 1.49zM215.24 394.875c-.298 0-.596-.005-.895-.005l.06-.062h.9l-.064.067zm.453.003h-.04v-.068h.04v.067zm.005-.47l-.044.046c0-.31.003-.614 0-.926l.053-.055c0 .316-.007.624-.01.936zm168.595-.934c.018.02.035.036.054.055-.004.312 0 .616 0 .926l-.045-.045c-.002-.314-.01-.622-.01-.937zm.013 1.336h.04v.067h-.04v-.068zm.453.065l-.065-.066h.9l.06.06c-.3 0-.597.003-.896.005z"/></svg>