<?xml version="1.0" encoding="utf-8"?>
<!-- Generator: Adobe Illustrator 16.0.4, SVG Export Plug-In . SVG Version: 6.00 Build 0)  -->
<!DOCTYPE svg PUBLIC "-//W3C//DTD SVG 1.1//EN" "http://www.w3.org/Graphics/SVG/1.1/DTD/svg11.dtd">
<svg version="1.1" id="Layer_3" xmlns="http://www.w3.org/2000/svg" xmlns:xlink="http://www.w3.org/1999/xlink" x="0px" y="0px"
	 width="600px" height="600px" viewBox="0 0 600 600" enable-background="new 0 0 600 600" xml:space="preserve">
<g>
	<path opacity="0.1" d="M184.021,418.133c-9.069,11.38-23.045,27.746-23.045,22.717c0-6,1.333-56.666,0-75.333
		s-1.334-17.333-2.667-33.333s-1.333-78.667-3.333-98.667c-1.862-18.62-15.853-50.516-17.774-54.831
		c-0.014-0.01-0.013-0.019-0.013-0.028c-0.01-0.022-0.024-0.055-0.033-0.075c-0.592-0.023-1.183-0.033-1.773-0.03
		c-2.058,3.268-4.015,5.661-5.712,6.331c0,0,2.562,70.133,2.562,83.633v25.367c0,11.133,0.877,42.633-2.562,46.633
		c-3.438,4-6.938,17.5-11.438,0s-22-66.5-25-84s-4-20.5-4-20.5s-4,9,0,26.5s7,30.435,7,32.717s-4.555-8.217-8.777-14.717
		s1.777,24,3.277,26.5s4.5,4.716,4.5,4.716s18.992,29.284,18.746,42.784s7.254,21.5,6.754,30s-17-31.5-19-35s0,24.5,3,34
		s6.492,4,9.246,17.5s3.754,18.5,3.754,28.5s-5.5,31-6,40.5s-4,8-6,18s-3,5-2.5,15s6.869-8,5.934,9c-0.934,17-1.934,19.5-5.934,25
		s-5.602,19.401-5.602,19.401l0.166,0.22c5.77-0.045,11.533-0.103,17.305,0.086c1.199,0.039,2.33,0.058,3.414,0.033
		c-0.244-0.621-0.383-1.291-0.383-1.99v-8.75c0-0.307,0.031-0.606,0.082-0.9c-0.186-1.12,0.061-2.375,0.934-3.675
		c3.186-4.752,4.105-10.285,5.119-15.797c-0.168-1.736-0.246-3.483-0.158-5.253c0.215-4.367,1.949-8.479,2.023-12.875
		c0.145-8.56-0.477-17.021,0.389-25.506c-0.057-0.24-0.107-0.485-0.139-0.744c-1.945-16.012-2.068-32.182-1.115-48.271
		c0.879-14.836,3.049-29.592,2.865-44.479c-0.012-0.957,0.18-1.782,0.512-2.485c0.047-1.906,0.342-3.726,0.807-5.492
		c0.52-3.514,1.154-7.008,2.012-10.467c0.242-0.971,0.859-1.522,1.582-1.744c0.828-4.438,2.285-8.684,3.668-13.006
		c0.16-0.495,0.422-0.869,0.736-1.155c0.154-0.265,0.361-0.48,0.598-0.655c0.129-2.469,0.42-4.924,1.076-7.353
		c0.26-0.961,0.818-1.587,1.498-1.938v-0.455c0-3.368,5.223-3.368,5.223,0v5.25c0,1.013-0.477,1.715-1.137,2.119
		c-0.135,1.001-0.215,2.007-0.264,3.016c0.662,0.404,1.141,1.105,1.15,2.115c0.01,1.152,0.09,2.302,0.156,3.451
		c0.209,0.356,0.338,0.786,0.344,1.299c0.066,7.007,0.91,13.991,0.5,21c-0.045,0.774-0.361,1.366-0.812,1.782
		c0.018,0.153,0.035,0.307,0.041,0.468c0.393,10.328,0.803,20.697-0.037,30.982c0.348,0.71,0.551,1.546,0.545,2.518
		c-0.006,1.09-0.041,2.179-0.1,3.266c0.77,1.134,1.164,2.566,0.9,4.223c-1.787,11.235,1.875,22.527-1.479,33.668
		c0.625,0.852,0.986,1.964,0.928,3.344c-0.334,7.839,1.75,15.472-0.199,23.238c-0.062,0.247-0.137,0.481-0.221,0.704
		c0.637,7.376,4.369,14.062,0.656,21.383c-0.08,0.155-0.172,0.284-0.258,0.426c-0.156,14.529-1.223,29.328-2.514,43.78
		c-0.666,7.467-1.689,14.937-1.895,22.438c-0.119,4.372,0.205,8.76,0.227,13.135c0.471,0.25,0.922,0.546,1.314,0.938
		c0.098,0.099,0.205,0.19,0.305,0.288c3.963-0.028,7.811,0.062,11.762,0.621c1.156-0.807,2.676-1.132,4.463-0.599
		c1.719,0.513,3.464,0.893,5.224,1.181c0.325-10.657-1.135-25.319-1.135-28.282c0-4,2-20,0-35.334s1.333-30,10.423-57.666
		c0.533-1.622,1.097-3.111,1.681-4.505c-0.063-0.495-0.106-0.993-0.106-1.495c0-0.467,0.042-0.907,0.097-1.339
		c-0.438,0.062-0.881,0.033-1.31-0.076c-2.527,3.326-4.868,6.329-6.361,7.415c-5.5,4,12.363-28.05,15.529-41.956
		C184.79,424.239,184.629,421.372,184.021,418.133z"/>
	<path opacity="0.1" d="M415.167,418.133c9.069,11.38,23.045,27.746,23.045,22.717c0-6-1.333-56.666,0-75.333
		s1.334-17.333,2.667-33.333s1.333-78.667,3.333-98.667c1.862-18.62,15.853-50.516,17.774-54.831
		c0.014-0.01,0.013-0.019,0.013-0.028c0.01-0.022,0.024-0.055,0.033-0.075c0.592-0.023,1.183-0.033,1.773-0.03
		c2.058,3.268,4.015,5.661,5.712,6.331c0,0-2.562,70.133-2.562,83.633v25.367c0,11.133-0.877,42.633,2.562,46.633
		c3.438,4,6.938,17.5,11.438,0s22-66.5,25-84s4-20.5,4-20.5s4,9,0,26.5s-7,30.435-7,32.717s4.555-8.217,8.777-14.717
		s-1.777,24-3.277,26.5s-4.5,4.716-4.5,4.716s-18.992,29.284-18.746,42.784s-7.254,21.5-6.754,30s17-31.5,19-35s0,24.5-3,34
		s-6.492,4-9.246,17.5s-3.754,18.5-3.754,28.5s5.5,31,6,40.5s4,8,6,18s3,5,2.5,15s-6.869-8-5.934,9c0.934,17,1.934,19.5,5.934,25
		s5.602,19.401,5.602,19.401l-0.166,0.22c-5.77-0.045-11.533-0.103-17.305,0.086c-1.199,0.039-2.33,0.058-3.414,0.033
		c0.244-0.621,0.383-1.291,0.383-1.99v-8.75c0-0.307-0.031-0.606-0.082-0.9c0.186-1.12-0.061-2.375-0.934-3.675
		c-3.186-4.752-4.105-10.285-5.119-15.797c0.168-1.736,0.246-3.483,0.158-5.253c-0.215-4.367-1.949-8.479-2.023-12.875
		c-0.145-8.56,0.477-17.021-0.389-25.506c0.057-0.24,0.107-0.485,0.139-0.744c1.945-16.012,2.068-32.182,1.115-48.271
		c-0.879-14.836-3.049-29.592-2.865-44.479c0.012-0.957-0.18-1.782-0.512-2.485c-0.047-1.906-0.342-3.726-0.807-5.492
		c-0.52-3.514-1.154-7.008-2.012-10.467c-0.242-0.971-0.859-1.522-1.582-1.744c-0.828-4.438-2.285-8.684-3.668-13.006
		c-0.16-0.495-0.422-0.869-0.736-1.155c-0.154-0.265-0.361-0.48-0.598-0.655c-0.129-2.469-0.42-4.924-1.076-7.353
		c-0.26-0.961-0.818-1.587-1.498-1.938v-0.455c0-3.368-5.223-3.368-5.223,0v5.25c0,1.013,0.477,1.715,1.137,2.119
		c0.135,1.001,0.215,2.007,0.264,3.016c-0.662,0.404-1.141,1.105-1.15,2.115c-0.01,1.152-0.09,2.302-0.156,3.451
		c-0.209,0.356-0.338,0.786-0.344,1.299c-0.066,7.007-0.91,13.991-0.5,21c0.045,0.774,0.361,1.366,0.812,1.782
		c-0.018,0.153-0.035,0.307-0.041,0.468c-0.393,10.328-0.803,20.697,0.037,30.982c-0.348,0.71-0.551,1.546-0.545,2.518
		c0.006,1.09,0.041,2.179,0.1,3.266c-0.77,1.134-1.164,2.566-0.9,4.223c1.787,11.235-1.875,22.527,1.479,33.668
		c-0.625,0.852-0.986,1.964-0.928,3.344c0.334,7.839-1.75,15.472,0.199,23.238c0.062,0.247,0.137,0.481,0.221,0.704
		c-0.637,7.376-4.369,14.062-0.656,21.383c0.08,0.155,0.172,0.284,0.258,0.426c0.156,14.529,1.223,29.328,2.514,43.78
		c0.666,7.467,1.689,14.937,1.895,22.438c0.119,4.372-0.205,8.76-0.227,13.135c-0.471,0.25-0.922,0.546-1.314,0.938
		c-0.098,0.099-0.205,0.19-0.305,0.288c-3.963-0.028-7.811,0.062-11.762,0.621c-1.156-0.807-2.676-1.132-4.463-0.599
		c-1.719,0.513-3.464,0.893-5.224,1.181c-0.325-10.657,1.135-25.319,1.135-28.282c0-4-2-20,0-35.334s-1.333-30-10.423-57.666
		c-0.533-1.622-1.097-3.111-1.681-4.505c0.063-0.495,0.106-0.993,0.106-1.495c0-0.467-0.042-0.907-0.097-1.339
		c0.438,0.062,0.881,0.033,1.31-0.076c2.527,3.326,4.868,6.329,6.361,7.415c5.5,4-12.363-28.05-15.529-41.956
		C414.397,424.239,414.559,421.372,415.167,418.133z"/>
</g>
<g>
	<path opacity="0.1" d="M230.337,62.524c0,0,1.148,38.492,11.165,52.242s54.542,72.393,57.655,111.321l-0.014-21.078
		c0,0-26.875-64.494-41.625-88.994s-19.276-55.331-18.898-59.18L230.337,62.524z"/>
	<path opacity="0.1" d="M368.851,62.524c0,0-1.148,38.492-11.165,52.242s-54.542,72.393-57.655,111.321l0.014-21.078
		c0,0,26.875-64.494,41.625-88.994s19.276-55.331,18.898-59.18L368.851,62.524z"/>
</g>
<path opacity="0.1" d="M251.553,11.187c0,0-10.482,23-9.307,25.04c1.174,2.04,0.271,21.583,4.607,27.04s7.848,20.281,15.023,23.224
	c7.174,2.943,17.293,3.776,17.293,3.776s10.25,26.75,13.5,49s8.5,69.25,8.5,69.25s6.738-96,20.494-117.75
	c0,0,2.957-0.724,9.912-2.25s30.57-16.75,24.457-59.5v-6.25l-4.863-8.5l-3-3.08h-6.5c0,0-25.252,0.645-32.75,0s-18.75,0.92-21.25,0
	s-22.5-0.161-22.5-0.161S255.684,9.857,251.553,11.187z"/>
<g>
	<g>
		<g>
			<g>
				<path fill="#FFFFFF" d="M301.827,207.877c-0.383-4.1-9.539-100.625-23.125-119.245l-0.451-0.614l-0.76-0.001
					c-0.195,0-19.59-0.225-26.115-16.071c-7.879-19.135-9.301-35.019-4.59-51.242c1.441-2.311,3.102-4.428,5.049-6.052
					c1.305-1.095,2.746-1.907,4.238-2.26c0.391-0.117,0.719-0.146,1.037-0.191c0.084-0.012,0.152-0.03,0.252-0.039l0.361-0.004
					l0.725-0.009l2.787,0.046c6.941,0.108,11.852,0.155,15.113,0.07c3.26-0.088,4.852-0.416,5.217-0.825c0,0,1.15-0.022,2.877-0.056
					c0.863-0.017,1.869-0.037,2.947-0.058c1.07,0,2.213-0.001,3.354-0.002c4.604,0,9.207,0,9.207,0v-0.791l0.383,0.009
					c-0.17-0.049-0.242-0.096-0.383-0.144V8.98h-1.213c0.082-0.099,0.145-0.192,0.271-0.296c-2.713,0.025-5.295,0.049-7.787,0.072
					c-1.244,0.016-2.469,0.031-3.676,0.046c-1.215,0.039-2.414,0.077-3.6,0.114c-2.355,0.063-4.67,0.17-6.971,0.179
					c-2.301-0.021-4.598-0.042-6.934-0.064c-2.705-0.154-5.461-0.276-8.264-0.373c-0.699-0.022-1.402-0.045-2.107-0.068L258.61,8.56
					l-1.158,0.001c-1.711,0.076-3.33,0.542-4.785,1.267c-2.934,1.473-5.182,3.831-6.996,6.345c-1.83,2.529-3.27,5.289-4.512,8.129
					c-1.521,3.453-2.838,7.09-3.893,11.368l-0.16,0.711c-0.051,0.245-0.1,0.545-0.125,0.754l-0.189,1.359l-0.34,2.762l-0.654,5.449
					c-0.229,1.81-0.443,3.628-0.707,5.422c-0.123,0.902-0.252,1.801-0.41,2.677l-0.225,1.321l-0.283,1.19l-0.035,0.149l-0.014,0.059
					l-0.125,0.292l-0.068,0.158c-0.021,0.033-0.037,0.043-0.055,0.067c-0.033,0.041-0.062,0.083-0.09,0.129
					c-0.156,0.224-0.424,0.513-0.693,0.766c-0.572,0.521-1.283,1.008-2.035,1.511c-0.758,0.521-1.561,0.991-2.426,1.823
					c-0.211,0.189-0.441,0.491-0.645,0.792c-0.104,0.189-0.197,0.386-0.281,0.584c-0.049,0.146-0.08,0.312-0.107,0.48l-0.004,0.005
					l-0.143,0.153l-0.205,0.184c-1.207,1.025-2.805,1.998-4.334,2.897c-1.555,0.903-3.152,1.76-4.766,2.581
					c-6.834,3.443-15.16,6.753-22.135,8.548c-0.135,0.034-0.268,0.068-0.398,0.101c-0.107,0.033-0.215,0.066-0.318,0.099
					c-0.209,0.066-0.412,0.131-0.609,0.195c-0.396,0.132-0.781,0.259-1.178,0.391c-3.566,1.102-6.84,2.581-10.053,4.141
					c-1.6,0.794-3.18,1.622-4.756,2.456c-1.553,0.87-3.129,1.703-4.662,2.607c-6.166,3.56-12.17,7.391-18.084,11.416
					c0,0-1.943,1.275-3.857,2.595c-1.914,1.322-3.826,2.644-3.826,2.644c-0.783,0.482-1.586,0.977-2.314,1.427
					c-5.348,3.266-9.512,6.07-13.967,9.49c-1.084,0.861-2.193,1.743-3.352,2.662c-1.146,0.962-2.359,1.947-3.592,3.037
					c-2.486,2.153-5.176,4.634-8.137,7.724c-1.602,1.712-3.188,3.473-4.658,5.453c-0.725,1.006-1.449,2.022-2.072,3.217
					c-0.492,0.982-1.008,2.01-1.227,3.389c-1.445,1.473-2.633,2.956-3.879,4.506l-1.963,2.696l-1.82,2.798
					c-0.623,0.926-1.123,1.924-1.689,2.885c-0.561,0.965-1.109,1.938-1.576,2.955l-1.469,3.018c-0.486,1.096-0.85,2.035-1.283,3.061
					c-3.26,8.253-6.15,16.441-9.039,24.691c-5.725,16.463-11.014,32.863-15.346,48.553c-1.959,7.146-3.76,13.707-5.508,20.403
					c0,0-0.273,0.915-0.752,2.515c-0.461,1.606-1.117,3.9-1.906,6.653c-0.395,1.376-0.82,2.868-1.27,4.446
					c-0.428,1.585-0.877,3.257-1.344,4.986c-0.461,1.73-0.939,3.519-1.424,5.335c-0.451,1.828-0.91,3.684-1.369,5.541
					c-0.229,0.928-0.457,1.856-0.686,2.781c-0.199,0.934-0.398,1.863-0.598,2.786c-0.383,1.848-0.807,3.653-1.135,5.425
					c-0.287,1.785-0.564,3.51-0.828,5.146c-0.25,1.658-0.359,3.179-0.527,4.606c-0.32,2.84-0.525,5.223-0.678,6.888
					s-0.238,2.616-0.238,2.616c-0.453,3.129-0.793,6.337-0.926,9.811c-0.455,0.395-0.951,2.839-1.439,6.461
					c-0.467,3.621-0.926,8.42-1.342,13.52c-0.793,10.201-1.367,21.606-1.512,27.219c0.074,0.493,0.211-0.045,0.293,0.371
					c-0.379,6.044-0.82,15.61-1.312,24.68c-0.465,9.071-0.926,17.649-1.402,21.715c0.135,4.094,0.08,9.012,0.242,12.508
					c0,0-0.168,3.81-0.338,7.618c-0.139,3.811-0.279,7.621-0.279,7.621c-0.658,4.939-1.508,8.367-1.986,14.521
					c1.133,4.037,0.678,19.073,0.594,27.68c-0.062,3.87-0.311,9.936-0.311,15.769c-0.066,0.389-0.135,0.642-0.213,0.587
					c-0.07,2.537-0.08,4.988-0.068,7.439c0.012,1.226,0.021,2.451,0.033,3.688c0.033,1.237,0.068,2.486,0.105,3.757
					c-0.043-0.167-0.09-0.383-0.148-0.812c0.012,7.399,0.291,13.263,1.152,15.411l0.209,4.388c-0.002,1.792-0.002,3.48-0.004,5.126
					c-0.014,1.646-0.031,3.251,0.059,4.875c0.127,3.248,0.287,6.575,0.586,10.458l0.129,1.676l1.766-0.013
					c0.5-0.004,1.219-0.01,1.957-0.016c9.127-0.166,18.957-0.965,28.291-1.57c5.418-0.315,9.01-0.68,12.389-1.033
					c5.088-0.287,10.166-0.752,15.246-1.166c2.543-0.185,5.076-0.482,7.613-0.752l7.607-0.819l1.023-0.109l-0.121-1.038
					l-1.461-12.662c0.102-0.175,0.207-0.352,0.301-0.522c2.119-3.706,3.473-7.574,4.395-11.485c0.199-0.983,0.475-1.952,0.602-2.943
					l0.404-2.966c0.258-1.904,0.42-3.865,0.686-5.771c0.508-3.792,1.105-7.722,1.578-11.779c0.4-4.078,0.756-8.311,0.689-12.766
					c-0.01-1.1,0.012-2.253-0.02-3.44c-0.062-1.186-0.127-2.407-0.193-3.652c-0.123-2.458-0.25-5.004-0.375-7.523
					c-0.068-1.262-0.137-2.517-0.203-3.751c-0.035-1.228-0.07-2.435-0.104-3.607c-0.08-2.346-0.188-4.552-0.332-6.508
					c-0.01-0.116-0.016-0.188-0.023-0.305c0,0-0.006-0.504-0.02-1.448c0.006-0.948,0.012-2.339,0.021-4.108
					c0.047-3.539-0.01-8.595,0.146-14.662c0.061-3.034,0.129-6.321,0.197-9.797c0.078-3.477,0.23-7.14,0.35-10.931
					c0.064-1.896,0.129-3.822,0.195-5.773c0.096-1.948,0.191-3.921,0.289-5.909c0.225-3.973,0.336-8.022,0.674-12.046
					c0.146-2.014,0.295-4.028,0.441-6.034c0.072-1.003,0.146-2.004,0.221-3.002c0.115-0.989,0.232-1.975,0.348-2.956
					c0.23-1.964,0.459-3.912,0.684-5.836c0.377-1.906,0.746-3.789,1.111-5.641c1.65-7.341,3.617-14.102,5.598-19.83
					c1.91-5.74,3.738-10.444,5.041-13.718c0.467-1.16,0.871-2.119,1.201-2.889c0.135,1.894,0.314,3.76,0.504,5.653
					c0.35,3.494,0.709,7.108,0.791,11.258c0.225,11.459,0.277,87.746,0,101.941c-0.1,5.022,0.104,12.798,0.316,21.029
					c0.367,14.175,0.783,30.24-0.121,38.333c-0.713,6.391-6.881,62.56-3.682,67.039c0.844,1.181,2.119,2.965,54.994,3.94
					c25.445,0.469,58.674,0.688,104.57,0.688h1.5v-384L301.827,207.877z M230.423,64.378c0.033-0.063,0.145-0.153,0.225-0.235
					c0.768-0.7,2-1.418,2.842-2.028c0.869-0.606,1.441-1.129,1.441-1.129l0.33-0.205c0,0-0.588,0.593-1.494,1.226
					c-0.881,0.64-2.146,1.37-3.01,2.086l-0.262,0.25c-0.037,0.065-0.129,0.147-0.137,0.182c-0.002,0.021-0.02,0.03-0.055,0.026
					c0.006-0.007,0.014-0.016,0.016-0.02C230.313,64.514,230.364,64.448,230.423,64.378z M228.384,67.091
					c0.217-0.18,0.445-0.345,0.699-0.578c0.129-0.123,0.25-0.214,0.393-0.371l0.211-0.231c0.041-0.049,0.057-0.057,0.119-0.141
					c0.064-0.088,0.125-0.183,0.182-0.281s0.107-0.2,0.152-0.303l0.062-0.154l0.018-0.062l0.031-0.116l0.008-0.029l0.002-0.007
					l0.002-0.003c-0.082-0.133,0.18,0.29-0.18-0.296c0.027,0.039,0.084,0.121,0.209,0.3l-0.002,0.007l-0.006,0.015l-0.008,0.03
					c-0.033,0.099-0.01,0.09-0.129,0.364c-0.096,0.211-0.223,0.421-0.354,0.593l-0.219,0.24c-0.15,0.169-0.283,0.283-0.412,0.399
					c-0.266,0.247-0.502,0.415-0.729,0.599c-0.891,0.667-1.49,1.041-1.49,1.041S227.522,67.739,228.384,67.091z M298.833,589.017
					c-98.168-0.012-150.523-1.189-155.664-3.5c-1.471-4.236,1.498-40.073,4.264-64.833c0.4-3.575,0.549-8.617,0.559-14.334
					c5.332-6.113,8.396-19.474,10.475-30.557c1.926-10.275,15.336-32.973,19.004-37.308c3.764-4.449,13.803-27.394,14.229-28.368
					l0.52-1.19l-8.229-5.106v2.696c0,3.517-4.357,12.854-12.953,27.75c-2.115,3.664-4.188,6.978-6.193,10.182
					c-6.115,9.773-11.398,18.214-13.332,29.821c-1.1,6.592-2.508,12.121-3.729,16.23c-0.064-2.878-0.141-5.756-0.213-8.561
					c-0.211-8.197-0.412-15.938-0.314-20.894c0.277-14.211,0.225-90.587,0-102.059c-0.084-4.27-0.451-7.944-0.807-11.498
					c-0.631-6.33-1.229-12.311,0.07-20.23c1.143-6.973,0.721-19.008,0.275-31.75c-0.371-10.657-0.756-21.678-0.307-30.919
					c1-20.488-13.428-78.001-14.043-80.44l-2.908,0.733c0.148,0.593,14.934,59.515,13.955,79.56
					c-0.457,9.368-0.07,20.452,0.305,31.171c0.439,12.589,0.855,24.479-0.238,31.16c-0.781,4.767-0.902,8.821-0.748,12.652
					l-0.988-0.495c0,0-0.158,0.347-0.432,0.952c-0.283,0.607-0.662,1.471-1.074,2.493c-0.871,2.047-1.924,4.804-2.979,7.562
					c-0.992,2.779-2.039,5.54-2.707,7.653c-0.699,2.101-1.166,3.502-1.166,3.502c-0.682,1.521-1.287,3.305-2.037,5.314
					c-0.957,2.495-1.668,5.063-2.357,7.613c-0.754,2.562-1.152,5.072-1.637,7.623l-0.344,1.916l-0.012,0.061l-0.016,0.092
					l-0.002,0.03l-0.012,0.124l-0.025,0.247l-0.047,0.494l-0.096,0.992c-0.123,1.324-0.246,2.658-0.371,4.006
					c-0.104,1.346-0.283,2.712-0.33,4.082c-0.066,1.371-0.133,2.761-0.201,4.173c-0.129,2.457-0.256,4.903-0.383,7.345
					c-0.074,2.438-0.146,4.871-0.221,7.3c0,0-0.066,1.312-0.18,3.609c-0.133,2.297-0.254,5.579-0.377,9.518
					c-0.297,7.877-0.555,18.381-0.658,28.891c-0.018,5.259-0.107,10.501,0.002,15.459c0.033,2.474,0.066,4.864,0.096,7.132
					c0.107,2.253,0.207,4.383,0.301,6.35c0.104,1.967,0.199,3.771,0.283,5.37c0.078,1.578,0.197,2.955,0.207,4.089
					c0.008,2.268,0.012,3.563,0.012,3.563c-0.266,3.549-0.844,6.768-1.299,10.789c-0.67,5.44-0.92,9.304-1.438,14.712
					c-0.316,3.888-0.709,7.497-1.621,11.01c-0.25,0.867-0.5,1.73-0.75,2.591c-0.307,0.839-0.611,1.675-0.914,2.508
					c-0.688,1.602-1.432,3.274-2.291,4.621l-0.275,0.433l0.051,0.535c0.359,3.807,0.713,7.54,1.064,11.248
					c-14.209,1.288-28.133,1.866-42.803,2.986c-9.227,0.689-17.865,1.205-26.914,1.511c-0.582-5.59-1.25-11.512-1.467-17.862
					c-0.131-2.933-0.336-5.893-0.402-8.877c-0.068-2.984-0.135-5.982-0.201-8.974c0,0-0.021-1.131-0.062-3.11
					c-0.061-1.978-0.061-4.808-0.057-8.203c0-3.396,0-7.357,0-11.602c0.059-4.245,0.121-8.773,0.184-13.302
					c0.035-2.265,0.07-4.528,0.105-6.758c0.059-2.229,0.117-4.422,0.174-6.544c0.113-4.245,0.219-8.208,0.309-11.604
					c0.238-6.791,0.398-11.318,0.398-11.318c0.287-4.633,0.523-9.258,0.832-13.687c1.023-15.858,1.217-30.39,1.914-44.486
					l0.594-10.324c0.162-2.225,0.348-4.434,0.551-6.643c0.443-4.748,1.281-12.211,1.633-17.343
					c0.242-3.694,0.266-7.495,0.439-11.146c0.299-3.212,0.568-6.335,0.797-9.331c0.725-6.936,1.311-9.824,1.982-20.2
					c-0.213-0.268-0.227-1.604-0.344-2.387c0.047-0.609,0.096-1.231,0.145-1.846c0.469-3.152,1.041-6.646,1.598-9.649
					c0.088-1.549,0.236-3.039,0.33-4.501c1.898-7.307,5.219-19.371,6.9-28.039c0.727-2.388,1.463-4.839,2.188-7.429
					c0.922-3.355,1.73-6.351,2.459-9.234c0.73-2.882,1.387-5.651,2.152-8.514l0.748-2.422c2.457-7.38,4.471-13.293,6.988-18.526
					c0.314-1.294,0.615-2.536,0.912-3.764c2.635-6.908,7.951-23.572,8.637-28.31c0.08-0.22,0.152-0.415,0.234-0.639
					c0.791-2.143,1.531-4.15,2.281-6.188c3.221-7.219,5.469-13.566,7.82-20.419c0.318-0.848,0.703-1.71,1.057-2.578
					c0.18-0.435,0.361-0.872,0.543-1.311c0.195-0.405,0.393-0.812,0.59-1.222c0.406-0.844,0.818-1.7,1.236-2.567
					c0.398-0.878,0.926-1.703,1.393-2.582l0.893-1.615l0.984-1.566c0.332-0.522,0.664-1.046,0.996-1.572
					c0.346-0.518,0.721-1.017,1.08-1.53c1.424-2.032,3.094-4.09,4.828-5.841l0.611-0.617l-0.023-0.731
					c-0.012-0.411,0.188-1.104,0.486-1.762c0.137-0.335,0.311-0.675,0.508-1.017c0.172-0.343,0.395-0.683,0.611-1.024
					c0.885-1.358,1.906-2.704,3.037-3.995c2.232-2.601,4.738-5.081,7.344-7.498c5.221-4.83,10.857-9.461,16.699-13.903
					c1.414-1.078,2.9-2.146,4.361-3.226c3.691-2.462,7.381-4.924,11.223-7.485c2.385-1.622,4.455-2.984,6.322-4.301
					c5.111-3.198,10.289-6.284,15.434-9.131c1.279-0.729,2.57-1.407,3.854-2.081c1.273-0.696,2.562-1.325,3.836-1.956
					c1.268-0.661,2.555-1.2,3.818-1.786c0.635-0.31,1.25-0.525,1.869-0.776c0.631-0.234,1.207-0.517,1.875-0.717l0.562-0.147
					l1.146-0.274l0.508-0.12l0.6-0.118c0.799-0.153,1.586-0.337,2.367-0.536c1.564-0.396,3.107-0.85,4.631-1.353
					c0.334-0.002-0.055,0.25,0.443,0.183c5.818-2.194,11.816-5.074,17.732-8.169c0.711-0.359,0.025,0.268,0.191,0.228
					c2.727-1.686,4.764-2.987,6.098-3.844c0.662-0.411,1.176-0.758,1.494-0.895c0.336-0.18,0.436-0.057,0.262,0.366
					c0.088-0.091,0.238-0.276,0.369-0.436l0.104-0.128c0.033-0.042,0.059-0.067,0.164-0.223c0.17-0.25,0.322-0.539,0.436-0.837
					l0.078-0.225c0.029-0.09,0.014-0.056,0.023-0.09l0.023-0.11l0.01-0.056l0.002-0.007c-0.064-0.028-0.094-0.041-0.105-0.046l0,0
					c0.062,0.027,0.465,0.201,0-0.001l0,0c0.029-0.046,0.109-0.126,0.158-0.197l0.293-0.274l0.373-0.307
					c1.102-0.842,2.555-1.848,3.383-2.749c0.311-0.228,0.695-0.529,1.127-1.014c0.217-0.23,0.514-0.686,0.729-1.051
					c0.061-0.116,0.121-0.236,0.186-0.36l0.047-0.093l0.023-0.047l0.082-0.211l0.008-0.03l0.074-0.243
					c0.096-0.331,0.195-0.679,0.301-1.043c0.051-0.184,0.102-0.372,0.154-0.563c0.035-0.171,0.07-0.347,0.107-0.525
					c0.143-0.71,0.303-1.485,0.439-2.29c0.541-3.203,1.002-7.081,1.438-11.085c0.107-0.988,0.215-1.985,0.32-2.981l0.168-1.487
					c0.068-0.506,0.111-1.034,0.178-1.372c0.104-0.532,0.227-1.075,0.355-1.619c-0.662,11.774,1.768,23.897,7.414,37.61
					c6.488,15.757,24.102,17.667,28.082,17.897c12.746,19.194,21.857,114.022,22.148,117.102V589.017z M147.968,501.13
					c-0.006-0.595-0.014-1.197-0.021-1.801c0.691-1.698,4.227-10.784,6.523-24.565c1.836-11.019,6.725-18.832,12.916-28.724
					c2.02-3.227,4.107-6.563,6.248-10.273c7.715-13.372,11.861-21.868,13.016-26.765l1.777,1.103
					c-3.205,7.263-10.518,23.217-13.248,26.443c-3.906,4.615-17.615,27.772-19.662,38.692
					C153.835,484.207,151.519,494.701,147.968,501.13z"/>
				<path fill="#FFFFFF" d="M241.024,33.541l-0.244,0.816c-0.012,0.02-0.023,0.044-0.037,0.072L241.024,33.541z"/>
				<path fill="#FFFFFF" d="M230.245,64.534c-0.008-0.002-0.008-0.001-0.016-0.004C230.235,64.531,230.241,64.532,230.245,64.534z"
					/>
				<path fill="#FFFFFF" d="M230.216,64.526c-0.016-0.003-0.033-0.005-0.051-0.006c0.012,0.001,0.025,0.001,0.037,0.003
					C230.208,64.523,230.21,64.525,230.216,64.526z"/>
				<polygon fill="#FFFFFF" points="230.144,64.517 230.134,64.515 230.14,64.515 				"/>
				<path fill="#FFFFFF" d="M230.093,64.516h0.006l0.02,0c0.002,0,0.002,0,0.002,0h0.008l-0.006,0c0.01,0,0.018,0.001,0.027,0.002
					c0.053,0.004,0.1,0.016,0.137,0.034c0.018,0.008,0.041,0.018,0.09,0.032c0.154,0.042,0.299,0.106,0.426,0.189l0.191,0.139
					c-0.211-0.091-0.498-0.215-0.908-0.393c0.029,0.042,0.014,0.022-0.002-0.001c0,0,0,0-0.002,0v0h0.002l0,0l0,0l0.002,0h0.004
					L230.093,64.516z"/>
				<polygon fill="#FFFFFF" points="230.081,64.517 230.081,64.517 230.081,64.517 				"/>
				<path fill="#FFFFFF" d="M227.528,64.331c0.006-0.063,0.027-0.125,0.059-0.176c0.002-0.005,0.006-0.008,0.012-0.015
					c-0.006,0.036-0.012,0.071-0.016,0.106c0.021-0.199-0.01,0.063,0.004-0.048l-0.006,0.021l-0.023,0.083
					C227.544,64.36,227.521,64.442,227.528,64.331z"/>
				<path fill="#FFFFFF" d="M297.353,208.017v384h1.5c45.898,0,79.125-0.219,104.57-0.688c52.877-0.976,54.15-2.76,54.994-3.94
					c3.199-4.479-2.969-60.648-3.682-67.039c-0.904-8.093-0.488-24.158-0.119-38.333c0.213-8.231,0.414-16.007,0.316-21.029
					c-0.279-14.195-0.225-90.482,0-101.941c0.08-4.149,0.441-7.764,0.791-11.258c0.188-1.894,0.367-3.76,0.504-5.653
					c0.33,0.77,0.732,1.729,1.201,2.889c1.303,3.273,3.131,7.978,5.041,13.718c1.98,5.729,3.945,12.489,5.596,19.83
					c0.365,1.852,0.736,3.734,1.111,5.641c0.227,1.924,0.455,3.872,0.686,5.836c0.115,0.981,0.23,1.967,0.348,2.956
					c0.072,0.998,0.146,1.999,0.221,3.002c0.146,2.006,0.293,4.021,0.439,6.034c0.34,4.023,0.451,8.073,0.674,12.046
					c0.098,1.988,0.195,3.961,0.289,5.909c0.066,1.951,0.131,3.878,0.195,5.773c0.119,3.791,0.271,7.454,0.35,10.931
					c0.07,3.476,0.137,6.763,0.197,9.797c0.158,6.067,0.1,11.123,0.148,14.662c0.008,1.77,0.016,3.16,0.02,4.108
					c-0.012,0.944-0.018,1.448-0.018,1.448c-0.01,0.116-0.016,0.188-0.023,0.305c-0.146,1.956-0.254,4.162-0.334,6.508
					c-0.033,1.173-0.068,2.38-0.102,3.607c-0.068,1.234-0.137,2.489-0.205,3.751c-0.125,2.52-0.252,5.065-0.373,7.523
					c-0.066,1.245-0.131,2.467-0.195,3.652c-0.029,1.188-0.01,2.341-0.02,3.44c-0.066,4.455,0.289,8.688,0.689,12.766
					c0.473,4.058,1.07,7.987,1.58,11.779c0.264,1.906,0.428,3.867,0.684,5.771l0.404,2.966c0.129,0.991,0.404,1.96,0.604,2.943
					c0.922,3.911,2.273,7.779,4.395,11.485c0.092,0.171,0.199,0.348,0.299,0.522l-1.461,12.662l-0.119,1.038l1.021,0.109
					l7.609,0.819c2.535,0.27,5.07,0.567,7.611,0.752c5.082,0.414,10.16,0.879,15.248,1.166c3.377,0.354,6.971,0.718,12.387,1.033
					c9.336,0.605,19.164,1.404,28.291,1.57c0.74,0.006,1.459,0.012,1.957,0.016l1.766,0.013l0.129-1.676
					c0.299-3.883,0.459-7.21,0.586-10.458c0.092-1.624,0.072-3.229,0.061-4.875c-0.002-1.646-0.004-3.334-0.004-5.126l0.209-4.388
					c0.859-2.148,1.139-8.012,1.152-15.411c-0.061,0.429-0.107,0.645-0.148,0.812c0.035-1.271,0.07-2.52,0.105-3.757
					c0.01-1.236,0.021-2.462,0.031-3.688c0.012-2.451,0.002-4.902-0.066-7.439c-0.08,0.055-0.146-0.198-0.213-0.587
					c-0.002-5.833-0.248-11.898-0.312-15.769c-0.082-8.606-0.537-23.643,0.596-27.68c-0.48-6.153-1.328-9.581-1.988-14.521
					c0,0-0.139-3.811-0.279-7.621c-0.168-3.809-0.338-7.618-0.338-7.618c0.164-3.496,0.109-8.414,0.244-12.508
					c-0.477-4.065-0.939-12.644-1.404-21.715c-0.492-9.069-0.932-18.636-1.311-24.68c0.08-0.416,0.219,0.122,0.293-0.371
					c-0.145-5.612-0.721-17.018-1.512-27.219c-0.416-5.1-0.875-9.898-1.342-13.52c-0.49-3.622-0.986-6.066-1.441-6.461
					c-0.133-3.474-0.473-6.682-0.924-9.811c0,0-0.088-0.951-0.24-2.616c-0.15-1.665-0.357-4.048-0.676-6.888
					c-0.168-1.428-0.277-2.948-0.527-4.606c-0.264-1.636-0.543-3.361-0.83-5.146c-0.328-1.772-0.75-3.577-1.135-5.425
					c-0.197-0.922-0.396-1.852-0.596-2.786c-0.229-0.924-0.459-1.853-0.688-2.781c-0.459-1.856-0.916-3.713-1.367-5.541
					c-0.486-1.817-0.963-3.605-1.426-5.335c-0.465-1.729-0.916-3.4-1.342-4.986c-0.451-1.578-0.877-3.069-1.27-4.446
					c-0.789-2.753-1.447-5.047-1.908-6.653c-0.477-1.6-0.75-2.515-0.75-2.515c-1.748-6.696-3.549-13.257-5.51-20.403
					c-4.332-15.69-9.619-32.089-15.346-48.553c-2.889-8.25-5.779-16.438-9.039-24.691c-0.432-1.026-0.797-1.965-1.281-3.061
					l-1.471-3.018c-0.465-1.017-1.014-1.99-1.574-2.955c-0.568-0.961-1.066-1.959-1.689-2.885l-1.82-2.798l-1.963-2.696
					c-1.246-1.55-2.436-3.033-3.881-4.506c-0.219-1.378-0.734-2.407-1.227-3.389c-0.621-1.195-1.346-2.21-2.072-3.217
					c-1.471-1.98-3.055-3.741-4.658-5.453c-2.961-3.09-5.65-5.571-8.135-7.724c-1.232-1.09-2.447-2.075-3.594-3.037
					c-1.156-0.919-2.266-1.801-3.35-2.662c-4.455-3.42-8.619-6.225-13.969-9.49c-0.729-0.45-1.531-0.944-2.314-1.427
					c0,0-1.912-1.322-3.824-2.644c-1.914-1.319-3.857-2.595-3.857-2.595c-5.916-4.025-11.92-7.856-18.086-11.416
					c-1.531-0.904-3.109-1.737-4.662-2.607c-1.574-0.834-3.154-1.662-4.756-2.456c-3.213-1.56-6.486-3.039-10.051-4.141
					c-0.398-0.132-0.781-0.259-1.178-0.391c-0.199-0.064-0.4-0.129-0.609-0.195c-0.105-0.033-0.211-0.065-0.32-0.099
					c-0.129-0.033-0.262-0.067-0.398-0.101c-6.975-1.795-15.301-5.105-22.133-8.548c-1.615-0.82-3.211-1.677-4.768-2.581
					c-1.529-0.9-3.127-1.872-4.334-2.897l-0.205-0.184l-0.141-0.153l-0.006-0.005c-0.025-0.168-0.057-0.334-0.105-0.48
					c-0.084-0.198-0.18-0.395-0.281-0.584c-0.203-0.3-0.436-0.603-0.645-0.792c-0.865-0.832-1.67-1.303-2.426-1.823
					c-0.754-0.502-1.465-0.99-2.035-1.511c-0.271-0.253-0.537-0.542-0.695-0.766c-0.025-0.045-0.055-0.088-0.09-0.129
					c-0.016-0.023-0.033-0.034-0.053-0.067l-0.068-0.158l-0.127-0.292l-0.014-0.059l-0.033-0.149l-0.283-1.19l-0.227-1.321
					c-0.156-0.876-0.285-1.775-0.41-2.677c-0.264-1.794-0.479-3.612-0.707-5.422l-0.654-5.449l-0.338-2.762l-0.191-1.359
					c-0.025-0.209-0.074-0.509-0.125-0.754l-0.158-0.711c-1.055-4.278-2.373-7.915-3.893-11.368c-1.242-2.841-2.682-5.6-4.514-8.129
					c-1.814-2.515-4.062-4.872-6.996-6.345c-1.453-0.725-3.074-1.191-4.785-1.267l-1.156-0.001l-1.061,0.031
					c-0.707,0.022-1.41,0.045-2.109,0.068c-2.801,0.097-5.557,0.219-8.264,0.373c-2.336,0.022-4.633,0.043-6.932,0.064
					c-2.303-0.009-4.617-0.116-6.971-0.179c-1.188-0.038-2.385-0.076-3.6-0.114c-1.207-0.015-2.432-0.03-3.678-0.046
					c-2.492-0.023-5.072-0.047-7.785-0.072c0.125,0.104,0.189,0.197,0.27,0.296h-1.213v1.418c-0.139,0.048-0.211,0.095-0.383,0.144
					l0.383-0.009v0.791c0,0,4.604,0,9.207,0c1.143,0,2.283,0.001,3.354,0.002c1.078,0.021,2.086,0.041,2.949,0.058
					c1.725,0.033,2.877,0.056,2.877,0.056c0.365,0.409,1.955,0.736,5.217,0.825c3.262,0.084,8.172,0.038,15.111-0.07l2.789-0.046
					l0.723,0.009l0.363,0.004c0.098,0.009,0.166,0.027,0.252,0.039c0.318,0.044,0.646,0.074,1.035,0.191
					c1.494,0.353,2.934,1.166,4.238,2.26c1.947,1.625,3.609,3.742,5.049,6.052c4.713,16.223,3.289,32.107-4.59,51.242
					c-6.525,15.846-25.92,16.071-26.115,16.071l-0.76,0.001l-0.449,0.614c-13.588,18.62-22.742,115.145-23.125,119.245
					L297.353,208.017z M358.442,34.43c-0.014-0.028-0.025-0.052-0.035-0.072l-0.246-0.816L358.442,34.43z M368.868,64.531
					c0.002,0.003,0.008,0.013,0.016,0.02c-0.035,0.004-0.055-0.005-0.055-0.026c-0.01-0.035-0.102-0.117-0.139-0.182l-0.26-0.25
					c-0.865-0.716-2.131-1.446-3.012-2.086c-0.906-0.632-1.494-1.226-1.494-1.226l0.332,0.205c0,0,0.572,0.523,1.439,1.129
					c0.844,0.61,2.074,1.329,2.844,2.028c0.08,0.082,0.189,0.172,0.223,0.235C368.823,64.448,368.874,64.514,368.868,64.531z
					 M368.956,64.529c-0.006,0.003-0.008,0.002-0.014,0.004C368.946,64.532,368.952,64.531,368.956,64.529z M368.985,64.522
					c0.01-0.002,0.023-0.002,0.035-0.003c-0.018,0.001-0.035,0.003-0.049,0.006C368.976,64.525,368.978,64.523,368.985,64.522z
					 M369.048,64.515h0.004c-0.004,0-0.006,0.001-0.01,0.001C369.044,64.517,369.046,64.515,369.048,64.515z M369.097,64.516h0.004
					l0.002,0h0.002l0,0l0,0v0c0,0,0,0-0.002,0c-0.016,0.023-0.029,0.043,0,0.001c-0.412,0.178-0.699,0.302-0.908,0.393l0.189-0.139
					c0.129-0.083,0.271-0.147,0.426-0.189c0.049-0.014,0.074-0.023,0.092-0.032c0.035-0.018,0.082-0.03,0.135-0.034
					c0.01-0.001,0.02-0.003,0.029-0.002l-0.008,0h0.008h0.002l0.02,0h0.006L369.097,64.516z M369.106,64.517c0,0-0.002,0-0.002,0v0
					H369.106z M371.628,64.302l-0.021-0.083l-0.006-0.021c0.012,0.111-0.02-0.151,0.004,0.048c-0.006-0.036-0.01-0.071-0.016-0.106
					c0.004,0.007,0.008,0.01,0.012,0.015c0.031,0.051,0.051,0.113,0.057,0.176C371.667,64.442,371.642,64.36,371.628,64.302z
					 M372.241,68.108c0,0-0.598-0.375-1.49-1.041c-0.225-0.184-0.463-0.352-0.727-0.599c-0.131-0.116-0.264-0.23-0.412-0.399
					l-0.219-0.24c-0.133-0.171-0.26-0.382-0.354-0.593c-0.121-0.274-0.096-0.265-0.131-0.364l-0.008-0.03l-0.004-0.015l-0.002-0.007
					c0.123-0.18,0.182-0.262,0.207-0.3c-0.359,0.586-0.098,0.163-0.178,0.296v0.003l0.002,0.007l0.008,0.029l0.033,0.116
					l0.018,0.062l0.062,0.154c0.045,0.103,0.096,0.205,0.15,0.303c0.057,0.098,0.117,0.192,0.182,0.281
					c0.062,0.083,0.078,0.091,0.119,0.141l0.211,0.231c0.145,0.157,0.264,0.249,0.393,0.371c0.254,0.233,0.482,0.398,0.701,0.578
					C371.663,67.739,372.241,68.108,372.241,68.108z M300.353,208.087c0.293-3.079,9.404-97.907,22.15-117.102
					c3.979-0.23,21.592-2.141,28.08-17.897c5.646-13.713,8.076-25.835,7.416-37.61c0.129,0.544,0.25,1.087,0.354,1.619
					c0.068,0.338,0.111,0.866,0.18,1.372l0.166,1.487c0.107,0.996,0.215,1.993,0.32,2.981c0.436,4.004,0.896,7.882,1.438,11.085
					c0.139,0.805,0.299,1.579,0.439,2.29c0.037,0.178,0.074,0.354,0.109,0.525c0.051,0.191,0.104,0.379,0.152,0.563
					c0.105,0.364,0.205,0.712,0.301,1.043l0.074,0.243l0.01,0.03l0.08,0.211l0.023,0.047l0.049,0.093
					c0.062,0.124,0.125,0.244,0.186,0.36c0.213,0.365,0.512,0.821,0.727,1.051c0.432,0.485,0.816,0.787,1.129,1.014
					c0.826,0.901,2.281,1.907,3.381,2.749l0.375,0.307l0.293,0.274c0.049,0.071,0.129,0.15,0.158,0.197l0,0
					c-0.467,0.202-0.064,0.028,0,0.001l0,0c-0.014,0.005-0.043,0.019-0.107,0.046l0.002,0.007l0.012,0.056l0.021,0.11
					c0.01,0.034-0.004,0,0.023,0.09l0.078,0.225c0.113,0.299,0.266,0.587,0.436,0.837c0.107,0.156,0.131,0.18,0.164,0.223
					l0.104,0.128c0.131,0.16,0.281,0.345,0.371,0.436c-0.176-0.423-0.076-0.546,0.262-0.366c0.316,0.136,0.83,0.483,1.492,0.895
					c1.334,0.857,3.373,2.158,6.098,3.844c0.166,0.04-0.52-0.587,0.193-0.228c5.916,3.095,11.914,5.975,17.73,8.169
					c0.498,0.067,0.109-0.185,0.443-0.183c1.525,0.503,3.066,0.957,4.631,1.353c0.781,0.199,1.57,0.383,2.369,0.536l0.598,0.118
					l0.508,0.12l1.148,0.274l0.562,0.147c0.666,0.2,1.244,0.483,1.873,0.717c0.619,0.25,1.234,0.466,1.871,0.776
					c1.264,0.585,2.549,1.125,3.816,1.786c1.275,0.63,2.562,1.259,3.836,1.956c1.283,0.674,2.574,1.352,3.854,2.081
					c5.145,2.848,10.322,5.934,15.434,9.131c1.869,1.317,3.939,2.68,6.324,4.301c3.84,2.561,7.531,5.023,11.223,7.485
					c1.459,1.079,2.945,2.147,4.361,3.226c5.84,4.442,11.477,9.073,16.697,13.903c2.605,2.417,5.113,4.897,7.346,7.498
					c1.131,1.291,2.15,2.637,3.035,3.995c0.217,0.341,0.439,0.681,0.613,1.024c0.195,0.342,0.369,0.682,0.508,1.017
					c0.297,0.658,0.498,1.351,0.484,1.762l-0.023,0.731l0.611,0.617c1.734,1.75,3.406,3.809,4.828,5.841
					c0.361,0.513,0.736,1.012,1.08,1.53c0.334,0.526,0.666,1.05,0.996,1.572l0.986,1.566l0.893,1.615
					c0.465,0.879,0.992,1.704,1.393,2.582c0.418,0.868,0.83,1.723,1.236,2.567c0.197,0.41,0.395,0.817,0.59,1.222
					c0.182,0.439,0.361,0.876,0.543,1.311c0.352,0.868,0.738,1.73,1.055,2.578c2.352,6.853,4.6,13.2,7.82,20.419
					c0.752,2.037,1.492,4.045,2.281,6.188c0.082,0.224,0.154,0.418,0.234,0.639c0.688,4.737,6.002,21.402,8.637,28.31
					c0.299,1.229,0.6,2.47,0.914,3.764c2.518,5.233,4.531,11.146,6.986,18.526l0.75,2.422c0.764,2.863,1.42,5.632,2.152,8.514
					c0.727,2.883,1.535,5.879,2.459,9.234c0.723,2.59,1.459,5.042,2.186,7.429c1.684,8.668,5.004,20.732,6.9,28.039
					c0.094,1.462,0.242,2.953,0.332,4.501c0.555,3.004,1.129,6.497,1.596,9.649c0.049,0.614,0.098,1.236,0.146,1.846
					c-0.117,0.783-0.131,2.119-0.346,2.387c0.672,10.376,1.258,13.265,1.984,20.2c0.227,2.996,0.496,6.119,0.797,9.331
					c0.174,3.651,0.197,7.452,0.439,11.146c0.352,5.132,1.188,12.595,1.633,17.343c0.203,2.209,0.387,4.418,0.549,6.643
					l0.596,10.324c0.697,14.097,0.889,28.628,1.914,44.486c0.307,4.429,0.545,9.054,0.832,13.687c0,0,0.158,4.527,0.396,11.318
					c0.092,3.396,0.197,7.359,0.311,11.604c0.057,2.122,0.115,4.315,0.174,6.544c0.033,2.229,0.068,4.493,0.104,6.758
					c0.062,4.528,0.127,9.057,0.186,13.302c0,4.244-0.002,8.206-0.002,11.602c0.006,3.396,0.004,6.226-0.057,8.203
					c-0.039,1.979-0.062,3.11-0.062,3.11c-0.066,2.991-0.133,5.989-0.199,8.974s-0.273,5.944-0.402,8.877
					c-0.219,6.351-0.885,12.272-1.469,17.862c-9.049-0.306-17.686-0.821-26.912-1.511c-14.672-1.12-28.594-1.698-42.805-2.986
					c0.352-3.708,0.705-7.441,1.066-11.248l0.051-0.535l-0.277-0.433c-0.857-1.347-1.602-3.02-2.289-4.621
					c-0.305-0.833-0.609-1.669-0.916-2.508c-0.248-0.86-0.498-1.724-0.75-2.591c-0.91-3.513-1.303-7.122-1.619-11.01
					c-0.518-5.408-0.768-9.271-1.439-14.712c-0.453-4.021-1.031-7.24-1.299-10.789c0,0,0.004-1.296,0.012-3.563
					c0.012-1.134,0.129-2.511,0.207-4.089c0.084-1.6,0.18-3.403,0.285-5.37c0.092-1.967,0.193-4.097,0.299-6.35
					c0.031-2.268,0.062-4.658,0.096-7.132c0.111-4.958,0.021-10.2,0.004-15.459c-0.104-10.51-0.361-21.014-0.658-28.891
					c-0.125-3.938-0.246-7.221-0.379-9.518c-0.113-2.297-0.178-3.609-0.178-3.609c-0.074-2.429-0.148-4.861-0.223-7.3
					c-0.127-2.441-0.254-4.888-0.381-7.345c-0.068-1.412-0.137-2.802-0.203-4.173c-0.047-1.37-0.225-2.736-0.33-4.082
					c-0.125-1.348-0.248-2.682-0.369-4.006l-0.096-0.992l-0.049-0.494l-0.023-0.247l-0.012-0.124l-0.004-0.03l-0.016-0.092
					l-0.01-0.061l-0.346-1.916c-0.482-2.551-0.883-5.062-1.637-7.623c-0.689-2.55-1.398-5.118-2.357-7.613
					c-0.75-2.01-1.354-3.793-2.037-5.314c0,0-0.465-1.401-1.164-3.502c-0.668-2.113-1.715-4.874-2.709-7.653
					c-1.055-2.759-2.107-5.516-2.979-7.562c-0.412-1.022-0.791-1.886-1.074-2.493c-0.273-0.605-0.43-0.952-0.43-0.952l-0.99,0.495
					c0.154-3.831,0.035-7.886-0.746-12.652c-1.096-6.681-0.68-18.571-0.24-31.16c0.375-10.719,0.762-21.803,0.305-31.171
					c-0.977-20.045,13.807-78.967,13.957-79.56l-2.908-0.733c-0.615,2.438-15.045,59.952-14.045,80.44
					c0.451,9.242,0.066,20.262-0.307,30.919c-0.445,12.742-0.865,24.777,0.277,31.75c1.297,7.92,0.701,13.9,0.068,20.23
					c-0.354,3.554-0.721,7.229-0.805,11.498c-0.225,11.472-0.279,87.848,0,102.059c0.098,4.955-0.104,12.696-0.316,20.894
					c-0.072,2.805-0.146,5.683-0.213,8.561c-1.221-4.109-2.629-9.639-3.727-16.23c-1.936-11.607-7.217-20.048-13.332-29.821
					c-2.006-3.204-4.08-6.518-6.193-10.182c-8.596-14.896-12.955-24.233-12.955-27.75v-2.696l-8.229,5.106l0.52,1.19
					c0.426,0.975,10.467,23.919,14.23,28.368c3.668,4.335,17.076,27.032,19.004,37.308c2.078,11.083,5.143,24.443,10.473,30.557
					c0.012,5.717,0.16,10.759,0.559,14.334c2.768,24.76,5.736,60.597,4.266,64.833c-5.141,2.311-57.498,3.488-155.666,3.5V208.087z
					 M443.671,475.24c-2.049-10.92-15.758-34.077-19.662-38.692c-2.73-3.227-10.043-19.181-13.25-26.443l1.777-1.103
					c1.156,4.896,5.301,13.393,13.018,26.765c2.141,3.71,4.229,7.047,6.248,10.273c6.189,9.892,11.08,17.705,12.916,28.724
					c2.297,13.781,5.83,22.867,6.521,24.565c-0.008,0.604-0.016,1.206-0.021,1.801C447.669,494.701,445.351,484.207,443.671,475.24z
					"/>
			</g>
			<path fill="#FFFFFF" d="M326.989,219.324h5.436c0.383,0.146,0.814,0.27,1.305,0.398c0.088,0.021,0.176,0.043,0.26,0.064
				c-0.6-0.79-1.152-1.517-1.705-2.244c-0.246,0.599-0.43,1.216-0.566,1.84c-0.068,0.312-0.125,0.626-0.174,0.941
				c-0.041,0.309-0.043,0.591-0.057,0.89c-0.039,1.183,0.018,2.392,0.01,3.67c0.016,1.144,0.029,2.279,0.043,3.412
				c0,0-0.086,1.216-0.215,3.04c-0.104,1.822-0.242,4.251-0.383,6.68c-0.23,4.856-0.461,9.712-0.461,9.712
				c-0.283,0.82-0.684,1.57-0.768,2.521c-0.111,1.288,0.289,2.19,0.344,3.439c0.287,6.629-1.824,12.227-1.328,18.524
				c0.297,3.814,0.51,7.167,0.449,11.094c-0.025,1.362-0.053,2.755-0.078,4.143l-0.453,16.775c-0.131,1.072-0.262,2.141-0.387,3.166
				c-0.434,3.669,0.012,7.044,0.061,10.312l-0.055,2.393c-0.037,0.516-0.088,1.028-0.164,1.54c-0.113,0.642-0.264,1.498-0.412,2.344
				c0.342-0.465,0.785-1.068,1.23-1.671c-0.189-0.034-0.254-0.021-0.496-0.03c-0.236-0.01-0.457-0.006-0.664,0.014
				c-0.77,0.027-1.605,0.254-2.43,0.286c-0.715-0.093-1.426-0.184-2.084-0.245c-0.033-0.009-0.068-0.018-0.086-0.022
				c0.867,0.929,1.205,1.291,1.543,1.652c0.213-1.544,0.537-2.238,0.336-4.564c-0.238-0.056-0.371-0.361-0.559-0.537l-0.021-0.426
				c0.205-0.734,0.377-1.543,0.619-2.236c-0.105-0.369-0.234-0.717-0.361-1.062c0.709-1.751,1.008-4.651,0.367-6.705
				c0.068-0.576,0.111-1.167,0.113-1.79c0.006-1.611-0.318-2.879-0.533-4.256l0.018-0.586c0.232-1.792,0.393-3.233,1.244-4.536
				c-0.09-0.311-0.178-0.609-0.264-0.904c0.48-1.693,0.342-5.748-0.514-6.869c0.006-0.054,0.012-0.102,0.018-0.157
				c0.066-0.526,0.129-1.019,0.191-1.52c0.715-1.802,0.795-3.344,0.613-5.056c0.076-0.853,0.129-1.731,0.143-2.677
				c0.061-4.396,0.127-8.917,0.24-13.573c0.016-0.414,0.031-0.838,0.047-1.26c0.162-1.025,0.338-2.049,0.379-3.122
				c0.023-0.67-0.008-1.248-0.068-1.782c0.184-2.798,0.297-5.599-0.027-8.183l0.006-0.134c0.092-0.724,0.182-1.448,0.273-2.174
				c0.109-0.067,0.215,0.04,0.32-0.067c-0.059-1.413-0.164-2.944,0.004-4.46c0.033-0.18,0.246,0.035,0.293,0
				c-0.273-1.465,0.008-2.198,0.711-1.905c-0.172-0.412-0.232-1.407-0.391-1.873c0.869-1.091,0.59-6.92,0.215-9.086
				c0.232-1.771,0.451-3.539,0.582-5.322c0.232-3.182,0.219-4.504-0.617-4.716l0.211-4.254l-0.791-0.039l0.014-0.088
				c-0.051,0.037-0.098,0.052-0.148,0.082l-1.416-0.07l-0.014,0.28c-0.098-0.023-0.189-0.043-0.293-0.077
				c-0.059,2.51,0.07,4.542-0.092,6.706c-0.631,2.486-0.764,5.193-0.77,7.997c-0.037,0.849-0.078,1.731-0.121,2.716
				c-0.164,3.379-0.24,6.78-0.465,10.167c-0.117,1.79-0.465,3.85-0.27,5.589c0.021,0.219,0.07,0.402,0.117,0.597
				c-0.123,3.275-0.164,6.541-0.139,9.846l-0.096,2.143c-0.07,0.208-0.141,0.422-0.207,0.617c-1.043,2.836-1.254,4.576-1.309,8.444
				c-0.16,8.812-1.578,18.465-0.59,27.052c0.189,1.721,0.365,3.3,0.545,4.906c0,0-0.096,3.531-0.191,7.062
				c-0.061,1.763-0.092,3.531-0.082,4.865c-0.004,1.33-0.008,2.218-0.008,2.218c-0.156,0.732-0.242,1.485-0.094,2.291
				c-0.578,0.146-0.914,1.188-1.092,2.612l-0.207,1.659l2.195,0.47c1.014,0.218,2.17,0.344,3.396,0.373
				c0.604,0.022,1.24-0.003,1.865-0.042c0.334-0.039,0.66-0.077,0.979-0.114c0.389-0.072,0.816-0.187,1.186-0.297l1.613-0.485
				l-0.088-1.587c-0.041-0.75-0.098-1.397-0.156-1.87c-0.104-0.114-0.211,0.01-0.314-0.088c0.008-2.798-0.205-8.86,0.363-10.734
				c-0.297-0.951-0.432-2.091-0.73-2.904l0.09-3.524c0.516-1.135,1.236-1.915,1.561-3.33c-1.201-0.955-1.123-4.433-1.047-6.419
				c0.031-0.894,0.193-2.292,0.271-3.637c0.068-0.088,0.137-0.145,0.217-0.13c0.172-1.167,0.104-2.261,0.107-3.434
				c0.037,0.04,0.078,0.091,0.127,0.191c0.209-1.701,0-3.061-0.684-3.583l0.029-1.013c0.391-1.794,0.932-3.124,1.023-5.126
				c0.094-2.102-0.314-4.391-0.346-6.552c-0.025-1.254-0.104-2.09-0.215-2.878l0.367-10.295c0.643-3.785,0.602-7.058,0.76-11.121
				c0.084-2.009,0.408-4.751,0.016-6.591c-0.006-0.027-0.01-0.044-0.016-0.072c0.184-3.821,0.398-7.64,0.658-11.449
				c0.154-1.898,0.236-3.818,0.451-5.697l0.285-2.83l0.447-2.683l0.221-1.313h-1.219h-7V219.324z M327.058,243.999l0.115-2.475
				l0.088-0.071L327.058,243.999z M327.747,235.323l-0.016,0.018l0.033-0.22L327.747,235.323z"/>
		</g>
		<path fill="#FFFFFF" d="M353.528,53.698c-4.016,1.515-8.062,2.645-12.09,3.658c-8.076,2.002-16.162,3.16-24.674,4.374
			c-5.166,0.708-10.072,1.15-15.037,1.255c-4.963,0.122-9.984-0.004-15.385-0.484c-3.744-0.349-7.561-0.836-11.346-1.429
			c0,0-0.713-0.124-1.963-0.34c-1.25-0.208-3.027-0.547-5.156-0.979c-4.258-0.868-9.893-2.24-15.422-3.953
			c-2.762-0.854-5.504-1.791-8.01-2.767c-0.068-0.027-0.137-0.053-0.205-0.08c0.012,0.187,0.029,0.373,0.029,0.562v2
			c0,0.125-0.014,0.246-0.02,0.37c3.238,1.079,6.756,2.202,9.357,2.979c2.404,0.724,6.168,1.88,9.848,2.764
			c0.229,0.121,0.375,0.22,0.322,0.29c3.186,0.855,6.215,1.372,9.469,1.894c-0.113,0.019-0.258,0.036-0.541,0.038
			c4.703,0.987,8.531,1.188,10.004,0.665l2.822,0.297c4.996,0.797,8.752,1.565,14.402,1.681c5.936,0.104,12.326-0.652,18.34-1.41
			c1.748-0.191,3.193-0.444,4.473-0.676c1.279-0.242,2.4-0.415,3.469-0.691c0,0,1.777-0.312,4.445-0.779
			c1.324-0.284,2.869-0.616,4.525-0.971c1.654-0.359,3.395-0.852,5.146-1.287c3.482-0.958,6.938-2.021,9.484-2.948
			c2.572-0.854,4.236-1.563,4.236-1.563c0.172-0.061,0.338-0.119,0.512-0.179c0.033-0.957,0.156-1.902,0.379-2.826
			C354.472,53.342,353.997,53.521,353.528,53.698z"/>
	</g>
	<g>
		<path fill="#FFFFFF" d="M301.667,221.096c-0.057-0.658-0.117-1.355-0.182-2.075c-0.08-0.687-0.195-1.325-0.293-2.004l-0.039-0.251
			l-0.033-0.204l-0.029-0.126l-0.111-0.505c-0.074-0.336-0.148-0.671-0.223-1.002c-0.148-0.663-0.293-1.312-0.434-1.931
			c-0.287-1.234-0.549-2.35-0.75-3.213c-0.064-0.545-0.123-1.238-0.277-2.037c-0.172-0.794-0.369-1.712-0.59-2.737
			c-0.236-1.022-0.498-2.151-0.781-3.373c-0.285-1.221-0.594-2.534-1.027-3.889c-0.41-1.362-0.844-2.799-1.297-4.296
			c-0.453-1.497-0.918-3.056-1.506-4.619c-1.145-3.135-2.25-6.492-3.646-9.789c-5.281-13.331-12.258-26.914-16.248-34.086
			c-3.029-6.101-6.236-12.101-9.477-18.087c-3.262-5.968-6.617-11.909-9.926-17.828c-0.729-1.319-1.43-2.589-2.104-3.812
			c-0.643-1.231-1.344-2.475-1.867-3.561c-0.508-1.136-1.025-2.204-1.475-3.263c-0.41-1.087-0.801-2.127-1.176-3.122
			c-0.381-0.991-0.652-1.988-0.965-2.91c-0.291-0.932-0.607-1.802-0.832-2.662c-0.471-1.709-0.943-3.22-1.297-4.589
			c-0.725-2.731-1.295-4.774-1.709-6.216c-0.434-1.436-0.775-2.251-1.049-2.526c0,0-0.381-1.984-0.951-4.959
			c-0.529-2.985-1.213-6.97-1.791-10.974c-0.6-4-1.102-8.017-1.459-11.029c-0.33-3.011-0.549-5.019-0.549-5.019l-0.787,0.076
			l-0.051-0.579c-0.133,2.28-0.51,4.53-1.105,6.715c0.975,7.851,2.125,15.072,3.453,22.024c0.414,2.047,0.789,4.08,1.248,6.087
			c0.221,1.005,0.439,2.008,0.658,3.009l0.729,2.987c0.963,3.98,2.094,7.924,3.463,11.883c0.4,1.148,0.787,2.308,1.217,3.463
			c0.492,1.139,0.988,2.283,1.488,3.432c1.109,2.217,2.227,4.378,3.434,6.584c2.381,4.393,4.846,8.778,7.338,13.244
			c4.979,8.921,10.033,18.098,14.873,27.575c2.863,5.788,5.807,11.813,8.783,18.684c5.123,11.763,9.65,23.844,12.764,36.288
			c0.883,3.089,1.379,6.253,2.02,9.39c0.139,0.767,0.342,1.611,0.426,2.316c0.088,0.792,0.236,1.633,0.25,2.368
			c0.043,0.756,0.102,1.506,0.078,2.295c0.006,0.779,0,1.56-0.061,2.342c-0.064,1.09-0.178,2.179-0.314,3.266
			c0.689-0.045,1.381-0.076,2.078-0.076c0.398,0,0.793,0.016,1.188,0.031c0.049-0.339,0.094-0.665,0.133-0.962
			c0.334-2.627,0.576-3.607,0.891-2.545C301.782,223.486,301.71,222.373,301.667,221.096z M300.468,226.088
			c-0.033,0.308-0.066,0.591-0.096,0.862c0.184-1.855,0.35-4.642,0.121-7.508c-0.021-0.642-0.129-1.191-0.191-1.779
			c-0.037-0.304-0.076-0.604-0.113-0.902c-0.055-0.283-0.109-0.562-0.162-0.836c-0.213-1.098-0.412-2.122-0.584-3
			c-0.342-1.756-0.57-2.926-0.57-2.926l-0.027-0.585c0,0,0.23,1.208,0.574,3.02c0.174,0.906,0.373,1.962,0.59,3.095
			c0.053,0.283,0.107,0.571,0.162,0.862c0.029,0.167,0.055,0.246,0.086,0.486l0.053,0.444c0.068,0.6,0.156,1.187,0.207,1.815
			C300.741,221.738,300.599,224.203,300.468,226.088z"/>
		<path fill="#FFFFFF" d="M297.421,224.298c0.314-1.062,0.557-0.082,0.891,2.545c0.039,0.297,0.084,0.623,0.133,0.962
			c0.395-0.015,0.789-0.031,1.188-0.031c0.697,0,1.389,0.031,2.078,0.076c-0.137-1.087-0.25-2.175-0.314-3.266
			c-0.061-0.782-0.066-1.562-0.061-2.342c-0.023-0.789,0.035-1.539,0.078-2.295c0.014-0.735,0.162-1.576,0.25-2.368
			c0.084-0.705,0.287-1.549,0.426-2.316c0.641-3.137,1.137-6.301,2.02-9.39c3.113-12.444,7.641-24.525,12.764-36.288
			c2.977-6.871,5.92-12.896,8.783-18.684c4.84-9.477,9.895-18.654,14.873-27.575c2.492-4.465,4.957-8.851,7.338-13.244
			c1.207-2.206,2.324-4.367,3.434-6.584c0.5-1.149,0.996-2.293,1.488-3.432c0.43-1.155,0.816-2.315,1.217-3.463
			c1.369-3.959,2.5-7.903,3.463-11.883l0.729-2.987c0.219-1.001,0.438-2.004,0.658-3.009c0.459-2.007,0.834-4.04,1.248-6.087
			c1.328-6.952,2.479-14.174,3.453-22.024c-0.596-2.186-0.973-4.435-1.105-6.715l-0.051,0.579l-0.787-0.076
			c0,0-0.219,2.007-0.549,5.019c-0.357,3.012-0.859,7.028-1.459,11.029c-0.578,4.004-1.262,7.989-1.791,10.974
			c-0.57,2.976-0.951,4.959-0.951,4.959c-0.273,0.275-0.615,1.091-1.049,2.526c-0.414,1.442-0.984,3.484-1.709,6.216
			c-0.354,1.369-0.826,2.88-1.297,4.589c-0.225,0.86-0.541,1.729-0.832,2.662c-0.312,0.922-0.584,1.919-0.965,2.91
			c-0.375,0.995-0.766,2.035-1.176,3.122c-0.449,1.059-0.967,2.127-1.475,3.263c-0.523,1.086-1.225,2.33-1.867,3.561
			c-0.674,1.223-1.375,2.493-2.104,3.812c-3.309,5.919-6.664,11.86-9.926,17.828c-3.24,5.986-6.447,11.986-9.477,18.087
			c-3.99,7.173-10.967,20.756-16.248,34.086c-1.396,3.297-2.502,6.654-3.646,9.789c-0.588,1.563-1.053,3.123-1.506,4.619
			c-0.453,1.497-0.887,2.934-1.297,4.296c-0.434,1.355-0.742,2.668-1.027,3.889c-0.283,1.221-0.545,2.35-0.781,3.373
			c-0.221,1.025-0.418,1.942-0.59,2.737c-0.154,0.799-0.213,1.492-0.277,2.037c-0.201,0.863-0.463,1.979-0.75,3.213
			c-0.141,0.619-0.285,1.268-0.434,1.931c-0.074,0.332-0.148,0.666-0.223,1.002l-0.111,0.505l-0.029,0.126l-0.033,0.204
			l-0.039,0.251c-0.098,0.679-0.213,1.318-0.293,2.004c-0.064,0.72-0.125,1.417-0.182,2.075
			C297.478,222.373,297.405,223.486,297.421,224.298z M298.671,219.135c0.051-0.628,0.139-1.215,0.207-1.815l0.053-0.444
			c0.031-0.24,0.057-0.319,0.086-0.486c0.055-0.291,0.109-0.579,0.162-0.862c0.217-1.132,0.416-2.189,0.59-3.095
			c0.344-1.812,0.574-3.02,0.574-3.02L300.315,210c0,0-0.229,1.17-0.57,2.926c-0.172,0.878-0.371,1.902-0.584,3
			c-0.053,0.274-0.107,0.553-0.162,0.836c-0.037,0.297-0.076,0.598-0.113,0.902c-0.062,0.588-0.17,1.137-0.191,1.779
			c-0.229,2.866-0.062,5.652,0.121,7.508c-0.029-0.271-0.062-0.555-0.096-0.862C298.589,224.203,298.446,221.738,298.671,219.135z"
			/>
	</g>
	<g>
		<path fill="#FFFFFF" d="M480.722,541.682c0.639-0.043,1.31-0.079,2.012-0.106c1.424-0.01,2.961,0.024,4.513,0.103
			c3.107,0.156,6.295,0.49,8.899,1.011c1.493,0.047,3.022,0.123,4.626,0.244c2.081,0.137,3.908,0.425,5.659,0.718
			c1.748,0.304,3.42,0.594,5.162,0.896l1.501,0.143c4.624,0.25,8.329,0.509,11.82,0.027c0.777,0.176,1.522,0.345,2.26,0.512
			c4.413,0.041,14.737,1.436,17.42,2.62c0.14,0.011,0.262,0.02,0.404,0.03c1.354,0.099,2.624,0.191,3.913,0.286
			c2.069-0.052,3.984,0.008,5.853,0.145c-0.283,1.416-0.341,2.88-0.174,4.317c-6.168-0.646-12.339-1.275-18.399-1.979
			c-3.312-0.383-6.592-0.807-9.824-1.233c-3.233-0.406-6.418-0.847-9.539-1.33c-4.347-0.653-8.339-1.253-12.4-1.863
			c0,0-0.563-0.053-1.549-0.146c-0.985-0.066-2.394-0.161-4.084-0.274c-3.38-0.226-7.888-0.526-12.395-0.827
			c-1.126-0.075-2.253-0.15-3.362-0.225c-0.885-0.051-1.757-0.075-2.614-0.107C480.637,543.673,480.737,542.679,480.722,541.682z"/>
		<path fill="#FFFFFF" d="M118.466,541.682c-0.639-0.043-1.31-0.079-2.012-0.106c-1.424-0.01-2.961,0.024-4.513,0.103
			c-3.107,0.156-6.295,0.49-8.899,1.011c-1.493,0.047-3.022,0.123-4.626,0.244c-2.081,0.137-3.908,0.425-5.659,0.718
			c-1.748,0.304-3.42,0.594-5.162,0.896l-1.501,0.143c-4.624,0.25-8.329,0.509-11.82,0.027c-0.777,0.176-1.522,0.345-2.26,0.512
			c-4.413,0.041-14.737,1.436-17.42,2.62c-0.14,0.011-0.262,0.02-0.404,0.03c-1.354,0.099-2.624,0.191-3.913,0.286
			c-2.069-0.052-3.984,0.008-5.853,0.145c0.283,1.416,0.341,2.88,0.174,4.317c6.168-0.646,12.339-1.275,18.399-1.979
			c3.312-0.383,6.592-0.807,9.824-1.233c3.233-0.406,6.418-0.847,9.539-1.33c4.347-0.653,8.339-1.253,12.4-1.863
			c0,0,0.563-0.053,1.549-0.146c0.985-0.066,2.394-0.161,4.084-0.274c3.38-0.226,7.888-0.526,12.395-0.827
			c1.126-0.075,2.253-0.15,3.362-0.225c0.885-0.051,1.757-0.075,2.614-0.107C118.551,543.673,118.45,542.679,118.466,541.682z"/>
	</g>
</g>
</svg>
