<?xml version="1.0" encoding="utf-8"?>
<!-- Generator: Adobe Illustrator 16.0.4, SVG Export Plug-In . SVG Version: 6.00 Build 0)  -->
<!DOCTYPE svg PUBLIC "-//W3C//DTD SVG 1.1//EN" "http://www.w3.org/Graphics/SVG/1.1/DTD/svg11.dtd">
<svg version="1.1" id="Layer_1" xmlns="http://www.w3.org/2000/svg" xmlns:xlink="http://www.w3.org/1999/xlink" x="0px" y="0px"
	 width="500px" height="500px" viewBox="0 0 500 500" enable-background="new 0 0 500 500" xml:space="preserve">
<path fill="#FFFFFF" d="M455.385,197.531c-6.025-17.284-15.294-52.746-23.127-65.562c-5.043-8.253-4.118-15.17-3.047-23.177
	c1.366-10.192,2.909-21.743-7.82-36.049c-10.997-14.662-36.39-24.163-60.948-33.35c-17.885-6.688-34.777-13.007-44.762-20.614
	c-0.92-0.702-2.049-1.083-3.205-1.083c-0.954,0-2.331,0.206-8.938,1.26c-12.718,2.027-36.395,5.798-49.875,5.798
	c-17.738,0-52.089-11.376-52.433-11.49c-1.382-0.461-2.893-0.331-4.176,0.356c-0.477,0.256-47.931,25.649-69.417,31.303
	c-4.662,1.228-8.746,2.043-12.349,2.764c-13.765,2.745-22.858,4.56-33.274,23.31C69.432,93.642,31.236,222.112,31.939,252.001
	c-0.103,1.221,0.186,2.465,0.867,3.565c4.053,6.562,37.614,16.914,70.53,17.346c1.937,1.413,5.054,3.197,10.056,5.767
	c-2.561,10.506-7.989,36.427-2.92,49.438c-2.09,7.71-8.247,30.675,1.064,45.807c6.244,10.147,1.355,14.467,0.309,15.229
	c-1.422,0.952-2.211,2.467-2.267,4.176c-0.489,15.176-1.323,65.48,8.494,75.619c2.215,2.29,4.598,2.771,6.208,2.771
	c9.898,0,25.574,1.787,35.95,2.97l4.633,0.524c3.028,0.338,8.769,1.659,15.412,3.188c15.792,3.63,37.418,8.607,55.744,8.607
	c25.253,0,64.121-4.383,105.874-25.257c6.154-3.079,12.391-6.028,18.858-8.429c6.651-2.475,18.448-5.845,19.75-7.141
	c2.296-2.441,1.94-6.749,1.997-7.664c0.217-3.601-0.21-7.201-0.367-10.8c-0.2-4.593-0.76-9.179-1.666-13.688
	c-0.514-2.562-1.136-5.109-1.862-7.618c-0.311-1.072-3.045-6.911-2.592-7.692c4.242-7.276,15.063-29.293,5.468-50.648
	c1.312-7.973,6.547-42.108,4.112-64.207c8.084,0.707,18.417-2.142,25.434-11.667c1.37-0.34,3.516-0.839,5.633-1.324
	c26.356-6.06,43.782-11.091,49.214-17.428C469.104,249.671,470.96,242.247,455.385,197.531z M200.059,24.012
	c8.12,2.598,36.681,11.327,53.604,11.327c14.322,0,38.534-3.856,51.542-5.93c1.311-0.209,2.635-0.419,3.807-0.603
	c-2.997,4.952-6.023,9.482-9.079,13.576c-53.023,11.401-95.274-6.105-95.697-6.285l-0.106,0.246
	c-3.387-4.762-5.777-8.725-6.973-10.805C198.309,24.935,199.286,24.422,200.059,24.012z M294.22,49.484
	c-12.885,14.844-26.23,22.181-39.845,21.839c-18.013-0.452-33.518-14.233-43.969-26.815
	C224.793,48.982,256.095,56.138,294.22,49.484z M191.919,28.252c4.808,8.509,28.951,48.117,62.309,48.95
	c21.388,0.535,41.713-15.061,60.417-46.346c2.196,1.357,4.542,2.673,7.034,3.949c-21.427,35.727-44.154,53.56-67.583,52.984
	c-35.114-0.866-62.532-43.015-69.942-55.595C186.999,30.77,189.609,29.44,191.919,28.252z M457.448,246.941
	c-0.563,2.871-12.282,5.489-14.418,6.151c-5.844,1.81-11.493,4.183-17.373,5.898c-3.051,0.895-6.45,2.098-9.664,2.138
	c-6.161,0.078-10.202,1.104-14.43,5.97c-2.659,3.055-6.131,5.216-10.137,5.973c-3.781,0.713-6.838,0.071-8.243-0.47
	c-0.558-1.287-1.587-2.271-2.841-2.787c10.683-27.979,23.374-142.409,23.276-143.563c0,0-16.302,112.209-29.979,144.244
	c-5.114,11.977-28.879,65.888-26.105,63.168c2.492-2.45,4.387-5.719,6.076-8.748c2.794-5.002,5.509-10.049,8.268-15.075
	c2.413-4.392,4.713-8.845,6.909-13.349c1.37-2.819,6.525-10.217,6.093-13.265c2.581,18.376-1.87,51.805-4.107,64.668
	c-0.099,0.576-0.096,1.16-0.008,1.73c0.484,3.05-5.165,10.421-6.75,12.96c-2.591,4.141-6.387,7.396-9.784,10.847
	c-6.86,6.96-15.701,12.441-21.05,20.785c1.375-1.656,3.325-2.643,5.029-3.898c1.797-1.327,3.494-2.815,5.22-4.235
	c3.112-2.562,6.203-5.159,9.267-7.789c5.547-4.766,11.089-9.599,16.166-14.874c1.699-1.761,3.635-3.711,4.742-5.938
	c2.89,11.178-0.465,22.446-3.651,29.729c-2.847,6.504-9.062,12.941-13.863,18.051c-3.317,3.535-7.161,6.516-11.041,9.399
	c-2.318,1.727-7.507,4.088-8.192,7.105c-0.542,2.38,30.04-17.246,29.342-19.082c6.017,15.798,6.171,36.028,4.896,37.339
	c-1.271,1.312-15.907,3.24-33.936,12.257c-39.906,19.951-77.027,24.139-101.141,24.139c-17.123,0-38.073-4.819-53.371-8.342
	c-7.249-1.665-12.979-2.985-16.616-3.389l-4.604-0.519c-10.887-1.241-25.657-2.926-36.118-3.032
	c-4.094-5.702-5.964-37.257-5.217-65.158c4.563-4.65,8.642-14.307,0.459-27.604c-4.616-7.503-4.56-20.155,0.169-37.608
	c0.46-1.705,0.617-2.276,0.617-3.138c0-0.888-0.223-1.756-0.646-2.535c-3.389-6.214-1.478-22.839,1.349-36.643
	c-1.529,7.459,7.186,23.577,9.83,30.703c4.218,11.369,38.804,67.853,55.105,90.333c1.112,1.532-57.784-110.53-62.215-134.569
	c-0.036-0.194-0.08-0.392-0.14-0.581c-19.678-83.141-16.199-162.322-16.199-162.322c-0.06,0.47-5.849,47.791,0.731,107.726
	c1.64,14.96,4.179,31.567,8.017,48.945c-3.398-1.797-6.489-3.529-7.598-4.333c-0.121-0.153-0.231-0.313-0.37-0.454
	c-0.993-0.99-2.34-1.55-3.744-1.55c-30.557,0-56.368-8.762-62.941-12.272c0.048-2.305,0.296-5.122,0.722-8.379
	c13.611,2.843,44.756,9.219,52.396,9.639c0,0-38.224-12.686-51.524-15.465c7.228-43.679,36.828-141.149,47.155-159.735
	c8.038-14.466,12.955-15.45,26.092-18.071c3.751-0.749,8-1.595,12.971-2.903c12.623-3.322,32.775-12.585,48.522-20.333
	c7.506,13.006,36.185,57.869,75.085,58.837c25.802,0.644,50.374-18.299,73.05-56.28c8.935,4.136,19.171,7.967,29.746,11.925
	c23.131,8.65,47.052,17.601,56.189,29.784c8.133,10.842,7.05,18.929,5.797,28.294c-1.17,8.739-2.495,18.646,4.507,30.102
	c4.621,7.556,26.686,75.099,31.552,93.353c-5.485,2.442-46.051,20-46.444,20.191c-1.647,0.808,35.164-8.33,37.801-9.41
	c0.986-0.403,10.402-3.57,10.085-4.982C457.331,241.562,457.802,245.153,457.448,246.941z"/>
<g display="none">
	<path display="inline" fill="#FFFFFF" d="M240.857,95.913c0.094-0.055,0.186-0.109,0.28-0.164c-0.248-0.1-0.495-0.205-0.744-0.303
		C240.548,95.603,240.702,95.757,240.857,95.913z"/>
	<path display="inline" fill="#FFFFFF" d="M257.019,83.211c5.474-1.536,10.943-3.063,16.413-4.581c4.82-2.25,9.642-4.5,14.459-6.751
		c3.913-1.926,7.825-3.853,11.737-5.783c0.896-2.476,1.794-4.954,2.689-7.436c-2.718-2.082-5.431-4.152-8.147-6.213
		c-8.434-1.276-16.866-2.517-25.299-3.729c-15.355-0.659-30.708-1.243-46.057-1.769c-11.74,1.721-23.479,3.47-35.218,5.262
		c0.893,2.967,1.787,5.932,2.683,8.898c6.607,4.783,13.221,9.57,19.84,14.376c6.494,3.027,12.993,6.073,19.497,9.147
		c3.591,3.592,7.182,7.198,10.777,10.814c0.249,0.098,0.496,0.203,0.744,0.303c2.623-1.544,5.248-3.084,7.868-4.624
		C251.678,88.487,254.35,85.85,257.019,83.211z"/>
	<path display="inline" fill="#FFFFFF" d="M247.53,445.59c-51.469-1.462-96.129-0.501-125.939-5.993
		c2.218,6.717,7.728,11.739,16.54,15.213c22.283,8.636,62.384,7.894,102.452,9.39c40.058,0.766,80.079,3.767,102.053,3.051
		c1.043-0.036,2.084-0.072,3.125-0.103c11.594-0.359,24.627-0.127,29.287-7.408c1.846-2.884,2.229-6.734,1.204-11.692
		C343.828,450.26,296.854,446.637,247.53,445.59z"/>
	<path display="inline" fill="#FFFFFF" d="M245.929,100.919c0.133,0.863,0.56,1.508,1.27,1.918c1.131,0.656,2.404,0.719,3.884,0.793
		c1.384,0.071,2.715-0.215,4.016-0.66c-2.87-1.885-5.745-3.491-8.628-4.881C246.005,98.985,245.791,100.029,245.929,100.919z"/>
	<path display="inline" fill="#FFFFFF" d="M184.197,73.192c-13.499-6.749-27.503-10.454-41.709-12.653
		c-4.065,4.18-7.588,8.752-10.42,13.747c0.214-0.061,0.436-0.114,0.654-0.171c0.446-0.115,0.889-0.216,1.333-0.315
		c0.39-0.084,0.777-0.162,1.171-0.236c0.54-0.101,1.077-0.204,1.615-0.281c0.83-0.122,1.666-0.217,2.503-0.288
		c0.085-0.006,0.171-0.011,0.253-0.015c3.058-0.24,6.153-0.158,9.094,0.28c10.263,1.528,19.887,6.171,29.203,10.668
		c0.608,0.294,1.217,0.589,1.827,0.884c4.782,2.301,8.313,3.917,13.637,5.344c1.68,0.449,3.331,0.895,4.959,1.395
		c1.995,0.751,3.992,1.503,5.986,2.257c3.519,1.62,6.939,3.185,10.738,4.184c0.298,0.079,0.599,0.159,0.898,0.24
		c0.05,0.019,0.1,0.037,0.151,0.057c0.003-0.005,0.003-0.01,0.007-0.016c1.13,0.302,2.253,0.623,3.359,0.993
		c0.078,0.048,0.154,0.1,0.234,0.146c0.484,0.288,0.978,0.562,1.478,0.824c0.05,0.026,0.097,0.058,0.149,0.083
		c2.363,1.211,5.007,2.481,7.772,2.913c0.396,0.062,0.793,0.106,1.193,0.13c1.288,0.081,2.547-0.339,3.847-0.449
		c1.161-0.098,2.406-0.248,3.5-0.739c0.321-0.144,0.634-0.31,0.922-0.522c0.573-0.422,0.876-0.853,0.934-1.32
		c0.142-1.192-1.228-2.71-2.325-3.93c-0.405-0.45-0.791-0.875-1.093-1.274c-0.589-0.776-1.364-1.42-2.215-2.034
		c-8.799-2.906-17.774-5.038-27.119-8.632C199.692,81.644,191.24,76.01,184.197,73.192z"/>
	<path display="inline" fill="#FFFFFF" d="M269.248,97.754c0.834-0.267,1.666-0.539,2.494-0.826
		c4.927-1.717,8.984-4.168,12.997-7.518c0.542-0.451,1.086-0.896,1.619-1.35c1.27-1.076,2.524-2.157,3.763-3.231
		c0.18-0.153,0.355-0.307,0.534-0.458c5.226-4.531,10.623-9.23,16.509-13.137c1.959-1.301,4.057-2.671,6.278-3.844
		c0.194-0.103,0.409-0.221,0.638-0.348c1.739-0.958,4.118-2.278,6.026-1.593c0.627,0.228,1.053,0.534,1.396,0.78
		c0,0,0.181,0.13,0.182,0.13c0.353,0.248,0.679,0.437,1.415,0.442c1.091,0.009,2.214-0.053,3.301-0.113
		c1.024-0.057,2.083-0.115,3.134-0.115c0.068-0.001,0.133-0.001,0.2-0.002c1.09-0.002,2.821,0.008,4.34,0.383
		c-2.522-4.827-5.768-9.315-9.661-13.422C303.294,62.995,283.685,77.243,269.248,97.754z"/>
	<path display="inline" fill="#FFFFFF" d="M324.413,53.533c-6.823-7.2-15.659-13.218-26.224-17.753
		c-16.309-7.01-36.184-10.457-57.506-10.185c-34.688,0.465-75.232,11.321-98.195,34.944c14.206,2.199,28.21,5.904,41.709,12.653
		c7.043,2.818,15.495,8.452,22.538,11.269c9.345,3.594,18.32,5.726,27.119,8.632c-0.516-0.371-1.052-0.734-1.61-1.101
		c-0.908-0.594-1.846-1.206-2.669-1.903c-5.296-4.482-11.094-7.411-17.23-10.491c-2.627-1.319-5.344-2.68-8.02-4.17
		c-3.266-1.817-6.318-4.513-9.266-7.119c-1.073-0.949-2.085-1.844-3.101-2.687c-1.976-1.649-3.767-3.405-5.325-5.224
		c-0.852-0.993-1.638-2.005-2.336-3.009c-0.04-0.054-0.14-0.188-0.255-0.34c-1.724-2.278-2.055-2.952-1.757-3.604
		c7.197-16.034,29.284-20.795,46.551-21.946c22.016-1.479,44.244,2.325,56.524,6.842c0.409,0.15,0.626,0.598,0.5,1.032
		c-0.127,0.433-0.556,0.706-0.986,0.629c-1.176-0.209-2.321-0.405-3.474-0.601c-27.805-4.678-71.972-8.325-88.31,8.754
		c31.518-9.973,65.994-4.619,93.901,0.078c7.344,1.234,14.279,2.427,20.31,3.18c0.253,0.03,0.475,0.176,0.605,0.396
		c0.133,0.218,0.161,0.488,0.074,0.736c-0.182,0.54-0.406,1.062-0.625,1.565c-0.069,0.165-0.14,0.329-0.211,0.492
		c-2.625,6.248-5.782,10.816-9.654,13.98c-3.646,2.976-8.342,5.721-14.778,8.648c-2.533,1.149-5.169,2.231-7.718,3.277
		c-2.752,1.131-5.6,2.3-8.31,3.554c-1.021,0.47-2.063,0.925-3.075,1.366c-3.784,1.649-7.691,3.357-10.777,6.131
		c-0.102,0.092-0.204,0.184-0.305,0.275c-1.901,1.708-3.868,3.477-5.474,5.371c-0.226,0.267-0.418,0.568-0.583,0.886
		c2.884,1.39,5.758,2.996,8.628,4.881c2.046-0.696,4.015-1.787,5.995-2.531c2.683-1.011,5.43-1.814,8.154-2.686
		C283.685,77.243,303.294,62.995,324.413,53.533z"/>
	<path display="inline" fill="#FFFFFF" d="M321.228,441.253c-0.219,0.056-0.422,0.105-0.608,0.156
		c-2.011,0.55-4.103,0.735-6.127,0.927c-0.873,0.079-1.779,0.168-2.664,0.284c-0.13,0.018-0.251,0.038-0.376,0.056
		c0.155,0.018,0.308,0.033,0.458,0.045c0,0,0.83,0.074,0.831,0.074c3.683,0.336,7.279,0.685,10.812,0.802
		c4.904,0.165,10.214-0.007,16.703-0.472c2.42-0.173,3.918-0.716,4.421-3.055c0.139-0.633,0.277-1.267,0.414-1.9
		c0.512-2.323,1.037-4.727,1.389-7.137c0.784-5.396,1.04-11.126,1.288-16.665c0,0,0.085-1.885,0.086-1.885
		c0.107-2.329,0.247-4.604,0.413-6.759c0.325-4.322-4.499-8.599-8.761-12.261c-2.048-1.762-3.982-3.405-5.328-5.016
		c-7.27-8.685-13.399-19.648-18.723-33.597c-2.955-7.726-5.26-14.564-7.055-20.942c-0.441-1.574-0.731-3.116-1.011-4.606
		c-0.759-4.017-1.411-7.494-4.669-10.44c-3.537-3.205-8.136-4.547-12.539-5.6c-10.315-2.475-20.685-3.179-28.565-3.423
		c-1.477-0.045-2.954-0.084-4.433-0.115c-0.835-0.018-1.671-0.036-2.504-0.052c-4.728-0.057-9.454-0.065-14.179-0.023
		c-8.972,0.113-18.242,0.412-27.365,0.517c-1.136,0.013-2.316-0.031-3.563-0.074c-5.653-0.199-11.495-0.308-13.856,4.957
		c-0.586,1.304-1.205,2.614-1.802,3.881l-0.241,0.514c-3.59,7.667-6.684,14.084-10.108,20.407
		c-4.238,7.824-9.037,16.74-14.438,25.039c-1.745,2.685-3.68,5.308-5.547,7.857c-1.063,1.446-2.16,2.952-3.205,4.444
		c-0.705,1.008-1.4,2.062-2.075,3.082c-1.392,2.112-2.833,4.303-4.481,6.332c-1.596,1.968-3.655,3.879-5.642,5.741
		c-5.177,4.842-10.052,9.547-8.941,15.96c0.833,4.815,2.329,9.754,4.703,15.567c0.989,2.422,2.116,4.851,3.092,6.94
		c0.202,0.43,0.384,0.863,0.56,1.284c0.598,1.43,1.165,2.784,2.393,3.646c1.408,0.988,3.334,1.255,5.035,1.4
		c2.258,0.207,4.516,0.431,6.775,0.668c2.186,0.23,4.371,0.475,6.559,0.736c6.681,0.741,13.248,1.478,19.916,1.029
		c0.45-0.027,0.902-0.054,1.353-0.081c1.751-0.092,3.642-0.187,5.435-0.53c-4.106-1.297-9.878-4.201-11.967-5.739
		c-1.216-0.907-1.66-1.596-1.461-2.365c0.088-0.278,0.287-0.515,0.56-0.661c0.729-0.367,2.21-0.482,13.133,3.514
		c0.516,0.189,0.888,0.328,1.049,0.382c4.773,1.665,9.948,3.389,15.426,4.398c8.007,1.485,16.917,2.177,28.046,2.465
		c9.588,0.253,19.523,0.24,30.36,0.059c10.321-0.159,19.726-0.485,28.739-1.133c4.949-0.353,9.885-1.062,14.651-1.688
		c0.92-0.119,1.839-0.237,2.757-0.351c0.404-0.053,0.81-0.104,1.215-0.158c1.746-0.221,3.548-0.45,5.381-0.4
		c0.047,0,0.093,0.004,0.14,0.004c0.674,0.012,1.514,0.03,1.94,0.802c0.186,0.329,0.303,0.844-0.167,1.438
		C324.044,440.561,322.486,440.942,321.228,441.253z"/>
	<path display="inline" fill="#FFFFFF" d="M104.512,434.731c-11.13,10.923-30.227,15.988-45.002,16.678
		c0.183,0.773,0.355,1.443,0.51,2.055c0.662,2.555,1.102,4.305,1.394,9.616c14.016,3.296,30.243-5.103,44.513-13.049
		c0.748-7.758-0.164-10.81-0.901-13.269C104.816,436.068,104.647,435.407,104.512,434.731z"/>
	<path display="inline" fill="#FFFFFF" d="M375.792,336.434c0.031,0.134,0.056,0.274,0.088,0.406
		c0.543-5.364,1.639-11.087,2.789-17.082c3.43-17.889,6.938-36.738-3.562-49.059c-0.021,0.296-0.042,0.59-0.062,0.886
		c-0.055-0.065-0.104-0.134-0.159-0.199c-0.112,1.612-0.224,3.227-0.333,4.837c-1.335,18.93-3.098,44.021,1.105,61.289
		C375.694,337.158,375.752,336.792,375.792,336.434z"/>
	<path display="inline" fill="#FFFFFF" d="M265.426,104.137c-1.959,0.465-3.943,0.816-5.87,1.424
		c-0.166,0.053-0.338,0.093-0.504,0.144C262.163,107.637,264.48,105.769,265.426,104.137z"/>
	<path display="inline" fill="#FFFFFF" d="M455.83,299.518c3.262-45.624-7.09-80.751-19.312-118.912
		c-1.406-4.442-2.816-8.863-4.227-13.263c-0.714-2.263-1.43-4.521-2.145-6.772c-13.652-43.037-24.604-75.814-60.852-82.956
		c-7.077-2.042-15.033-3.146-23.446-3.102c-3.514,0.02-6.946,0.242-10.27,0.636c-3.227-1.721-6.936-2.932-11.1-3.611
		c-7.03-1.144-11.68,0.09-17.155,4.462c-2.909,2.321-5.687,4.851-8.378,7.29c-2.112,1.915-4.262,3.781-6.477,5.566
		c-7.481,6.035-16.156,12.188-25.438,14.868c-0.531,0.153-1.068,0.285-1.605,0.412c-0.945,1.632-3.263,3.5-6.374,1.568
		c-1.874,0.568-3.786,1.045-5.689,1.49c-5.271,1.237-10.529,1.901-15.878,1.313c-2.401-0.265-4.76-0.737-7.087-1.322
		c-0.955-0.24-1.907-0.494-2.852-0.769c-3.477-1.015-6.891-2.217-10.305-3.407c-1.006-0.352-2.012-0.696-3.02-1.041
		c-1.131-0.387-2.262-0.771-3.398-1.135c-5.799-1.856-11.631-3.646-17.196-6.024c-3.679-1.572-7.343-3.325-10.878-5.013
		c-5.458-2.607-11.103-5.295-16.895-7.329c-8.093-2.842-17.46-4.607-28.626-5.36c-3.32-0.222-5.482,0.118-6.012,2.491
		c-0.016,0.074-0.021,0.149-0.033,0.224l-5.373,4.478c-42.101,18.926-75.832,94.194-81.124,153.001
		c-2.568,27.792,1.215,52.748,4.841,76.54c3.372,22.13,6.534,42.795,4.922,65.584c-0.468,6.62-1.637,13.637-2.765,20.446
		c-1.67,10.075-3.242,19.665-2.244,26.225c1.366,9.018,5.87,14.255,13.456,15.786c12.292,2.407,29.905-5.351,41.294-13.89
		c-2.552-15.369,0.124-34.225,2.734-52.327c3.781-26.237,7.69-53.048-3.712-72.178c-0.11-0.182-0.135-0.418-0.07-0.656
		c0.063-0.233,0.212-0.453,0.41-0.603c4.884-3.673,4.903-16.309,4.921-28.56c0.015-10.699,0.04-21.714,3.08-28.642
		c2.667-6.077-4.278-27.755-4.64-35.43c-0.253-5.364-2.63-11.93,0.643-16.425c9.649,7.984,7.073,22.673,9.497,33.672
		c3.031,13.736,6.372,27.432,11.853,40.41c1.355,3.208,10.458,17.831,7.319,20.946c-3.252,3.228-9.49-3.291-11.701-5.918
		c-3.589-4.27-5.896-10.029-6.674-15.51c1.637,20.755,4.444,41.508,3.739,62.372c-0.502,14.857-2.895,29.996-5.001,43.416
		c-3.849,24.555-7.175,45.959,1.927,56.192c4.958,5.604,13.439,7.7,25.973,7.074c-0.257-0.748-0.594-1.823-1.078-3.375
		c-0.307-0.964-0.619-1.964-0.695-2.142c-0.504-1.182-1.008-2.364-1.512-3.546c-1.385-3.198-2.816-6.504-3.875-9.966
		c-0.752-2.461-1.238-4.807-1.482-7.171c-0.568-5.51,0.355-9.6,3.302-14.512c1.437-2.392,3.027-4.973,4.865-7.883
		c2.537-3.959,5.073-7.887,7.613-11.795c0.784-1.195,1.569-2.389,2.353-3.578c6.432-9.794,13.208-20.096,19.053-30.738
		c1.126-2.057,2.183-4.195,3.205-6.261c1.296-2.632,2.636-5.342,4.151-7.923c0.815-1.379,1.731-2.707,2.615-3.992
		c0.995-1.446,2.025-2.938,2.881-4.47c0.352-0.623,0.688-1.272,1.018-1.898c1.151-2.189,2.337-4.453,4.245-6.304
		c0.715-0.695,1.69-1.553,2.873-2.024c0.308-0.119,1.513-0.338,2.173-0.412c12.339-2.136,36.181-2.642,59.26-1.594
		c0.459,0.018,0.918,0.039,1.376,0.06c0.046-0.01,0.09-0.039,0.138-0.035c0.742,0.023,1.485,0.047,2.227,0.071
		c0.742,0.023,1.485,0.049,2.229,0.077c3.324,0.095,6.645,0.213,9.967,0.353c5.049,0.16,10.098,0.373,15.142,0.644
		c0.987,0.048,1.972,0.101,2.955,0.153c0.044,0.005,0.09,0.007,0.136,0.01c5.291,0.29,11.286,0.688,15.691,5.127
		c3.226,3.246,5.229,7.453,7.003,11.498c1.749,3.975,3.689,7.975,5.569,11.868c0.479,0.99,0.955,1.982,1.432,2.973
		c0-0.018,5.773,12.112,5.772,12.126c4.933,10.15,20.189,35.742,21.698,38.219c0-0.005,2.533,3.93,2.531,3.93
		c0.269,0.416,0.569,0.82,0.861,1.213c0.825,1.111,1.676,2.263,2.003,3.842c0.341,1.644,0.244,3.233,0.149,4.772
		c-0.032,0.58-0.067,1.122-0.076,1.668c-0.048,2.306-0.2,4.765-0.472,7.523c-0.251,2.556-0.583,5.119-0.898,7.6
		c-0.307,2.38-0.623,4.84-0.869,7.275c-0.315,3.137-0.479,5.768-0.51,8.281c-0.01,0.462-0.021,0.926-0.03,1.391
		c-0.049,1.671-0.092,3.249,0.16,4.882c0.149,0.96,0.437,1.616,0.851,1.947c0.908,0.72,2.733,0.279,4.2-0.064
		c0.519-0.12,1.007-0.233,1.469-0.311c0.521-0.09,1.041-0.179,1.564-0.267c1.033-0.185,2.107-0.371,3.188-0.484
		c4.148-0.424,7.873-0.803,11.521-1.574c1.069-0.227,2.035-0.462,2.951-0.727c0.133-0.038,0.333-0.079,0.587-0.133
		c0.423-0.082,1.498-0.303,1.78-0.498c0.393-0.272,0.605-2.28,0.729-2.774c0.233-0.939,0.45-1.882,0.646-2.83
		c0.397-1.936,0.705-3.887,0.96-5.844c0.925-7.042,1.04-14.268,0.501-21.347c-0.627-8.251-0.827-15.869-5.606-22.973
		c-5.095-7.573-11.532-14.242-18.973-19.537c-0.744-0.53-4.377-3.389-5.103-3.09c3.845-1.579,9.385,1.521,12.752,3.128
		c2.945,1.409,5.25,3.72,7.521,6.009c0.694,0.698,2.814,3.507,3.995,3.13c2.271-0.724-2.238-6.825-2.661-7.541
		c-1.616-2.732-3.356-5.383-5.214-7.957c-5.603-7.766-12.241-13.889-20.153-19.244c-0.63-0.427-2.438-1.484-2.27-2.442
		c0.267-1.52,3.762-0.991,4.727-0.766c2.509,0.589,4.724,2.02,7.078,3.003c2.291,0.958,4.458,2.309,6.878,2.917
		c6.936,1.747,4.885-10.434,4.539-13.996c-1.163-11.995-3.243-23.887-3.165-35.978c0.067-10.144,1.879-20.083,3.265-30.099
		c1.43-10.34,2.248-20.746,2.67-31.174c0.021-0.54,0.028-1.078,0.048-1.618c-2.105,5.344-5.411,9.836-10.443,12.613
		c-22.056,12.172,10.401-10.014,10.015-53.329c-0.085-1.748-0.163-3.591-0.215-5.324c-0.148-2.097-0.368-4.236-0.684-6.421
		c0,0,0.243,0.851,0.615,2.348c0.007-2.052,0.104-3.448,0.366-3.463c0.738-0.044,1.587,5.794,1.677,6.275
		c0.944,5.004,1.653,10.057,2.221,15.118c1.226,10.902,1.443,21.793,1.218,32.751c-0.187,8.993-0.212,18.004,1.91,26.805
		c1.913,7.932,5.576,15.025,9.679,22.015c0.055-1.006,0.111-2.012,0.176-3.018c0.633-10.112,2.235-20.215,4.983-29.977
		c0.187-0.662,1.765-7.165,2.925-6.752c1.324,0.471-0.024,8.312-0.121,9.225c-1.308,12.126-3.531,24.14-5.24,36.212
		c-1.505,10.616-2.598,21.289-3.48,31.975c-0.726,8.777-1.293,17.576-1.559,26.379c-0.43,14.264-0.13,28.561,1.08,42.781
		c1.277,15.019,3.503,29.933,6.701,44.664c9.548,10.353,24.306,18.311,37.607,20.266c9.87,1.418,17.166-1.009,20.684-7.243
		c0.01-13.989-2.664-31.479-4.279-41.853c-0.107-0.699-0.213-1.397-0.321-2.098c-0.831,1.76-1.135,4.469-1.427,7.109
		c-0.386,3.478-0.787,7.066-2.396,8.904c-0.224,0.255-0.613,0.229-0.956-0.062c-0.342-0.291-0.554-0.777-0.524-1.196
		c1.378-17.337,4.071-34.334,6.932-52.516C451.116,341.328,454.294,320.942,455.83,299.518z M147.652,300.922
		c0.289,0.154,0.569,0.316,0.861,0.464C148.433,301.547,148.126,301.376,147.652,300.922z"/>
	<path display="inline" fill="#FFFFFF" d="M450.309,455.959c-0.031-0.365-0.059-0.696-0.083-1.009
		c-11.806,10.376-41.099-4.072-55.091-14.09c0,0.279-0.001,0.562-0.006,0.84c-0.042,3.948-0.089,8.421,1.597,12.422
		c1.803,4.273,5.484,7.009,7.511,8.278c0.261,0.164,0.522,0.326,0.782,0.49c3.471,2.175,7.049,4.48,10.591,5.967
		c4.38,1.837,8.747,3.038,12.44,4.005c3.407,0.884,6.794,1.466,10.351,1.766c0.233,0.021,0.471,0.042,0.702,0.062
		c3.116,0.277,6.328,0.601,8.2-1.682c-0.001,0,0.108-0.136,0.107-0.14c1.524-1.986,1.962-5.243,2.381-8.391
		c0.026-0.188,0.052-0.371,0.076-0.559c0.306-2.265,0.488-4.313,0.56-6.253c0.007-0.203-0.024-0.664-0.07-1.179
		C450.342,456.312,450.33,456.135,450.309,455.959z"/>
	<path display="inline" fill="#FFFFFF" d="M148.513,301.386c-0.292-0.147-0.572-0.31-0.861-0.464
		C148.126,301.376,148.433,301.547,148.513,301.386z"/>
	<path display="inline" fill="#FFFFFF" d="M462.425,255.815c-3.349-28.388-12.561-58.04-20.782-83.243
		c-2.035-6.368-4.082-12.691-6.127-18.972c-14.875-47.322-34.234-90.445-90.447-85.379c-4.073-6.419-8.796-12.226-14.041-17.472
		c-2.218,0.879-4.424,1.803-6.614,2.784c3.894,4.107,7.139,8.595,9.661,13.422c-1.519-0.375-3.25-0.385-4.34-0.383
		c-0.067,0-0.132,0-0.2,0.002c-1.051,0-2.109,0.058-3.134,0.115c-1.087,0.06-2.21,0.122-3.301,0.113
		c-0.736-0.005-1.062-0.194-1.415-0.442c-0.001,0-0.182-0.13-0.182-0.13c-0.344-0.247-0.77-0.553-1.396-0.78
		c-1.908-0.685-4.287,0.635-6.026,1.593c-0.229,0.127-0.443,0.246-0.638,0.348c-2.222,1.173-4.319,2.542-6.278,3.844
		c-5.886,3.907-11.283,8.606-16.509,13.137c-0.179,0.151-0.354,0.305-0.534,0.458c-1.238,1.074-2.493,2.155-3.763,3.231
		c-0.533,0.454-1.077,0.898-1.619,1.35c-4.013,3.35-8.07,5.8-12.997,7.518c-0.828,0.287-1.66,0.559-2.494,0.826
		c-1.15,1.634-2.27,3.305-3.353,5.019c0,0.338-0.166,0.837-0.47,1.363c0.537-0.127,1.074-0.259,1.605-0.412
		c9.282-2.68,17.957-8.833,25.438-14.868c2.215-1.786,4.364-3.652,6.477-5.566c2.691-2.439,5.469-4.969,8.378-7.29
		c5.476-4.372,10.125-5.606,17.155-4.462c4.164,0.679,7.873,1.89,11.1,3.611c3.323-0.394,6.756-0.616,10.27-0.636
		c8.413-0.044,16.369,1.06,23.446,3.102c36.248,7.142,47.199,39.919,60.852,82.956c0.715,2.251,1.431,4.509,2.145,6.772
		c1.41,4.399,2.82,8.82,4.227,13.263c12.223,38.161,22.574,73.288,19.312,118.912c-1.536,21.425-4.714,41.811-7.782,61.299
		c-2.86,18.182-5.554,35.179-6.932,52.516c-0.029,0.419,0.183,0.905,0.524,1.196c0.343,0.291,0.732,0.317,0.956,0.062
		c1.608-1.838,2.01-5.427,2.396-8.904c0.292-2.641,0.596-5.35,1.427-7.109c0.108,0.7,0.214,1.398,0.321,2.098
		c1.615,10.373,4.289,27.863,4.279,41.853c-3.518,6.234-10.813,8.661-20.684,7.243c-13.302-1.955-28.06-9.913-37.607-20.266
		c-3.198-14.731-5.424-29.646-6.701-44.664c-1.21-14.221-1.51-28.518-1.08-42.781c0.266-8.803,0.833-17.602,1.559-26.379
		c0.883-10.686,1.976-21.358,3.48-31.975c1.709-12.072,3.933-24.086,5.24-36.212c0.097-0.913,1.445-8.754,0.121-9.225
		c-1.16-0.413-2.738,6.09-2.925,6.752c-2.748,9.762-4.351,19.865-4.983,29.977c-0.064,1.006-0.121,2.012-0.176,3.018
		c-4.103-6.989-7.766-14.083-9.679-22.015c-2.122-8.8-2.097-17.812-1.91-26.805c0.226-10.958,0.008-21.849-1.218-32.751
		c-0.567-5.061-1.276-10.113-2.221-15.118c-0.09-0.481-0.938-6.319-1.677-6.275c-0.262,0.016-0.359,1.412-0.366,3.463
		c-0.372-1.497-0.615-2.348-0.615-2.348c0.315,2.186,0.535,4.324,0.684,6.421c0.052,1.733,0.13,3.577,0.215,5.324
		c0.387,43.314-32.07,65.501-10.015,53.329c5.032-2.777,8.338-7.269,10.443-12.613c-0.02,0.54-0.026,1.079-0.048,1.618
		c-0.422,10.428-1.24,20.834-2.67,31.174c-1.386,10.016-3.197,19.955-3.265,30.099c-0.078,12.091,2.002,23.982,3.165,35.978
		c0.346,3.562,2.396,15.743-4.539,13.996c-2.42-0.608-4.587-1.959-6.878-2.917c-2.354-0.983-4.569-2.414-7.078-3.003
		c-0.965-0.226-4.46-0.754-4.727,0.766c-0.169,0.958,1.64,2.016,2.27,2.442c7.912,5.355,14.551,11.479,20.153,19.244
		c1.857,2.574,3.598,5.225,5.214,7.957c0.423,0.716,4.933,6.817,2.661,7.541c-1.181,0.377-3.301-2.432-3.995-3.13
		c-2.271-2.289-4.575-4.6-7.521-6.009c-3.367-1.607-8.907-4.707-12.752-3.128c0.726-0.299,4.358,2.56,5.103,3.09
		c7.44,5.295,13.878,11.964,18.973,19.537c4.779,7.104,4.979,14.722,5.606,22.973c0.539,7.079,0.424,14.305-0.501,21.347
		c-0.255,1.957-0.562,3.908-0.96,5.844c-0.195,0.948-0.412,1.891-0.646,2.83c-0.123,0.494-0.336,2.502-0.729,2.774
		c-0.282,0.195-1.357,0.416-1.78,0.498c-0.254,0.054-0.454,0.095-0.587,0.133c-0.916,0.265-1.882,0.5-2.951,0.727
		c-3.647,0.771-7.372,1.15-11.521,1.574c-1.08,0.113-2.154,0.3-3.188,0.484c-0.523,0.088-1.043,0.177-1.564,0.267
		c-0.462,0.077-0.95,0.19-1.469,0.311c-1.467,0.344-3.292,0.784-4.2,0.064c-0.414-0.331-0.701-0.987-0.851-1.947
		c-0.252-1.633-0.209-3.211-0.16-4.882c0.01-0.465,0.021-0.929,0.03-1.391c0.03-2.514,0.194-5.145,0.51-8.281
		c0.246-2.436,0.562-4.896,0.869-7.275c0.315-2.48,0.647-5.044,0.898-7.6c0.271-2.759,0.424-5.218,0.472-7.523
		c0.009-0.546,0.044-1.088,0.076-1.668c0.095-1.539,0.191-3.129-0.149-4.772c-0.327-1.579-1.178-2.73-2.003-3.842
		c-0.292-0.393-0.593-0.797-0.861-1.213c0.002,0-2.531-3.935-2.531-3.93c-1.509-2.477-16.766-28.068-21.698-38.219
		c0.001-0.014-5.772-12.144-5.772-12.126c-0.477-0.99-0.953-1.982-1.432-2.973c-1.88-3.894-3.82-7.894-5.569-11.868
		c-1.773-4.045-3.777-8.252-7.003-11.498c-4.405-4.438-10.4-4.837-15.691-5.127c-0.046-0.003-0.092-0.005-0.136-0.01
		c-0.983-0.053-1.968-0.105-2.955-0.153c-5.044-0.271-10.093-0.483-15.142-0.644c-3.322-0.14-6.643-0.258-9.967-0.353
		c-0.743-0.028-1.486-0.054-2.229-0.077c-0.741-0.024-1.484-0.048-2.227-0.071c-0.048-0.004-0.092,0.025-0.138,0.035
		c-0.458-0.021-0.917-0.042-1.376-0.06c-23.079-1.048-46.92-0.542-59.26,1.594c-0.66,0.074-1.865,0.293-2.173,0.412
		c-1.182,0.472-2.157,1.329-2.873,2.024c-1.908,1.851-3.094,4.114-4.245,6.304c-0.33,0.626-0.666,1.275-1.018,1.898
		c-0.856,1.531-1.886,3.023-2.881,4.47c-0.884,1.285-1.8,2.613-2.615,3.992c-1.515,2.581-2.855,5.291-4.151,7.923
		c-1.022,2.065-2.079,4.204-3.205,6.261c-5.845,10.643-12.621,20.944-19.053,30.738c-0.784,1.189-1.568,2.383-2.353,3.578
		c-2.54,3.908-5.077,7.836-7.613,11.795c-1.838,2.91-3.428,5.491-4.865,7.883c-2.947,4.912-3.871,9.002-3.302,14.512
		c0.245,2.364,0.73,4.71,1.482,7.171c1.06,3.462,2.49,6.768,3.875,9.966c0.503,1.182,1.008,2.364,1.512,3.546
		c0.076,0.178,0.388,1.178,0.695,2.142c0.484,1.552,0.821,2.627,1.078,3.375c-12.533,0.626-21.015-1.47-25.973-7.074
		c-9.102-10.233-5.776-31.638-1.927-56.192c2.107-13.42,4.499-28.559,5.001-43.416c0.706-20.864-2.102-41.617-3.739-62.372
		c0.779,5.48,3.085,11.24,6.674,15.51c2.21,2.627,8.449,9.146,11.701,5.918c3.138-3.115-5.964-17.738-7.319-20.946
		c-5.48-12.978-8.822-26.673-11.853-40.41c-2.424-10.999,0.153-25.688-9.497-33.672c-3.273,4.495-0.896,11.062-0.643,16.425
		c0.362,7.675,7.307,29.354,4.64,35.43c-3.04,6.928-3.064,17.943-3.08,28.642c-0.018,12.251-0.037,24.887-4.921,28.56
		c-0.198,0.149-0.346,0.369-0.41,0.603c-0.064,0.238-0.04,0.475,0.07,0.656c11.402,19.13,7.493,45.94,3.712,72.178
		c-2.611,18.103-5.286,36.958-2.734,52.327c-11.389,8.539-29.001,16.297-41.294,13.89c-7.586-1.531-12.09-6.769-13.456-15.786
		c-0.998-6.56,0.574-16.149,2.244-26.225c1.127-6.81,2.296-13.826,2.765-20.446c1.612-22.789-1.55-43.454-4.922-65.584
		c-3.626-23.792-7.41-48.748-4.841-76.54c5.292-58.807,39.022-134.075,81.124-153.001l5.373-4.478
		c0.012-0.074,0.017-0.149,0.033-0.224c0.53-2.373,2.691-2.712,6.012-2.491c11.166,0.752,20.533,2.518,28.626,5.36
		c5.792,2.034,11.437,4.722,16.895,7.329c3.535,1.688,7.199,3.441,10.878,5.013c5.565,2.378,11.397,4.168,17.196,6.024
		c1.136,0.363,2.267,0.748,3.398,1.135c1.008,0.344,2.014,0.689,3.02,1.041c3.415,1.19,6.828,2.392,10.305,3.407
		c0.945,0.275,1.897,0.529,2.852,0.769c2.328,0.585,4.686,1.057,7.087,1.322c5.35,0.588,10.607-0.076,15.878-1.313
		c1.903-0.445,3.815-0.922,5.689-1.49c-0.068-0.042-0.132-0.069-0.199-0.114c-1.25-0.938-2.502-1.797-3.754-2.619
		c-1.301,0.444-2.632,0.731-4.016,0.66c-1.48-0.074-2.753-0.137-3.884-0.793c-0.71-0.41-1.137-1.056-1.27-1.918
		c-0.139-0.891,0.076-1.934,0.541-2.829c-1.773-0.854-3.552-1.623-5.333-2.341c-0.094,0.054-0.186,0.109-0.28,0.164
		c-0.155-0.156-0.309-0.31-0.464-0.466c-2.171-0.854-4.351-1.631-6.54-2.354c0.851,0.613,1.626,1.258,2.215,2.034
		c0.302,0.398,0.688,0.824,1.093,1.274c1.097,1.22,2.467,2.738,2.325,3.93c-0.057,0.467-0.36,0.898-0.934,1.32
		c-0.289,0.212-0.601,0.378-0.922,0.522c-1.094,0.492-2.338,0.641-3.5,0.739c-1.3,0.109-2.559,0.529-3.847,0.449
		c-0.4-0.024-0.797-0.069-1.193-0.13c-2.765-0.431-5.409-1.702-7.772-2.913c-0.052-0.025-0.099-0.057-0.149-0.083
		c-0.5-0.262-0.994-0.536-1.478-0.824c-0.08-0.046-0.156-0.098-0.234-0.146c-1.106-0.37-2.229-0.691-3.359-0.993
		c-0.003,0.005-0.003,0.01-0.007,0.016c-0.051-0.02-0.101-0.038-0.151-0.057c-0.299-0.081-0.6-0.161-0.898-0.24
		c-3.799-0.999-7.219-2.564-10.738-4.184c-1.995-0.754-3.992-1.506-5.986-2.257c-1.629-0.5-3.28-0.946-4.959-1.395
		c-5.324-1.426-8.855-3.043-13.637-5.344c-0.609-0.295-1.219-0.589-1.827-0.884c-9.316-4.497-18.939-9.14-29.203-10.668
		c-2.941-0.438-6.036-0.52-9.094-0.28c-0.083,0.004-0.168,0.009-0.253,0.015c-0.837,0.07-1.674,0.166-2.503,0.288
		c-0.538,0.077-1.075,0.18-1.615,0.281c-0.394,0.074-0.781,0.152-1.171,0.236c-0.444,0.099-0.887,0.2-1.333,0.315
		c-0.218,0.058-0.44,0.111-0.654,0.171c2.832-4.994,6.355-9.566,10.42-13.747c-2.619-0.405-5.244-0.762-7.875-1.074
		c-2.812,3.225-5.204,6.649-7.531,10.007c-2.974,4.298-5.786,8.375-9.213,11.662c-4.327,4.146-9.764,7.653-15.022,11.086
		c-5.322,3.476-10.343,6.805-13.887,10.614c-11.746,12.599-25.078,38.395-35.572,69.658c-10.76,31.966-16.891,64.056-17.009,86.715
		c-0.099,18.55,2.858,36.934,5.703,54.547c3.139,19.455,6.368,39.362,5.785,60.488c-0.204,7.399-1.504,15.68-2.76,23.728
		c-1.803,11.531-3.652,23.554-2.2,32.698c0.724,4.537,2.79,8.655,4.976,13.001c3.48,6.92,7.431,14.709,6.425,25.776
		c-0.026,0.241,0.039,0.453,0.17,0.587c11.374,10.939,43.534-7.583,57.596-16.654c0.191-0.13,0.345-0.319,0.436-0.53
		c1.691-3.949,1.5-8.649,1.028-13.106c7.128,19.379,28.213,27.219,63.692,29.386c36.263,2.003,81.981,1.121,117.414,4.439
		c15.051,1.239,29.295,1.95,42.333,1.756c13.131-0.196,23.984-1.068,33.229-3.14c3.329-0.747,6.795-1.626,9.417-3.794
		c3.033-2.505,3.21-7.05,3.032-10.729c-0.104-2.103,0.013-4.222,0.13-6.269c0.02-0.348,0.037-0.698,0.057-1.045
		c0.293-5.581,0.908-10.299,1.881-14.438c0.376-1.593,0.819-3.192,1.327-4.745c0.039-0.114,0.252-0.571,0.442-0.979
		c0.258-0.555,0.46-1.003,0.635-1.399c1.773,4.613,2.007,9.482,2.231,14.206c0.408,8.773,0.857,17.681,11.209,25.121
		c4.594,3.329,9.552,5.516,13.914,7.512c9.703,4.438,18.817,6.801,27.116,6.722c0.273,0,0.549-0.003,0.825-0.003
		c3.947-0.025,7.346,0.005,9.636-3.938c2.985-5.137,3.357-13.396,3.632-19.426c0.636-13.962-0.495-28.826-1.595-43.111
		c-0.064-0.856-0.132-1.714-0.196-2.569c-0.611-7.94-1.242-17.28-1.299-26.542c-0.107-18.031,2.549-35.094,5.372-53.397
		C461.731,309.015,465.656,283.258,462.425,255.815z M105.926,450.031c-14.27,7.946-30.497,16.345-44.513,13.049
		c-0.292-5.312-0.732-7.062-1.394-9.616c-0.155-0.611-0.327-1.281-0.51-2.055c14.775-0.689,33.873-5.755,45.002-16.678
		c0.135,0.676,0.304,1.337,0.513,2.031C105.763,439.222,106.674,442.273,105.926,450.031z M143.939,423.874
		c-2.374-5.813-3.87-10.752-4.703-15.567c-1.111-6.413,3.764-11.118,8.941-15.96c1.987-1.862,4.046-3.773,5.642-5.741
		c1.649-2.029,3.089-4.22,4.481-6.332c0.674-1.021,1.37-2.074,2.075-3.082c1.045-1.492,2.142-2.998,3.205-4.444
		c1.868-2.55,3.802-5.173,5.547-7.857c5.402-8.299,10.2-17.215,14.438-25.039c3.424-6.323,6.518-12.74,10.108-20.407l0.241-0.514
		c0.597-1.267,1.216-2.577,1.802-3.881c2.361-5.265,8.204-5.156,13.856-4.957c1.247,0.043,2.427,0.087,3.563,0.074
		c9.123-0.104,18.393-0.403,27.365-0.517c4.726-0.042,9.451-0.033,14.179,0.023c0.833,0.016,1.669,0.034,2.504,0.052
		c1.479,0.031,2.956,0.07,4.433,0.115c7.881,0.244,18.25,0.948,28.565,3.423c4.403,1.053,9.002,2.395,12.539,5.6
		c3.258,2.946,3.91,6.424,4.669,10.44c0.279,1.49,0.569,3.032,1.011,4.606c1.795,6.378,4.1,13.217,7.055,20.942
		c5.323,13.948,11.453,24.912,18.723,33.597c1.346,1.61,3.28,3.254,5.328,5.016c4.262,3.662,9.086,7.938,8.761,12.261
		c-0.166,2.154-0.306,4.43-0.413,6.759c-0.001,0-0.086,1.885-0.086,1.885c-0.248,5.539-0.504,11.269-1.288,16.665
		c-0.352,2.41-0.877,4.813-1.389,7.137c-0.137,0.634-0.275,1.268-0.414,1.9c-0.503,2.339-2.001,2.882-4.421,3.055
		c-6.489,0.465-11.799,0.637-16.703,0.472c-3.533-0.117-7.13-0.466-10.812-0.802c-0.001,0-0.831-0.074-0.831-0.074
		c-0.15-0.012-0.303-0.027-0.458-0.045c0.125-0.018,0.246-0.038,0.376-0.056c0.885-0.116,1.791-0.205,2.664-0.284
		c2.024-0.191,4.116-0.377,6.127-0.927c0.187-0.051,0.39-0.101,0.608-0.156c1.259-0.311,2.816-0.692,3.633-1.719
		c0.47-0.595,0.353-1.109,0.167-1.438c-0.427-0.771-1.267-0.79-1.94-0.802c-0.047,0-0.093-0.004-0.14-0.004
		c-1.833-0.05-3.635,0.18-5.381,0.4c-0.405,0.054-0.811,0.105-1.215,0.158c-0.918,0.113-1.837,0.231-2.757,0.351
		c-4.767,0.626-9.702,1.335-14.651,1.688c-9.014,0.647-18.418,0.974-28.739,1.133c-10.837,0.182-20.772,0.194-30.36-0.059
		c-11.129-0.288-20.039-0.979-28.046-2.465c-5.478-1.01-10.653-2.733-15.426-4.398c-0.161-0.054-0.533-0.192-1.049-0.382
		c-10.922-3.996-12.404-3.881-13.133-3.514c-0.273,0.146-0.472,0.383-0.56,0.661c-0.199,0.77,0.245,1.458,1.461,2.365
		c2.088,1.538,7.86,4.442,11.967,5.739c-1.793,0.344-3.684,0.438-5.435,0.53c-0.45,0.027-0.903,0.054-1.353,0.081
		c-6.667,0.448-13.234-0.288-19.916-1.029c-2.188-0.262-4.373-0.506-6.559-0.736c-2.259-0.237-4.517-0.461-6.775-0.668
		c-1.7-0.146-3.627-0.412-5.035-1.4c-1.228-0.862-1.795-2.217-2.393-3.646c-0.176-0.421-0.358-0.854-0.56-1.284
		C146.055,428.725,144.929,426.296,143.939,423.874z M375.047,459.739c-4.66,7.281-17.693,7.049-29.287,7.408
		c-1.041,0.03-2.082,0.066-3.125,0.103c-21.974,0.716-61.995-2.285-102.053-3.051c-40.067-1.496-80.169-0.754-102.452-9.39
		c-8.812-3.474-14.322-8.496-16.54-15.213c29.811,5.492,74.47,4.531,125.939,5.993c49.324,1.047,96.298,4.67,128.721,2.457
		C377.275,453.005,376.893,456.855,375.047,459.739z M378.669,319.758c-1.15,5.995-2.246,11.718-2.789,17.082
		c-0.032-0.132-0.057-0.272-0.088-0.406c-0.04,0.358-0.098,0.725-0.133,1.078c-4.203-17.268-2.44-42.359-1.105-61.289
		c0.109-1.61,0.221-3.225,0.333-4.837c0.056,0.065,0.104,0.134,0.159,0.199c0.02-0.296,0.041-0.59,0.062-0.886
		C385.607,283.02,382.099,301.869,378.669,319.758z M449.867,463.919c-0.024,0.188-0.05,0.371-0.076,0.559
		c-0.419,3.147-0.856,6.404-2.381,8.391c0.001,0.004-0.108,0.14-0.107,0.14c-1.872,2.282-5.084,1.959-8.2,1.682
		c-0.231-0.02-0.469-0.041-0.702-0.062c-3.557-0.3-6.943-0.882-10.351-1.766c-3.693-0.967-8.061-2.168-12.44-4.005
		c-3.542-1.486-7.12-3.792-10.591-5.967c-0.26-0.164-0.521-0.326-0.782-0.49c-2.026-1.27-5.708-4.005-7.511-8.278
		c-1.686-4.001-1.639-8.474-1.597-12.422c0.005-0.278,0.006-0.561,0.006-0.84c13.992,10.018,43.285,24.466,55.091,14.09
		c0.024,0.312,0.052,0.644,0.083,1.009c0.021,0.176,0.033,0.354,0.048,0.528c0.046,0.515,0.077,0.976,0.07,1.179
		C450.355,459.605,450.173,461.654,449.867,463.919z"/>
	<path display="inline" fill="#FFFFFF" d="M252.527,91.833c0.101-0.091,0.203-0.183,0.305-0.275
		c3.086-2.773,6.993-4.482,10.777-6.131c1.012-0.44,2.055-0.896,3.075-1.366c2.71-1.254,5.558-2.423,8.31-3.554
		c2.549-1.046,5.185-2.127,7.718-3.277c6.437-2.928,11.132-5.672,14.778-8.648c3.872-3.164,7.029-7.732,9.654-13.98
		c0.071-0.163,0.142-0.327,0.211-0.492c0.219-0.503,0.443-1.025,0.625-1.565c0.087-0.248,0.059-0.519-0.074-0.736
		c-0.131-0.219-0.353-0.365-0.605-0.396c-6.03-0.752-12.966-1.946-20.31-3.18c-27.907-4.697-62.383-10.051-93.901-0.078
		c16.338-17.08,60.505-13.433,88.31-8.754c1.152,0.196,2.298,0.392,3.474,0.601c0.431,0.076,0.859-0.196,0.986-0.629
		c0.126-0.434-0.091-0.882-0.5-1.032c-12.28-4.518-34.508-8.321-56.524-6.842c-17.268,1.151-39.354,5.912-46.551,21.946
		c-0.298,0.652,0.033,1.326,1.757,3.604c0.116,0.153,0.216,0.286,0.255,0.34c0.698,1.004,1.484,2.016,2.336,3.009
		c1.559,1.819,3.35,3.575,5.325,5.224c1.015,0.843,2.027,1.738,3.101,2.687c2.948,2.605,6,5.301,9.266,7.119
		c2.676,1.49,5.393,2.851,8.02,4.17c6.136,3.08,11.934,6.009,17.23,10.491c0.823,0.698,1.761,1.31,2.669,1.903
		c0.559,0.366,1.095,0.729,1.61,1.101c2.189,0.723,4.368,1.5,6.54,2.354c-3.596-3.616-7.187-7.222-10.777-10.814
		c-6.504-3.074-13.003-6.12-19.497-9.147c-6.62-4.807-13.233-9.594-19.84-14.376c-0.896-2.966-1.79-5.931-2.683-8.898
		c11.739-1.792,23.479-3.542,35.218-5.262c15.349,0.525,30.701,1.11,46.057,1.769c8.433,1.211,16.865,2.452,25.299,3.729
		c2.717,2.062,5.43,4.132,8.147,6.213c-0.896,2.481-1.793,4.959-2.689,7.436c-3.912,1.931-7.824,3.857-11.737,5.783
		c-4.817,2.251-9.639,4.501-14.459,6.751c-5.47,1.518-10.939,3.045-16.413,4.581c-2.669,2.639-5.341,5.276-8.013,7.915
		c-2.62,1.54-5.245,3.08-7.868,4.624c1.781,0.718,3.56,1.486,5.333,2.341c0.165-0.318,0.357-0.619,0.583-0.886
		C248.66,95.31,250.626,93.542,252.527,91.833z"/>
	<path display="inline" fill="#FFFFFF" d="M240.683,25.595c21.323-0.271,41.198,3.175,57.506,10.185
		c10.564,4.535,19.4,10.553,26.224,17.753c2.19-0.981,4.396-1.904,6.614-2.784c-18.423-18.426-43.67-29.529-73.157-32.363
		c-21.304-2.061-43.664,0.24-64.698,6.643c-21.316,6.495-40.282,16.985-54.83,30.553c-1.337,1.246-2.565,2.549-3.729,3.883
		c2.631,0.312,5.256,0.669,7.875,1.074C165.451,36.916,205.995,26.061,240.683,25.595z"/>
	<path display="inline" fill="#FFFFFF" d="M255.099,102.971c1.252,0.822,2.504,1.681,3.754,2.619
		c0.067,0.045,0.131,0.073,0.199,0.114c0.166-0.051,0.338-0.091,0.504-0.144c1.927-0.607,3.911-0.959,5.87-1.424
		c0.304-0.526,0.47-1.025,0.47-1.363c1.083-1.714,2.202-3.385,3.353-5.019c-2.725,0.872-5.472,1.674-8.154,2.686
		C259.113,101.185,257.145,102.275,255.099,102.971z"/>
</g>
</svg>
