<?xml version="1.0" encoding="utf-8"?>
<!-- Generator: Adobe Illustrator 16.0.4, SVG Export Plug-In . SVG Version: 6.00 Build 0)  -->
<!DOCTYPE svg PUBLIC "-//W3C//DTD SVG 1.1//EN" "http://www.w3.org/Graphics/SVG/1.1/DTD/svg11.dtd">
<svg version="1.1" id="Layer_1" xmlns="http://www.w3.org/2000/svg" xmlns:xlink="http://www.w3.org/1999/xlink" x="0px" y="0px"
	 width="600px" height="600px" viewBox="0 0 600 600" enable-background="new 0 0 600 600" xml:space="preserve">
<g>
	<path opacity="0.1" d="M247.303,37.476h52.208h52.208c0,0-4.23,23.447-52.207,23.447C251.535,60.923,248.312,38.485,247.303,37.476
		z M190.94,541.667c0-9.666-0.333-19.334,0.667-32s1-8.667,0-20.667s-3.667-66-4.333-90c-0.667-24,0-79.333,0-95
		s-5.334-56.667-7-65.667c-1.667-9-5.667-30-6-43.667s-1.667-55-2.334-51.333c-0.666,3.667-1,6.667-3.666,19.667
		c-2.667,13-8.667,37.667-17.334,42c-8.666,4.333-12.667,11.333-16.333,17.333c-3.666,6-26.241,28.343-26.246,28.347l20.246,11.569
		l37-45c0,0,4,22.5,4,39.5s0,259.5,0,259.5s-1.5,24.5-5.5,30.5c0,0-1.663,6.294,28.569,11.222
		C194.84,551.3,190.94,549.464,190.94,541.667z M406.348,557.972c30.232-4.928,28.568-11.222,28.568-11.222c-4-6-5.5-30.5-5.5-30.5
		s0-242.5,0-259.5s4-39.5,4-39.5l37,45l20.246-11.569c-0.004-0.004-22.58-22.348-26.246-28.347c-3.666-6-7.666-13-16.332-17.333
		c-8.668-4.333-14.668-29-17.334-42s-3-16-3.666-19.667c-0.668-3.667-2.002,37.666-2.334,51.333
		c-0.334,13.667-4.334,34.667-6,43.667s-7,50-7,65.667s0.666,71,0,95s-3.334,78-4.334,90s-1,8.001,0,20.667s0.668,22.334,0.668,32
		C408.084,549.464,404.184,551.3,406.348,557.972z"/>
	<path fill="#FFFFFF" d="M547.525,215.423c-14.729-24.354-29.605-48.796-44.283-73.284c-7.73-12.945-16.584-28.019-24.207-40.335
		c-0.977-1.545-1.785-2.825-2.65-4.193l-5.258-8.851l-2.684-4.51c-0.078-0.156-0.32-0.449-0.494-0.668
		c-0.199-0.259-0.355-0.38-0.537-0.575c-0.355-0.347-0.717-0.66-1.086-0.942c-0.732-0.583-1.49-1.067-2.25-1.545
		c-3.057-1.845-6.227-3.287-9.422-4.659c-3.197-1.359-6.432-2.604-9.684-3.789c-6.504-2.39-13.125-4.41-19.691-6.527
		c-6.578-2.109-13.16-4.243-19.748-6.419c0,0-4.266-1.46-8.531-2.92c-4.25-1.494-8.502-2.988-8.502-2.988
		c-1.66-0.644-3.346-1.337-4.879-1.96c-5.574-2.318-10.625-4.401-15.311-6.663c-1.162-0.566-2.273-1.17-3.389-1.748l-1.453-0.938
		c-0.562-0.348-1.061-0.767-1.594-1.146l-1.588-1.166c-0.586-0.38-1.172-0.761-1.762-1.143c-0.582-0.397-1.201-0.729-1.82-1.072
		l-0.932-0.516l-0.994-0.462c-0.646-0.324-1.383-0.58-2.111-0.842c-0.41-0.109-0.777-0.227-1.234-0.316l-0.359-0.06l-0.184-0.028
		l-0.301-0.021l-0.562-0.008c-1.385-0.011-2.791-0.022-4.229-0.034c-2.875-0.012-5.867-0.024-9.033-0.038
		c-6.328,0.007-13.346,0.015-21.477,0.023c-18.535,0.056-37.531,0.032-56.721-0.017c-2.399-0.006-4.801-0.013-7.205-0.019
		l-1.804-0.005l-0.902-0.002l-0.113,0l-0.229,0.008c-0.055,0.001-0.192,0.018-0.315,0.035c-0.231,0.033-0.528,0.073-0.703,0.118
		c-1.491,0.329-2.663,0.869-3.875,1.412c-1.154,0.587-2.31,1.175-3.364,1.862l-1.606,1.008l-1.533,1.08l-0.766,0.541l-0.358,0.253
		c-0.003,0.002-0.003,0.001-0.028,0.019l-0.048,0.029l-0.193,0.117l-1.547,0.94c-1.013,0.544-1.988,0.96-2.978,1.458
		c-8.662,3.792-17.822,7.011-26.898,10.18c-9.103,3.154-18.238,6.189-27.338,9.178c-4.558,1.491-9.104,2.979-13.634,4.461
		c-4.558,1.512-9.058,3.128-13.505,4.873c-4.443,1.769-8.835,3.608-13.107,5.945c-1.067,0.595-2.126,1.222-3.175,1.942
		c-1.046,0.741-2.093,1.499-3.108,2.768c-0.125,0.152-0.25,0.321-0.371,0.532l-0.178,0.3l-0.086,0.151
		c-0.05,0.094,0.019-0.04,0.003-0.011l-0.027,0.047l-0.437,0.754l-0.873,1.506l-1.741,3.006c-4.613,8.011-9.168,15.921-13.648,23.7
		c-7.21,12.442-13.832,23.869-20.568,35.492l-41.682,68.976l0.372,1.436l33.141,18.938c5.24,3.173,10.646,6.357,16.586,9.579
		c0.898,1.355,12.362,8.299,26.638,16.594c0.965-0.177,1.931-0.355,2.938-0.54c11.687-14.004,25.561-31.094,34.219-41.903
		c0.893,5.622,1.892,12.69,2.606,20.436c0.365,4.123,0.674,8.434,0.745,12.792c0.104,4.374,0.051,8.882,0.079,13.29
		c0.029,17.671-0.012,34.384-0.273,42.329c0.322,7.94,0.48,17.504,0.8,24.287v29.674c-0.486,9.651-1.189,16.372-1.477,28.358
		c1.225,7.773,1.242,37.044,1.219,53.776c-0.042,7.528-0.109,19.329-0.173,30.666c-0.067,0.754-0.135,1.245-0.214,1.141
		c-0.138,9.861-0.038,19.049-0.009,28.919c-0.038-0.324-0.079-0.745-0.132-1.579c-0.041,3.591-0.055,6.996-0.044,10.149l0,0.144
		l-0.002,0.033l-0.018,0.29l-0.036,0.57c-0.026,0.382-0.051,0.759-0.076,1.133c-0.054,0.748-0.106,1.479-0.157,2.193
		c-0.109,1.428-0.213,2.786-0.311,4.065c-0.405,5.117-0.754,8.968-0.784,11.087c0,0-0.092,0.52-0.23,1.299
		c-0.167,0.77-0.354,1.81-0.6,2.825c-0.244,1.018-0.495,2.032-0.737,2.764c-0.112,0.37-0.205,0.68-0.271,0.896
		c-0.079,0.206-0.125,0.324-0.125,0.324c-0.202,0.468-0.384,0.95-0.585,1.372c-0.225,0.389-0.437,0.756-0.626,1.084
		c-0.053,0.117-0.106,0.235-0.15,0.332c-0.082,0.396-0.053,0.505-0.044,0.712c0.009,0.196,0.054,0.341,0.089,0.506
		c0.085,0.308,0.195,0.594,0.33,0.836c0.262,0.501,0.581,0.91,0.913,1.273c0.662,0.744,1.398,1.276,2.129,1.794
		c1.478,0.984,2.995,1.741,4.516,2.404c3.045,1.322,6.112,2.27,9.249,3.131c6.282,1.691,12.879,2.936,20.695,3.958
		c17.688,2.275,36.891,2.866,55.082,3.357c5.278,0.135,9.672,0.212,13.572,0.226c3.9,0.039,7.305,0.031,10.607-0.008
		c0,0,1.356,0.017,3.729,0.045c2.373,0.015,5.762,0.036,9.83,0.062c8.146,0.053,18.968-0.013,29.828-0.16
		c10.846-0.189,21.691-0.489,29.824-0.857c4.064-0.167,7.451-0.369,9.822-0.481c2.371-0.142,3.727-0.223,3.727-0.223
		c12.314-0.577,23.967-1.441,35.623-3.087c5.826-0.833,11.656-1.845,17.529-3.329c2.93-0.782,5.877-1.652,8.795-2.882
		c1.459-0.606,2.908-1.327,4.312-2.274c0.705-0.455,1.383-1.039,2.025-1.717c0.312-0.372,0.615-0.767,0.869-1.254
		c0.113-0.272,0.242-0.507,0.311-0.841c0.041-0.153,0.076-0.314,0.086-0.509c0.006-0.098,0.018-0.173,0.01-0.299
		c-0.01-0.127,0.002-0.187-0.059-0.45c-0.055-0.123-0.111-0.246-0.186-0.411c-0.709-1.161-1.264-2.73-1.73-4.354
		c-0.234-0.816-0.424-1.674-0.639-2.527c-0.178-0.872-0.359-1.756-0.541-2.649c-0.668-3.596-1.178-7.414-1.602-11.331
		c-0.225-2.09-0.428-4.283-0.602-6.548c-0.041-0.565-0.082-1.136-0.123-1.71l-0.029-0.43l-0.014-0.213v-0.014v-0.011v-0.109
		l0.002-0.878c0.002-1.175,0.004-2.363,0.006-3.562c0.004-4.796,0.008-9.765,0.012-14.683c-0.014-9.836-0.086-19.47-0.324-27.125
		c-0.01-0.229-0.014-0.369-0.021-0.597c0,0,0-63.06,0-126.12c0.004-31.521,0.006-63.041,0.008-86.682
		c0.102-5.939,0.42-11.262,0.912-16.03c0.113-1.19,0.225-2.343,0.334-3.455c0.131-1.11,0.258-2.181,0.381-3.209
		c0.234-2.058,0.477-3.946,0.721-5.648c0.518-3.771,0.959-6.632,1.252-8.44l0.529,0.643c-0.178-0.059-0.328-0.094-0.562-0.219
		c13.295,16.064,24.172,28.946,35.545,42.857c0.49,0.09,0.98,0.18,1.389,0.255c0.219-0.124,0.42-0.238,0.619-0.352
		c18.613-10.048,38.412-21.362,58.805-33.16l17.766-10.156l0.529-2.047L547.525,215.423z M520.227,175.649l0.254,0.584
		l-11.039-18.436L520.227,175.649z M239.022,44.169l1.076-0.756c0.71-0.526,1.46-0.964,2.205-1.429
		c1.31-0.824,2.688-1.536,4.061-2.101c4.211,12.992,26.336,22.54,53.148,22.54c27.01,0,49.271-9.689,53.244-22.829
		c0.051,0.02,0.102,0.039,0.152,0.058c1.033,0.423,2.049,0.981,3.066,1.53l1.469,0.911c0.49,0.296,0.982,0.604,1.48,0.973
		l1.494,1.055c0.066,0.046,0.139,0.099,0.211,0.149c-6.568,16.292-30.867,27.153-61.117,27.153
		c-30.088,0-54.284-10.748-61.004-26.894L239.022,44.169z M251.857,39.2c1.927-0.004,3.882-0.008,5.872-0.012
		c18.5-0.059,37.262-0.119,56.297-0.179c9.518-0.026,19.105-0.053,28.762-0.079c2.34-0.006,4.684-0.012,7.033-0.018
		c-3.689,11.629-25.121,20.511-50.309,20.511c-24.979,0-46.267-8.736-50.216-20.223C250.145,39.2,250.997,39.2,251.857,39.2z
		 M164.805,546.909c0.211,0.028-0.411-0.06,0.12,0.013c-0.009,0-0.018,0.001-0.027,0L164.805,546.909z M434.23,546.907
		c-0.037,0.006-0.074,0.007-0.111,0.011l0.182-0.024l-0.004,0.001L434.23,546.907z M524.053,229.551
		c-13.078,7.301-26.131,14.609-39.219,22.036c-5.297,3.02-9.889,5.637-13.812,7.874c-8.244-9.955-12.152-14.372-13.262-14.78
		l-22.764-27.686l-0.52,0.426l-0.18-0.032l-0.379-0.474c0.115,0.188,0.182,0.318,0.248,0.45l-1.943-0.345
		c0,0-0.502,2.839-1.127,7.096c-0.613,4.26-1.395,9.946-1.924,15.669c-0.6,5.71-0.871,11.532-0.938,15.784
		c-0.062,2.207-0.018,3.948-0.031,5.213c0,1.25,0,1.965,0,1.965c-0.146,3.211-0.27,6.844-0.398,10.977
		c-0.641,20.663-0.143,39.703,0.105,61.63c0.098,9.537,0.195,19.005,0.293,28.445c0,0,0,40.861,0,81.723c0,20.431,0,40.861,0,56.185
		c0,3.83,0,7.342,0,10.454c0,0.778,0,1.531,0,2.259c0,0.363,0,0.721,0,1.07c0,0.176,0,0.349,0,0.521l0.004,0.337l0.016,0.259
		c0.104,1.352,0.199,2.594,0.285,3.715c0.395,4.477,0.707,7.028,0.707,7.028c0.271,3.31,0.559,6.501,1.055,9.812
		c0.139,0.828,0.277,1.664,0.42,2.51c0.168,0.849,0.357,1.708,0.553,2.583c0.264,0.884,0.438,1.765,0.805,2.695
		c0.18,0.465,0.326,0.925,0.545,1.407c0.123,0.23,0.248,0.466,0.373,0.698c-0.139,0.263-0.48,0.621-0.834,0.943
		c-0.211,0.163-0.398,0.335-0.617,0.494c-0.229,0.156-0.457,0.312-0.682,0.465c-0.951,0.591-1.955,1.118-2.984,1.58
		c-2.047,0.944-4.15,1.664-6.25,2.347c-4.227,1.324-8.545,2.381-13.654,3.326c-13.602,2.425-26.969,3.517-40.025,4.268
		c-13.066,0.726-25.869,1.002-38.584,1.103c-12.693,0.092-25.357,0.029-38.083-0.121c-12.74-0.142-25.588-0.327-38.749-0.624
		c-15.731-0.39-30.534-1.046-45.363-2.537c-7.405-0.774-14.837-1.704-22.283-3.237c-3.718-0.764-7.459-1.654-11.081-2.92
		c-1.815-0.619-3.587-1.367-5.222-2.271c-0.831-0.439-1.565-0.979-2.211-1.536c-0.302-0.287-0.581-0.586-0.757-0.872l-0.126-0.207
		c-0.021-0.062-0.046-0.121-0.076-0.181l-0.005-0.021c0.14-0.257,0.286-0.525,0.436-0.802c0.358-0.721,0.586-1.433,0.872-2.152
		l0.641-2.149l0.527-2.154l0.444-2.161c0.55-2.885,0.974-5.785,1.338-8.694c0.363-2.91,0.654-5.828,0.9-8.753l0.172-2.196
		l0.078-1.103l0.036-0.55l0.002-0.631l-0.006-4.378V370.152c0.103-9.037,0.206-18.057,0.305-26.699
		c0.343-30.946-0.181-59.234-0.305-86.715c0,0-0.033-1.271-0.083-3.176c-0.025-0.953-0.054-2.064-0.085-3.255
		c-0.077-1.185-0.159-2.45-0.241-3.714c-0.09-1.263-0.157-2.53-0.261-3.711c-0.114-1.181-0.22-2.282-0.312-3.226
		c-0.185-1.889-0.308-3.147-0.308-3.147c-0.244-2.167-0.487-4.327-0.73-6.484c-0.283-2.152-0.522-4.306-0.826-6.453
		c-0.241-1.806-0.506-3.801-0.944-6.591c-0.423-0.111-1.566-0.41-2.709-0.709c-5.334,6.221-12.533,14.593-17.642,20.833
		c-4.569,5.581-9.078,11.438-13.536,16.984c-1.716,2.056-3.406,4.081-5.015,6.01c-2.285-1.314-4.457-2.564-6.583-3.788
		c-11.689-6.919-16.456-10.038-34.184-19.918c-0.537-0.033-2.859-1.205-4.253-1.789c-1.041-0.584-2.104-1.182-3.152-1.771
		c-5.307-3.269-11.188-6.825-16.218-9.977c-2.783-1.443-5.395-2.797-7.975-4.135c-0.528-0.329-1.075-0.669-1.671-1.04
		c8.025-12.294,18.947-30.179,26.289-43.525c2.563-4.141,5.167-8.4,7.869-12.899c6.993-11.643,12.158-20.95,17.898-30.962
		l2.55-4.236c3.992-6.452,7.583-12.272,10.977-17.64c3.357-5.381,6.532-10.301,9.743-14.931c1.231-2.276,2.411-4.459,3.579-6.619
		c0.12-0.19,0.243-0.385,0.368-0.583l0.006-0.009c-0.006,0.012,0.075-0.142,0.042-0.079l0.006-0.007l0.012-0.014l0.023-0.029
		l0.043-0.06c0.026-0.04,0.045-0.082,0.106-0.141c0.181-0.213,0.438-0.48,0.771-0.749c0.648-0.543,1.49-1.11,2.417-1.667
		c1.872-1.111,4.094-2.213,6.484-3.292c4.787-2.161,10.246-4.274,15.589-6.228c5.327-1.955,10.621-3.702,15.053-5.321
		c4.436-1.598,8.036-2.979,10.141-3.914c0.435-0.14,0.819-0.264,1.262-0.406c4.236-1.373,8.204-2.659,12.231-3.965
		c7.395-2.185,14.167-4.374,20.749-6.751c3.288-1.202,6.531-2.443,9.773-3.79c1.627-0.687,3.228-1.401,4.881-2.164
		c0.846-0.43,1.694-0.861,2.547-1.295c0.16-0.076,0.302-0.159,0.445-0.242c7.471,16.992,32.571,28.261,63.567,28.261
		c31.176,0,56.393-11.398,63.701-28.555c0.738,0.401,1.471,0.747,2.203,1.103c1.131,0.578,2.271,1.029,3.412,1.528
		c3.24,1.394,6.592,2.696,9.93,3.958c8.111,3.181,16.279,6.155,24.844,9.057c5.354,1.804,9.98,3.279,14.252,4.599
		c5.605,1.837,11.209,3.674,16.785,5.501c5.537,1.829,11.012,3.782,16.316,5.913c2.652,1.068,5.26,2.19,7.77,3.411
		c1.25,0.614,2.477,1.255,3.639,1.945c1.146,0.688,2.289,1.436,3.102,2.243c0.248,0.238,0.293,0.305,0.467,0.506l0.139,0.223
		l0.068,0.111l0.035,0.056l0.008,0.014c0.055,0.098-0.062-0.117-0.047-0.09l0.016,0.028l0.275,0.451l1.094,1.797
		c0.73,1.194,1.455,2.383,2.178,3.566c1.455,2.36,2.895,4.697,4.316,7.007l0.578,0.978c3.072,5.328,6.156,10.638,9.285,15.912
		c0.223,0.573-0.316-0.106,0.082,0.75c6.221,10.093,12.99,21.002,19.514,32.028c0.768,1.32-0.316-0.044-0.189,0.248
		c6.59,10.291,9.637,15.779,7.887,14.273c1.916,2.81,6.324,9.896,8.471,13.099c2.699,5.483,14.229,24.497,24.707,41.385
		C536.174,222.277,528.832,226.65,524.053,229.551z M544.693,218.025c0,0.002,0.002,0.004,0.004,0.007
		c-0.334,0.187-0.668,0.373-1.006,0.56L544.693,218.025z"/>
</g>
</svg>
