<?xml version="1.0" encoding="utf-8"?>
<!-- Generator: Adobe Illustrator 16.0.4, SVG Export Plug-In . SVG Version: 6.00 Build 0)  -->
<!DOCTYPE svg PUBLIC "-//W3C//DTD SVG 1.1//EN" "http://www.w3.org/Graphics/SVG/1.1/DTD/svg11.dtd">
<svg version="1.1" id="Layer_1" xmlns="http://www.w3.org/2000/svg" xmlns:xlink="http://www.w3.org/1999/xlink" x="0px" y="0px"
	 width="500px" height="500px" viewBox="0 0 500 500" enable-background="new 0 0 500 500" xml:space="preserve">
<path fill="#FFFFFF" d="M252.527,91.833c0.101-0.091,0.203-0.183,0.305-0.275c3.086-2.773,6.993-4.482,10.777-6.131
	c1.012-0.44,2.055-0.896,3.074-1.366c2.711-1.254,5.559-2.423,8.311-3.554c2.549-1.046,5.186-2.127,7.718-3.277
	c6.437-2.928,11.132-5.672,14.778-8.648c3.871-3.164,7.029-7.732,9.653-13.98c0.071-0.163,0.143-0.327,0.212-0.492
	c0.219-0.503,0.442-1.025,0.625-1.565c0.087-0.248,0.059-0.519-0.074-0.736c-0.131-0.219-0.354-0.365-0.605-0.396
	c-6.029-0.752-12.966-1.946-20.31-3.18c-27.907-4.697-62.383-10.051-93.901-0.078c16.338-17.08,60.505-13.433,88.311-8.754
	c1.151,0.196,2.297,0.392,3.474,0.601c0.431,0.076,0.858-0.196,0.985-0.629c0.127-0.434-0.09-0.882-0.5-1.032
	c-12.279-4.518-34.508-8.321-56.523-6.842c-17.268,1.151-39.354,5.912-46.551,21.946c-0.298,0.652,0.033,1.326,1.757,3.604
	c0.116,0.153,0.216,0.286,0.255,0.34c0.698,1.004,1.484,2.016,2.336,3.009c1.559,1.819,3.35,3.575,5.325,5.224
	c1.015,0.843,2.027,1.738,3.101,2.687c2.948,2.605,6,5.301,9.266,7.119c2.676,1.49,5.393,2.851,8.02,4.17
	c6.136,3.08,11.934,6.009,17.23,10.491c0.823,0.698,1.761,1.31,2.669,1.903c0.559,0.366,1.095,0.729,1.61,1.101
	c2.189,0.723,4.368,1.5,6.54,2.354c-3.596-3.616-7.187-7.222-10.777-10.814c-6.504-3.074-13.003-6.12-19.497-9.147
	c-6.62-4.807-13.233-9.594-19.84-14.376c-0.896-2.966-1.79-5.931-2.683-8.898c11.739-1.792,23.479-3.542,35.218-5.262
	c15.349,0.525,30.701,1.11,46.057,1.769c8.433,1.211,16.864,2.452,25.299,3.729c2.718,2.062,5.431,4.132,8.147,6.213
	c-0.896,2.481-1.793,4.959-2.689,7.436c-3.912,1.931-7.824,3.857-11.736,5.783c-4.817,2.251-9.64,4.501-14.459,6.751
	c-5.471,1.518-10.939,3.045-16.414,4.581c-2.668,2.639-5.34,5.276-8.013,7.915c-2.62,1.54-5.245,3.08-7.868,4.624
	c1.781,0.718,3.56,1.486,5.333,2.341c0.165-0.318,0.357-0.619,0.583-0.886C248.66,95.31,250.626,93.542,252.527,91.833z"/>
<path fill="#FFFFFF" d="M240.683,25.595c21.323-0.271,41.198,3.175,57.506,10.186c10.563,4.535,19.399,10.553,26.224,17.753
	c2.189-0.981,4.396-1.904,6.614-2.784c-18.424-18.426-43.67-29.529-73.157-32.363c-21.304-2.061-43.664,0.24-64.698,6.643
	c-21.316,6.495-40.282,16.985-54.83,30.553c-1.337,1.246-2.565,2.549-3.729,3.883c2.631,0.312,5.256,0.669,7.875,1.074
	C165.451,36.916,205.995,26.061,240.683,25.595z"/>
<path fill="#FFFFFF" d="M462.425,255.814c-3.349-28.388-12.561-58.04-20.782-83.242c-2.034-6.368-4.082-12.691-6.127-18.972
	c-14.875-47.322-34.233-90.445-90.446-85.379c-4.073-6.419-8.796-12.226-14.041-17.472c-2.219,0.879-4.425,1.803-6.614,2.784
	c3.894,4.107,7.139,8.595,9.661,13.422c-1.52-0.375-3.25-0.385-4.34-0.383c-0.067,0-0.133,0-0.2,0.002
	c-1.051,0-2.109,0.058-3.134,0.115c-1.088,0.06-2.21,0.122-3.302,0.113c-0.735-0.005-1.062-0.194-1.415-0.442
	c-0.001,0-0.182-0.13-0.182-0.13c-0.344-0.247-0.77-0.553-1.396-0.78c-1.908-0.685-4.287,0.635-6.026,1.593
	c-0.229,0.127-0.443,0.246-0.638,0.348c-2.223,1.173-4.319,2.542-6.278,3.844c-5.886,3.907-11.283,8.606-16.509,13.137
	c-0.18,0.151-0.354,0.305-0.534,0.458c-1.238,1.074-2.493,2.155-3.763,3.231c-0.533,0.454-1.078,0.898-1.619,1.35
	c-4.014,3.35-8.07,5.8-12.997,7.518c-0.828,0.287-1.66,0.559-2.494,0.826c-1.149,1.634-2.271,3.305-3.353,5.019
	c0,0.338-0.166,0.837-0.471,1.363c0.537-0.127,1.074-0.259,1.605-0.412c9.281-2.68,17.957-8.833,25.438-14.868
	c2.215-1.786,4.364-3.652,6.477-5.566c2.691-2.439,5.47-4.969,8.379-7.29c5.476-4.372,10.125-5.606,17.154-4.462
	c4.164,0.679,7.873,1.89,11.101,3.611c3.323-0.394,6.756-0.616,10.27-0.636c8.413-0.044,16.369,1.06,23.446,3.102
	c36.248,7.142,47.199,39.919,60.852,82.956c0.716,2.251,1.432,4.509,2.146,6.772c1.41,4.399,2.82,8.82,4.227,13.263
	c12.224,38.161,22.574,73.288,19.312,118.913c-1.536,21.424-4.714,41.811-7.782,61.299c-2.86,18.182-5.554,35.179-6.932,52.516
	c-0.029,0.419,0.183,0.905,0.523,1.196c0.343,0.291,0.732,0.316,0.956,0.062c1.608-1.838,2.01-5.427,2.396-8.903
	c0.292-2.642,0.596-5.351,1.427-7.109c0.108,0.7,0.214,1.397,0.321,2.098c1.614,10.373,4.289,27.863,4.278,41.854
	c-3.518,6.233-10.812,8.661-20.684,7.243c-13.302-1.955-28.061-9.913-37.607-20.267c-3.197-14.73-5.424-29.646-6.7-44.664
	c-1.21-14.221-1.511-28.518-1.08-42.78c0.266-8.804,0.833-17.603,1.559-26.379c0.883-10.687,1.976-21.358,3.48-31.976
	c1.709-12.071,3.933-24.086,5.239-36.212c0.098-0.913,1.445-8.754,0.121-9.225c-1.16-0.413-2.737,6.09-2.925,6.752
	c-2.748,9.762-4.351,19.866-4.983,29.977c-0.063,1.006-0.12,2.012-0.176,3.018c-4.103-6.988-7.766-14.082-9.679-22.015
	c-2.122-8.8-2.097-17.812-1.91-26.805c0.227-10.958,0.008-21.849-1.218-32.751c-0.567-5.061-1.276-10.113-2.221-15.118
	c-0.091-0.481-0.938-6.319-1.678-6.275c-0.262,0.016-0.358,1.412-0.365,3.463c-0.372-1.497-0.615-2.348-0.615-2.348
	c0.314,2.186,0.535,4.324,0.684,6.421c0.052,1.733,0.13,3.577,0.215,5.324c0.388,43.314-32.069,65.501-10.015,53.329
	c5.032-2.777,8.338-7.269,10.443-12.613c-0.021,0.54-0.026,1.079-0.049,1.618c-0.422,10.428-1.239,20.834-2.67,31.174
	c-1.386,10.016-3.196,19.955-3.265,30.1c-0.078,12.09,2.002,23.981,3.165,35.978c0.346,3.562,2.396,15.743-4.539,13.996
	c-2.42-0.608-4.587-1.959-6.878-2.917c-2.354-0.982-4.569-2.414-7.078-3.003c-0.965-0.226-4.46-0.755-4.727,0.766
	c-0.169,0.958,1.64,2.017,2.27,2.442c7.912,5.355,14.551,11.479,20.153,19.244c1.856,2.574,3.598,5.225,5.214,7.957
	c0.423,0.716,4.933,6.816,2.661,7.541c-1.182,0.377-3.301-2.433-3.995-3.131c-2.271-2.289-4.575-4.6-7.521-6.009
	c-3.366-1.606-8.906-4.707-12.752-3.128c0.727-0.299,4.358,2.561,5.104,3.09c7.439,5.295,13.878,11.965,18.973,19.537
	c4.779,7.104,4.979,14.723,5.606,22.974c0.539,7.078,0.424,14.305-0.501,21.347c-0.255,1.957-0.562,3.908-0.96,5.844
	c-0.195,0.948-0.412,1.891-0.646,2.83c-0.123,0.494-0.336,2.502-0.729,2.774c-0.282,0.194-1.357,0.416-1.78,0.498
	c-0.254,0.054-0.454,0.095-0.587,0.133c-0.916,0.265-1.882,0.5-2.951,0.727c-3.647,0.771-7.372,1.15-11.521,1.574
	c-1.08,0.113-2.154,0.3-3.188,0.484c-0.523,0.088-1.043,0.177-1.563,0.267c-0.463,0.077-0.95,0.19-1.47,0.311
	c-1.467,0.345-3.292,0.784-4.2,0.064c-0.414-0.331-0.7-0.987-0.851-1.947c-0.252-1.633-0.209-3.211-0.16-4.882
	c0.01-0.465,0.021-0.929,0.03-1.391c0.03-2.515,0.194-5.146,0.51-8.281c0.246-2.437,0.562-4.896,0.869-7.275
	c0.315-2.479,0.646-5.044,0.898-7.6c0.271-2.759,0.424-5.218,0.472-7.523c0.009-0.546,0.044-1.088,0.076-1.668
	c0.095-1.539,0.19-3.129-0.149-4.771c-0.327-1.579-1.178-2.729-2.003-3.843c-0.292-0.393-0.593-0.797-0.861-1.213
	c0.002,0-2.53-3.935-2.53-3.93c-1.51-2.477-16.767-28.068-21.698-38.219c0.001-0.014-5.772-12.145-5.772-12.126
	c-0.477-0.99-0.953-1.981-1.432-2.974c-1.88-3.894-3.82-7.894-5.569-11.867c-1.772-4.045-3.776-8.252-7.003-11.498
	c-4.404-4.438-10.4-4.838-15.691-5.127c-0.045-0.004-0.092-0.006-0.135-0.01c-0.983-0.054-1.969-0.105-2.955-0.153
	c-5.045-0.271-10.094-0.483-15.143-0.644c-3.322-0.141-6.643-0.259-9.967-0.354c-0.743-0.028-1.486-0.055-2.229-0.077
	c-0.742-0.024-1.484-0.048-2.228-0.071c-0.048-0.004-0.093,0.025-0.138,0.035c-0.459-0.021-0.918-0.042-1.377-0.061
	c-23.079-1.047-46.919-0.541-59.259,1.595c-0.66,0.073-1.865,0.293-2.173,0.412c-1.182,0.472-2.157,1.329-2.873,2.024
	c-1.908,1.851-3.094,4.113-4.245,6.303c-0.33,0.627-0.666,1.275-1.018,1.898c-0.856,1.531-1.886,3.023-2.881,4.471
	c-0.884,1.285-1.8,2.612-2.615,3.992c-1.515,2.58-2.855,5.291-4.151,7.922c-1.022,2.065-2.079,4.205-3.205,6.262
	c-5.845,10.643-12.621,20.943-19.053,30.738c-0.784,1.188-1.568,2.383-2.353,3.578c-2.54,3.907-5.077,7.836-7.613,11.795
	c-1.838,2.909-3.428,5.49-4.865,7.883c-2.947,4.911-3.871,9.002-3.302,14.512c0.245,2.364,0.73,4.71,1.482,7.171
	c1.06,3.462,2.49,6.768,3.875,9.966c0.503,1.183,1.008,2.364,1.512,3.546c0.076,0.179,0.388,1.179,0.695,2.143
	c0.484,1.552,0.821,2.627,1.078,3.375c-12.533,0.626-21.015-1.471-25.973-7.074c-9.102-10.233-5.776-31.638-1.927-56.192
	c2.107-13.42,4.499-28.559,5.001-43.416c0.706-20.863-2.102-41.617-3.739-62.371c0.779,5.479,3.085,11.239,6.674,15.51
	c2.21,2.627,8.449,9.146,11.701,5.918c3.138-3.115-5.964-17.738-7.319-20.946c-5.48-12.978-8.822-26.673-11.853-40.41
	c-2.424-10.999,0.153-25.688-9.497-33.672c-3.273,4.495-0.896,11.062-0.643,16.425c0.362,7.675,7.307,29.354,4.64,35.43
	c-3.04,6.927-3.064,17.943-3.08,28.642c-0.018,12.251-0.037,24.887-4.921,28.561c-0.198,0.148-0.346,0.368-0.41,0.603
	c-0.064,0.237-0.04,0.475,0.07,0.655c11.402,19.131,7.493,45.94,3.712,72.179c-2.611,18.103-5.286,36.958-2.734,52.327
	c-11.389,8.539-29.001,16.297-41.294,13.89c-7.586-1.531-12.09-6.769-13.456-15.786c-0.998-6.56,0.574-16.148,2.244-26.225
	c1.127-6.811,2.296-13.826,2.765-20.446c1.612-22.789-1.55-43.454-4.922-65.584c-3.626-23.792-7.41-48.748-4.841-76.54
	c5.292-58.807,39.022-134.075,81.124-153.001l5.373-4.478c0.012-0.074,0.017-0.149,0.033-0.224c0.53-2.373,2.691-2.712,6.012-2.491
	c11.166,0.752,20.533,2.518,28.626,5.36c5.792,2.034,11.437,4.722,16.895,7.329c3.535,1.688,7.199,3.441,10.878,5.013
	c5.565,2.378,11.397,4.168,17.196,6.024c1.136,0.363,2.267,0.748,3.398,1.135c1.008,0.344,2.014,0.689,3.02,1.041
	c3.415,1.19,6.828,2.392,10.305,3.407c0.945,0.275,1.897,0.529,2.852,0.769c2.328,0.585,4.686,1.057,7.087,1.322
	c5.35,0.588,10.607-0.076,15.877-1.313c1.903-0.445,3.815-0.922,5.689-1.49c-0.068-0.042-0.132-0.069-0.199-0.114
	c-1.25-0.938-2.502-1.797-3.754-2.619c-1.301,0.444-2.632,0.731-4.016,0.66c-1.48-0.074-2.753-0.137-3.884-0.793
	c-0.71-0.41-1.137-1.056-1.27-1.918c-0.139-0.891,0.076-1.934,0.541-2.829c-1.773-0.854-3.552-1.623-5.333-2.341
	c-0.094,0.054-0.186,0.109-0.28,0.164c-0.155-0.156-0.309-0.31-0.464-0.466c-2.171-0.854-4.351-1.631-6.54-2.354
	c0.851,0.613,1.626,1.258,2.215,2.034c0.302,0.398,0.688,0.824,1.093,1.274c1.097,1.22,2.467,2.738,2.325,3.93
	c-0.057,0.467-0.36,0.898-0.934,1.32c-0.289,0.212-0.601,0.378-0.922,0.522c-1.094,0.492-2.338,0.641-3.5,0.739
	c-1.3,0.109-2.559,0.529-3.847,0.449c-0.4-0.024-0.797-0.069-1.193-0.13c-2.765-0.431-5.409-1.702-7.772-2.913
	c-0.052-0.025-0.099-0.057-0.149-0.083c-0.5-0.262-0.994-0.536-1.478-0.824c-0.08-0.046-0.156-0.098-0.234-0.146
	c-1.106-0.37-2.229-0.691-3.359-0.993c-0.003,0.005-0.003,0.01-0.007,0.016c-0.051-0.021-0.101-0.038-0.151-0.057
	c-0.299-0.081-0.6-0.161-0.898-0.24c-3.799-0.999-7.219-2.564-10.738-4.184c-1.995-0.754-3.992-1.506-5.986-2.257
	c-1.629-0.5-3.28-0.946-4.959-1.395c-5.324-1.426-8.855-3.043-13.637-5.344c-0.609-0.295-1.219-0.589-1.827-0.884
	c-9.316-4.497-18.939-9.14-29.203-10.668c-2.941-0.438-6.036-0.52-9.094-0.28c-0.083,0.004-0.168,0.009-0.253,0.015
	c-0.837,0.07-1.674,0.166-2.503,0.288c-0.538,0.077-1.075,0.18-1.615,0.281c-0.394,0.074-0.781,0.152-1.171,0.236
	c-0.444,0.099-0.887,0.2-1.333,0.315c-0.218,0.058-0.44,0.111-0.654,0.171c2.832-4.994,6.355-9.566,10.42-13.747
	c-2.619-0.405-5.244-0.762-7.875-1.074c-2.812,3.225-5.204,6.649-7.531,10.007c-2.974,4.298-5.786,8.375-9.213,11.662
	c-4.327,4.146-9.764,7.653-15.022,11.086c-5.322,3.476-10.343,6.805-13.887,10.614c-11.746,12.599-25.078,38.395-35.572,69.658
	c-10.76,31.966-16.891,64.056-17.009,86.715c-0.099,18.55,2.858,36.934,5.703,54.547c3.139,19.455,6.368,39.361,5.785,60.488
	c-0.204,7.398-1.504,15.68-2.76,23.728c-1.803,11.531-3.652,23.554-2.2,32.698c0.724,4.537,2.79,8.655,4.976,13.001
	c3.48,6.92,7.431,14.709,6.425,25.775c-0.026,0.241,0.039,0.453,0.17,0.588c11.374,10.938,43.534-7.583,57.596-16.654
	c0.191-0.13,0.345-0.319,0.436-0.53c1.691-3.949,1.5-8.648,1.028-13.105c7.128,19.379,28.213,27.219,63.692,29.386
	c36.263,2.003,81.981,1.121,117.414,4.438c15.051,1.239,29.295,1.95,42.333,1.757c13.131-0.196,23.984-1.068,33.229-3.141
	c3.329-0.747,6.795-1.626,9.417-3.794c3.032-2.505,3.21-7.05,3.031-10.729c-0.104-2.104,0.014-4.223,0.131-6.27
	c0.02-0.348,0.036-0.698,0.057-1.045c0.293-5.581,0.908-10.299,1.881-14.438c0.376-1.594,0.819-3.192,1.327-4.745
	c0.039-0.114,0.252-0.571,0.442-0.979c0.258-0.555,0.46-1.003,0.635-1.398c1.772,4.612,2.007,9.481,2.23,14.206
	c0.408,8.772,0.857,17.681,11.209,25.12c4.595,3.329,9.553,5.517,13.914,7.513c9.703,4.438,18.817,6.801,27.116,6.722
	c0.273,0,0.549-0.003,0.825-0.003c3.947-0.025,7.346,0.005,9.636-3.938c2.985-5.137,3.357-13.396,3.632-19.426
	c0.637-13.962-0.495-28.826-1.595-43.11c-0.063-0.856-0.132-1.714-0.196-2.569c-0.61-7.94-1.242-17.28-1.299-26.542
	c-0.106-18.031,2.549-35.095,5.372-53.397C461.731,309.016,465.656,283.258,462.425,255.814z M105.926,450.031
	c-14.27,7.945-30.497,16.345-44.513,13.049c-0.292-5.312-0.732-7.062-1.394-9.616c-0.155-0.61-0.327-1.281-0.51-2.055
	c14.775-0.689,33.873-5.755,45.002-16.678c0.135,0.676,0.304,1.337,0.513,2.03C105.763,439.222,106.674,442.273,105.926,450.031z
	 M143.939,423.874c-2.374-5.813-3.87-10.752-4.703-15.567c-1.111-6.413,3.764-11.117,8.941-15.959
	c1.987-1.863,4.046-3.773,5.642-5.742c1.649-2.028,3.089-4.219,4.481-6.332c0.674-1.021,1.37-2.073,2.075-3.082
	c1.045-1.491,2.142-2.998,3.205-4.443c1.868-2.55,3.802-5.173,5.547-7.857c5.402-8.299,10.2-17.215,14.438-25.039
	c3.424-6.322,6.518-12.74,10.108-20.406l0.241-0.514c0.597-1.268,1.216-2.578,1.802-3.882c2.361-5.265,8.204-5.155,13.856-4.957
	c1.247,0.043,2.427,0.087,3.563,0.074c9.123-0.104,18.393-0.403,27.365-0.517c4.726-0.043,9.451-0.033,14.18,0.022
	c0.832,0.017,1.668,0.034,2.504,0.052c1.479,0.031,2.955,0.07,4.433,0.115c7.881,0.244,18.25,0.948,28.565,3.424
	c4.402,1.053,9.002,2.395,12.539,5.6c3.258,2.945,3.909,6.424,4.668,10.439c0.279,1.49,0.569,3.032,1.012,4.606
	c1.795,6.378,4.1,13.217,7.055,20.942c5.323,13.947,11.453,24.912,18.723,33.597c1.347,1.61,3.28,3.254,5.328,5.016
	c4.262,3.662,9.086,7.938,8.761,12.261c-0.166,2.154-0.306,4.431-0.413,6.76c-0.001,0-0.086,1.885-0.086,1.885
	c-0.248,5.539-0.504,11.269-1.287,16.665c-0.353,2.41-0.878,4.812-1.39,7.137c-0.137,0.634-0.274,1.269-0.414,1.9
	c-0.503,2.339-2.001,2.882-4.421,3.055c-6.489,0.465-11.799,0.637-16.703,0.472c-3.533-0.117-7.13-0.466-10.812-0.802
	c-0.001,0-0.831-0.074-0.831-0.074c-0.15-0.012-0.303-0.026-0.458-0.045c0.125-0.018,0.246-0.038,0.376-0.056
	c0.885-0.116,1.791-0.205,2.664-0.284c2.023-0.191,4.116-0.377,6.127-0.927c0.187-0.051,0.39-0.102,0.607-0.156
	c1.26-0.311,2.816-0.692,3.634-1.719c0.47-0.596,0.353-1.109,0.167-1.438c-0.428-0.771-1.268-0.79-1.94-0.802
	c-0.047,0-0.093-0.004-0.14-0.004c-1.833-0.05-3.636,0.18-5.381,0.4c-0.405,0.054-0.812,0.104-1.216,0.157
	c-0.918,0.113-1.837,0.231-2.757,0.352c-4.767,0.626-9.701,1.335-14.65,1.688c-9.014,0.647-18.418,0.975-28.739,1.133
	c-10.837,0.183-20.772,0.194-30.36-0.059c-11.129-0.288-20.039-0.979-28.046-2.465c-5.478-1.01-10.653-2.733-15.426-4.398
	c-0.161-0.054-0.533-0.191-1.049-0.382c-10.922-3.996-12.404-3.881-13.133-3.514c-0.273,0.146-0.472,0.383-0.56,0.661
	c-0.199,0.77,0.245,1.458,1.461,2.364c2.088,1.538,7.86,4.442,11.967,5.739c-1.793,0.344-3.684,0.438-5.435,0.53
	c-0.45,0.027-0.903,0.054-1.353,0.081c-6.667,0.448-13.234-0.288-19.916-1.029c-2.188-0.262-4.373-0.506-6.559-0.735
	c-2.259-0.237-4.517-0.462-6.775-0.669c-1.7-0.146-3.627-0.411-5.035-1.399c-1.228-0.862-1.795-2.217-2.393-3.646
	c-0.176-0.421-0.358-0.854-0.56-1.283C146.055,428.725,144.929,426.296,143.939,423.874z M375.047,459.739
	c-4.66,7.28-17.693,7.049-29.287,7.408c-1.041,0.029-2.082,0.065-3.125,0.103c-21.974,0.716-61.994-2.285-102.053-3.051
	c-40.067-1.496-80.169-0.754-102.452-9.391c-8.812-3.474-14.322-8.496-16.54-15.213c29.811,5.492,74.47,4.531,125.939,5.993
	c49.325,1.047,96.298,4.67,128.721,2.457C377.275,453.005,376.893,456.855,375.047,459.739z M378.669,319.758
	c-1.15,5.995-2.246,11.719-2.789,17.082c-0.032-0.132-0.057-0.271-0.088-0.406c-0.04,0.358-0.098,0.726-0.133,1.078
	c-4.203-17.268-2.44-42.359-1.105-61.289c0.109-1.609,0.222-3.225,0.333-4.837c0.057,0.065,0.104,0.134,0.159,0.199
	c0.021-0.296,0.041-0.59,0.062-0.886C385.607,283.02,382.099,301.869,378.669,319.758z M449.867,463.919
	c-0.024,0.188-0.05,0.371-0.076,0.559c-0.419,3.147-0.856,6.404-2.381,8.392c0.001,0.004-0.108,0.14-0.107,0.14
	c-1.872,2.282-5.084,1.959-8.2,1.683c-0.23-0.021-0.469-0.041-0.701-0.062c-3.558-0.3-6.943-0.882-10.352-1.766
	c-3.692-0.967-8.061-2.168-12.439-4.005c-3.542-1.486-7.12-3.792-10.592-5.968c-0.26-0.164-0.521-0.325-0.781-0.489
	c-2.026-1.271-5.708-4.005-7.512-8.278c-1.686-4.001-1.639-8.474-1.597-12.422c0.005-0.278,0.006-0.562,0.006-0.84
	c13.992,10.018,43.285,24.466,55.091,14.09c0.024,0.312,0.053,0.644,0.083,1.009c0.021,0.176,0.033,0.354,0.049,0.528
	c0.046,0.515,0.076,0.976,0.069,1.179C450.355,459.605,450.173,461.654,449.867,463.919z"/>
</svg>
