<?xml version="1.0" encoding="utf-8"?>
<!-- Generator: Adobe Illustrator 16.0.4, SVG Export Plug-In . SVG Version: 6.00 Build 0)  -->
<!DOCTYPE svg PUBLIC "-//W3C//DTD SVG 1.1//EN" "http://www.w3.org/Graphics/SVG/1.1/DTD/svg11.dtd">
<svg version="1.1" id="Layer_2" xmlns="http://www.w3.org/2000/svg" xmlns:xlink="http://www.w3.org/1999/xlink" x="0px" y="0px"
	 width="600px" height="600px" viewBox="0 0 600 600" enable-background="new 0 0 600 600" xml:space="preserve">
<g>
	<path opacity="0.1" d="M220.692,165c-8.198-9.924-21.178-25.902-24.581-30.096c0.47-0.355,0.893-0.755,1.271-1.191l6.978,0.143
		c0,0,1.691-2.59,10.333,10.811s18,15.5,26.667,29.167c8.666,13.667,39.915,25.66,39.915,25.66s13.418,11.84,14.085,12.34
		s4.334,8.167,4.334,8.167s-1.611-1.578-3.654-4.781c-2.045-3.203-11.68-9.886-21.68-12.219s-29.41-13.931-29.41-13.931
		C235.206,183.138,230.192,176.5,220.692,165z M500.892,327.5c-5.084,18-22.084,54-28.084,68.5s-25,32-38,47s-26,37.5-27,40.5
		s-11.5,24-11.5,25.5s-8.5,22-12,28c-2.139,3.666-6.758,11.704-10.031,17.408c3.619,4.528,8.479,8.4,12.407,12.497
		c5.117,5.335,10.419,10.379,16.158,14.892l0.015,0.021l0.984,0.579h-0.603l0.603,0.911c-0.043,0.004-0.072,0.006-0.117,0.01
		c-1.518-0.058-3.019-0.192-4.527-0.359c-2.562-0.284-5.068-0.529-7.639-0.193c-1.308,0.171-2.564,0.505-3.712,0.998
		c-1.688-0.36-3.124-0.811-4.119-1.366h-82.805c0,0-0.244-3.566-0.502-8.478c-0.1,0.014-0.185,0.025-0.26,0.036
		c-0.001,0.028-0.002,0.044-0.002,0.044s-0.056-0.008-0.158-0.021c-0.103,0.014-0.158,0.021-0.158,0.021s-0.001-0.016-0.002-0.044
		c-0.075-0.011-0.161-0.022-0.26-0.036c-0.258,4.911-0.502,8.478-0.502,8.478h-82.805c-0.996,0.556-2.431,1.006-4.119,1.366
		c-1.148-0.493-2.404-0.827-3.712-0.998c-2.569-0.336-5.075-0.091-7.64,0.193c-1.508,0.167-3.009,0.302-4.525,0.359
		c-0.047-0.004-0.074-0.006-0.117-0.01l0.602-0.911h-0.602l0.984-0.579l0.014-0.021c5.738-4.513,11.041-9.557,16.158-14.892
		c3.93-4.097,8.789-7.969,12.408-12.497c-3.273-5.704-7.895-13.742-10.032-17.408c-3.5-6-12-26.5-12-28s-10.5-22.5-11.5-25.5
		s-14-25.5-27-40.5s-32-32.5-38-47s-23-50.5-28.084-68.5s-1.921-23.396-1.921-23.396c-0.84-0.404-0.182-0.531,1.58-0.447
		c-0.101,1.068,0.051,2.174,0.51,3.252c-0.039-0.17-0.08-0.34-0.118-0.51c-0.019-0.08-0.033-0.161-0.051-0.242
		c4.522,4.953,15.837,18.081,20.584,30.344c6,15.5,14.5,42,17.5,44.5s5,4,4-28.5c-0.95-30.884-5.058-27.008-3.747-31.694
		c-0.018-2.938,2.158-1.946,2.58-1.806c0.5,0.166,5.834,3.334,7.667,14.834c0.647,4.059,1.272,7.23,1.833,9.707
		c5.242,6.398,7.22,5.501,9.667,7.459c2.5,2,4-31.792-3-46.896c-7-15.104-17.5-51.104-18.5-81.104c0,0,0-7.167,4.833,0
		c4.834,7.167,13.668,22.869,15.334,23.333c0.588,0.164,1.236,0.028,1.853-0.008c3.109-8.192,4.224-28.294,4.224-28.294l0.667,1.222
		c-0.233-4.096-0.385-8.196-0.417-12.304c0.331-1.823,0.182-3.739-0.426-5.476c0.226-1.665,0.074-3.39-0.471-4.966
		c0.312-0.488,0.593-0.996,0.811-1.535c2.967,12.836,9.593,43.733,9.593,63.527c0,25.5-1,82,0,91.5s-1,59.5,0,72
		c0.087,1.084,0.214,2.26,0.37,3.495c6.348,5.864,18.041,16.901,26.642,26.364c4.922-8.55,10.853-30.816,14.292-44.848
		c0.107,2.886,0.166,5.8,0.134,8.703c-0.913,2.17-1.436,4.329-1.62,6.612c-1.282,3.434-2.222,7.02-1.994,10.673
		c0.029,0.48,0.1,0.955,0.198,1.422c-0.956,2.364-1.724,4.812-2.192,7.391c-0.297,1.64-0.295,3.269,0.043,4.783
		c-1.358,4.758-2.663,8.457-3.746,11.183c1.019,1.258,1.938,2.455,2.707,3.555c9.334,13.334,16.666,31.334,20,38.667
		c1.307,2.875,2.511,6.055,3.693,9.103c0.016,0.028,2.041,3.396,18.474,2.897c16.5-0.5,23,0.6,29,0.05
		c5.849-0.536,18.06-0.54,20.308,2.694c2.247-3.234,14.459-3.23,20.308-2.694c6,0.55,12.5-0.55,29-0.05
		c16.432,0.498,18.457-2.869,18.474-2.897c1.183-3.048,2.387-6.228,3.693-9.103c3.333-7.333,10.667-25.333,20-38.667
		c0.77-1.1,1.688-2.297,2.707-3.555c-1.423-3.58-3.227-8.834-5.033-15.976c-0.001-0.046,0.004-0.089,0.003-0.136
		c-0.165-7.641-1.854-15.139-3.173-22.638c-0.643-3.655-0.775-7.362-0.743-11.077c3.469,14.067,9.248,35.547,14.061,43.907
		c8.602-9.463,20.294-20.5,26.643-26.364c0.154-1.235,0.282-2.411,0.369-3.495c1-12.5-1-62.5,0-72s0-66,0-91.5
		c0-19.794,6.627-50.691,9.592-63.527c0.219,0.54,0.5,1.047,0.811,1.535c-0.543,1.577-0.695,3.302-0.469,4.966
		c-0.608,1.737-0.758,3.653-0.428,5.476c-0.031,4.108-0.184,8.208-0.416,12.304l0.666-1.222c0,0,1.115,20.103,4.225,28.294
		c0.617,0.036,1.266,0.171,1.853,0.008c1.667-0.464,10.5-16.167,15.333-23.333c4.834-7.167,4.834,0,4.834,0
		c-1,30-11.5,66-18.5,81.104c-7,15.104-5.5,48.896-3,46.896c2.447-1.958,4.425-1.061,9.666-7.459
		c0.562-2.477,1.188-5.648,1.834-9.707c1.834-11.5,7.166-14.668,7.666-14.834c0.423-0.141,2.599-1.133,2.581,1.806
		c1.31,4.687-2.797,0.811-3.747,31.694c-1,32.5,1,31,4,28.5s11.5-29,17.5-44.5c4.747-12.263,16.062-25.391,20.584-30.344
		c-0.018,0.081-0.033,0.162-0.051,0.242c-0.038,0.17-0.08,0.34-0.118,0.51c0.458-1.078,0.61-2.184,0.509-3.252
		c1.763-0.084,2.42,0.043,1.581,0.447C502.812,304.104,505.976,309.5,500.892,327.5z M105.543,327.852
		c-0.08-1.018-0.34-2.018-0.799-2.916c0.102-1.134-0.11-2.348-0.695-3.588c0.011,0.73,0.014,1.451,0.018,2.152
		C104.078,325.312,104.649,326.755,105.543,327.852z M115.025,353.191c-0.452-1.139-0.912-2.276-1.375-3.412
		c0.133,0.414,0.261,0.829,0.396,1.242C114.311,351.824,114.645,352.541,115.025,353.191z M162.824,395.538
		c0.647-2.511,1.256-4.981,1.805-7.454c-8.531,4.521-13.596,13.269-18.133,21.873c0.404,0.333,0.832,0.627,1.279,0.879
		c0.434,0.857,1.001,1.661,1.711,2.37c0.166,0.167,0.333,0.334,0.5,0.5c1.263,1.263,2.82,2.079,4.467,2.469
		c2.687,3.776,5.617,7.39,8.508,10.999L162.824,395.538z M167.152,363.734c-0.071,0.522-0.15,1.045-0.211,1.567
		c-0.584,0.997-0.915,2.229-0.875,3.698c0.09,3.222,0.178,6.442,0.263,9.664c0.231-1.749,0.418-3.521,0.54-5.338
		C167.084,370.135,167.16,366.936,167.152,363.734z M167.365,314.563c-0.156,7.782-0.234,15.565-0.155,23.347
		c0.226-1.258,0.429-2.524,0.575-3.815C168.449,328.236,168.955,320.855,167.365,314.563z M211.912,490.881
		c-0.424-0.888-0.951-1.646-1.558-2.279c0.456,0.695,0.923,1.384,1.398,2.061C211.805,490.735,211.86,490.808,211.912,490.881z
		 M389.646,488.602c-0.606,0.634-1.134,1.392-1.558,2.279c0.052-0.073,0.107-0.146,0.159-0.219
		C388.724,489.985,389.188,489.297,389.646,488.602z M432.636,314.563c-1.591,6.292-1.085,13.673-0.421,19.531
		c0.146,1.291,0.35,2.558,0.575,3.815C432.87,330.129,432.791,322.346,432.636,314.563z M433.933,369
		c0.041-1.469-0.289-2.701-0.874-3.698c-0.062-0.522-0.14-1.045-0.211-1.567c-0.007,3.201,0.068,6.4,0.283,9.592
		c0.122,1.816,0.31,3.589,0.54,5.338C433.757,375.442,433.843,372.222,433.933,369z M453.505,409.957
		c-4.538-8.604-9.602-17.352-18.134-21.873c0.549,2.473,1.157,4.943,1.804,7.454l-0.135,31.636c2.891-3.609,5.82-7.223,8.508-10.999
		c1.646-0.39,3.203-1.206,4.467-2.469c0.166-0.166,0.332-0.333,0.5-0.5c0.709-0.709,1.276-1.513,1.711-2.37
		C452.672,410.584,453.1,410.29,453.505,409.957z M486.35,349.779c-0.463,1.136-0.923,2.273-1.375,3.412
		c0.381-0.65,0.715-1.367,0.979-2.17C486.089,350.608,486.218,350.193,486.35,349.779z M495.951,321.348
		c-0.585,1.24-0.797,2.454-0.695,3.588c-0.459,0.898-0.719,1.898-0.8,2.916c0.895-1.097,1.467-2.539,1.477-4.352
		C495.938,322.799,495.94,322.078,495.951,321.348z M358.642,173.833c-8.667,13.667-39.916,25.66-39.916,25.66
		s-13.418,11.84-14.085,12.34S300.307,220,300.307,220s1.611-1.578,3.655-4.781c2.043-3.203,11.679-9.886,21.679-12.219
		s29.41-13.931,29.41-13.931c9.743-5.931,14.757-12.569,24.257-24.069c8.198-9.924,21.178-25.902,24.582-30.096
		c-0.471-0.355-0.894-0.755-1.271-1.191l-6.977,0.143c0,0-1.693-2.59-10.334,10.811S367.308,160.167,358.642,173.833z
		 M183.961,577.226c-0.019-0.013-0.037-0.022-0.056-0.036c-8.046-6.05-14.493-14.326-19.997-22.864
		c1.869,6.881,0.846,14.414,0.831,21.425c-0.005,2.312-0.092,4.071,0.129,5.84c0.147,0.073,0.299,0.14,0.444,0.216
		c1.871,0.98,3.45,2.156,4.856,3.567c5.656-0.497,11.308-1.168,16.96-1.844c-0.214-0.236-0.424-0.48-0.626-0.742
		C185.219,581.124,184.492,579.219,183.961,577.226z M416.095,577.189c-0.018,0.014-0.037,0.023-0.056,0.036
		c-0.531,1.993-1.258,3.898-2.542,5.562c-0.202,0.262-0.412,0.506-0.625,0.742c5.651,0.676,11.303,1.347,16.959,1.844
		c1.406-1.411,2.985-2.587,4.855-3.567c0.146-0.076,0.297-0.143,0.445-0.216c0.221-1.769,0.134-3.528,0.129-5.84
		c-0.015-7.011-1.037-14.544,0.831-21.425C430.588,562.863,424.14,571.14,416.095,577.189z M300.309,217.411l-0.002,0.922
		C300.34,218.045,300.332,217.733,300.309,217.411z M299.692,218.333l-0.001-0.922C299.667,217.733,299.66,218.045,299.692,218.333z
		 M216.807,88.833c0.158,4.018,15.967,42.389,19,44.821s26.537,41.35,36.5,49.512c8.666,7.101,24.07,22.782,27.383,31.679
		l0.002,2.565c0.039-0.505,0.141-1.048,0.309-1.628c0.167,0.58,0.27,1.124,0.309,1.628l0.002-2.565
		c3.312-8.897,18.716-24.579,27.383-31.679c9.962-8.162,33.467-47.08,36.5-49.512s18.841-40.804,19-44.821
		c0.158-4.018,2.332-13.167,2.5-20.167c0.166-7-4.271-18.632-3.834-20.667s-5.844-13.048-5.844-13.048s-2.489-2.618-3.489-3.785
		s-10.655-6.421-12-8.5s-16.333-5.917-16.333-5.917c-8.619-1.337-21.5-3.5-21.5-3.5l-19.597-1.365c-1.019,0.378-2.165,0.6-3.456,0.6
		c-1.245,0-2.355-0.205-3.348-0.557l-18.986,1.323c0,0-12.881,2.163-21.5,3.5c0,0-14.988,3.838-16.334,5.917
		c-1.344,2.079-11,7.333-12,8.5s-3.489,3.785-3.489,3.785s-6.28,11.014-5.843,13.048c0.436,2.035-4.001,13.667-3.834,20.667
		S216.648,84.816,216.807,88.833z"/>
	<path fill="#FFFFFF" d="M522.652,309.238c-0.022-7.131-0.762-14.223-1.744-21.276c-0.087-0.835-0.16-1.619-0.286-2.56
		c-0.423-3.745-1.335-7.786-2.251-11.856c-0.542-2.014-1.086-4.037-1.621-6.027c-0.527-1.992-1.193-3.908-1.741-5.779
		c-2.2-7.04-4.69-13.999-7.606-20.771c-2.893-6.779-6.033-13.452-9.555-19.897c-2.053-3.759-3.936-7.095-5.849-10.249
		c-3.073-5.241-6.293-10.288-9.667-15.033c-3.359-4.756-6.826-9.245-10.405-13.358c-5.888-7.325-11.364-14.174-19.044-21.959
		c0.02,0.163-0.002,0.274-0.014,0.403l-0.137-0.134c-0.093-0.284-0.234-0.612-0.355-0.823l-0.124-0.184l-0.031-0.046l-0.015-0.023
		l-0.004-0.006l-0.166-0.197l-0.011-0.01l-0.083-0.076l-0.656-0.604l-4.947-4.552c-0.816-0.775-1.658-1.497-2.506-2.203
		l-1.265-1.072l-0.633-0.537l-0.761-0.537l-2.79-1.937c-0.955-0.601-1.929-1.169-2.893-1.754c-0.955-0.604-1.952-1.122-2.948-1.642
		c-1-0.511-1.977-1.078-2.996-1.542c-8.094-3.88-16.553-6.82-25.116-9.14c-2.304-0.646-4.497-1.202-6.626-1.711
		c0.7-1.199,1.044-2.18,0.698-2.618c0.659-0.634,1.099-1.333,1.462-2.103c0,0,0.572-0.823,1.43-2.058
		c0.418-0.625,0.954-1.322,1.441-2.128c0.482-0.81,0.996-1.674,1.511-2.538c0.541-0.848,0.97-1.763,1.391-2.609
		c0.411-0.851,0.831-1.628,1.128-2.324c0.562-1.41,0.936-2.349,0.936-2.349c0.471-0.801,0.822-1.648,1.196-2.513
		c0.365-0.867,0.802-1.736,1.092-2.704c1.724-4.734,2.007-10.521,0.454-15.844c-0.711-2.672-1.791-5.233-3.088-7.596
		c-1.289-2.427-2.837-4.571-3.922-6.605c-1.057-1.765-1.691-3.197-2.465-4.37c-0.377-0.596-0.776-1.143-1.207-1.705
		c-0.415-0.574-0.877-1.152-1.417-1.784c-0.142-0.176-0.298-0.37-0.45-0.56l-0.986-2.174c-1.283-3.449-2.553-6.859-3.828-10.283
		c-0.027-0.219-0.045-0.427-0.104-0.665c-0.404-1.9-1.441-3.982-2.13-5.852c-0.618-1.78-1.261-3.523-1.786-5.363
		c-0.289-0.922-0.507-1.796-0.854-2.757c-0.198-0.503-0.36-1.034-0.602-1.508l-0.78-1.384c-0.688-1-1.337-1.863-2.047-2.592
		c-2.194-2.557-4.856-4.386-7.571-5.453c-2.164-1.229-4.076-2.504-6.731-3.722c-0.008,0.108-0.028,0.202-0.046,0.302l-0.183-0.077
		c-2.72-2.637-6.461-5.03-9.839-6.8c-6.787-3.57-14.154-5.868-21.584-7.32c-1.087-0.195-2.116-0.38-3.108-0.558
		c-0.995-0.151-1.953-0.296-2.894-0.438c-6.191-0.932-12.25-1.332-17.85-1.165c-4.239-0.104-8.228-0.242-12.911-0.295l0,0h-0.012
		c-0.644-0.007-1.298-0.013-1.971-0.017c0.006,0.006,0.007,0.011,0.013,0.017h-0.385c0.006-0.006,0.007-0.011,0.012-0.017
		c-0.672,0.004-1.327,0.01-1.971,0.017h-0.018l0,0c-4.682,0.054-8.669,0.191-12.906,0.295c-5.6-0.167-11.658,0.233-17.85,1.165
		c-0.94,0.142-1.898,0.287-2.894,0.438c-0.992,0.178-2.021,0.363-3.108,0.558c-7.43,1.453-14.797,3.75-21.584,7.32
		c-3.378,1.771-7.119,4.163-9.84,6.801l-0.182,0.076c-0.018-0.1-0.038-0.193-0.046-0.302c-2.655,1.218-4.567,2.493-6.731,3.722
		c-2.715,1.066-5.377,2.896-7.571,5.453c-0.71,0.729-1.358,1.592-2.047,2.592l-0.78,1.384c-0.241,0.475-0.403,1.005-0.602,1.508
		c-0.347,0.96-0.564,1.834-0.854,2.757c-0.525,1.84-1.168,3.583-1.786,5.363c-0.688,1.87-1.726,3.952-2.13,5.852
		c-0.059,0.238-0.076,0.446-0.104,0.665c-1.275,3.423-2.545,6.834-3.828,10.283l-0.986,2.174c-0.152,0.189-0.309,0.383-0.45,0.56
		c-0.54,0.632-1.002,1.21-1.417,1.784c-0.431,0.562-0.83,1.109-1.207,1.705c-0.773,1.173-1.408,2.605-2.465,4.37
		c-1.085,2.035-2.633,4.178-3.922,6.605c-1.297,2.363-2.377,4.924-3.088,7.596c-1.553,5.322-1.27,11.109,0.454,15.844
		c0.29,0.968,0.727,1.837,1.092,2.704c0.374,0.864,0.726,1.711,1.196,2.513c0,0,0.373,0.939,0.936,2.349
		c0.297,0.696,0.717,1.473,1.128,2.324c0.421,0.846,0.85,1.761,1.391,2.609c0.515,0.864,1.028,1.728,1.511,2.538
		c0.487,0.806,1.023,1.502,1.441,2.128c0.857,1.235,1.43,2.058,1.43,2.058c0.363,0.77,0.803,1.469,1.462,2.103
		c-0.346,0.438-0.002,1.419,0.698,2.618c-2.129,0.51-4.322,1.066-6.626,1.711c-8.563,2.32-17.022,5.26-25.116,9.14
		c-1.02,0.464-1.996,1.032-2.996,1.542c-0.996,0.521-1.993,1.038-2.948,1.642c-0.964,0.585-1.938,1.153-2.893,1.754l-2.79,1.937
		l-0.761,0.537l-0.633,0.537l-1.265,1.072c-0.848,0.707-1.689,1.428-2.506,2.203l-4.947,4.552l-0.656,0.604l-0.083,0.076
		l-0.011,0.01l-0.166,0.197l-0.004,0.006l-0.015,0.023l-0.031,0.046l-0.124,0.184c-0.121,0.21-0.263,0.539-0.355,0.823l-0.137,0.134
		c-0.012-0.128-0.033-0.24-0.014-0.403c-7.68,7.785-13.156,14.634-19.044,21.959c-3.579,4.113-7.046,8.602-10.405,13.358
		c-3.374,4.746-6.594,9.792-9.667,15.033c-1.913,3.154-3.796,6.49-5.849,10.249c-3.521,6.445-6.662,13.118-9.555,19.897
		c-2.916,6.772-5.406,13.732-7.606,20.771c-0.548,1.871-1.214,3.787-1.741,5.779c-0.535,1.99-1.079,4.013-1.621,6.027
		c-0.916,4.07-1.828,8.111-2.251,11.856c-0.126,0.941-0.199,1.724-0.286,2.56c-0.982,7.054-1.722,14.146-1.744,21.276
		c-0.117,3.57,0.01,7.119,0.064,10.656c0.089,3.546,0.092,7.09,0.264,10.66l0.271,9.275c-0.029,0.918-0.059,1.858-0.086,2.713
		c-0.117,6.236-0.219,11.257,0.125,16.798c0.156,2.771,0.283,5.678,0.641,8.928c0.329,3.25,0.66,6.856,1.281,11.016
		c1.287,9.485,3.041,19.19,5.52,28.823c1.229,4.81,2.645,9.604,3.992,14.329c0.654,2.364,1.293,4.725,1.816,7.081
		c0.306,1.177,0.475,2.361,0.709,3.541l0.165,0.885l0.194,0.995l0.373,1.82l0.375,1.818c0.153,0.618,0.344,1.251,0.515,1.875
		c0.364,1.238,0.679,2.531,1.091,3.721c0.812,2.389,1.614,4.779,2.561,7.085c1.797,4.663,3.86,9.148,5.947,13.568
		c4.247,8.797,8.838,17.186,13.458,25.177c3.684,6.41,7.155,12.251,10.396,18.294c0,0,0.427,0.866,1.173,2.383
		c0.403,0.729,0.893,1.614,1.454,2.629c0.561,1.016,1.358,2.119,2.141,3.345c3.239,4.819,7.807,10.905,12.564,16.88
		c4.737,5.979,9.573,11.873,13.232,16.265c2.569,3.065,4.535,5.412,5.486,6.547c-0.044,1.106-0.069,2.396-0.076,3.847
		c0.005,4.418,0.119,10.203,0.637,16.478c0.096,0.816,0.162,1.587,0.288,2.454l0.286,1.429l0.019,0.089l0.005,0.022
		c0.016,0.052-0.029-0.083,0.037,0.12l0.012,0.035l0.145,0.416c0.078,0.208,0.094,0.318,0.23,0.617
		c0.219,0.529,0.475,1.039,0.791,1.51c0.324,0.48,0.729,0.973,1.258,1.396c0.514,0.431,1.145,0.755,1.766,0.972
		c0.305,0.094,0.612,0.167,0.91,0.227c0.279,0.035,0.58,0.082,0.841,0.094c1.067,0.056,1.919-0.05,2.678-0.112l1.065-0.083
		c0.311-0.011,0.639-0.021,1.043-0.021c1.527-0.012,3.026-0.023,4.482-0.034c2.535-0.023,4.924-0.054,7.108-0.088
		c0.548,0.619,1.097,1.236,1.644,1.848l1.395,1.559l1.696-1.177c1.315-0.912,2.603-1.812,3.856-2.692
		c14.963-0.036,45.417-0.314,55.055,0.213c4.918-0.313,10.841-0.462,15.042-0.774l18.379,0.031
		c4.763,0.395,8.378,0.926,13.474,1.276l0.015,0.299l2.352-0.106c0.171-0.008,0.332-0.017,0.499-0.024
		c0.168,0.008,0.329,0.017,0.5,0.024l2.351,0.106l0.015-0.299c5.097-0.351,8.712-0.882,13.474-1.276l18.379-0.031
		c4.201,0.312,10.124,0.461,15.042,0.774c9.638-0.527,40.092-0.249,55.055-0.213c1.254,0.88,2.541,1.78,3.856,2.692l1.696,1.177
		l1.395-1.559c0.547-0.611,1.096-1.229,1.644-1.848c2.185,0.034,4.573,0.064,7.108,0.088c1.456,0.011,2.955,0.022,4.482,0.034
		c0.404-0.001,0.732,0.01,1.043,0.021l1.065,0.083c0.759,0.062,1.61,0.168,2.678,0.112c0.261-0.012,0.562-0.059,0.841-0.094
		c0.298-0.06,0.605-0.133,0.91-0.227c0.621-0.217,1.252-0.541,1.766-0.972c0.529-0.424,0.934-0.916,1.258-1.396
		c0.316-0.471,0.572-0.98,0.791-1.51c0.137-0.299,0.152-0.409,0.23-0.617l0.145-0.416l0.012-0.035
		c0.066-0.203,0.021-0.068,0.037-0.12l0.005-0.022l0.019-0.089l0.286-1.429c0.126-0.867,0.192-1.638,0.288-2.454
		c0.518-6.274,0.632-12.06,0.637-16.478c-0.007-1.451-0.032-2.74-0.076-3.847c0.951-1.135,2.917-3.481,5.486-6.547
		c3.659-4.392,8.495-10.285,13.232-16.265c4.758-5.975,9.325-12.061,12.564-16.88c0.782-1.226,1.58-2.329,2.141-3.345
		c0.562-1.015,1.051-1.9,1.454-2.629c0.746-1.517,1.173-2.383,1.173-2.383c3.24-6.043,6.712-11.884,10.396-18.294
		c4.62-7.991,9.211-16.38,13.458-25.177c2.087-4.42,4.15-8.905,5.947-13.568c0.946-2.306,1.748-4.696,2.561-7.085
		c0.412-1.189,0.727-2.482,1.091-3.721c0.171-0.624,0.361-1.257,0.515-1.875l0.375-1.818l0.373-1.82l0.194-0.995l0.165-0.885
		c0.234-1.18,0.403-2.364,0.709-3.541c0.523-2.356,1.162-4.717,1.816-7.081c1.348-4.726,2.764-9.52,3.992-14.329
		c2.479-9.633,4.232-19.338,5.52-28.823c0.621-4.159,0.952-7.766,1.281-11.016c0.357-3.25,0.484-6.156,0.641-8.928
		c0.344-5.541,0.242-10.562,0.125-16.798c-0.027-0.854-0.057-1.795-0.086-2.713l0.271-9.275c0.172-3.57,0.175-7.114,0.264-10.66
		C522.643,316.357,522.77,312.809,522.652,309.238z M505.929,244.577c0,0,0.257,0.613,0.642,1.532
		c0.375,0.924,0.832,2.172,1.31,3.413c0.473,1.242,0.944,2.484,1.3,3.416c0.325,0.942,0.542,1.57,0.542,1.57
		s-0.229-0.645-0.573-1.612c-0.372-0.957-0.869-2.233-1.365-3.509c-0.506-1.273-0.975-2.559-1.384-3.501
		c-0.404-0.944-0.674-1.574-0.674-1.574L505.929,244.577z M431.267,146.974c0,0,0.703,0.371,1.759,0.927
		c1.019,0.613,2.378,1.43,3.736,2.247c1.275,0.889,2.549,1.778,3.504,2.444c0.924,0.784,1.539,1.307,1.539,1.307
		s-0.637-0.534-1.594-1.336c-0.992-0.676-2.314-1.577-3.636-2.479c-1.409-0.826-2.802-1.677-3.872-2.274
		c-1.09-0.564-1.817-0.941-1.817-0.941L431.267,146.974z M386.738,46.888c0,0,0.194,0.663,0.427,1.329
		c0.224,0.665,0.448,1.33,0.448,1.33s-0.251-0.679-0.502-1.358c-0.261-0.68-0.479-1.357-0.479-1.357L386.738,46.888z
		 M377.441,35.647c1.591,1.035,3.145,2.083,4.562,3.27c0.588,0.964,1.744,2.63,2.322,4.162c0.111,0.384,0.238,0.75,0.378,1.091
		c0.165,0.54,0.295,0.92,0.448,1.324c0.296,0.773,0.6,1.355,0.889,1.598c-0.035,0.54,0.226,1.645,0.195,2.14
		c0.587-0.496,1.091,0.229,1.296,1.901c0.053,0.027,0.192-0.266,0.28-0.078c0.627,1.619,1.084,3.267,1.499,4.812
		c0.136,0.084,0.202-0.062,0.328-0.022c0.335,0.753,0.655,1.508,1.019,2.247l0.055,0.141c0.318,1.426,0.76,2.879,1.271,4.342
		c0.529,1.456,1.162,2.91,1.793,4.362c0.16,0.584,0.34,1.214,0.646,1.91c0.497,1.111,1.098,2.123,1.687,3.137
		c0.196,0.436,0.395,0.875,0.588,1.302c0.547,1.203,1.147,2.379,1.711,3.559c0.29,0.587,0.558,1.179,0.863,1.758
		c0.325,0.574,0.65,1.146,0.975,1.715c1.294,2.356,2.617,4.331,3.59,6.433c0.223,0.452,0.437,0.887,0.646,1.312
		c0.188,0.432,0.382,0.849,0.577,1.258c0.471,1.766,0.947,3.257,2.037,5.007c0.164,0.512,0.281,1.029,0.42,1.58
		c0.015,0.058,0.027,0.108,0.041,0.165c-0.3,0.643-0.507,2.019-0.527,3.433c-0.147,1.421-0.08,2.905-0.025,3.815
		c-0.128,0.292-0.257,0.588-0.392,0.897c0.159,0.368,0.293,0.748,0.355,1.133c0.048,0.384,0.062,0.779,0.054,1.187
		c-0.038,0.813-0.066,1.701-0.297,2.651l-0.184,0.609c-0.345,0.673-0.66,1.314-1.034,1.966c-0.394,0.647-0.771,1.326-1.108,2.122
		c-0.129,0.308-0.246,0.612-0.354,0.914c-0.134,0.292-0.256,0.583-0.371,0.875c-0.402,0.419-0.776,0.91-1.116,1.444
		c-0.338,0.535-0.633,1.115-0.964,1.677c-0.622,1.139-1.075,2.338-1.287,3.349c-0.323,0.24-0.649,0.482-0.971,0.754
		c-0.238,0.763-0.608,1.593-0.905,2.381l-0.29,0.372c-0.259,0.048-0.565,0.257-0.782,0.15c-1.797,2.037-1.979,2.825-2.906,4.375
		c-0.475,0.612-0.947,1.271-1.416,1.961c-0.643,0.695-1.443,1.309-2.049,2.048c-0.843,1.024-1.767,2.768-2.438,3.811
		c-0.313,0.483-0.648,0.95-0.995,1.413l-1.707,2.057c-2.436,2.723-5.266,5.237-7.717,8.546c-0.687,0.925-1.402,1.89-2.119,2.857
		c0,0-3.117,3.501-6.305,6.935c-3.18,3.442-6.453,6.792-6.452,6.793c-1.096,1.094-2.196,2.192-3.272,3.267
		c-3.143,3.052-6.047,5.42-9.439,7.963c-2.798,2.098-5.076,4.495-7.461,6.872c-2.379,2.37-4.868,4.752-8.037,6.571l-1.498,0.078
		c0.002,0.042,0.013,0.25,0.029,0.582c-0.64,0.257-1.267,0.508-1.941,0.935c-0.855,0.58-1.395,1.296-2.082,1.933
		c0,0-0.291,0.155-0.802,0.425c-0.522,0.229-1.258,0.604-2.158,0.971c-0.944,0.353-2.046,0.764-3.228,1.205
		c-0.598,0.222-1.216,0.451-1.844,0.684c-0.635,0.286-1.279,0.576-1.925,0.867c-2.593,1.141-4.964,2.603-6.728,3.759
		c-0.865,0.599-1.557,1.14-2.054,1.5c-0.499,0.358-0.761,0.592-0.761,0.592c-1.047,0.771-2.12,1.527-3.119,2.397
		c-0.432,0.358-0.852,0.713-1.264,1.069c0.84-1.023,1.74-2.125,2.684-3.006c0.602-0.845,1.522-2.163,2.793-3.623
		c1.277-1.453,2.748-3.159,4.338-4.847c1.611-1.667,3.267-3.38,4.788-4.954c1.562-1.547,2.985-2.958,4.089-4.05
		c0.199-0.098,0.051,0.148,0.277,0.021c1.07-0.99,2.627-2.451,4.424-4.219c1.793-1.753,3.711-3.797,5.458-5.784
		c3.483-3.983,6.262-7.743,6.092-8.447c1.196-1.331,2.2-2.655,3.101-4.006c0,0,0.301-0.388,0.826-1.067
		c0.531-0.675,1.27-1.654,2.147-2.836c1.776-2.348,4.063-5.539,6.288-8.772c2.229-3.23,4.361-6.527,5.938-9.013
		c1.545-2.506,2.576-4.177,2.576-4.177c0.967-1.495,1.926-2.977,2.902-4.485c0.947-1.53,1.91-3.086,2.915-4.709
		c2.45-4.087,4.808-8.423,6.967-12.96c2.134-4.549,4.128-9.27,5.851-14.119c1.703-4.855,3.172-9.817,4.341-14.807
		c1.142-4.998,1.934-10.029,2.36-14.985c0.077-1.089,0.149-2.104,0.217-3.058c0.006-0.959,0.012-1.857,0.018-2.709
		c0.045-1.703-0.115-3.223-0.236-4.667c-0.086-1.44-0.388-2.829-0.652-4.239c-0.232-1.438-0.696-2.786-1.156-4.327
		c-0.143-0.431-0.236-0.859-0.424-1.36c0,0-1.293-4.64-1.387-4.612c-1.092-3.547-2.701-6.911-4.59-10.086
		c-0.504-0.775-0.941-1.596-1.502-2.333l-0.788-1.074C376.667,35.165,377.033,35.393,377.441,35.647z M236.798,133.485l-0.635-1.132
		c-0.923-1.765-1.76-3.352-2.442-4.873c-0.695-1.514-1.291-2.933-1.697-4.373c-0.365-0.575-0.715-1.127-1.062-1.673
		c-0.372-0.868-0.882-2.025-1.467-3.301c-0.603-1.268-1.267-2.662-1.911-4.017c-1.322-2.696-2.562-5.245-3.291-6.248
		c-0.043-0.112-0.082-0.21-0.125-0.325c-0.434-1.084-0.76-2.129-1.127-3.175c-0.25-0.983-0.526-1.914-0.783-2.823
		c-0.246-0.914-0.506-1.796-0.781-2.665c-0.576-1.729-1.09-3.435-1.717-5.203c-0.527-1.804-0.945-3.693-1.5-5.694
		c-1.131-4.688-2.004-9.507-2.449-14.436c-0.461-4.91-0.422-10.003,0.309-14.953c0.005-0.063,0.017-0.129,0.023-0.193
		c4.561-4.159,9.088-7.567,13.566-10.62c4.584-3.102,9.188-5.801,14.114-8.263c11.624-5.257,24.673-9.768,38.679-12.003
		c4.25-0.641,8.697-1.066,13.682-1.286c17.113-0.633,34.403,2.4,50.306,8.932c4.2,1.722,8.606,3.862,12.854,6.198
		c4.254,2.328,8.332,4.871,12.009,7.238c0.932,0.593,1.702,1.084,2.527,1.61c3.468,2.525,6.86,5.239,9.972,8.147
		c0.009,0.08,0.023,0.161,0.029,0.24c0.73,4.95,0.77,10.043,0.309,14.953c-0.445,4.928-1.318,9.747-2.449,14.436
		c-0.555,2.001-0.973,3.89-1.5,5.694c-0.627,1.768-1.141,3.474-1.717,5.203c-0.275,0.868-0.535,1.751-0.781,2.665
		c-0.257,0.91-0.533,1.84-0.783,2.823c-0.367,1.046-0.693,2.091-1.127,3.175c-0.043,0.114-0.082,0.213-0.125,0.325
		c-0.729,1.002-1.969,3.551-3.291,6.248c-0.645,1.355-1.309,2.749-1.911,4.017c-0.585,1.276-1.095,2.433-1.467,3.301
		c-0.347,0.546-0.696,1.098-1.062,1.673c-0.406,1.44-1.002,2.859-1.697,4.373c-0.683,1.521-1.52,3.108-2.442,4.873l-0.635,1.132
		c-1.141,1.74-2.258,3.361-3.459,5.174c-2.516,0.643-4.982,1.273-7.339,1.875c-2.897,0.724-5.612,1.5-8.084,2.056
		c-2.48,0.527-4.684,0.996-6.499,1.381c-12.147,1.996-24.407,3.274-36.762,3.408c-2.753,0.091-5.306-0.021-7.665-0.015
		c-1.18-0.009-2.312-0.018-3.397-0.026c-1.083-0.052-2.12-0.102-3.112-0.15c-1.982-0.087-3.784-0.166-5.412-0.238
		c-1.629-0.089-3.079-0.229-4.372-0.307c-5.175-0.296-7.744-0.505-8.39-0.139c0,0-0.457-0.059-1.258-0.163
		c-0.797-0.118-1.948-0.217-3.309-0.466c-1.363-0.227-2.955-0.492-4.659-0.776c-1.705-0.279-3.501-0.69-5.31-1.042
		c-3.607-0.749-7.171-1.667-9.824-2.406c-1.067-0.312-1.969-0.591-2.678-0.814C239.902,138.063,238.373,135.887,236.798,133.485z
		 M325.158,25.751c0,0,0.808,0.177,2.018,0.443c1.217,0.243,2.811,0.68,4.412,1.084c1.604,0.395,3.177,0.91,4.369,1.243
		c0.596,0.168,1.086,0.329,1.429,0.444c0.343,0.113,0.539,0.177,0.539,0.177s-0.19-0.062-0.524-0.169
		c-0.333-0.108-0.81-0.264-1.389-0.423c-1.159-0.318-2.689-0.8-4.246-1.184c-3.1-0.82-6.244-1.451-6.244-1.452L325.158,25.751z
		 M264.478,148.441c3.796,0.458,7.507,1.005,11.241,1.266c1.864,0.151,3.724,0.349,5.596,0.469c1.874,0.096,3.756,0.192,5.652,0.29
		c1.098,0.079,2.201,0.188,3.312,0.236c1.11,0.034,2.228,0.068,3.349,0.102c2.243,0.051,4.509,0.15,6.793,0.143
		c2.282-0.057,4.584-0.115,6.903-0.173c1.159-0.042,2.325-0.046,3.491-0.123c1.165-0.091,2.334-0.182,3.507-0.273
		c2.347-0.19,4.708-0.382,7.084-0.576c2.362-0.312,4.739-0.626,7.129-0.942c4.794-0.542,9.562-1.563,14.387-2.467
		c2.945-0.474,5.882-1.258,8.954-1.978c1.613-0.386,3.275-0.784,4.964-1.188c-0.306,0.494-0.607,0.982-0.905,1.463
		c-2.814,3.55-6.309,8.928-8.268,12.343c-0.513,0.57-1.031,1.147-1.583,1.762c-0.809,1.337-1.776,2.867-2.676,4.239
		c-0.198,0.246-0.399,0.496-0.596,0.74c-0.339,0.236-0.827,0.72-1.028,0.723c-3.401,4.096-4.191,5.371-6.383,8.186
		c-0.996,1.168-2.035,2.387-3.105,3.641c-1.277,1.362-2.715,2.667-4.02,4.029c-1.819,1.863-4.379,4.779-6.033,6.579
		c-0.772,0.837-1.557,1.663-2.353,2.487c0.001,0-0.939,0.937-1.853,1.911c-0.918,0.965-1.837,1.93-1.837,1.93
		c-2.566,2.578-5.097,5.273-7.661,8.104c-2.411,2.842-4.919,5.803-6.869,9.409c-0.012,1.186-0.549,2.276-1.637,2.81
		c-0.148-0.104-0.293-0.213-0.405-0.359v0.12c-0.043-0.106-0.086-0.213-0.129-0.32c-0.069-0.123-0.124-0.259-0.163-0.406
		l-0.006-0.015c-0.285-0.524-0.568-1.045-0.848-1.56c-1.971-3.732-4.549-6.766-7.021-9.68c-2.564-2.831-5.095-5.525-7.661-8.104
		c0,0-0.919-0.965-1.837-1.93c-0.913-0.974-1.854-1.911-1.853-1.911c-0.796-0.825-1.58-1.65-2.353-2.487
		c-1.654-1.799-4.214-4.716-6.033-6.579c-1.305-1.362-2.742-2.667-4.02-4.029c-1.07-1.254-2.109-2.473-3.105-3.641
		c-2.191-2.815-2.981-4.09-6.383-8.186c-0.201-0.003-0.689-0.487-1.028-0.723c-0.196-0.244-0.397-0.494-0.596-0.74
		c-0.899-1.372-1.867-2.902-2.676-4.239c-0.552-0.615-1.07-1.191-1.583-1.762c-1.959-3.415-5.453-8.793-8.268-12.343
		c-0.1-0.161-0.203-0.327-0.303-0.489C251.043,146.24,257.859,147.467,264.478,148.441z M350.713,19.143
		c0,0,0.325,0.099,0.798,0.288c0.476,0.182,1.109,0.425,1.743,0.668c0.639,0.231,1.258,0.507,1.723,0.715
		c0.465,0.205,0.775,0.341,0.775,0.341s-0.32-0.138-0.803-0.344c-0.479-0.211-1.122-0.483-1.783-0.715
		c-0.654-0.244-1.31-0.487-1.801-0.67c-0.49-0.188-0.828-0.281-0.828-0.281L350.713,19.143z M245.023,20.813
		c0.465-0.208,1.084-0.483,1.723-0.715c0.634-0.243,1.268-0.486,1.743-0.668c0.473-0.189,0.798-0.288,0.798-0.288l0.176,0.001
		c0,0-0.338,0.094-0.828,0.281c-0.491,0.183-1.146,0.426-1.801,0.67c-0.661,0.232-1.305,0.504-1.783,0.715
		c-0.482,0.206-0.803,0.344-0.803,0.344S244.559,21.018,245.023,20.813z M233.354,27.742c0.168-0.039,0.036,0.154,0.27,0.061
		c2.335-1.958,5.127-3.798,8.115-5.238c0.359-0.164,0.027,0.172,0.113,0.159c1.344-0.835,2.45-1.306,3.145-1.536
		c0.697-0.228,0.998-0.186,0.832,0.148c0.75-0.464,2.738-1.294,3.637-1.742c1.258-0.137,4.832-1.31,8.786-2.26
		c3.942-0.984,8.235-1.791,10.557-2.24c3.894-0.399,7.8-0.636,11.735-0.816c7.025-0.277,9.947-0.289,10.318-0.874
		c0,0,2.359-0.016,4.717-0.031c1.182,0.001,2.352,0.002,3.232,0.002v0.175c0.287,0.011,0.559,0.03,0.817,0.058v0.103
		c0.354,0.002,0.71,0.011,1.063,0.028c0.166-0.011,0.332,0.005,0.498,0.005v-0.369c0.881,0,2.051-0.001,3.232-0.002
		c2.357,0.016,4.717,0.031,4.717,0.031c0.371,0.584,3.293,0.596,10.318,0.874c3.936,0.18,7.842,0.417,11.735,0.816
		c2.321,0.449,6.614,1.256,10.557,2.24c3.954,0.95,7.528,2.124,8.786,2.26c0.898,0.448,2.887,1.277,3.637,1.742
		c-0.166-0.333,0.135-0.376,0.832-0.148c0.694,0.23,1.801,0.701,3.145,1.536c0.086,0.013-0.246-0.323,0.113-0.159
		c2.988,1.44,5.78,3.279,8.115,5.238c0.233,0.093,0.102-0.099,0.27-0.061c0.659,0.446,1.258,0.962,1.869,1.466
		c0.318,0.27,0.646,0.531,0.966,0.799l-0.132,0.325c0.001,0,0.398,0.166,0.949,0.411c0.005,0.005,0.011,0.009,0.016,0.014
		l0.207,0.207c0.471,0.515,0.947,1.036,1.428,1.562c0.447,0.554,0.899,1.112,1.354,1.676l0.687,0.845l0.637,0.895
		c0.422,0.601,0.867,1.189,1.283,1.803c0.76,1.277,1.634,2.5,2.298,3.86c0.349,0.669,0.728,1.325,1.058,2.007l0.933,2.08
		c0.455,1.057,0.774,2.275,1.278,3.637c0.426,1.083,0.675,2.204,1.037,3.277l0.256,0.809l0.057,0.176
		c-2.421-1.998-4.867-3.793-7.335-5.483l-0.565-0.405c-3.021-2.248-6.142-4.354-9.36-6.333c-0.267-0.281,0.246-0.106-0.201-0.487
		c-6.35-3.634-13.554-6.925-20.898-9.805c-0.878-0.34,0.204-0.192,0.035-0.296c-7.188-2.279-10.89-3.388-9.384-3.738
		c-2.063-0.456-7.117-1.569-9.491-1.847c-2.79-1-11.724-2.768-21.506-2.875c-4.821-0.142-9.876,0.196-14.344,0.657
		c-2.237,0.263-4.343,0.529-6.22,0.876c-1.885,0.292-3.541,0.653-4.902,0.954c-9.135,1.453-18.09,3.987-26.719,7.457
		c-7.689,3.132-12.85,5.965-16.18,7.988c-1.664,1.018-2.869,1.843-3.674,2.491c-0.812,0.636-1.225,1.094-1.297,1.394
		c0,0-4.672,2.917-9.058,6.256c-1.679,1.263-3.317,2.574-4.696,3.729l0.084-0.348l0.115-0.361l0.256-0.809
		c0.362-1.073,0.611-2.194,1.037-3.277c0.504-1.362,0.823-2.58,1.278-3.637l0.933-2.08c0.33-0.682,0.709-1.338,1.058-2.007
		c0.664-1.36,1.538-2.583,2.298-3.86c0.416-0.614,0.861-1.202,1.283-1.803l0.637-0.895l0.687-0.845
		c0.455-0.564,0.907-1.123,1.354-1.676c0.48-0.526,0.957-1.047,1.428-1.562l0.207-0.207c0.005-0.005,0.01-0.009,0.016-0.014
		c0.551-0.245,0.948-0.41,0.949-0.411l-0.133-0.325c0.321-0.268,0.648-0.53,0.967-0.799
		C232.096,28.705,232.694,28.188,233.354,27.742z M212.835,48.217c0.232-0.666,0.427-1.329,0.427-1.329l0.105-0.056
		c0,0-0.218,0.677-0.479,1.357c-0.251,0.679-0.502,1.358-0.502,1.358S212.611,48.882,212.835,48.217z M201.57,125.276
		c-0.297-0.788-0.667-1.618-0.905-2.381c-0.321-0.272-0.647-0.515-0.971-0.754c-0.212-1.011-0.665-2.21-1.287-3.349
		c-0.331-0.562-0.626-1.142-0.964-1.677c-0.34-0.534-0.714-1.024-1.116-1.444c-0.115-0.291-0.237-0.582-0.371-0.875
		c-0.108-0.302-0.226-0.606-0.354-0.914c-0.337-0.796-0.715-1.475-1.108-2.122c-0.374-0.652-0.689-1.293-1.034-1.966l-0.184-0.609
		c-0.23-0.95-0.259-1.838-0.297-2.651c-0.009-0.408,0.006-0.803,0.054-1.187c0.062-0.385,0.196-0.765,0.355-1.133
		c-0.135-0.309-0.264-0.604-0.392-0.897c0.055-0.911,0.122-2.394-0.025-3.815c-0.021-1.414-0.228-2.79-0.527-3.433
		c0.014-0.057,0.026-0.106,0.041-0.165c0.139-0.551,0.256-1.067,0.42-1.58c1.09-1.75,1.566-3.242,2.037-5.007
		c0.195-0.409,0.389-0.827,0.577-1.258c0.209-0.425,0.423-0.861,0.646-1.312c0.973-2.102,2.296-4.076,3.59-6.433
		c0.324-0.57,0.649-1.142,0.975-1.715c0.306-0.58,0.573-1.171,0.863-1.758c0.563-1.18,1.164-2.356,1.711-3.559
		c0.193-0.427,0.392-0.866,0.588-1.302c0.589-1.014,1.189-2.026,1.687-3.137c0.306-0.696,0.485-1.326,0.646-1.91
		c0.631-1.452,1.264-2.906,1.793-4.362c0.512-1.462,0.953-2.916,1.271-4.342l0.055-0.141c0.363-0.739,0.684-1.493,1.019-2.247
		c0.126-0.04,0.192,0.106,0.328,0.022c0.415-1.545,0.872-3.193,1.499-4.812c0.088-0.188,0.228,0.105,0.28,0.078
		c0.205-1.671,0.709-2.397,1.296-1.901c-0.03-0.495,0.23-1.601,0.195-2.14c0.289-0.243,0.593-0.824,0.889-1.598
		c0.153-0.403,0.283-0.784,0.448-1.324c0.14-0.341,0.267-0.707,0.378-1.091c0.578-1.531,1.734-3.198,2.322-4.162
		c1.418-1.187,2.972-2.235,4.562-3.27c0.408-0.255,0.774-0.482,1.118-0.696l-0.788,1.074c-0.561,0.737-0.998,1.558-1.502,2.333
		c-1.889,3.175-3.498,6.539-4.59,10.086c-0.094-0.028-1.387,4.612-1.387,4.612c-0.188,0.501-0.281,0.93-0.424,1.36
		c-0.21,0.704-0.418,1.365-0.607,2.015c-0.117,0.107-0.229,0.209-0.33,0.302c-0.002,0.419-0.031,0.833-0.065,1.245
		c-0.056,0.254-0.112,0.507-0.153,0.765c-0.265,1.41-0.566,2.799-0.652,4.239c-0.121,1.444-0.281,2.964-0.236,4.667
		c0.006,0.852,0.012,1.75,0.018,2.709c0.067,0.954,0.14,1.969,0.217,3.058c0.427,4.956,1.219,9.987,2.36,14.985
		c1.169,4.99,2.638,9.952,4.341,14.807c1.723,4.849,3.717,9.57,5.851,14.119c2.159,4.538,4.517,8.874,6.967,12.96
		c1.005,1.623,1.968,3.179,2.915,4.709c0.977,1.508,1.936,2.991,2.902,4.485c0,0,0.33,0.533,0.881,1.427l-0.169-0.063
		c0.005,0.007,0.009,0.015,0.015,0.022c0.086,0.052,0.15,0.096,0.216,0.14c0.061,0.099,0.119,0.194,0.186,0.302l-0.049,0.135
		c0.287,0.466,0.551,0.945,0.791,1.438l0.286,0.094c0.049,0.079,0.1,0.162,0.148,0.243c-0.066,0.019-0.132,0.037-0.223,0.049
		c0.104,0.032,0.205,0.059,0.31,0.091c0.062,0.101,0.12,0.195,0.185,0.299c1.576,2.486,3.708,5.782,5.938,9.013
		c2.225,3.233,4.512,6.424,6.288,8.772c0.878,1.182,1.616,2.162,2.147,2.836c0.525,0.679,0.826,1.067,0.826,1.067
		c0.9,1.352,1.904,2.675,3.101,4.006c-0.17,0.704,2.608,4.463,6.092,8.447c1.747,1.987,3.665,4.03,5.458,5.784
		c1.797,1.768,3.354,3.229,4.424,4.219c0.227,0.128,0.078-0.119,0.277-0.021c1.104,1.093,2.527,2.503,4.089,4.05
		c1.521,1.574,3.177,3.287,4.788,4.954c1.59,1.688,3.061,3.395,4.338,4.847c1.271,1.459,2.191,2.777,2.793,3.623
		c0.944,0.882,1.845,1.983,2.685,3.006c-0.413-0.356-0.833-0.711-1.265-1.069c-0.999-0.87-2.072-1.627-3.119-2.397
		c0,0-0.262-0.234-0.761-0.592c-0.497-0.36-1.188-0.901-2.054-1.5c-1.764-1.156-4.135-2.618-6.728-3.759
		c-0.646-0.291-1.29-0.581-1.925-0.867c-0.628-0.233-1.246-0.462-1.844-0.684c-1.182-0.441-2.283-0.852-3.228-1.205
		c-0.9-0.367-1.636-0.742-2.158-0.971c-0.511-0.271-0.802-0.425-0.802-0.425c-0.298-0.276-0.568-0.567-0.85-0.855
		c0.117-0.371,0.188-0.591,0.195-0.617l-1.428-0.461c-1.175-0.743-2.199-0.946-3.41-1.595c-3.169-1.819-5.658-4.202-8.037-6.571
		c-2.385-2.377-4.663-4.774-7.461-6.872c-3.393-2.543-6.297-4.912-9.439-7.963c-1.076-1.074-2.177-2.173-3.272-3.267
		c0.001,0-3.272-3.351-6.452-6.793c-3.188-3.434-6.305-6.935-6.305-6.935c-0.717-0.967-1.433-1.932-2.119-2.857
		c-2.451-3.309-5.281-5.824-7.717-8.546l-1.707-2.057c-0.347-0.462-0.682-0.929-0.995-1.413c-0.672-1.042-1.596-2.787-2.438-3.811
		c-0.605-0.739-1.406-1.354-2.049-2.048c-0.469-0.69-0.941-1.349-1.416-1.961c-0.928-1.549-1.109-2.338-2.906-4.375
		c-0.217,0.107-0.523-0.102-0.782-0.15L201.57,125.276z M159.734,152.593c0.955-0.667,2.229-1.555,3.504-2.444
		c1.358-0.817,2.718-1.634,3.736-2.247c1.056-0.557,1.759-0.927,1.759-0.927l0.381-0.104c0,0-0.728,0.376-1.817,0.941
		c-1.07,0.597-2.463,1.449-3.872,2.274c-1.321,0.901-2.644,1.803-3.636,2.479c-0.957,0.802-1.594,1.336-1.594,1.336
		S158.811,153.377,159.734,152.593z M90.82,252.938c0.355-0.932,0.827-2.174,1.3-3.416c0.478-1.241,0.935-2.488,1.31-3.413
		c0.385-0.919,0.642-1.532,0.642-1.532l0.203-0.265c0,0-0.27,0.629-0.674,1.574c-0.409,0.942-0.878,2.228-1.384,3.501
		c-0.496,1.276-0.993,2.552-1.365,3.509c-0.344,0.967-0.573,1.612-0.573,1.612S90.495,253.879,90.82,252.938z M175.326,581.563
		l-0.841,0.004c-0.313,0.013-0.646,0.014-0.943,0.041c-0.622,0.04-1.183,0.109-1.724,0.163c-0.522,0.054-1,0.084-1.401,0.077
		c-0.387-0.02-0.662-0.083-0.886-0.181c-0.432-0.179-0.885-0.764-1.23-1.634l-0.149-0.392l-0.056-0.146l-0.031-0.148l-0.15-0.676
		c-0.117-0.42-0.16-1.029-0.24-1.532c-0.34-3.773-0.502-7.564-0.682-11.165c-0.039-1.785-0.061-3.35-0.074-4.828
		c0.97,1.164,1.985,2.332,3.08,3.506c-0.094,1.262,6.031,8.904,13.071,17.034C180.307,581.612,177.622,581.56,175.326,581.563z
		 M192.451,581.982c-1.204-0.039-2.468-0.082-3.766-0.125c-1.019-1.076-2.032-2.151-3.011-3.224c-2.087-2.452-4.116-4.836-6.06-7.12
		c-3.912-4.822-5.658-7.28-10.862-13.277c0.112-0.132,0.233-0.278,0.34-0.398c0.468-0.524,0.874-0.933,1.209-1.215
		c0.66-0.571,1.077-0.606,1.081-0.121c0.633-0.856,2.429-2.733,3.188-3.689c0.7-0.34,1.924-1.248,3.424-2.484
		c1.508-1.231,3.374-2.721,5.256-4.318c3.832-3.13,7.93-6.506,10.122-8.367c3.938-2.665,7.905-5.278,11.889-7.92
		c7.112-4.705,10.052-6.658,9.974-7.622c0,0,2.4-1.538,4.801-3.076c2.413-1.512,4.826-3.023,4.826-3.023l-0.414-0.674l0.199-0.112
		c3.298,5.592,5.48,9.294,5.48,9.294c2.267,4.045,4.528,8.083,6.695,11.952c2.152,3.836,4.305,7.537,6.385,11.041
		c-8.186,5.688-15.776,11.187-23.311,16.443l-8.523,5.836c-1.854,1.236-3.702,2.456-5.565,3.654
		C202.181,575.765,196.613,579.187,192.451,581.982z M169.395,556.87c0,0,1.073-1.216,2.293-2.322
		c0.594-0.565,1.188-1.132,1.632-1.556c0.444-0.425,0.745-0.703,0.745-0.703l0.208-0.068c0,0-0.325,0.272-0.783,0.708
		c-0.464,0.432-1.081,1.007-1.7,1.581C170.519,555.635,169.396,556.87,169.395,556.87z M270.548,582.048
		c-19.167-0.375-36.688,0.12-53.708,0.215l-12.473-0.021c-1.607-0.019-3.205-0.056-4.805-0.085c2.608-1.856,4.863-3.484,6.49-4.683
		c0.342-0.361-0.166-0.139,0.111-0.459c9.943-6.869,31.312-21.93,38.333-26.104c0.635-0.504,1.295-1.028,1.94-1.541l1.295-1.027
		l-0.803-1.187c-1.96-2.897-3.973-6.012-5.61-8.284l-7.732-13.111c-2.097-4.512-3.242-7.839-6.118-13.28
		c-0.77-0.703-1.825-2.039-3.043-3.762c-0.302-0.429-0.627-0.894-0.932-1.362c-0.274-0.463-0.56-0.942-0.854-1.437
		c-0.549-1.023-1.092-2.166-1.611-3.336c-0.451-1.251-0.914-2.536-1.377-3.822l-0.402-0.945c-0.159-0.325-0.361-0.665-0.542-0.995
		l-0.558-0.989l-0.557-0.874c-1.46-2.318-2.943-4.395-4.182-6.166c-2.236-3.171-5.742-8.121-9.191-12.805
		c-0.178-0.351-0.274-0.593-0.179-0.597c-2.913-4.14-5.817-7.848-8.826-11.906c0.13,0.111,0.29,0.261,0.585,0.573
		c-4.235-6.014-7.742-10.634-9.539-12.026l-2.426-3.644c-1.048-1.651-1.939-3.22-2.992-4.713c-0.51-0.752-1.012-1.492-1.513-2.231
		c-0.521-0.713-1.042-1.425-1.565-2.142c-2.108-2.86-4.43-5.69-7.389-8.898c-1.318-1.424-2.699-2.834-4.111-4.235
		c0.017-0.119,0.032-0.238,0.051-0.354c-0.039-1.604-0.078-3.145-0.115-4.667c0.379-4.441,0.72-11.946,0.872-19.049
		c0.088-4.657,0.091-9.136-0.013-12.479c0.377-8.376,0.764-15.931,1.143-23.29c0.647-12.583,1.259-24.469,1.796-39.776
		c0.991-28.234-3.95-136.531-4.001-137.622l-2.996,0.138c0.05,1.089,4.985,109.265,3.999,137.378
		c-0.536,15.284-1.147,27.157-1.794,39.728c-0.305,5.931-0.615,11.991-0.922,18.499c-0.111,0.03-0.219,0.067-0.33,0.096
		c-0.084,0.089-0.159,0.186-0.246,0.272c-0.201,0.201-0.421,0.382-0.632,0.572c-0.013,0.374-0.026,0.745-0.038,1.119l-0.264,0.271
		c-2.164,2.311-4.201,4.678-6.181,7.098c-3.415,4.172-6.685,8.466-9.874,12.94c-1.417-1.438-3.825-4.582-5.027-6.097
		c-0.574-1.162-1.889-3.432-3.584-6.335c-0.827-1.468-1.791-3.065-2.734-4.812c-0.484-0.866-0.98-1.757-1.486-2.663
		c-0.492-0.917-0.992-1.85-1.496-2.791c-4.059-7.517-8.014-15.796-10.196-20.244c-3.106-7.604-6.008-15.28-8.858-23.028
		c-5.035-13.845-6.926-19.644-8.006-20.116c0,0-1.568-4.668-3.061-9.361c-1.502-4.689-2.9-9.4-2.9-9.4l-0.76,0.223l-0.106-0.396
		c0.007,0.189-0.02,0.277-0.022,0.434l-1.36,0.399l0.373,1.251c-0.12-0.055-0.229-0.092-0.367-0.193
		c3.443,11.146,6.651,19.969,9.953,29.479c3.431,11.159,7.942,22.938,13.302,34.809c1.58,3.623,3.315,7.345,5.303,11.485
		c3.443,7.084,7.204,14.057,11.495,20.747c1.048,1.687,2.225,3.301,3.345,4.945c1.212,1.59,2.354,3.225,3.674,4.743
		c1.135,1.437,2.412,2.77,3.679,4.11c0.007-0.015,0.015-0.028,0.021-0.043c0.252,0.214,0.504,0.427,0.758,0.643
		c6.191,5.297,11.845,10.498,17.287,15.983c5.398,5.533,10.698,11.244,15.412,18.175c3.223,4.879,6.73,9.861,10.276,14.676
		c0,0,2.692,3.645,6.731,9.112c4.037,5.456,9.549,12.657,14.689,20.034c0.617,0.931,1.279,1.849,1.856,2.785l0.882,1.396l0.74,1.304
		c0.264,0.388,0.445,0.969,0.661,1.462l0.078,0.191c0.038,0.116-0.041-0.131-0.03-0.096l0.025,0.076l0.033,0.101l0.133,0.405
		l0.267,0.807c0.378,1.062,0.651,2.152,1.104,3.148c0.45,1.001,0.829,1.997,1.318,2.95c0.49,0.961,0.976,1.892,1.475,2.701
		c0.987,1.675,1.922,3.259,2.783,4.721c0.091,0.152,0.177,0.299,0.266,0.448c-0.107,0.013-0.173-0.003-0.268,0.002l-0.742-1.208
		l-0.642,0.396c-0.009-0.111-0.024-0.212-0.012-0.341c-5.708,3.627-10.138,6.773-15.032,9.944
		c-5.906,3.315-11.93,7.444-17.947,11.99c-1.831,1.378-3.76,2.765-5.859,4.4c-1.802,1.399-3.62,2.781-5.377,4.255l-2.653,2.185
		l-2.593,2.274c-0.871,0.749-1.729,1.518-2.553,2.331l-2.506,2.398l-1.871,2.012c-0.402-0.162-1.25-0.97-1.833-1.398
		c-0.401-0.461-0.812-0.934-1.215-1.398c-1.89-2.581-4.017-5.39-5.769-7.883c-1.102-1.17-2.156-2.251-3.199-3.318
		c-4.318-6.328-12.001-16.218-17.631-22.908c-0.682-1.019-1.453-2.051-2.109-3.088c-0.678-1.031-1.368-2.082-2.075-3.158
		c-0.46-0.702-0.854-1.48-1.273-2.185c-0.208-0.358-0.412-0.712-0.614-1.062l-0.152-0.261l-0.038-0.065l-0.009-0.013
		c0.004,0.008,0.019,0.036,0.031,0.062l-0.01-0.021l-0.07-0.135l-0.279-0.539c-0.737-1.431-1.463-2.788-2.211-4.081
		c-1.469-2.61-2.945-5.045-4.447-7.602l-1.193-2.237c-3.506-6.939-6.352-12.486-8.25-17.955c-0.693-1.131-1.358-2.217-2.016-3.29
		c-1.453-3.383-4.209-8.921-6.703-14.191c-1.262-2.629-2.486-5.184-3.523-7.343c-0.994-2.17-1.903-3.917-2.504-4.935
		c-0.07-0.22-0.135-0.415-0.207-0.639c-0.346-1.073-0.681-2.111-1.012-3.138c-0.348-1.026-0.551-2.035-0.836-3.05
		c-0.167-0.954-0.416-1.816-0.527-2.779c-0.143-0.943-0.283-1.871-0.422-2.787c-0.141-0.905-0.278-1.798-0.416-2.683
		c-0.157-0.915-0.273-1.838-0.483-2.724c-0.761-3.577-1.788-6.985-2.951-10.479c-1.005-3.559-2.058-7.188-3.116-11.095
		c-2.461-9.078-4.304-18.452-5.635-28.066c-0.725-4.798-1.18-9.675-1.719-14.574c-0.199-2.459-0.398-4.928-0.599-7.404
		c-0.097-1.239-0.193-2.48-0.29-3.724c-0.07-1.246-0.14-2.495-0.209-3.746c-0.093-1.778-0.188-3.606-0.283-5.422
		c-0.133-4.437-0.047-8.873-0.215-13.482c-0.104-2.889-0.195-5.372-0.278-7.659c-0.02-3.025-0.039-6.051-0.059-9.061
		c-0.027-2.977,0.112-5.938,0.138-8.867c0.145-2.927,0.339-5.822,0.505-8.672c0.306-2.837,0.503-5.645,0.815-8.377l0.096-0.568
		c0.594-3.062,1.102-6.133,1.869-9.166c0.167-0.279,0.185,0.171,0.382-0.274c1.053-5.93,2.688-12.269,4.694-18.469
		c0.272-0.729,0.203,0.173,0.294,0.034c0.84-2.99,1.576-5.227,2.14-6.547c0.604-1.308,1.02-1.705,1.155-1.062
		c0.456-1.665,1.79-5.689,2.431-7.544c1.313-2.073,4.188-8.897,7.746-16.021c3.486-7.156,7.577-14.63,9.78-18.676
		c4.121-6.424,8.507-12.659,13.088-18.798c4.091-5.475,7.154-9.209,9.091-11.778c1.966-2.543,2.824-3.912,2.75-4.46
		c0,0,2.962-3.487,6.071-6.836c1.554-1.674,3.126-3.331,4.331-4.543c0.217-0.221,0.402-0.407,0.59-0.594
		c0.475-0.319,0.967-0.602,1.483-0.825c0.06-0.026,0.113-0.049,0.172-0.074c0.079-0.059,0.163-0.12,0.242-0.18
		c0.021-0.133,0.048-0.263,0.065-0.354c0.074,0.094,0.088,0.11,0-0.002c0.003-0.013,0.008-0.035,0.01-0.046
		c-0.001,0.01-0.02,0.015-0.027,0.023c-0.014-0.019-0.016-0.021-0.035-0.045l0.004-0.004l0.008-0.008l0.034-0.031l0.067-0.062
		l0.135-0.124l0.27-0.248l0.539-0.495l2.168-1.973c0.699-0.615,0.078,0.267,0.248,0.166c1.312-1.321,2.459-2.479,3.495-3.416
		c1.063-0.921,1.956-1.651,2.657-2.175c0.088-0.065,0.172-0.127,0.254-0.187l0.119-0.086l0.059-0.041l0.015-0.01
		c-0.032,0.025-0.088,0.07-0.076,0.062l0.007-0.004l0.029-0.016c0.16-0.083,0.303-0.159,0.431-0.227
		c0.26-0.127,0.466-0.208,0.616-0.24c0.301-0.064,0.377,0.065,0.213,0.396c1.504-1.348,5.674-4.125,7.706-5.291
		c0.692-0.232,1.671-0.707,2.948-1.238c1.289-0.511,2.798-1.223,4.547-1.922c3.486-1.418,7.785-3.067,12.334-4.561
		c5.206-1.744,10.709-3.296,15.48-4.553c1.451,1.837,3.066,3.597,3.999,4.451c0.162,0.031,0.151-0.144,0.304-0.129
		c2.02,2.42,6.676,7.395,7.68,9.331c0.935,0.596,1.893,1.456,2.73,1.926l2.616,2.972c0.489,1.288,0.565,2.426,1.428,3.809
		c1.604-0.044,4.243,2.832,5.759,4.477c0.676,0.744,1.662,1.98,2.682,3.102c0.02,0.12,0.017,0.214-0.051,0.258
		c0.805,1.055,1.734,1.868,2.674,2.795c-0.059-0.004-0.127-0.017-0.242-0.06c1.215,1.499,2.475,2.402,3.365,2.313l0.801,0.811
		c1.205,1.663,1.92,3.098,3.531,4.686c1.684,1.676,3.879,3.091,5.751,4.649c1.082,0.909,1.858,1.451,2.61,1.933
		c0,0,0.543,0.481,1.357,1.202c0.832,0.704,1.92,1.664,3.043,2.586c2.227,1.866,4.541,3.634,4.541,3.634
		c2.209,2.12,4.448,3.743,7.028,5.286c-2.927,9.698-12.133,41.932-16.021,75.808c-2.949,25.702,2.578,52.848,7.021,74.661
		c2.548,12.512,4.747,23.317,4.452,30.111l2.996,0.131c0.312-7.162-1.922-18.135-4.509-30.841
		c-4.399-21.605-9.874-48.493-6.979-73.721c3.781-32.945,12.629-64.327,15.717-74.633c0.249,0.134,0.49,0.268,0.746,0.403
		c0.504,0.285,1.086,0.555,1.686,0.842c0.3,0.143,0.605,0.288,0.913,0.434l0.969,0.368c0.325,0.114,0.649,0.228,0.968,0.34
		c0.293,0.089,0.582,0.176,0.861,0.261c0.592,0.166,1.158,0.292,1.678,0.356c0.031,0.003,0.051,0.005,0.082,0.008
		c0,0,0.123,0.045,0.354,0.131c0.224,0.092,0.586,0.194,0.98,0.388c0.803,0.389,1.982,0.847,3.341,1.564
		c2.755,1.367,6.233,3.606,9.217,6.41c3.614,3.271,6.247,7.288,7.892,10.046c0.022,0.143,0.045,0.287,0.068,0.43l0.007,0.042v0.271
		c-0.082,0.137-0.159,0.266-0.23,0.381c-0.274,0.408-0.457,0.68-0.457,0.68l0.688,0.535v45.967c-0.008,0.141-0.014,0.228-0.021,0.37
		c-0.477,9.483-0.293,23.868-0.293,34.351c-0.006,21.205-0.199,38.264,0.314,58.11v31.515c-0.193,10.301-0.325,20.59-0.228,31.137
		c-0.032,1.805-0.061,3.775-0.083,6.019c-0.109,11.26-0.584,23.118-0.555,34.09c0.029,10.45,0.531,17.467,0.865,26.873v5.282
		c-0.701,2.62-0.947,9.674-0.785,18.57c0.053-0.517,0.094-0.777,0.131-0.979c-0.029,6.113-0.129,11.804,0.01,17.912
		c0.078-0.065,0.146,0.239,0.213,0.706c0.064,7.021,0.131,14.331,0.174,18.993c0.022,9.982,0.007,27.167-1.089,32.72l-10.034-0.017
		C281.487,582.268,275.9,582.155,270.548,582.048z M162.872,391.583c-0.354,10.271-0.702,20.441-0.938,30.418
		c-4.024-3.759-8.222-7.428-12.298-10.977c-0.312-0.271-0.611-0.527-0.883-0.759c2.141-3.069,3.632-5.209,5.051-7.244
		c0,0,0.418-0.554,1.147-1.523c0.741-0.959,1.802-2.33,3.073-3.975c1.312-1.604,2.778-3.545,4.473-5.497
		C162.623,391.884,162.748,391.729,162.872,391.583z M146.038,408.001c-0.005,0.007-0.009,0.013-0.014,0.019
		c-0.519-0.615-1.085-1.296-1.608-2.03c-1.733-2.234-3.303-4.604-3.303-4.604l-0.123-0.331c0,0,0.408,0.605,1.021,1.514
		c0.593,0.926,1.474,2.084,2.337,3.259C144.9,406.612,145.496,407.344,146.038,408.001z M411.314,581.857
		c-1.298,0.043-2.562,0.086-3.766,0.125c-4.162-2.796-9.729-6.218-13.356-8.547c-1.863-1.198-3.712-2.418-5.565-3.654l-8.523-5.836
		c-7.534-5.257-15.125-10.755-23.311-16.443c2.08-3.504,4.232-7.205,6.385-11.041c2.167-3.869,4.429-7.907,6.695-11.952
		c0,0,2.183-3.702,5.48-9.294l0.199,0.112l-0.414,0.674c0,0,2.413,1.512,4.826,3.023c2.4,1.538,4.801,3.076,4.801,3.076
		c-0.078,0.964,2.861,2.917,9.974,7.622c3.983,2.642,7.95,5.255,11.889,7.92c2.192,1.861,6.29,5.237,10.122,8.367
		c1.882,1.598,3.748,3.087,5.256,4.318c1.5,1.236,2.724,2.145,3.424,2.484c0.759,0.956,2.555,2.833,3.188,3.689
		c0.004-0.485,0.421-0.45,1.081,0.121c0.335,0.282,0.741,0.69,1.209,1.215c0.106,0.12,0.228,0.267,0.34,0.398
		c-5.205,5.997-6.95,8.455-10.862,13.277c-1.943,2.284-3.973,4.668-6.06,7.12C413.347,579.706,412.333,580.781,411.314,581.857z
		 M425.728,552.221l0.208,0.068c0,0,0.301,0.278,0.745,0.703c0.444,0.424,1.038,0.99,1.632,1.556
		c1.22,1.106,2.293,2.322,2.293,2.322c-0.001,0-1.124-1.235-2.395-2.36c-0.619-0.574-1.236-1.149-1.7-1.581
		C426.053,552.493,425.728,552.221,425.728,552.221z M433.008,565.975c-0.18,3.601-0.342,7.392-0.682,11.165
		c-0.08,0.503-0.123,1.112-0.24,1.532l-0.15,0.676l-0.031,0.148l-0.056,0.146l-0.149,0.392c-0.346,0.87-0.799,1.455-1.23,1.634
		c-0.224,0.098-0.499,0.161-0.886,0.181c-0.401,0.007-0.879-0.023-1.401-0.077c-0.541-0.054-1.102-0.123-1.724-0.163
		c-0.298-0.027-0.63-0.028-0.943-0.041l-0.841-0.004c-2.296-0.004-4.98,0.049-7.743,0.123c7.04-8.13,13.165-15.772,13.071-17.034
		c1.095-1.174,2.11-2.342,3.08-3.506C433.068,562.625,433.047,564.189,433.008,565.975z M519.702,323.395
		c-0.083,2.287-0.174,4.771-0.278,7.659c-0.168,4.609-0.082,9.046-0.215,13.482c-0.096,1.815-0.19,3.644-0.283,5.422
		c-0.069,1.251-0.139,2.5-0.209,3.746c-0.097,1.243-0.193,2.484-0.29,3.724c-0.2,2.477-0.399,4.945-0.599,7.404
		c-0.539,4.899-0.994,9.776-1.719,14.574c-1.331,9.614-3.174,18.988-5.635,28.066c-1.059,3.907-2.111,7.536-3.116,11.095
		c-1.163,3.494-2.19,6.902-2.951,10.479c-0.21,0.886-0.326,1.809-0.483,2.724c-0.138,0.885-0.275,1.777-0.416,2.683
		c-0.139,0.916-0.279,1.844-0.422,2.787c-0.111,0.963-0.36,1.825-0.527,2.779c-0.285,1.015-0.488,2.023-0.836,3.05
		c-0.331,1.026-0.666,2.064-1.012,3.138c-0.072,0.224-0.137,0.419-0.207,0.639c-0.601,1.018-1.51,2.765-2.504,4.935
		c-1.037,2.159-2.262,4.714-3.523,7.343c-2.494,5.271-5.25,10.809-6.703,14.191c-0.657,1.073-1.322,2.159-2.016,3.29
		c-1.898,5.469-4.744,11.016-8.25,17.955l-1.193,2.237c-1.502,2.557-2.979,4.991-4.447,7.602c-0.748,1.293-1.474,2.65-2.211,4.081
		l-0.279,0.539l-0.059,0.112l0.01-0.02l-0.009,0.013l-0.038,0.065l-0.152,0.261c-0.202,0.351-0.406,0.704-0.614,1.062
		c-0.42,0.704-0.813,1.482-1.273,2.185c-0.707,1.076-1.397,2.127-2.075,3.158c-0.656,1.037-1.428,2.069-2.109,3.088
		c-5.63,6.69-13.312,16.58-17.631,22.908c-1.043,1.067-2.098,2.148-3.199,3.318c-1.752,2.493-3.879,5.302-5.769,7.883
		c-0.403,0.465-0.813,0.938-1.215,1.398c-0.583,0.429-1.432,1.236-1.834,1.398l-1.87-2.012l-2.506-2.398
		c-0.824-0.813-1.682-1.582-2.553-2.331l-2.593-2.274l-2.653-2.185c-1.757-1.474-3.575-2.855-5.377-4.255
		c-2.1-1.636-4.028-3.022-5.859-4.4c-6.018-4.546-12.041-8.675-17.947-11.99c-4.895-3.171-9.324-6.317-15.032-9.944
		c0.013,0.129-0.003,0.229-0.012,0.341l-0.642-0.396l-0.742,1.208c-0.095-0.005-0.159,0.011-0.267-0.002
		c0.089-0.149,0.175-0.296,0.265-0.448c0.861-1.462,1.796-3.046,2.783-4.721c0.499-0.81,0.984-1.74,1.475-2.701
		c0.489-0.953,0.868-1.949,1.318-2.95c0.453-0.996,0.727-2.087,1.104-3.148l0.267-0.807l0.133-0.405l0.033-0.101l0.019-0.055
		c-0.017,0.052-0.051,0.159-0.023,0.074l0.078-0.191c0.216-0.493,0.397-1.074,0.661-1.462l0.74-1.304l0.882-1.396
		c0.577-0.937,1.239-1.854,1.856-2.785c5.141-7.377,10.652-14.578,14.689-20.034c4.039-5.468,6.731-9.112,6.731-9.112
		c3.546-4.814,7.054-9.797,10.276-14.676c4.714-6.931,10.014-12.642,15.412-18.175c5.442-5.485,11.096-10.687,17.287-15.983
		c0.254-0.216,0.506-0.429,0.758-0.643c0.006,0.015,0.014,0.028,0.021,0.043c1.267-1.341,2.544-2.674,3.679-4.11
		c1.319-1.519,2.462-3.153,3.674-4.743c1.12-1.645,2.297-3.259,3.345-4.945c4.291-6.69,8.052-13.663,11.495-20.747
		c1.987-4.141,3.723-7.862,5.303-11.485c5.359-11.87,9.871-23.649,13.302-34.809c3.302-9.511,6.51-18.333,9.953-29.479
		c-0.138,0.102-0.247,0.139-0.367,0.193l0.373-1.251l-1.36-0.399c-0.003-0.156-0.029-0.244-0.022-0.434l-0.106,0.396l-0.76-0.223
		c0,0-1.398,4.711-2.9,9.4c-1.492,4.693-3.061,9.361-3.061,9.361c-1.08,0.473-2.971,6.271-8.006,20.116
		c-2.851,7.748-5.752,15.425-8.858,23.028c-2.183,4.448-6.138,12.728-10.196,20.244c-0.504,0.941-1.004,1.874-1.496,2.791
		c-0.506,0.906-1.002,1.797-1.486,2.663c-0.943,1.747-1.907,3.345-2.734,4.812c-1.695,2.903-3.01,5.173-3.584,6.335
		c-1.202,1.515-3.61,4.658-5.027,6.097c-3.189-4.475-6.459-8.769-9.874-12.94c-1.979-2.42-4.017-4.787-6.181-7.098l-0.264-0.271
		c-0.012-0.374-0.025-0.745-0.038-1.119c-0.211-0.19-0.431-0.371-0.632-0.572c-0.087-0.087-0.162-0.184-0.246-0.272
		c-0.11-0.028-0.219-0.065-0.329-0.096c-0.307-6.508-0.618-12.568-0.923-18.499c-0.646-12.57-1.258-24.443-1.794-39.728
		c-0.986-28.114,3.949-136.289,3.999-137.378l-2.996-0.138c-0.051,1.091-4.992,109.387-4.001,137.622
		c0.537,15.308,1.148,27.193,1.796,39.776c0.379,7.36,0.766,14.916,1.143,23.293c-0.104,3.342-0.101,7.819-0.013,12.476
		c0.152,7.103,0.493,14.607,0.872,19.049c-0.037,1.522-0.076,3.062-0.115,4.667c0.019,0.116,0.034,0.235,0.051,0.354
		c-1.412,1.401-2.793,2.812-4.111,4.235c-2.959,3.208-5.28,6.038-7.389,8.898c-0.523,0.717-1.044,1.429-1.565,2.142
		c-0.501,0.739-1.003,1.479-1.513,2.231c-1.053,1.493-1.944,3.062-2.992,4.713l-2.426,3.644c-1.797,1.393-5.304,6.013-9.539,12.026
		c0.295-0.312,0.455-0.462,0.585-0.573c-3.009,4.059-5.913,7.767-8.826,11.906c0.096,0.004-0.001,0.246-0.179,0.597
		c-3.449,4.684-6.955,9.634-9.191,12.805c-1.238,1.771-2.722,3.848-4.182,6.166l-0.557,0.874l-0.558,0.989
		c-0.181,0.33-0.383,0.67-0.542,0.995l-0.402,0.945c-0.463,1.286-0.926,2.571-1.377,3.822c-0.52,1.17-1.062,2.312-1.611,3.336
		c-0.294,0.494-0.579,0.974-0.854,1.437c-0.305,0.469-0.63,0.934-0.932,1.362c-1.218,1.723-2.273,3.059-3.043,3.762
		c-2.876,5.441-4.021,8.769-6.118,13.28l-7.732,13.111c-1.638,2.272-3.65,5.387-5.61,8.284l-0.803,1.187l1.295,1.027
		c0.646,0.513,1.306,1.037,1.94,1.541c7.021,4.175,28.39,19.235,38.333,26.104c0.277,0.32-0.23,0.098,0.111,0.459
		c1.627,1.198,3.882,2.826,6.49,4.683c-1.6,0.029-3.197,0.066-4.805,0.085l-12.473,0.021c-17.021-0.095-34.541-0.59-53.708-0.215
		c-5.353,0.107-10.939,0.22-16.537,0.333l-10.033,0.017c-1.096-5.553-1.111-22.737-1.089-32.72
		c0.042-4.662,0.108-11.972,0.173-18.993c0.067-0.467,0.135-0.771,0.214-0.706c0.138-6.108,0.038-11.799,0.009-17.912
		c0.038,0.201,0.079,0.462,0.132,0.979c0.161-8.896-0.085-15.95-0.785-18.57v-5.282c0.334-9.406,0.835-16.423,0.864-26.873
		c0.029-10.972-0.445-22.83-0.554-34.09c-0.023-2.248-0.052-4.224-0.083-6.031c0.097-10.53-0.035-20.804-0.228-31.087V359.56
		c0.513-19.847,0.319-36.905,0.313-58.11c0-10.482,0.185-24.868-0.293-34.351c-0.008-0.142-0.013-0.229-0.021-0.37v-45.967
		l0.688-0.535c0,0-0.184-0.271-0.457-0.68c-0.071-0.116-0.148-0.244-0.23-0.381v-0.275l0.006-0.039
		c0.023-0.144,0.046-0.288,0.069-0.431c1.644-2.758,4.275-6.774,7.891-10.046c2.983-2.804,6.462-5.042,9.217-6.41
		c1.358-0.718,2.538-1.176,3.341-1.564c0.395-0.194,0.757-0.296,0.98-0.388c0.23-0.085,0.354-0.131,0.354-0.131
		c0.031-0.003,0.051-0.005,0.082-0.008c0.52-0.065,1.086-0.191,1.678-0.356c0.279-0.085,0.568-0.172,0.861-0.261
		c0.318-0.112,0.643-0.226,0.968-0.34l0.969-0.368c0.308-0.146,0.613-0.291,0.913-0.434c0.6-0.287,1.182-0.557,1.686-0.842
		c1.136-0.601,2.193-1.188,3.203-1.786c1.002,20.447,5.182,110.395,2.264,131.809l2.973,0.406
		c3.086-22.654-1.479-117.271-2.323-134.087c1.509-1.055,2.929-2.199,4.335-3.548c0,0,2.314-1.768,4.541-3.634
		c1.123-0.922,2.211-1.882,3.043-2.586c0.814-0.721,1.357-1.202,1.357-1.202c0.752-0.482,1.528-1.024,2.61-1.933
		c1.872-1.558,4.067-2.973,5.751-4.649c1.611-1.588,2.326-3.023,3.531-4.686l0.801-0.811c0.891,0.089,2.15-0.815,3.365-2.313
		c-0.115,0.043-0.184,0.056-0.242,0.06c0.939-0.928,1.869-1.741,2.674-2.795c-0.067-0.044-0.07-0.138-0.051-0.258
		c1.02-1.122,2.006-2.358,2.682-3.102c1.516-1.645,4.155-4.521,5.759-4.477c0.862-1.383,0.938-2.521,1.428-3.809l2.616-2.972
		c0.838-0.47,1.796-1.33,2.73-1.926c1.004-1.937,5.66-6.911,7.68-9.331c0.152-0.014,0.142,0.161,0.304,0.129
		c0.933-0.854,2.548-2.613,3.999-4.451c4.771,1.257,10.274,2.81,15.48,4.553c4.549,1.494,8.848,3.143,12.334,4.561
		c1.749,0.699,3.258,1.411,4.547,1.922c1.277,0.532,2.256,1.006,2.948,1.238c2.032,1.166,6.202,3.943,7.706,5.291
		c-0.164-0.331-0.088-0.46,0.213-0.396c0.15,0.032,0.356,0.113,0.616,0.24c0.128,0.067,0.271,0.143,0.431,0.227l0.029,0.016
		l0.007,0.004c0.012,0.009-0.044-0.036-0.076-0.062l0.073,0.051l0.119,0.086c0.082,0.06,0.166,0.122,0.254,0.187
		c0.701,0.524,1.594,1.254,2.657,2.175c1.036,0.936,2.183,2.094,3.495,3.416c0.17,0.101-0.451-0.781,0.248-0.166l2.168,1.973
		l0.539,0.495l0.472,0.434l0.034,0.031l0.012,0.012c-0.02,0.025-0.021,0.027-0.035,0.045c-0.008-0.009-0.026-0.013-0.027-0.023
		c0.002,0.011,0.007,0.033,0.01,0.046c-0.088,0.112-0.074,0.096,0,0.002c0.018,0.091,0.044,0.221,0.065,0.354
		c0.079,0.06,0.163,0.121,0.242,0.18c0.059,0.025,0.112,0.048,0.172,0.074c0.517,0.223,1.009,0.505,1.483,0.825
		c0.188,0.187,0.373,0.374,0.59,0.594c1.205,1.212,2.777,2.869,4.331,4.543c3.109,3.35,6.071,6.837,6.071,6.836
		c-0.074,0.548,0.784,1.917,2.75,4.46c1.937,2.568,5,6.303,9.091,11.778c4.581,6.139,8.967,12.374,13.088,18.798
		c2.203,4.046,6.294,11.521,9.78,18.676c3.559,7.124,6.433,13.948,7.746,16.021c0.641,1.855,1.975,5.879,2.431,7.544
		c0.136-0.643,0.551-0.245,1.155,1.062c0.563,1.32,1.3,3.557,2.14,6.547c0.091,0.14,0.021-0.762,0.294-0.034
		c2.007,6.2,3.642,12.539,4.694,18.469c0.197,0.445,0.215-0.005,0.382,0.274c0.768,3.033,1.275,6.104,1.869,9.166l0.096,0.568
		c0.312,2.732,0.51,5.54,0.815,8.377c0.166,2.851,0.36,5.746,0.505,8.672c0.025,2.93,0.165,5.891,0.138,8.867
		C519.741,317.344,519.722,320.369,519.702,323.395z M437.128,391.583c0.124,0.146,0.249,0.301,0.374,0.443
		c1.694,1.952,3.16,3.893,4.473,5.497c1.271,1.645,2.332,3.016,3.073,3.975c0.729,0.97,1.147,1.523,1.147,1.523
		c1.419,2.035,2.91,4.175,5.051,7.244c-0.271,0.231-0.57,0.487-0.883,0.759c-4.076,3.549-8.273,7.218-12.298,10.977
		C437.83,412.024,437.482,401.854,437.128,391.583z M453.962,408.001c0.542-0.657,1.138-1.389,1.69-2.175
		c0.863-1.175,1.744-2.333,2.337-3.259c0.612-0.908,1.021-1.514,1.021-1.514l-0.123,0.331c0,0-1.569,2.37-3.303,4.604
		c-0.523,0.734-1.09,1.415-1.608,2.03C453.971,408.014,453.967,408.008,453.962,408.001z M299.439,537.521
		c0.087,0.246,0.184,0.481,0.279,0.718c-1.673-0.052-3.224-0.119-4.57-0.207c-2.969-0.195-4.983-0.487-5.334-0.909
		c-2.828,0.15-5.453,0.068-8.016-0.088h-43.424c-0.438-0.953-0.996-1.877-1.668-2.741c-0.061-0.078-0.117-0.158-0.178-0.236
		c0.312-0.004,0.613-0.011,0.933-0.013c2.195-0.016,4.285,0.012,6.322,0.064c7.189-0.695,17.448-0.484,23.684,0.189
		c1.215-0.129,2.445-0.258,3.756-0.365c2.482,0.24,5.357,0.41,7.964,0.615c0.504-0.009,1.014-0.019,1.513-0.027
		c0.628-0.184,1.715-0.318,1.917-0.557c8.415-0.215,10.833,0.12,16.404,0.328C298.937,535.352,299.056,536.439,299.439,537.521z
		 M331.246,395.652c6.298-0.045,12.558-0.176,18.825-0.326c7.557,0.475,28.023,1.029,32.004,0.209
		c0.314,0.035,0.717,0.067,1.145,0.099c-0.023,0.317-0.047,0.611-0.074,0.842c0.714-0.935,0.938,1.714,0.83,6.874
		c0.047,0.131,0.241-0.607,0.292,0.034c0.359,5.387,0.638,10.787,1.093,15.77c0.144,0.382,0.214,0.009,0.347,0.25
		c0.36,2.562,0.757,5.108,1.21,7.647l0.068,0.472c0.975,9.05,3.047,18.856,6.268,28.323c0.271,0.907,0.556,1.854,0.857,2.86
		c0.356,0.989,0.734,2.037,1.141,3.164c0.65,1.804,1.479,3.503,2.225,5.208c0.691,1.396,1.391,2.773,2.116,4.135
		c0.667-0.705,1.412-1.364,2.207-1.973c-0.007-0.012-0.014-0.022-0.021-0.034c-0.344-0.596-0.724-1.252-1.094-1.892
		c0,0-0.2-0.422-0.5-1.056c-0.273-0.646-0.639-1.508-1.003-2.369c-0.754-1.712-1.394-3.473-1.394-3.473
		c-3.945-10.834-6.457-22.022-8.195-33.347c-0.046-0.676-0.08-1.309-0.159-2.067c-0.617-6.012-1.593-13.197-1.981-19.466
		c-0.248-4.001-0.4-8.05-0.361-12.008l0.016-1.465l-1.453-0.002c-7.918-0.013-15.824-0.025-23.703-0.037
		c-3.475-0.003-6.58-0.005-9.572-0.006c-9.859-0.127-19.402-0.127-28.251,0.383c-7.638,0.059-14.761-0.166-23.599-0.234
		c0.103,0.104,0.154,0.197,0.22,0.297h-1.497c0.066-0.1,0.118-0.193,0.221-0.297c-8.838,0.068-15.961,0.293-23.599,0.234
		c-8.849-0.51-18.392-0.51-28.251-0.383c-2.992,0.001-6.099,0.003-9.572,0.006c-7.879,0.012-15.786,0.024-23.704,0.037l-1.452,0.002
		l0.015,1.465c0.04,3.958-0.112,8.007-0.36,12.008c-0.39,6.269-1.364,13.454-1.981,19.466c-0.08,0.759-0.113,1.392-0.16,2.067
		c-1.737,11.324-4.249,22.513-8.194,33.347c0,0-0.64,1.761-1.394,3.473c-0.365,0.861-0.729,1.723-1.003,2.369
		c-0.3,0.634-0.5,1.056-0.5,1.056c-0.37,0.64-0.75,1.296-1.095,1.892c-0.098,0.175-0.205,0.332-0.307,0.501
		c0.727,0.753,1.355,1.66,1.837,2.747c0.077-0.145,0.153-0.289,0.23-0.433c0.887-1.619,1.715-3.271,2.542-4.943
		c0.747-1.705,1.575-3.404,2.225-5.208c0.407-1.127,0.785-2.175,1.142-3.164c0.302-1.007,0.585-1.953,0.856-2.86
		c3.222-9.467,5.294-19.273,6.268-28.323l0.069-0.472c0.453-2.539,0.85-5.085,1.21-7.647c0.133-0.241,0.203,0.132,0.346-0.25
		c0.456-4.982,0.734-10.383,1.094-15.77c0.051-0.642,0.245,0.097,0.291-0.034c-0.107-5.16,0.117-7.809,0.831-6.874
		c-0.027-0.23-0.051-0.524-0.074-0.842c0.428-0.031,0.829-0.063,1.145-0.099c3.98,0.82,24.447,0.266,32.003-0.209
		c6.269,0.15,12.528,0.281,18.826,0.326c11.235,0.078,15.884,0,16.485-0.844h29.521C315.362,395.652,320.011,395.73,331.246,395.652
		z M384.345,395.709c0.008,1.002,0.022,1.999,0.045,3.001c-0.032-1.002-0.058-2.001-0.075-3.003
		C384.325,395.707,384.335,395.708,384.345,395.709z M382.104,394.809h1.173c-0.002,0.025-0.003,0.051-0.005,0.075
		c-0.478,0.004-0.955,0.005-1.433,0.009L382.104,394.809z M215.609,398.71c0.023-1.002,0.038-1.999,0.045-3.001
		c0.011-0.001,0.021-0.002,0.031-0.002C215.668,396.709,215.643,397.708,215.609,398.71z M216.728,394.884
		c-0.002-0.024-0.003-0.05-0.005-0.075h1.173l0.265,0.084C217.683,394.889,217.205,394.888,216.728,394.884z M361.174,537.035
		h-42.973c-2.563,0.156-5.188,0.238-8.016,0.088c-0.351,0.422-2.366,0.714-5.335,0.909c-1.347,0.088-2.896,0.155-4.569,0.207
		c0.096-0.236,0.191-0.472,0.279-0.718c0.384-1.082,0.503-2.17,0.417-3.229c5.572-0.208,7.99-0.543,16.404-0.328
		c0.203,0.238,1.289,0.373,1.918,0.557c0.498,0.009,1.009,0.019,1.512,0.027c2.607-0.205,5.482-0.375,7.965-0.615
		c1.311,0.107,2.541,0.236,3.756,0.365c6.234-0.674,16.494-0.885,23.684-0.189c2.037-0.053,4.127-0.08,6.322-0.064
		c0.416,0.003,0.812,0.011,1.216,0.017c-0.284,0.359-0.554,0.728-0.794,1.117c-0.141,0.12-0.273,0.247-0.416,0.365
		C362.003,536.012,361.554,536.514,361.174,537.035z M215.241,394.875c-0.299-0.002-0.597-0.006-0.896-0.006
		c0.02-0.021,0.04-0.04,0.06-0.061h0.9C215.284,394.83,215.263,394.853,215.241,394.875z M215.693,394.877c-0.013,0-0.026,0-0.039,0
		v-0.068h0.04C215.693,394.831,215.693,394.854,215.693,394.877z M215.698,394.408c-0.016,0.016-0.029,0.029-0.044,0.045
		c-0.001-0.31,0.003-0.614-0.001-0.926c0.019-0.019,0.036-0.036,0.054-0.055C215.708,393.788,215.7,394.096,215.698,394.408z
		 M384.293,393.473c0.018,0.019,0.035,0.036,0.054,0.055c-0.004,0.312,0,0.616-0.001,0.926c-0.015-0.016-0.028-0.029-0.044-0.045
		C384.3,394.096,384.292,393.788,384.293,393.473z M384.306,394.809h0.04v0.068c-0.013,0-0.026,0-0.039,0
		C384.306,394.854,384.306,394.831,384.306,394.809z M384.759,394.875c-0.021-0.022-0.043-0.045-0.064-0.066h0.9
		c0.02,0.021,0.039,0.04,0.059,0.061C385.355,394.869,385.058,394.873,384.759,394.875z"/>
</g>
</svg>
